G75*
G70*
%OFA0B0*%
%FSLAX24Y24*%
%IPPOS*%
%LPD*%
%AMOC8*
5,1,8,0,0,1.08239X$1,22.5*
%
%ADD10C,0.0000*%
%ADD11C,0.1084*%
%ADD12C,0.0720*%
%ADD13OC8,0.0930*%
%ADD14OC8,0.0720*%
%ADD15OC8,0.0640*%
%ADD16C,0.0860*%
%ADD17C,0.1852*%
%ADD18R,0.0474X0.0178*%
%ADD19C,0.0714*%
%ADD20C,0.0042*%
%ADD21R,0.0395X0.0631*%
%ADD22C,0.0660*%
%ADD23R,0.0394X0.0630*%
%ADD24R,0.0513X0.0474*%
%ADD25R,0.0474X0.0513*%
%ADD26R,0.1104X0.1025*%
%ADD27R,0.0356X0.0434*%
%ADD28R,0.0710X0.0789*%
%ADD29R,0.0789X0.0710*%
%ADD30R,0.0434X0.0356*%
%ADD31R,0.0395X0.0552*%
%ADD32OC8,0.0680*%
%ADD33R,0.0946X0.0316*%
%ADD34R,0.0789X0.0926*%
%ADD35R,0.0671X0.0592*%
%ADD36R,0.0600X0.0300*%
%ADD37R,0.1025X0.1104*%
%ADD38R,0.0680X0.0680*%
%ADD39C,0.0680*%
%ADD40R,0.0316X0.0946*%
%ADD41R,0.0340X0.0880*%
%ADD42C,0.0640*%
%ADD43OC8,0.1320*%
%ADD44C,0.1320*%
%ADD45C,0.0079*%
%ADD46R,0.1064X0.0749*%
%ADD47R,0.0592X0.1379*%
%ADD48R,0.1202X0.2678*%
%ADD49C,0.3623*%
%ADD50C,0.0940*%
%ADD51C,0.0674*%
D10*
X000120Y000226D02*
X000120Y033690D01*
X039097Y033690D01*
X039097Y000226D01*
X000120Y000226D01*
D11*
X001587Y008108D02*
X002591Y008108D01*
X002591Y009667D02*
X001587Y009667D01*
X001587Y012045D02*
X002591Y012045D01*
X002591Y013604D02*
X001587Y013604D01*
X006427Y031220D02*
X006427Y032224D01*
X007986Y032224D02*
X007986Y031220D01*
X010364Y031220D02*
X010364Y032224D01*
X011923Y032224D02*
X011923Y031220D01*
X020945Y031220D02*
X020945Y032224D01*
X022504Y032224D02*
X022504Y031220D01*
D12*
X022094Y028066D02*
X021454Y028066D01*
X021454Y026566D02*
X022094Y026566D01*
X022094Y025066D02*
X021454Y025066D01*
X021454Y023566D02*
X022094Y023566D01*
X017607Y026071D02*
X017607Y026711D01*
X016607Y026711D02*
X016607Y026071D01*
X015607Y026071D02*
X015607Y026711D01*
X008527Y021501D02*
X007887Y021501D01*
X007887Y020501D02*
X008527Y020501D01*
X008527Y019501D02*
X007887Y019501D01*
X006301Y011224D02*
X005661Y011224D01*
X005701Y008224D02*
X005061Y008224D01*
X020435Y007845D02*
X020435Y007205D01*
X021435Y007205D02*
X021435Y007845D01*
X022435Y007845D02*
X022435Y007205D01*
D13*
X011144Y006494D03*
X008388Y006494D03*
X008388Y010494D03*
X011144Y010494D03*
X010388Y026997D03*
X006388Y026997D03*
D14*
X008388Y013824D03*
X008388Y011824D03*
X011144Y011824D03*
X011144Y013824D03*
D15*
X010388Y028966D03*
X006388Y028966D03*
D16*
X013191Y016490D02*
X013971Y016490D01*
X016191Y016490D02*
X016971Y016490D01*
X016971Y010490D02*
X016191Y010490D01*
X016191Y008490D02*
X016971Y008490D01*
X016971Y006490D02*
X016191Y006490D01*
X016581Y004872D02*
X016581Y004092D01*
X016581Y001872D02*
X016581Y001092D01*
X013971Y006490D02*
X013191Y006490D01*
X013191Y008490D02*
X013971Y008490D01*
X013971Y010490D02*
X013191Y010490D01*
X010581Y004872D02*
X010581Y004092D01*
X008581Y004092D02*
X008581Y004872D01*
X006581Y004872D02*
X006581Y004092D01*
X006581Y001872D02*
X006581Y001092D01*
X008581Y001092D02*
X008581Y001872D01*
X010581Y001872D02*
X010581Y001092D01*
D17*
X019430Y005165D03*
X023430Y005165D03*
X005435Y016368D03*
X005435Y024635D03*
X014606Y028751D03*
X018606Y028751D03*
D18*
X026454Y003375D03*
X026454Y003179D03*
X026454Y002982D03*
X026454Y002785D03*
X026454Y002588D03*
X028118Y002588D03*
X028118Y002785D03*
X028118Y002982D03*
X028118Y003179D03*
X028118Y003375D03*
D19*
X037441Y007175D02*
X038075Y007175D01*
X038075Y008175D02*
X037441Y008175D01*
X037441Y009175D02*
X038075Y009175D01*
X038075Y010175D02*
X037441Y010175D01*
X037441Y011175D02*
X038075Y011175D01*
X038075Y012175D02*
X037441Y012175D01*
X037441Y013505D02*
X038075Y013505D01*
X038075Y014505D02*
X037441Y014505D01*
X037441Y016655D02*
X038075Y016655D01*
X038075Y017655D02*
X037441Y017655D01*
X037441Y020576D02*
X038075Y020576D01*
X038075Y021576D02*
X037441Y021576D01*
X037441Y022576D02*
X038075Y022576D01*
X038075Y023576D02*
X037441Y023576D01*
X037441Y025710D02*
X038075Y025710D01*
X038075Y026710D02*
X037441Y026710D01*
D20*
X022808Y021034D02*
X022808Y020508D01*
X022808Y021034D02*
X023062Y021034D01*
X023062Y020508D01*
X022808Y020508D01*
X022808Y020549D02*
X023062Y020549D01*
X023062Y020590D02*
X022808Y020590D01*
X022808Y020631D02*
X023062Y020631D01*
X023062Y020672D02*
X022808Y020672D01*
X022808Y020713D02*
X023062Y020713D01*
X023062Y020754D02*
X022808Y020754D01*
X022808Y020795D02*
X023062Y020795D01*
X023062Y020836D02*
X022808Y020836D01*
X022808Y020877D02*
X023062Y020877D01*
X023062Y020918D02*
X022808Y020918D01*
X022808Y020959D02*
X023062Y020959D01*
X023062Y021000D02*
X022808Y021000D01*
X022434Y021034D02*
X022434Y020508D01*
X022434Y021034D02*
X022688Y021034D01*
X022688Y020508D01*
X022434Y020508D01*
X022434Y020549D02*
X022688Y020549D01*
X022688Y020590D02*
X022434Y020590D01*
X022434Y020631D02*
X022688Y020631D01*
X022688Y020672D02*
X022434Y020672D01*
X022434Y020713D02*
X022688Y020713D01*
X022688Y020754D02*
X022434Y020754D01*
X022434Y020795D02*
X022688Y020795D01*
X022688Y020836D02*
X022434Y020836D01*
X022434Y020877D02*
X022688Y020877D01*
X022688Y020918D02*
X022434Y020918D01*
X022434Y020959D02*
X022688Y020959D01*
X022688Y021000D02*
X022434Y021000D01*
X022060Y021034D02*
X022060Y020508D01*
X022060Y021034D02*
X022314Y021034D01*
X022314Y020508D01*
X022060Y020508D01*
X022060Y020549D02*
X022314Y020549D01*
X022314Y020590D02*
X022060Y020590D01*
X022060Y020631D02*
X022314Y020631D01*
X022314Y020672D02*
X022060Y020672D01*
X022060Y020713D02*
X022314Y020713D01*
X022314Y020754D02*
X022060Y020754D01*
X022060Y020795D02*
X022314Y020795D01*
X022314Y020836D02*
X022060Y020836D01*
X022060Y020877D02*
X022314Y020877D01*
X022314Y020918D02*
X022060Y020918D01*
X022060Y020959D02*
X022314Y020959D01*
X022314Y021000D02*
X022060Y021000D01*
X022314Y020101D02*
X022314Y019575D01*
X022060Y019575D01*
X022060Y020101D01*
X022314Y020101D01*
X022314Y019616D02*
X022060Y019616D01*
X022060Y019657D02*
X022314Y019657D01*
X022314Y019698D02*
X022060Y019698D01*
X022060Y019739D02*
X022314Y019739D01*
X022314Y019780D02*
X022060Y019780D01*
X022060Y019821D02*
X022314Y019821D01*
X022314Y019862D02*
X022060Y019862D01*
X022060Y019903D02*
X022314Y019903D01*
X022314Y019944D02*
X022060Y019944D01*
X022060Y019985D02*
X022314Y019985D01*
X022314Y020026D02*
X022060Y020026D01*
X022060Y020067D02*
X022314Y020067D01*
X022688Y020101D02*
X022688Y019575D01*
X022434Y019575D01*
X022434Y020101D01*
X022688Y020101D01*
X022688Y019616D02*
X022434Y019616D01*
X022434Y019657D02*
X022688Y019657D01*
X022688Y019698D02*
X022434Y019698D01*
X022434Y019739D02*
X022688Y019739D01*
X022688Y019780D02*
X022434Y019780D01*
X022434Y019821D02*
X022688Y019821D01*
X022688Y019862D02*
X022434Y019862D01*
X022434Y019903D02*
X022688Y019903D01*
X022688Y019944D02*
X022434Y019944D01*
X022434Y019985D02*
X022688Y019985D01*
X022688Y020026D02*
X022434Y020026D01*
X022434Y020067D02*
X022688Y020067D01*
X023062Y020101D02*
X023062Y019575D01*
X022808Y019575D01*
X022808Y020101D01*
X023062Y020101D01*
X023062Y019616D02*
X022808Y019616D01*
X022808Y019657D02*
X023062Y019657D01*
X023062Y019698D02*
X022808Y019698D01*
X022808Y019739D02*
X023062Y019739D01*
X023062Y019780D02*
X022808Y019780D01*
X022808Y019821D02*
X023062Y019821D01*
X023062Y019862D02*
X022808Y019862D01*
X022808Y019903D02*
X023062Y019903D01*
X023062Y019944D02*
X022808Y019944D01*
X022808Y019985D02*
X023062Y019985D01*
X023062Y020026D02*
X022808Y020026D01*
X022808Y020067D02*
X023062Y020067D01*
D21*
X025514Y007699D03*
X026695Y007699D03*
X027877Y007699D03*
X029057Y007699D03*
D22*
X028577Y006977D02*
X028357Y006977D01*
X028577Y006977D02*
X028577Y006121D01*
X028357Y006121D01*
X028357Y006977D01*
X028357Y006780D02*
X028577Y006780D01*
X026215Y006977D02*
X025995Y006977D01*
X026215Y006977D02*
X026215Y006121D01*
X025995Y006121D01*
X025995Y006977D01*
X025995Y006780D02*
X026215Y006780D01*
D23*
X026105Y007698D03*
X028467Y007698D03*
D24*
X029451Y003316D03*
X029451Y002647D03*
X013851Y025236D03*
X013851Y025905D03*
D25*
X013841Y026604D03*
X013171Y026604D03*
D26*
X026813Y032017D03*
X029333Y032017D03*
D27*
X037857Y024635D03*
X038368Y024635D03*
X038368Y019419D03*
X037857Y019419D03*
X037384Y019419D03*
X036872Y019419D03*
X037857Y018828D03*
X038368Y018828D03*
X038368Y015580D03*
X037857Y015580D03*
X035268Y009675D03*
X034756Y009675D03*
X030770Y013218D03*
X030258Y013218D03*
X020455Y010068D03*
X019943Y010068D03*
X019077Y010068D03*
X018565Y010068D03*
X019943Y009084D03*
X020455Y009084D03*
D28*
X026734Y004950D03*
X027837Y004950D03*
X031853Y008887D03*
X032955Y008887D03*
D29*
X026892Y011682D03*
X026892Y012785D03*
D30*
X026941Y013749D03*
X026941Y014261D03*
X025711Y015226D03*
X025711Y015738D03*
X030238Y012293D03*
X030238Y011781D03*
X031715Y010275D03*
X031715Y009763D03*
X030042Y008356D03*
X030042Y007844D03*
X031616Y007568D03*
X031616Y007056D03*
X019756Y015226D03*
X019756Y015738D03*
X019756Y016358D03*
X019756Y016869D03*
X033290Y021328D03*
X033290Y021840D03*
D31*
X026853Y009478D03*
X025357Y009478D03*
D32*
X023168Y010068D03*
X021668Y010068D03*
X021668Y012037D03*
X023168Y012037D03*
D33*
X023585Y015224D03*
X023585Y015724D03*
X023585Y016224D03*
X023585Y016724D03*
X021538Y016724D03*
X021538Y016224D03*
X021538Y015724D03*
X021538Y015224D03*
D34*
X024136Y020058D03*
X024136Y021338D03*
X032994Y007558D03*
X032994Y006279D03*
D35*
X032994Y009832D03*
X032994Y010501D03*
D36*
X034266Y014029D03*
X034266Y014399D03*
X034266Y014769D03*
X035266Y014769D03*
X035266Y014399D03*
X035266Y014029D03*
X035266Y016785D03*
X035266Y017155D03*
X035266Y017525D03*
X034266Y017525D03*
X034266Y017155D03*
X034266Y016785D03*
D37*
X020593Y019045D03*
X020593Y021564D03*
D38*
X031616Y001358D03*
D39*
X031616Y002145D03*
X032404Y002145D03*
X033191Y002145D03*
X033191Y001358D03*
X032404Y001358D03*
D40*
X030754Y014950D03*
X030254Y014950D03*
X029754Y014950D03*
X029254Y014950D03*
X028754Y014950D03*
X028254Y014950D03*
X027754Y014950D03*
X027754Y016997D03*
X028254Y016997D03*
X028754Y016997D03*
X029254Y016997D03*
X029754Y016997D03*
X030254Y016997D03*
X030754Y016997D03*
D41*
X034016Y021063D03*
X034516Y021063D03*
X035016Y021063D03*
X035516Y021063D03*
X035516Y023483D03*
X035016Y023483D03*
X034516Y023483D03*
X034016Y023483D03*
D42*
X006829Y014236D02*
X006829Y013676D01*
X004829Y013676D02*
X004829Y014236D01*
D43*
X014171Y021682D03*
D44*
X017171Y021682D03*
D45*
X026907Y028786D02*
X027685Y028786D01*
X026907Y028786D02*
X026907Y029024D01*
X027685Y029024D01*
X027685Y028786D01*
X027685Y028864D02*
X026907Y028864D01*
X026907Y028942D02*
X027685Y028942D01*
X027685Y029020D02*
X026907Y029020D01*
X026907Y029286D02*
X027685Y029286D01*
X026907Y029286D02*
X026907Y029524D01*
X027685Y029524D01*
X027685Y029286D01*
X027685Y029364D02*
X026907Y029364D01*
X026907Y029442D02*
X027685Y029442D01*
X027685Y029520D02*
X026907Y029520D01*
X026907Y029786D02*
X027685Y029786D01*
X026907Y029786D02*
X026907Y030024D01*
X027685Y030024D01*
X027685Y029786D01*
X027685Y029864D02*
X026907Y029864D01*
X026907Y029942D02*
X027685Y029942D01*
X027685Y030020D02*
X026907Y030020D01*
X026907Y030286D02*
X027685Y030286D01*
X026907Y030286D02*
X026907Y030524D01*
X027685Y030524D01*
X027685Y030286D01*
X027685Y030364D02*
X026907Y030364D01*
X026907Y030442D02*
X027685Y030442D01*
X027685Y030520D02*
X026907Y030520D01*
X028855Y030286D02*
X029633Y030286D01*
X028855Y030286D02*
X028855Y030524D01*
X029633Y030524D01*
X029633Y030286D01*
X029633Y030364D02*
X028855Y030364D01*
X028855Y030442D02*
X029633Y030442D01*
X029633Y030520D02*
X028855Y030520D01*
X028855Y029786D02*
X029633Y029786D01*
X028855Y029786D02*
X028855Y030024D01*
X029633Y030024D01*
X029633Y029786D01*
X029633Y029864D02*
X028855Y029864D01*
X028855Y029942D02*
X029633Y029942D01*
X029633Y030020D02*
X028855Y030020D01*
X028855Y029286D02*
X029633Y029286D01*
X028855Y029286D02*
X028855Y029524D01*
X029633Y029524D01*
X029633Y029286D01*
X029633Y029364D02*
X028855Y029364D01*
X028855Y029442D02*
X029633Y029442D01*
X029633Y029520D02*
X028855Y029520D01*
X028855Y028786D02*
X029633Y028786D01*
X028855Y028786D02*
X028855Y029024D01*
X029633Y029024D01*
X029633Y028786D01*
X029633Y028864D02*
X028855Y028864D01*
X028855Y028942D02*
X029633Y028942D01*
X029633Y029020D02*
X028855Y029020D01*
D46*
X028319Y027785D03*
X029894Y027785D03*
D47*
X030731Y026555D03*
X030731Y024094D03*
D48*
X028201Y025324D03*
X025977Y025324D03*
D49*
X036341Y029753D03*
X036341Y004163D03*
X002876Y004163D03*
X002876Y029753D03*
D50*
X024628Y002194D03*
D51*
X025268Y023208D03*
M02*
