G75*
G70*
%OFA0B0*%
%FSLAX24Y24*%
%IPPOS*%
%LPD*%
%AMOC8*
5,1,8,0,0,1.08239X$1,22.5*
%
%ADD10C,0.0000*%
%ADD11C,0.1004*%
%ADD12C,0.0640*%
%ADD13OC8,0.0850*%
%ADD14OC8,0.0640*%
%ADD15OC8,0.0560*%
%ADD16C,0.0780*%
%ADD17R,0.0598X0.0701*%
%ADD18C,0.1772*%
%ADD19R,0.0591X0.0512*%
%ADD20C,0.0116*%
%ADD21R,0.0512X0.0118*%
%ADD22R,0.0866X0.0709*%
%ADD23C,0.0634*%
%ADD24R,0.0480X0.0358*%
%ADD25R,0.0358X0.0480*%
%ADD26R,0.0551X0.0394*%
%ADD27R,0.0799X0.0500*%
%ADD28R,0.0811X0.0500*%
%ADD29R,0.0299X0.0500*%
%ADD30R,0.0394X0.0433*%
%ADD31R,0.0945X0.1024*%
%ADD32R,0.0846X0.0709*%
%ADD33R,0.0630X0.0709*%
%ADD34R,0.1024X0.0945*%
%ADD35OC8,0.0600*%
%ADD36R,0.0472X0.0217*%
%ADD37R,0.0472X0.0551*%
%ADD38R,0.0354X0.0276*%
%ADD39R,0.0276X0.0354*%
%ADD40R,0.0709X0.0630*%
%ADD41R,0.0600X0.0600*%
%ADD42C,0.0600*%
%ADD43R,0.0220X0.0520*%
%ADD44R,0.0700X0.1000*%
%ADD45R,0.0413X0.0236*%
%ADD46R,0.0400X0.0650*%
%ADD47R,0.0400X0.1200*%
%ADD48R,0.0250X0.0350*%
%ADD49R,0.0200X0.0600*%
%ADD50C,0.0106*%
%ADD51C,0.0087*%
%ADD52C,0.0560*%
%ADD53R,0.0100X0.0340*%
%ADD54R,0.0197X0.0079*%
%ADD55R,0.0079X0.0197*%
%ADD56OC8,0.1240*%
%ADD57C,0.1240*%
%ADD58C,0.0512*%
%ADD59C,0.0591*%
%ADD60C,0.3543*%
%ADD61C,0.0787*%
%ADD62C,0.0394*%
%ADD63C,0.0295*%
%ADD64C,0.0197*%
%ADD65C,0.0436*%
%ADD66C,0.0354*%
%ADD67C,0.0860*%
%ADD68C,0.0236*%
%ADD69C,0.0118*%
%ADD70C,0.0098*%
%ADD71C,0.0079*%
%ADD72C,0.0594*%
%ADD73C,0.0100*%
%ADD74C,0.0157*%
%ADD75C,0.0060*%
D10*
X000120Y000226D02*
X000120Y033690D01*
X039097Y033690D01*
X039097Y000226D01*
X000120Y000226D01*
D11*
X001587Y008108D02*
X002591Y008108D01*
X002591Y009667D02*
X001587Y009667D01*
X001587Y012045D02*
X002591Y012045D01*
X002591Y013604D02*
X001587Y013604D01*
X006427Y031220D02*
X006427Y032224D01*
X007986Y032224D02*
X007986Y031220D01*
X010364Y031220D02*
X010364Y032224D01*
X011923Y032224D02*
X011923Y031220D01*
X020945Y031220D02*
X020945Y032224D01*
X022504Y032224D02*
X022504Y031220D01*
D12*
X022094Y028066D02*
X021454Y028066D01*
X021454Y026566D02*
X022094Y026566D01*
X022094Y025066D02*
X021454Y025066D01*
X021454Y023566D02*
X022094Y023566D01*
X017607Y026071D02*
X017607Y026711D01*
X016607Y026711D02*
X016607Y026071D01*
X015607Y026071D02*
X015607Y026711D01*
X008527Y021501D02*
X007887Y021501D01*
X007887Y020501D02*
X008527Y020501D01*
X008527Y019501D02*
X007887Y019501D01*
X006301Y011224D02*
X005661Y011224D01*
X005701Y008224D02*
X005061Y008224D01*
X020435Y007845D02*
X020435Y007205D01*
X021435Y007205D02*
X021435Y007845D01*
X022435Y007845D02*
X022435Y007205D01*
D13*
X011144Y006494D03*
X008388Y006494D03*
X008388Y010494D03*
X011144Y010494D03*
X010388Y026997D03*
X006388Y026997D03*
D14*
X008388Y013824D03*
X008388Y011824D03*
X011144Y011824D03*
X011144Y013824D03*
D15*
X010388Y028966D03*
X006388Y028966D03*
D16*
X013191Y016490D02*
X013971Y016490D01*
X016191Y016490D02*
X016971Y016490D01*
X016971Y010490D02*
X016191Y010490D01*
X016191Y008490D02*
X016971Y008490D01*
X016971Y006490D02*
X016191Y006490D01*
X016581Y004872D02*
X016581Y004092D01*
X016581Y001872D02*
X016581Y001092D01*
X013971Y006490D02*
X013191Y006490D01*
X013191Y008490D02*
X013971Y008490D01*
X013971Y010490D02*
X013191Y010490D01*
X010581Y004872D02*
X010581Y004092D01*
X008581Y004092D02*
X008581Y004872D01*
X006581Y004872D02*
X006581Y004092D01*
X006581Y001872D02*
X006581Y001092D01*
X008581Y001092D02*
X008581Y001872D01*
X010581Y001872D02*
X010581Y001092D01*
D17*
X008921Y022651D03*
X008921Y023651D03*
X008921Y024651D03*
X012579Y024651D03*
X012579Y023651D03*
X012579Y022651D03*
D18*
X014606Y028751D03*
X018606Y028751D03*
X005435Y024635D03*
X005435Y016368D03*
X019430Y005165D03*
X023430Y005165D03*
D19*
X006026Y020167D03*
X006026Y020836D03*
X010160Y021033D03*
X010160Y020364D03*
D20*
X027856Y005861D02*
X027856Y005201D01*
X027856Y005861D02*
X027972Y005861D01*
X027972Y005201D01*
X027856Y005201D01*
X027856Y005316D02*
X027972Y005316D01*
X027972Y005431D02*
X027856Y005431D01*
X027856Y005546D02*
X027972Y005546D01*
X027972Y005661D02*
X027856Y005661D01*
X027856Y005776D02*
X027972Y005776D01*
X028356Y005861D02*
X028356Y005201D01*
X028356Y005861D02*
X028472Y005861D01*
X028472Y005201D01*
X028356Y005201D01*
X028356Y005316D02*
X028472Y005316D01*
X028472Y005431D02*
X028356Y005431D01*
X028356Y005546D02*
X028472Y005546D01*
X028472Y005661D02*
X028356Y005661D01*
X028356Y005776D02*
X028472Y005776D01*
X028856Y005861D02*
X028856Y005201D01*
X028856Y005861D02*
X028972Y005861D01*
X028972Y005201D01*
X028856Y005201D01*
X028856Y005316D02*
X028972Y005316D01*
X028972Y005431D02*
X028856Y005431D01*
X028856Y005546D02*
X028972Y005546D01*
X028972Y005661D02*
X028856Y005661D01*
X028856Y005776D02*
X028972Y005776D01*
X029356Y005861D02*
X029356Y005201D01*
X029356Y005861D02*
X029472Y005861D01*
X029472Y005201D01*
X029356Y005201D01*
X029356Y005316D02*
X029472Y005316D01*
X029472Y005431D02*
X029356Y005431D01*
X029356Y005546D02*
X029472Y005546D01*
X029472Y005661D02*
X029356Y005661D01*
X029356Y005776D02*
X029472Y005776D01*
X029356Y003912D02*
X029356Y003252D01*
X029356Y003912D02*
X029472Y003912D01*
X029472Y003252D01*
X029356Y003252D01*
X029356Y003367D02*
X029472Y003367D01*
X029472Y003482D02*
X029356Y003482D01*
X029356Y003597D02*
X029472Y003597D01*
X029472Y003712D02*
X029356Y003712D01*
X029356Y003827D02*
X029472Y003827D01*
X028856Y003912D02*
X028856Y003252D01*
X028856Y003912D02*
X028972Y003912D01*
X028972Y003252D01*
X028856Y003252D01*
X028856Y003367D02*
X028972Y003367D01*
X028972Y003482D02*
X028856Y003482D01*
X028856Y003597D02*
X028972Y003597D01*
X028972Y003712D02*
X028856Y003712D01*
X028856Y003827D02*
X028972Y003827D01*
X028356Y003912D02*
X028356Y003252D01*
X028356Y003912D02*
X028472Y003912D01*
X028472Y003252D01*
X028356Y003252D01*
X028356Y003367D02*
X028472Y003367D01*
X028472Y003482D02*
X028356Y003482D01*
X028356Y003597D02*
X028472Y003597D01*
X028472Y003712D02*
X028356Y003712D01*
X028356Y003827D02*
X028472Y003827D01*
X027856Y003912D02*
X027856Y003252D01*
X027856Y003912D02*
X027972Y003912D01*
X027972Y003252D01*
X027856Y003252D01*
X027856Y003367D02*
X027972Y003367D01*
X027972Y003482D02*
X027856Y003482D01*
X027856Y003597D02*
X027972Y003597D01*
X027972Y003712D02*
X027856Y003712D01*
X027856Y003827D02*
X027972Y003827D01*
D21*
X032896Y014694D03*
X032896Y014891D03*
X032896Y015088D03*
X032896Y015285D03*
X032896Y015482D03*
X032896Y015679D03*
X032896Y015875D03*
X032896Y016072D03*
X032896Y016269D03*
X032896Y016466D03*
X032896Y016663D03*
X032896Y016860D03*
X032896Y017056D03*
X032896Y017253D03*
X032896Y017450D03*
X032896Y017647D03*
X032896Y017844D03*
X032896Y018041D03*
X032896Y018238D03*
X032896Y018434D03*
X032896Y018631D03*
X032896Y018828D03*
X032896Y019025D03*
X032896Y019222D03*
D22*
X031616Y019970D03*
X031616Y013946D03*
D23*
X037441Y013505D02*
X038075Y013505D01*
X038075Y014505D02*
X037441Y014505D01*
X037441Y016655D02*
X038075Y016655D01*
X038075Y017655D02*
X037441Y017655D01*
X037441Y020576D02*
X038075Y020576D01*
X038075Y021576D02*
X037441Y021576D01*
X037441Y022576D02*
X038075Y022576D01*
X038075Y023576D02*
X037441Y023576D01*
X037441Y025710D02*
X038075Y025710D01*
X038075Y026710D02*
X037441Y026710D01*
X037441Y012175D02*
X038075Y012175D01*
X038075Y011175D02*
X037441Y011175D01*
X037441Y010175D02*
X038075Y010175D01*
X038075Y009175D02*
X037441Y009175D01*
X037441Y008175D02*
X038075Y008175D01*
X038075Y007175D02*
X037441Y007175D01*
D24*
X015475Y003621D03*
X015475Y002342D03*
D25*
X015721Y015186D03*
X014441Y015186D03*
X015032Y024832D03*
X016311Y024832D03*
X016803Y024832D03*
X018083Y024832D03*
D26*
X014530Y018710D03*
X013664Y018336D03*
X014530Y017962D03*
X017679Y003356D03*
X017679Y002608D03*
X016813Y002982D03*
X035465Y025344D03*
X035465Y026092D03*
X036331Y025718D03*
D27*
X031910Y023153D03*
D28*
X031910Y025232D03*
D29*
X032662Y025232D03*
X031158Y025232D03*
X031158Y023153D03*
X032662Y023153D03*
D30*
X028014Y018828D03*
X027345Y018828D03*
X028920Y012037D03*
X029589Y012037D03*
X029589Y011249D03*
X028920Y011249D03*
X030780Y005629D03*
X030780Y004960D03*
X035612Y017155D03*
X036282Y017155D03*
X016006Y023848D03*
X015337Y023848D03*
D31*
X016656Y030068D03*
X016656Y032588D03*
D32*
X013949Y026604D03*
X012670Y026604D03*
X031764Y008297D03*
X033044Y008297D03*
X033044Y005147D03*
X031764Y005147D03*
X035307Y019123D03*
X036587Y019123D03*
D33*
X036498Y022667D03*
X035396Y022667D03*
X033742Y027490D03*
X032640Y027490D03*
X025278Y022076D03*
X024175Y022076D03*
X026242Y020206D03*
X027345Y020206D03*
X016272Y022667D03*
X015170Y022667D03*
X020927Y003769D03*
X022030Y003769D03*
D34*
X020908Y002194D03*
X023427Y002194D03*
D35*
X023168Y010068D03*
X021668Y010068D03*
X021668Y012037D03*
X023168Y012037D03*
D36*
X031892Y007096D03*
X031892Y006348D03*
X032916Y006348D03*
X032916Y006722D03*
X032916Y007096D03*
D37*
X020632Y011143D03*
X019766Y011143D03*
X019766Y012143D03*
X020632Y012143D03*
D38*
X027335Y013749D03*
X027335Y014261D03*
X029589Y013080D03*
X029589Y012568D03*
X029589Y010718D03*
X029589Y010206D03*
X030977Y003434D03*
X030977Y002923D03*
X031557Y002923D03*
X031557Y003434D03*
X015475Y004301D03*
X015475Y004812D03*
X012571Y021181D03*
X012571Y021692D03*
D39*
X029047Y013661D03*
X029559Y013661D03*
X030179Y011938D03*
X030691Y011938D03*
X030691Y011348D03*
X030179Y011348D03*
X034461Y016417D03*
X034973Y016417D03*
X013762Y001604D03*
X013250Y001604D03*
D40*
X018231Y011092D03*
X018231Y012194D03*
X024431Y012076D03*
X024431Y013179D03*
X026892Y005108D03*
X026892Y004005D03*
D41*
X031616Y001358D03*
D42*
X031616Y002145D03*
X032404Y002145D03*
X033191Y002145D03*
X033191Y001358D03*
X032404Y001358D03*
D43*
X026770Y021114D03*
X026400Y021114D03*
X026030Y021114D03*
X026030Y022054D03*
X026400Y022054D03*
X026770Y022054D03*
D44*
X033266Y012993D03*
X034266Y012993D03*
X035266Y012993D03*
X036266Y012993D03*
X036266Y010293D03*
X035266Y010293D03*
X034266Y010293D03*
X033266Y010293D03*
D45*
X032335Y011446D03*
X032335Y011840D03*
X031292Y011840D03*
X031292Y011446D03*
D46*
X029067Y009281D03*
X027867Y009281D03*
X027867Y007903D03*
X029067Y007903D03*
D47*
X028467Y007903D03*
X028467Y009281D03*
D48*
X028792Y006722D03*
X028142Y006722D03*
D49*
X028467Y006722D03*
D50*
X023585Y022214D02*
X023337Y022214D01*
X023585Y022214D02*
X023585Y021938D01*
X023337Y021938D01*
X023337Y022214D01*
X023337Y022043D02*
X023585Y022043D01*
X023585Y022148D02*
X023337Y022148D01*
X022967Y022214D02*
X022719Y022214D01*
X022967Y022214D02*
X022967Y021938D01*
X022719Y021938D01*
X022719Y022214D01*
X022719Y022043D02*
X022967Y022043D01*
X022967Y022148D02*
X022719Y022148D01*
D51*
X022811Y019633D02*
X022811Y019141D01*
X022811Y019633D02*
X022941Y019633D01*
X022941Y019141D01*
X022811Y019141D01*
X022811Y019227D02*
X022941Y019227D01*
X022941Y019313D02*
X022811Y019313D01*
X022811Y019399D02*
X022941Y019399D01*
X022941Y019485D02*
X022811Y019485D01*
X022811Y019571D02*
X022941Y019571D01*
X023126Y019633D02*
X023126Y019141D01*
X023126Y019633D02*
X023256Y019633D01*
X023256Y019141D01*
X023126Y019141D01*
X023126Y019227D02*
X023256Y019227D01*
X023256Y019313D02*
X023126Y019313D01*
X023126Y019399D02*
X023256Y019399D01*
X023256Y019485D02*
X023126Y019485D01*
X023126Y019571D02*
X023256Y019571D01*
X023441Y019633D02*
X023441Y019141D01*
X023441Y019633D02*
X023571Y019633D01*
X023571Y019141D01*
X023441Y019141D01*
X023441Y019227D02*
X023571Y019227D01*
X023571Y019313D02*
X023441Y019313D01*
X023441Y019399D02*
X023571Y019399D01*
X023571Y019485D02*
X023441Y019485D01*
X023441Y019571D02*
X023571Y019571D01*
X023756Y019633D02*
X023756Y019141D01*
X023756Y019633D02*
X023886Y019633D01*
X023886Y019141D01*
X023756Y019141D01*
X023756Y019227D02*
X023886Y019227D01*
X023886Y019313D02*
X023756Y019313D01*
X023756Y019399D02*
X023886Y019399D01*
X023886Y019485D02*
X023756Y019485D01*
X023756Y019571D02*
X023886Y019571D01*
X024071Y019633D02*
X024071Y019141D01*
X024071Y019633D02*
X024201Y019633D01*
X024201Y019141D01*
X024071Y019141D01*
X024071Y019227D02*
X024201Y019227D01*
X024201Y019313D02*
X024071Y019313D01*
X024071Y019399D02*
X024201Y019399D01*
X024201Y019485D02*
X024071Y019485D01*
X024071Y019571D02*
X024201Y019571D01*
X024386Y019633D02*
X024386Y019141D01*
X024386Y019633D02*
X024516Y019633D01*
X024516Y019141D01*
X024386Y019141D01*
X024386Y019227D02*
X024516Y019227D01*
X024516Y019313D02*
X024386Y019313D01*
X024386Y019399D02*
X024516Y019399D01*
X024516Y019485D02*
X024386Y019485D01*
X024386Y019571D02*
X024516Y019571D01*
X024701Y019633D02*
X024701Y019141D01*
X024701Y019633D02*
X024831Y019633D01*
X024831Y019141D01*
X024701Y019141D01*
X024701Y019227D02*
X024831Y019227D01*
X024831Y019313D02*
X024701Y019313D01*
X024701Y019399D02*
X024831Y019399D01*
X024831Y019485D02*
X024701Y019485D01*
X024701Y019571D02*
X024831Y019571D01*
X025016Y019633D02*
X025016Y019141D01*
X025016Y019633D02*
X025146Y019633D01*
X025146Y019141D01*
X025016Y019141D01*
X025016Y019227D02*
X025146Y019227D01*
X025146Y019313D02*
X025016Y019313D01*
X025016Y019399D02*
X025146Y019399D01*
X025146Y019485D02*
X025016Y019485D01*
X025016Y019571D02*
X025146Y019571D01*
X025331Y019633D02*
X025331Y019141D01*
X025331Y019633D02*
X025461Y019633D01*
X025461Y019141D01*
X025331Y019141D01*
X025331Y019227D02*
X025461Y019227D01*
X025461Y019313D02*
X025331Y019313D01*
X025331Y019399D02*
X025461Y019399D01*
X025461Y019485D02*
X025331Y019485D01*
X025331Y019571D02*
X025461Y019571D01*
X025646Y019633D02*
X025646Y019141D01*
X025646Y019633D02*
X025776Y019633D01*
X025776Y019141D01*
X025646Y019141D01*
X025646Y019227D02*
X025776Y019227D01*
X025776Y019313D02*
X025646Y019313D01*
X025646Y019399D02*
X025776Y019399D01*
X025776Y019485D02*
X025646Y019485D01*
X025646Y019571D02*
X025776Y019571D01*
X026122Y018795D02*
X026614Y018795D01*
X026614Y018665D01*
X026122Y018665D01*
X026122Y018795D01*
X026122Y018751D02*
X026614Y018751D01*
X026614Y018480D02*
X026122Y018480D01*
X026614Y018480D02*
X026614Y018350D01*
X026122Y018350D01*
X026122Y018480D01*
X026122Y018436D02*
X026614Y018436D01*
X026614Y018165D02*
X026122Y018165D01*
X026614Y018165D02*
X026614Y018035D01*
X026122Y018035D01*
X026122Y018165D01*
X026122Y018121D02*
X026614Y018121D01*
X026614Y017850D02*
X026122Y017850D01*
X026614Y017850D02*
X026614Y017720D01*
X026122Y017720D01*
X026122Y017850D01*
X026122Y017806D02*
X026614Y017806D01*
X026614Y017535D02*
X026122Y017535D01*
X026614Y017535D02*
X026614Y017405D01*
X026122Y017405D01*
X026122Y017535D01*
X026122Y017491D02*
X026614Y017491D01*
X026614Y017220D02*
X026122Y017220D01*
X026614Y017220D02*
X026614Y017090D01*
X026122Y017090D01*
X026122Y017220D01*
X026122Y017176D02*
X026614Y017176D01*
X026614Y016905D02*
X026122Y016905D01*
X026614Y016905D02*
X026614Y016775D01*
X026122Y016775D01*
X026122Y016905D01*
X026122Y016861D02*
X026614Y016861D01*
X026614Y016590D02*
X026122Y016590D01*
X026614Y016590D02*
X026614Y016460D01*
X026122Y016460D01*
X026122Y016590D01*
X026122Y016546D02*
X026614Y016546D01*
X026614Y016275D02*
X026122Y016275D01*
X026614Y016275D02*
X026614Y016145D01*
X026122Y016145D01*
X026122Y016275D01*
X026122Y016231D02*
X026614Y016231D01*
X026614Y015960D02*
X026122Y015960D01*
X026614Y015960D02*
X026614Y015830D01*
X026122Y015830D01*
X026122Y015960D01*
X026122Y015916D02*
X026614Y015916D01*
X026614Y015645D02*
X026122Y015645D01*
X026614Y015645D02*
X026614Y015515D01*
X026122Y015515D01*
X026122Y015645D01*
X026122Y015601D02*
X026614Y015601D01*
X025776Y015169D02*
X025776Y014677D01*
X025646Y014677D01*
X025646Y015169D01*
X025776Y015169D01*
X025776Y014763D02*
X025646Y014763D01*
X025646Y014849D02*
X025776Y014849D01*
X025776Y014935D02*
X025646Y014935D01*
X025646Y015021D02*
X025776Y015021D01*
X025776Y015107D02*
X025646Y015107D01*
X025461Y015169D02*
X025461Y014677D01*
X025331Y014677D01*
X025331Y015169D01*
X025461Y015169D01*
X025461Y014763D02*
X025331Y014763D01*
X025331Y014849D02*
X025461Y014849D01*
X025461Y014935D02*
X025331Y014935D01*
X025331Y015021D02*
X025461Y015021D01*
X025461Y015107D02*
X025331Y015107D01*
X025146Y015169D02*
X025146Y014677D01*
X025016Y014677D01*
X025016Y015169D01*
X025146Y015169D01*
X025146Y014763D02*
X025016Y014763D01*
X025016Y014849D02*
X025146Y014849D01*
X025146Y014935D02*
X025016Y014935D01*
X025016Y015021D02*
X025146Y015021D01*
X025146Y015107D02*
X025016Y015107D01*
X024831Y015169D02*
X024831Y014677D01*
X024701Y014677D01*
X024701Y015169D01*
X024831Y015169D01*
X024831Y014763D02*
X024701Y014763D01*
X024701Y014849D02*
X024831Y014849D01*
X024831Y014935D02*
X024701Y014935D01*
X024701Y015021D02*
X024831Y015021D01*
X024831Y015107D02*
X024701Y015107D01*
X024516Y015169D02*
X024516Y014677D01*
X024386Y014677D01*
X024386Y015169D01*
X024516Y015169D01*
X024516Y014763D02*
X024386Y014763D01*
X024386Y014849D02*
X024516Y014849D01*
X024516Y014935D02*
X024386Y014935D01*
X024386Y015021D02*
X024516Y015021D01*
X024516Y015107D02*
X024386Y015107D01*
X024201Y015169D02*
X024201Y014677D01*
X024071Y014677D01*
X024071Y015169D01*
X024201Y015169D01*
X024201Y014763D02*
X024071Y014763D01*
X024071Y014849D02*
X024201Y014849D01*
X024201Y014935D02*
X024071Y014935D01*
X024071Y015021D02*
X024201Y015021D01*
X024201Y015107D02*
X024071Y015107D01*
X023886Y015169D02*
X023886Y014677D01*
X023756Y014677D01*
X023756Y015169D01*
X023886Y015169D01*
X023886Y014763D02*
X023756Y014763D01*
X023756Y014849D02*
X023886Y014849D01*
X023886Y014935D02*
X023756Y014935D01*
X023756Y015021D02*
X023886Y015021D01*
X023886Y015107D02*
X023756Y015107D01*
X023571Y015169D02*
X023571Y014677D01*
X023441Y014677D01*
X023441Y015169D01*
X023571Y015169D01*
X023571Y014763D02*
X023441Y014763D01*
X023441Y014849D02*
X023571Y014849D01*
X023571Y014935D02*
X023441Y014935D01*
X023441Y015021D02*
X023571Y015021D01*
X023571Y015107D02*
X023441Y015107D01*
X023256Y015169D02*
X023256Y014677D01*
X023126Y014677D01*
X023126Y015169D01*
X023256Y015169D01*
X023256Y014763D02*
X023126Y014763D01*
X023126Y014849D02*
X023256Y014849D01*
X023256Y014935D02*
X023126Y014935D01*
X023126Y015021D02*
X023256Y015021D01*
X023256Y015107D02*
X023126Y015107D01*
X022941Y015169D02*
X022941Y014677D01*
X022811Y014677D01*
X022811Y015169D01*
X022941Y015169D01*
X022941Y014763D02*
X022811Y014763D01*
X022811Y014849D02*
X022941Y014849D01*
X022941Y014935D02*
X022811Y014935D01*
X022811Y015021D02*
X022941Y015021D01*
X022941Y015107D02*
X022811Y015107D01*
X022626Y015169D02*
X022626Y014677D01*
X022496Y014677D01*
X022496Y015169D01*
X022626Y015169D01*
X022626Y014763D02*
X022496Y014763D01*
X022496Y014849D02*
X022626Y014849D01*
X022626Y014935D02*
X022496Y014935D01*
X022496Y015021D02*
X022626Y015021D01*
X022626Y015107D02*
X022496Y015107D01*
X022150Y015515D02*
X021658Y015515D01*
X021658Y015645D01*
X022150Y015645D01*
X022150Y015515D01*
X022150Y015601D02*
X021658Y015601D01*
X021658Y015830D02*
X022150Y015830D01*
X021658Y015830D02*
X021658Y015960D01*
X022150Y015960D01*
X022150Y015830D01*
X022150Y015916D02*
X021658Y015916D01*
X021658Y016145D02*
X022150Y016145D01*
X021658Y016145D02*
X021658Y016275D01*
X022150Y016275D01*
X022150Y016145D01*
X022150Y016231D02*
X021658Y016231D01*
X021658Y016460D02*
X022150Y016460D01*
X021658Y016460D02*
X021658Y016590D01*
X022150Y016590D01*
X022150Y016460D01*
X022150Y016546D02*
X021658Y016546D01*
X021658Y016775D02*
X022150Y016775D01*
X021658Y016775D02*
X021658Y016905D01*
X022150Y016905D01*
X022150Y016775D01*
X022150Y016861D02*
X021658Y016861D01*
X021658Y017090D02*
X022150Y017090D01*
X021658Y017090D02*
X021658Y017220D01*
X022150Y017220D01*
X022150Y017090D01*
X022150Y017176D02*
X021658Y017176D01*
X021658Y017405D02*
X022150Y017405D01*
X021658Y017405D02*
X021658Y017535D01*
X022150Y017535D01*
X022150Y017405D01*
X022150Y017491D02*
X021658Y017491D01*
X021658Y017720D02*
X022150Y017720D01*
X021658Y017720D02*
X021658Y017850D01*
X022150Y017850D01*
X022150Y017720D01*
X022150Y017806D02*
X021658Y017806D01*
X021658Y018035D02*
X022150Y018035D01*
X021658Y018035D02*
X021658Y018165D01*
X022150Y018165D01*
X022150Y018035D01*
X022150Y018121D02*
X021658Y018121D01*
X021658Y018350D02*
X022150Y018350D01*
X021658Y018350D02*
X021658Y018480D01*
X022150Y018480D01*
X022150Y018350D01*
X022150Y018436D02*
X021658Y018436D01*
X021658Y018665D02*
X022150Y018665D01*
X021658Y018665D02*
X021658Y018795D01*
X022150Y018795D01*
X022150Y018665D01*
X022150Y018751D02*
X021658Y018751D01*
X022496Y019141D02*
X022496Y019633D01*
X022626Y019633D01*
X022626Y019141D01*
X022496Y019141D01*
X022496Y019227D02*
X022626Y019227D01*
X022626Y019313D02*
X022496Y019313D01*
X022496Y019399D02*
X022626Y019399D01*
X022626Y019485D02*
X022496Y019485D01*
X022496Y019571D02*
X022626Y019571D01*
D52*
X006829Y014236D02*
X006829Y013676D01*
X004829Y013676D02*
X004829Y014236D01*
D53*
X028949Y016438D03*
X029146Y016438D03*
X029343Y016438D03*
X029540Y016438D03*
X029540Y017478D03*
X029343Y017478D03*
X029146Y017478D03*
X028949Y017478D03*
D54*
X030150Y004478D03*
X030150Y004320D03*
X030150Y004163D03*
X030150Y004005D03*
X030150Y003848D03*
X030622Y003848D03*
X030622Y004005D03*
X030622Y004163D03*
X030622Y004320D03*
X030622Y004478D03*
D55*
X030386Y004458D03*
X030386Y003868D03*
D56*
X014171Y021682D03*
D57*
X017171Y021682D03*
D58*
X010160Y021033D02*
X010160Y024438D01*
X009947Y024651D01*
X008921Y024651D01*
X008191Y021486D02*
X006026Y021486D01*
X006026Y020836D01*
X006026Y020167D02*
X006026Y019517D01*
X008191Y019517D01*
X008207Y020501D02*
X009126Y020501D01*
X009264Y020364D01*
X010160Y020364D01*
D59*
X008207Y019501D02*
X008191Y019517D01*
X008191Y021486D02*
X008207Y021501D01*
X008207Y022535D01*
X008240Y022568D01*
X008839Y022568D01*
X008921Y022651D01*
X014171Y021682D02*
X015156Y022667D01*
X015170Y022667D01*
X016272Y022667D02*
X016705Y022198D01*
X017171Y021682D01*
X015573Y026358D02*
X015607Y026391D01*
X015573Y026358D02*
X015573Y027194D01*
X016656Y028572D01*
X016656Y030068D01*
X025268Y023208D02*
X025278Y023198D01*
X025278Y022076D01*
X033733Y027499D02*
X033742Y027490D01*
X033733Y027499D02*
X033733Y028818D01*
X036341Y029753D01*
X020435Y007525D02*
X020435Y006486D01*
X020888Y006033D01*
X020888Y003808D01*
X020927Y003769D01*
X020908Y003749D01*
X020908Y002194D01*
X022030Y003769D02*
X022758Y003769D01*
X023427Y002903D01*
X023427Y002194D01*
X024628Y002194D01*
D60*
X036341Y004163D03*
X036341Y029753D03*
X002876Y029753D03*
X002876Y004163D03*
D61*
X012670Y026604D02*
X012670Y029999D01*
X011931Y030738D01*
X011931Y031714D01*
X011923Y031722D01*
X013309Y031722D01*
X014175Y032588D01*
X016656Y032588D01*
D62*
X014786Y026604D02*
X013949Y026604D01*
X015573Y026358D02*
X015573Y025718D01*
X015032Y025177D01*
X015032Y024832D01*
X015032Y024586D01*
X015327Y024291D01*
X015327Y024035D01*
X015337Y023848D01*
X016006Y023848D02*
X016360Y023848D01*
X016557Y024045D01*
X016557Y024734D01*
X016459Y024832D01*
X016311Y024832D01*
X016803Y024832D01*
X016656Y024832D01*
X016557Y024931D01*
X016557Y026342D01*
X016607Y026391D01*
X017607Y026391D02*
X017738Y026259D01*
X017738Y025915D01*
X018083Y025570D01*
X018083Y024832D01*
X014171Y021682D02*
X015215Y020639D01*
X015524Y020344D01*
X015524Y018238D01*
X015101Y017962D01*
X014530Y017962D01*
X013664Y018336D02*
X013664Y016572D01*
X013581Y016490D01*
X013581Y015407D01*
X013801Y015186D01*
X014441Y015186D01*
X015721Y015186D02*
X016459Y015186D01*
X016581Y015308D01*
X016581Y016490D01*
X017010Y012194D02*
X016656Y011840D01*
X016656Y010564D01*
X017010Y012194D02*
X018231Y012194D01*
X018860Y012194D01*
X018920Y012135D01*
X019758Y012135D01*
X024431Y012076D02*
X024431Y010954D01*
X028467Y010462D02*
X028467Y009675D01*
X028467Y009281D02*
X028467Y007903D01*
X030780Y004960D02*
X031803Y004960D01*
X031789Y004384D02*
X032748Y003425D01*
X034372Y003425D01*
X035209Y004163D01*
X036341Y004163D01*
X012571Y023060D02*
X012579Y023651D01*
X012571Y023060D02*
X012571Y021692D01*
X012579Y024651D02*
X012662Y024734D01*
X035465Y026092D02*
X035465Y028877D01*
X036341Y029753D01*
X036331Y025718D02*
X037750Y025718D01*
D63*
X037758Y025710D01*
X037668Y022667D02*
X036498Y022667D01*
X035396Y022667D02*
X032847Y022667D01*
X032662Y022765D01*
X032662Y023153D01*
X031910Y023153D02*
X031912Y023238D01*
X031912Y021682D01*
X032207Y021387D01*
X032699Y021387D01*
X032896Y021190D01*
X031910Y023153D02*
X031910Y025232D01*
X031898Y026224D01*
X031715Y026407D01*
X029796Y026407D01*
X029746Y026358D01*
X031158Y025232D02*
X031910Y025232D01*
X032662Y025232D02*
X032666Y025684D01*
X033437Y026112D01*
X032650Y026417D02*
X032662Y025232D01*
X032650Y026417D02*
X032640Y027490D01*
X037668Y022667D02*
X037758Y022576D01*
X036587Y019123D02*
X036538Y019074D01*
X036538Y018434D01*
X036282Y018179D01*
X036282Y017155D01*
X036636Y017155D01*
X037128Y016663D01*
X037750Y016663D01*
X037758Y016655D01*
X036266Y012993D02*
X037084Y012175D01*
X037758Y012175D01*
X037758Y011175D02*
X037147Y011175D01*
X036266Y010293D01*
X033683Y006722D02*
X036242Y004163D01*
X032994Y005147D02*
X032994Y006328D01*
X031892Y007096D02*
X030780Y007096D01*
X030780Y005629D01*
X031764Y004409D02*
X031789Y004384D01*
X027138Y005836D02*
X027138Y005934D01*
X026055Y007017D01*
X026055Y008494D01*
X026301Y008740D01*
X028467Y009281D02*
X028467Y009675D01*
X031321Y012529D02*
X031321Y012972D01*
X031213Y013080D01*
X029589Y013080D01*
X025219Y013366D02*
X024973Y013366D01*
X024805Y013198D01*
X024451Y013198D01*
X022374Y013346D02*
X022374Y009497D01*
X021961Y009084D01*
X019421Y009084D01*
X018827Y008490D01*
X016581Y008490D01*
X017246Y007509D02*
X015770Y007509D01*
X015475Y007805D01*
X015475Y011840D01*
X016656Y013021D01*
X019215Y013021D01*
X019766Y012143D02*
X019758Y012135D01*
X020632Y011143D02*
X020632Y010797D01*
X020199Y010068D01*
X018723Y010068D01*
X018231Y010757D01*
X018231Y011092D01*
X018231Y009084D01*
X017246Y007509D02*
X017679Y007076D01*
X017679Y003356D01*
X017679Y002608D02*
X019097Y002608D01*
X019412Y002293D01*
X019412Y001308D01*
X019707Y001013D01*
X023152Y001013D01*
X023447Y001308D01*
X023447Y002175D01*
X023427Y002194D01*
X023427Y002903D02*
X024530Y004005D01*
X026892Y004005D01*
X016813Y003218D02*
X016813Y002982D01*
X016813Y003218D02*
X016557Y003474D01*
X016557Y004458D01*
X016581Y004482D01*
X015721Y003621D01*
X015475Y003621D01*
X015475Y004301D02*
X014727Y004301D01*
X014392Y003966D01*
X014392Y001604D01*
X015475Y001604D01*
X015475Y002342D01*
X015475Y001604D02*
X016459Y001604D01*
X016581Y001482D01*
X014392Y001604D02*
X013762Y001604D01*
X013250Y001604D02*
X011439Y001604D01*
X011341Y001505D01*
X010605Y001505D01*
X010581Y001482D01*
X009077Y002539D02*
X013112Y002539D01*
X013408Y003031D01*
X015475Y004812D02*
X015475Y004852D01*
X015868Y005245D01*
X015868Y005777D01*
X016581Y006490D01*
X016581Y010490D02*
X016656Y010564D01*
X009077Y002539D02*
X008581Y002043D01*
X008581Y001482D01*
X013605Y019862D02*
X013605Y020452D01*
X013162Y020797D01*
X013162Y022125D01*
X013703Y022667D01*
X013703Y024438D01*
X013260Y024734D01*
X012662Y024734D01*
X023461Y022076D02*
X024175Y022076D01*
X026203Y020944D02*
X026203Y020452D01*
X026203Y020245D01*
X026242Y020206D01*
D64*
X026203Y020452D02*
X024520Y020452D01*
X024455Y020342D01*
X024451Y019387D01*
X024136Y019387D02*
X024136Y020600D01*
X024333Y020895D01*
X025071Y020895D01*
X026030Y021114D02*
X026230Y021114D01*
X026203Y020944D01*
X026230Y021114D02*
X026400Y021114D01*
X026770Y021114D02*
X026770Y021584D01*
X027335Y021387D01*
X026770Y021584D02*
X026770Y022054D01*
X026400Y022054D02*
X026400Y022322D01*
X026547Y022568D01*
X027581Y022568D01*
X027778Y022273D01*
X026400Y022054D02*
X026030Y022054D01*
X026008Y022076D01*
X025278Y022076D01*
X023693Y020797D02*
X022955Y020797D01*
X022217Y021486D01*
X022217Y022421D01*
X022364Y022716D01*
X023201Y022716D01*
X023447Y022421D01*
X023447Y021992D01*
X023461Y022076D01*
X023693Y020797D02*
X023821Y020619D01*
X023821Y019387D01*
X024038Y018730D02*
X022709Y018730D01*
X022561Y018976D01*
X022561Y019387D01*
X021904Y018730D02*
X020937Y018730D01*
X020248Y019517D01*
X019904Y019517D01*
X019707Y019714D01*
X019707Y020403D01*
X019609Y018828D02*
X019609Y018631D01*
X019805Y018415D01*
X021904Y018415D01*
X021904Y018100D02*
X021864Y018090D01*
X017984Y018090D01*
X017640Y017696D01*
X017640Y014399D01*
X016951Y013710D01*
X013703Y013710D01*
X013162Y014547D01*
X013162Y015186D01*
X012571Y015826D01*
X012571Y018730D01*
X013063Y019074D01*
X014540Y019074D01*
X014530Y018789D01*
X014530Y018710D01*
X012571Y019399D02*
X012571Y021181D01*
X018624Y017106D02*
X018624Y015925D01*
X018378Y015629D01*
X018378Y013562D01*
X019215Y013021D02*
X019855Y013956D01*
X020297Y014596D01*
X020297Y016417D01*
X020740Y016368D02*
X020740Y015088D01*
X019707Y014547D02*
X019707Y016564D01*
X019884Y016840D01*
X021904Y016840D01*
X021904Y017155D02*
X019166Y017155D01*
X019018Y016909D01*
X019018Y015137D01*
X020740Y016368D02*
X020947Y016525D01*
X021904Y016525D01*
X021904Y015580D02*
X021921Y014251D01*
X022561Y014448D02*
X022955Y014251D01*
X022561Y014448D02*
X022561Y014923D01*
X023191Y014923D02*
X023191Y016456D01*
X023398Y016663D01*
X024481Y016663D01*
X025022Y017204D01*
X025711Y017736D02*
X025859Y017972D01*
X025859Y018385D01*
X025888Y018415D01*
X026368Y018415D01*
X026368Y018730D02*
X027246Y018730D01*
X027345Y018828D01*
X027187Y018336D02*
X028418Y018336D01*
X028516Y018434D01*
X029549Y018434D01*
X029845Y018730D01*
X029845Y020403D01*
X029697Y020551D01*
X029057Y020551D01*
X028811Y020797D01*
X028811Y028080D01*
X029057Y028326D01*
X032994Y028326D01*
X033191Y028129D01*
X033191Y026850D01*
X033437Y026604D01*
X033929Y026604D01*
X034175Y026358D01*
X034175Y025915D01*
X034746Y025344D01*
X035465Y025344D01*
X031146Y023679D02*
X031158Y023153D01*
X031146Y023679D02*
X030878Y023946D01*
X030238Y023946D01*
X029943Y023651D01*
X029943Y022765D01*
X027778Y020305D02*
X027778Y020255D01*
X027729Y020206D01*
X027679Y020206D02*
X027345Y020206D01*
X027679Y020206D02*
X027778Y020305D01*
X028014Y018828D02*
X029303Y018877D01*
X027729Y017893D02*
X027335Y017893D01*
X027236Y017795D01*
X026378Y017795D01*
X026368Y017785D01*
X026368Y018100D02*
X026951Y018100D01*
X027187Y018336D01*
X025711Y018710D02*
X024077Y017273D01*
X023053Y018287D02*
X022601Y017785D01*
X021904Y017785D01*
X021904Y017470D02*
X018890Y017470D01*
X018624Y017106D01*
X020809Y013838D02*
X020632Y013513D01*
X020632Y012143D01*
X020809Y013838D02*
X023378Y013838D01*
X023506Y013966D01*
X023506Y014923D01*
X024136Y014923D02*
X024136Y014153D01*
X023742Y013759D01*
X023742Y012184D01*
X023841Y012086D01*
X024421Y012086D01*
X024431Y012076D01*
X024431Y013179D02*
X024451Y013198D01*
X024451Y014923D01*
X024451Y014182D01*
X024766Y014163D02*
X024874Y014055D01*
X024766Y014163D02*
X024766Y014923D01*
X025081Y014923D02*
X025081Y014438D01*
X025612Y013907D01*
X025957Y012923D01*
X026055Y010708D01*
X026892Y010757D02*
X026892Y012775D01*
X026252Y013808D01*
X025396Y014566D01*
X025396Y014923D01*
X025711Y014923D02*
X025729Y014923D01*
X026203Y014547D01*
X028171Y013808D02*
X028171Y016121D01*
X027729Y016515D01*
X026477Y016515D01*
X026368Y016840D02*
X027994Y016840D01*
X028565Y016269D01*
X028565Y014940D01*
X028762Y014744D01*
X030337Y014744D01*
X030632Y015039D01*
X030632Y016564D01*
X030878Y016860D01*
X031882Y016860D01*
X032109Y016614D01*
X031518Y016417D02*
X031272Y016417D01*
X030977Y016171D01*
X030977Y014694D01*
X030681Y014399D01*
X028959Y014399D01*
X028614Y014055D01*
X028614Y013858D01*
X028565Y013513D01*
X028221Y013513D01*
X028171Y013808D01*
X029559Y013661D02*
X029559Y013110D01*
X029589Y012568D02*
X029589Y012037D01*
X029687Y011938D01*
X030179Y011938D01*
X030691Y011938D02*
X031193Y011938D01*
X031292Y011840D01*
X031292Y011446D02*
X031193Y011348D01*
X030691Y011348D01*
X030179Y011348D02*
X030081Y011249D01*
X029589Y011249D01*
X029589Y010718D01*
X029589Y010206D02*
X029599Y010196D01*
X029599Y009625D01*
X029746Y009379D01*
X029746Y006525D01*
X029414Y006192D01*
X029414Y005531D01*
X029414Y004962D01*
X029402Y004901D01*
X027040Y004901D01*
X027040Y004960D01*
X026892Y005108D01*
X027433Y004556D02*
X026006Y004556D01*
X025317Y005147D01*
X025317Y008592D01*
X025809Y009281D01*
X026252Y009576D01*
X026695Y010068D02*
X024628Y010068D01*
X024431Y010265D01*
X024431Y010954D01*
X026695Y010068D02*
X027089Y009576D01*
X027089Y006771D01*
X027914Y005897D01*
X027914Y005531D01*
X028414Y005531D02*
X028418Y005535D01*
X028418Y005984D01*
X028142Y006259D01*
X028142Y006722D01*
X028142Y007047D01*
X027876Y007312D01*
X027876Y007894D01*
X027867Y007903D01*
X027867Y009281D01*
X027867Y011486D01*
X028418Y012037D01*
X028920Y012037D01*
X028920Y011249D02*
X029067Y011102D01*
X029067Y009281D01*
X029067Y007903D01*
X029057Y007894D01*
X029057Y007263D01*
X028792Y006998D01*
X028792Y006722D01*
X028811Y006427D01*
X028811Y006210D01*
X028914Y006108D01*
X028914Y005531D01*
X029414Y005531D02*
X029423Y005541D01*
X029746Y005639D01*
X030289Y005634D01*
X030780Y005629D01*
X030189Y005534D02*
X030189Y005196D01*
X031764Y005147D02*
X031764Y006220D01*
X031892Y006348D01*
X032404Y006427D02*
X032453Y006377D01*
X032945Y006377D01*
X033044Y006279D01*
X033044Y005098D01*
X032994Y005049D01*
X032994Y004753D01*
X033585Y004163D01*
X034028Y002883D02*
X032650Y002883D01*
X032404Y002637D01*
X032404Y002145D01*
X032404Y001358D02*
X032256Y000816D01*
X029500Y000816D01*
X029107Y000915D01*
X028713Y000472D02*
X033044Y000472D01*
X033191Y000718D01*
X033191Y001358D01*
X034274Y002047D02*
X034274Y002588D01*
X034028Y002883D01*
X031557Y002923D02*
X031213Y002529D01*
X030481Y001388D01*
X031223Y001358D01*
X031616Y001358D01*
X030588Y001397D02*
X028575Y001397D01*
X027532Y002686D01*
X027532Y004458D01*
X027433Y004556D01*
X028467Y006722D02*
X028467Y007903D01*
X031764Y008297D02*
X031892Y008169D01*
X031892Y007096D01*
X032404Y007066D02*
X032404Y006427D01*
X032453Y006377D02*
X032453Y007116D01*
X032404Y007066D01*
X032453Y007116D02*
X032896Y007116D01*
X032916Y007096D01*
X032916Y006722D02*
X033683Y006722D01*
X033634Y006869D02*
X033486Y006722D01*
X032916Y006722D01*
X032916Y006348D02*
X032483Y006348D01*
X032453Y006377D01*
X033634Y006869D02*
X033634Y007706D01*
X033044Y008297D01*
X033266Y010293D02*
X033266Y010515D01*
X032335Y011446D01*
X032335Y011840D02*
X033266Y012771D01*
X033266Y012993D01*
X035996Y015334D02*
X038801Y015334D01*
X038801Y010265D01*
X037758Y010175D01*
X031803Y004960D02*
X031789Y004384D01*
X030977Y002923D02*
X030484Y002145D01*
X030337Y001899D01*
X029107Y001899D01*
X028368Y000767D02*
X028713Y000472D01*
X036242Y004163D02*
X036341Y004163D01*
X025711Y018710D02*
X025711Y019387D01*
X025396Y019387D02*
X025386Y019368D01*
X025386Y018917D01*
X025130Y018759D01*
X024786Y018759D01*
D65*
X024786Y018759D03*
X024038Y018730D03*
X023053Y018287D03*
X024077Y017273D03*
X025022Y017204D03*
X025711Y017736D03*
X026203Y019222D03*
X025120Y020009D03*
X025071Y020895D03*
X027335Y021387D03*
X029943Y022765D03*
X032207Y020846D03*
X030506Y020600D03*
X029303Y018877D03*
X028398Y017903D03*
X027729Y017893D03*
X026941Y014842D03*
X026203Y014547D03*
X024874Y014055D03*
X025219Y013366D03*
X023162Y013267D03*
X022374Y013346D03*
X021921Y014251D03*
X022955Y014251D03*
X020740Y015088D03*
X019707Y014547D03*
X019018Y015137D03*
X020297Y016417D03*
X018270Y017440D03*
X019609Y018828D03*
X020593Y020305D03*
X019707Y020403D03*
X013605Y019862D03*
X012571Y019399D03*
X018378Y013562D03*
X018231Y009084D03*
X024431Y010954D03*
X026055Y010708D03*
X026892Y010757D03*
X026252Y009576D03*
X026301Y008740D03*
X024727Y008986D03*
X024727Y005836D03*
X025859Y005245D03*
X025317Y004606D03*
X027138Y005836D03*
X028516Y004409D03*
X030189Y005196D03*
X031272Y004458D03*
X030189Y002637D03*
X029107Y001899D03*
X029107Y000915D03*
X028368Y000767D03*
X027532Y001997D03*
X033585Y004163D03*
X034274Y002047D03*
X034028Y008936D03*
X030731Y008986D03*
X028467Y010462D03*
X031321Y012529D03*
X033093Y014301D03*
X034766Y015334D03*
X033880Y016171D03*
X032109Y016614D03*
X031518Y016417D03*
X031813Y017696D03*
X031075Y017844D03*
X033585Y018090D03*
X035996Y015334D03*
X028270Y013070D03*
X034077Y024832D03*
X033437Y026112D03*
X032650Y028917D03*
X032650Y030590D03*
X030731Y030590D03*
X030731Y032214D03*
X030731Y028917D03*
X029746Y026358D03*
X014786Y026604D03*
X013408Y003031D03*
D66*
X031764Y004409D02*
X031764Y005147D01*
D67*
X024628Y002194D03*
D68*
X027778Y020305D02*
X027778Y022273D01*
D69*
X025120Y020009D02*
X024874Y020009D01*
X024766Y019901D01*
X024766Y019387D01*
X026368Y017470D02*
X026388Y017450D01*
X026368Y016525D02*
X026477Y016515D01*
X025563Y015679D02*
X023939Y015679D01*
X023792Y015531D01*
X023792Y014952D01*
X023821Y014923D01*
X025563Y015679D02*
X026154Y015137D01*
X026547Y015137D01*
X026843Y015285D01*
X027138Y015285D01*
X027335Y015088D01*
X027335Y014261D01*
X027335Y013749D02*
X027335Y012578D01*
X027532Y012381D01*
X028368Y012381D01*
X028664Y012677D01*
X028910Y012677D01*
X029057Y012824D01*
X029057Y013651D01*
X029047Y013661D01*
X029047Y013946D01*
X029205Y014104D01*
X029992Y014104D01*
X030091Y014005D01*
X030091Y013562D01*
X030238Y013415D01*
X032158Y013415D01*
X032305Y013562D01*
X032305Y014842D01*
X032109Y015039D01*
X032109Y015875D01*
X032502Y016269D01*
X032896Y016269D01*
X032896Y016072D02*
X032896Y015875D01*
X032896Y015679D02*
X034126Y015679D01*
X034461Y015934D01*
X034461Y016417D01*
X034973Y016417D02*
X034973Y016013D01*
X034471Y015580D01*
X034520Y015580D01*
X034766Y015334D01*
X034471Y015580D02*
X034372Y015482D01*
X033486Y015482D01*
X033486Y014104D01*
X033339Y013907D01*
X032797Y013907D01*
X032601Y013759D01*
X032601Y013169D01*
X032453Y013021D01*
X031912Y013021D01*
X031813Y012923D01*
X031813Y010560D01*
X031459Y010206D01*
X029589Y010206D01*
X029589Y013080D02*
X029559Y013110D01*
X028270Y013070D02*
X027975Y013070D01*
X027778Y013267D01*
X027778Y015432D01*
X027581Y015580D01*
X026368Y015580D01*
X032355Y015777D02*
X032355Y015186D01*
X032404Y015088D01*
X032896Y015088D02*
X032896Y014891D01*
X032896Y014694D01*
X032896Y015482D02*
X033486Y015482D01*
X033290Y016072D02*
X032896Y016072D01*
X033290Y016072D02*
X033339Y016121D01*
X033339Y016368D01*
X033240Y016466D01*
X032896Y016466D01*
X032896Y016663D01*
X032896Y017253D02*
X032896Y017450D01*
X032896Y017647D02*
X032896Y017844D01*
X032896Y018041D01*
X032896Y018238D01*
X032896Y018434D01*
X032453Y018434D01*
X032355Y018533D01*
X032355Y018681D01*
X032355Y019074D01*
X032502Y019222D01*
X032896Y019222D01*
X032896Y021190D01*
X034471Y021190D02*
X034766Y021486D01*
X035209Y021486D01*
X035396Y021673D01*
X035396Y022667D01*
X034471Y021190D02*
X034471Y019173D01*
X034323Y019025D01*
X032896Y019025D01*
X032896Y018828D02*
X034569Y018828D01*
X034864Y019123D01*
X035307Y019123D01*
X034569Y018631D02*
X034815Y018385D01*
X034815Y017549D01*
X035209Y017155D01*
X035612Y017155D01*
X034569Y018631D02*
X032896Y018631D01*
X032453Y015875D02*
X032355Y015777D01*
D70*
X032453Y015875D02*
X032896Y015875D01*
X032896Y015088D02*
X032404Y015088D01*
X032896Y016663D02*
X032896Y016860D01*
X033290Y016860D01*
X033388Y016958D01*
X033388Y017549D01*
X033290Y017647D01*
X032896Y017647D01*
X032896Y017450D02*
X032551Y017450D01*
X032425Y017675D01*
X032425Y018216D01*
X032109Y018434D01*
X030337Y018434D01*
X029540Y017716D01*
X029540Y017478D01*
X029343Y017478D02*
X029343Y016438D01*
X029343Y016181D01*
X029500Y016023D01*
X029992Y016023D01*
X030140Y016171D01*
X030140Y016958D01*
X030435Y017253D01*
X030435Y017598D01*
X030632Y017844D01*
X031075Y017844D01*
X030878Y017352D02*
X031813Y017696D01*
X032207Y017598D02*
X032355Y017303D01*
X032355Y017204D01*
X032502Y017056D01*
X032896Y017056D01*
X032207Y017598D02*
X032207Y018090D01*
X032059Y018238D01*
X030435Y018238D01*
X030140Y017893D01*
X030140Y017303D01*
X029540Y016761D01*
X029540Y016438D01*
X029146Y016438D02*
X029146Y016121D01*
X029461Y015728D01*
X030091Y015728D01*
X030337Y015974D01*
X030337Y016761D01*
X030878Y017352D01*
X030238Y018631D02*
X032305Y018631D01*
X032355Y018681D01*
X030238Y018631D02*
X029146Y017775D01*
X029146Y017478D01*
X028949Y017478D02*
X028783Y017450D01*
X026388Y017450D01*
X026368Y017155D02*
X028427Y017155D01*
X028949Y016742D01*
X028949Y016438D01*
X030289Y005634D02*
X030189Y005534D01*
X030386Y004763D02*
X030780Y004960D01*
X031272Y004458D02*
X031134Y004320D01*
X030977Y003917D02*
X030977Y003434D01*
X030632Y003671D02*
X030632Y003179D01*
X030632Y003671D02*
X030622Y003759D01*
X029648Y004212D02*
X029254Y004212D01*
X029166Y004064D01*
X029166Y003080D01*
X029057Y002932D01*
X028467Y002932D01*
X028414Y003035D01*
X028414Y003582D01*
X028914Y003582D02*
X028914Y004265D01*
X029057Y004458D01*
X029746Y004458D01*
X029414Y003633D02*
X029414Y003582D01*
X030268Y002716D02*
X030189Y002637D01*
X030481Y001388D02*
X030588Y001397D01*
X031616Y002145D02*
X032010Y002539D01*
X032010Y003031D01*
X031862Y003179D01*
X031557Y003434D02*
X031518Y003474D01*
X031518Y003720D01*
D71*
X031026Y004163D01*
X030622Y004163D01*
X030622Y004320D02*
X031134Y004320D01*
X030888Y004005D02*
X030977Y003917D01*
X030888Y004005D02*
X030622Y004005D01*
X030622Y003848D02*
X030622Y003759D01*
X030386Y003868D02*
X030268Y003848D01*
X030268Y002716D01*
X030632Y003179D02*
X031862Y003179D01*
X030268Y003848D02*
X030150Y003848D01*
X030150Y004005D02*
X029796Y004005D01*
X029414Y003633D01*
X029648Y004212D02*
X029746Y004163D01*
X030150Y004163D01*
X030150Y004320D02*
X029943Y004320D01*
X029746Y004458D01*
X030386Y004458D02*
X030386Y004763D01*
D72*
X025268Y023208D03*
D73*
X032916Y006348D02*
X032994Y006328D01*
X032994Y005147D02*
X033044Y005147D01*
X015475Y003671D02*
X015475Y003621D01*
X015475Y002342D02*
X015475Y002293D01*
D74*
X023004Y021486D02*
X025711Y021486D01*
X025809Y021584D01*
X026770Y021584D01*
X023004Y021486D02*
X022843Y021696D01*
X022843Y022076D01*
D75*
X023349Y024396D02*
X023349Y033542D01*
X020101Y033542D01*
X020101Y024396D01*
X023349Y024396D01*
X023349Y024445D02*
X020101Y024445D01*
X020101Y024503D02*
X023349Y024503D01*
X023349Y024562D02*
X020101Y024562D01*
X020101Y024620D02*
X021307Y024620D01*
X021361Y024598D02*
X022187Y024598D01*
X022359Y024669D01*
X022491Y024801D01*
X022562Y024973D01*
X022562Y025159D01*
X022491Y025332D01*
X022359Y025463D01*
X022187Y025534D01*
X021361Y025534D01*
X021189Y025463D01*
X021057Y025332D01*
X020986Y025159D01*
X020986Y024973D01*
X021057Y024801D01*
X021189Y024669D01*
X021361Y024598D01*
X021179Y024679D02*
X020101Y024679D01*
X020101Y024737D02*
X021121Y024737D01*
X021062Y024796D02*
X020101Y024796D01*
X020101Y024854D02*
X021035Y024854D01*
X021011Y024913D02*
X020101Y024913D01*
X020101Y024971D02*
X020987Y024971D01*
X020986Y025030D02*
X020101Y025030D01*
X020101Y025088D02*
X020986Y025088D01*
X020986Y025147D02*
X020101Y025147D01*
X020101Y025205D02*
X021005Y025205D01*
X021029Y025264D02*
X020101Y025264D01*
X020101Y025322D02*
X021053Y025322D01*
X021106Y025381D02*
X020101Y025381D01*
X020101Y025439D02*
X021165Y025439D01*
X021272Y025498D02*
X020101Y025498D01*
X020101Y025556D02*
X023349Y025556D01*
X023349Y025498D02*
X022275Y025498D01*
X022383Y025439D02*
X023349Y025439D01*
X023349Y025381D02*
X022441Y025381D01*
X022494Y025322D02*
X023349Y025322D01*
X023349Y025264D02*
X022519Y025264D01*
X022543Y025205D02*
X023349Y025205D01*
X023349Y025147D02*
X022562Y025147D01*
X022562Y025088D02*
X023349Y025088D01*
X023349Y025030D02*
X022562Y025030D01*
X022561Y024971D02*
X023349Y024971D01*
X023349Y024913D02*
X022537Y024913D01*
X022513Y024854D02*
X023349Y024854D01*
X023349Y024796D02*
X022485Y024796D01*
X022427Y024737D02*
X023349Y024737D01*
X023349Y024679D02*
X022368Y024679D01*
X022240Y024620D02*
X023349Y024620D01*
X023349Y025615D02*
X020101Y025615D01*
X020101Y025673D02*
X023349Y025673D01*
X023349Y025732D02*
X020101Y025732D01*
X020101Y025790D02*
X023349Y025790D01*
X023349Y025849D02*
X020101Y025849D01*
X020101Y025907D02*
X023349Y025907D01*
X023349Y025966D02*
X020101Y025966D01*
X020101Y026024D02*
X023349Y026024D01*
X023349Y026083D02*
X020101Y026083D01*
X020101Y026141D02*
X023349Y026141D01*
X023349Y026200D02*
X020101Y026200D01*
X020101Y026258D02*
X023349Y026258D01*
X023349Y026317D02*
X020101Y026317D01*
X020101Y026375D02*
X023349Y026375D01*
X023349Y026434D02*
X020101Y026434D01*
X020101Y026492D02*
X023349Y026492D01*
X023349Y026551D02*
X020101Y026551D01*
X020101Y026609D02*
X023349Y026609D01*
X023349Y026668D02*
X020101Y026668D01*
X020101Y026726D02*
X023349Y026726D01*
X023349Y026785D02*
X020101Y026785D01*
X020101Y026843D02*
X023349Y026843D01*
X023349Y026902D02*
X020101Y026902D01*
X020101Y026960D02*
X023349Y026960D01*
X023349Y027019D02*
X020101Y027019D01*
X020101Y027077D02*
X023349Y027077D01*
X023349Y027136D02*
X020101Y027136D01*
X020101Y027194D02*
X023349Y027194D01*
X023349Y027253D02*
X020101Y027253D01*
X020101Y027311D02*
X023349Y027311D01*
X023349Y027370D02*
X020101Y027370D01*
X020101Y027428D02*
X023349Y027428D01*
X023349Y027487D02*
X020101Y027487D01*
X020101Y027545D02*
X023349Y027545D01*
X023349Y027604D02*
X022201Y027604D01*
X022187Y027598D02*
X022359Y027669D01*
X022491Y027801D01*
X022562Y027973D01*
X022562Y028159D01*
X022491Y028332D01*
X022359Y028463D01*
X022187Y028534D01*
X021361Y028534D01*
X021189Y028463D01*
X021057Y028332D01*
X020986Y028159D01*
X020986Y027973D01*
X021057Y027801D01*
X021189Y027669D01*
X021361Y027598D01*
X022187Y027598D01*
X022342Y027662D02*
X023349Y027662D01*
X023349Y027721D02*
X022410Y027721D01*
X022469Y027779D02*
X023349Y027779D01*
X023349Y027838D02*
X022506Y027838D01*
X022530Y027896D02*
X023349Y027896D01*
X023349Y027955D02*
X022554Y027955D01*
X022562Y028013D02*
X023349Y028013D01*
X023349Y028072D02*
X022562Y028072D01*
X022562Y028130D02*
X023349Y028130D01*
X023349Y028189D02*
X022550Y028189D01*
X022526Y028247D02*
X023349Y028247D01*
X023349Y028306D02*
X022501Y028306D01*
X022458Y028364D02*
X023349Y028364D01*
X023349Y028423D02*
X022399Y028423D01*
X022315Y028481D02*
X023349Y028481D01*
X023349Y028540D02*
X020101Y028540D01*
X020101Y028598D02*
X023349Y028598D01*
X023349Y028657D02*
X020101Y028657D01*
X020101Y028715D02*
X023349Y028715D01*
X023349Y028774D02*
X020101Y028774D01*
X020101Y028832D02*
X023349Y028832D01*
X023349Y028891D02*
X020101Y028891D01*
X020101Y028949D02*
X023349Y028949D01*
X023349Y029008D02*
X020101Y029008D01*
X020101Y029066D02*
X023349Y029066D01*
X023349Y029125D02*
X020101Y029125D01*
X020101Y029183D02*
X023349Y029183D01*
X023349Y029242D02*
X020101Y029242D01*
X020101Y029300D02*
X023349Y029300D01*
X023349Y029359D02*
X020101Y029359D01*
X020101Y029417D02*
X023349Y029417D01*
X023349Y029476D02*
X020101Y029476D01*
X020101Y029534D02*
X023349Y029534D01*
X023349Y029593D02*
X020101Y029593D01*
X020101Y029651D02*
X023349Y029651D01*
X023349Y029710D02*
X020101Y029710D01*
X020101Y029768D02*
X023349Y029768D01*
X023349Y029827D02*
X020101Y029827D01*
X020101Y029885D02*
X023349Y029885D01*
X023349Y029944D02*
X020101Y029944D01*
X020101Y030002D02*
X023349Y030002D01*
X023349Y030061D02*
X020101Y030061D01*
X020101Y030119D02*
X023349Y030119D01*
X023349Y030178D02*
X020101Y030178D01*
X020101Y030236D02*
X023349Y030236D01*
X023349Y030295D02*
X020101Y030295D01*
X020101Y030353D02*
X023349Y030353D01*
X023349Y030412D02*
X020101Y030412D01*
X020101Y030470D02*
X023349Y030470D01*
X023349Y030529D02*
X020101Y030529D01*
X020101Y030587D02*
X020773Y030587D01*
X020816Y030570D02*
X021074Y030570D01*
X021313Y030669D01*
X021496Y030852D01*
X021595Y031091D01*
X021595Y032353D01*
X021496Y032592D01*
X021313Y032775D01*
X021074Y032874D01*
X020816Y032874D01*
X020577Y032775D01*
X020394Y032592D01*
X020295Y032353D01*
X020295Y031091D01*
X020394Y030852D01*
X020577Y030669D01*
X020816Y030570D01*
X020632Y030646D02*
X020101Y030646D01*
X020101Y030704D02*
X020541Y030704D01*
X020483Y030763D02*
X020101Y030763D01*
X020101Y030821D02*
X020424Y030821D01*
X020382Y030880D02*
X020101Y030880D01*
X020101Y030938D02*
X020358Y030938D01*
X020334Y030997D02*
X020101Y030997D01*
X020101Y031055D02*
X020310Y031055D01*
X020295Y031114D02*
X020101Y031114D01*
X020101Y031172D02*
X020295Y031172D01*
X020295Y031231D02*
X020101Y031231D01*
X020101Y031289D02*
X020295Y031289D01*
X020295Y031348D02*
X020101Y031348D01*
X020101Y031406D02*
X020295Y031406D01*
X020295Y031465D02*
X020101Y031465D01*
X020101Y031523D02*
X020295Y031523D01*
X020295Y031582D02*
X020101Y031582D01*
X020101Y031640D02*
X020295Y031640D01*
X020295Y031699D02*
X020101Y031699D01*
X020101Y031757D02*
X020295Y031757D01*
X020295Y031816D02*
X020101Y031816D01*
X020101Y031874D02*
X020295Y031874D01*
X020295Y031933D02*
X020101Y031933D01*
X020101Y031991D02*
X020295Y031991D01*
X020295Y032050D02*
X020101Y032050D01*
X020101Y032108D02*
X020295Y032108D01*
X020295Y032167D02*
X020101Y032167D01*
X020101Y032225D02*
X020295Y032225D01*
X020295Y032284D02*
X020101Y032284D01*
X020101Y032342D02*
X020295Y032342D01*
X020315Y032401D02*
X020101Y032401D01*
X020101Y032459D02*
X020339Y032459D01*
X020363Y032518D02*
X020101Y032518D01*
X020101Y032576D02*
X020388Y032576D01*
X020437Y032635D02*
X020101Y032635D01*
X020101Y032693D02*
X020495Y032693D01*
X020554Y032752D02*
X020101Y032752D01*
X020101Y032810D02*
X020663Y032810D01*
X020804Y032869D02*
X020101Y032869D01*
X020101Y032927D02*
X023349Y032927D01*
X023349Y032869D02*
X021086Y032869D01*
X021228Y032810D02*
X023349Y032810D01*
X023349Y032752D02*
X021336Y032752D01*
X021395Y032693D02*
X023349Y032693D01*
X023349Y032635D02*
X021453Y032635D01*
X021503Y032576D02*
X023349Y032576D01*
X023349Y032518D02*
X021527Y032518D01*
X021551Y032459D02*
X023349Y032459D01*
X023349Y032401D02*
X021575Y032401D01*
X021595Y032342D02*
X023349Y032342D01*
X023349Y032284D02*
X021595Y032284D01*
X021595Y032225D02*
X023349Y032225D01*
X023349Y032167D02*
X021595Y032167D01*
X021595Y032108D02*
X023349Y032108D01*
X023349Y032050D02*
X021595Y032050D01*
X021595Y031991D02*
X023349Y031991D01*
X023349Y031933D02*
X021595Y031933D01*
X021595Y031874D02*
X023349Y031874D01*
X023349Y031816D02*
X021595Y031816D01*
X021595Y031757D02*
X023349Y031757D01*
X023349Y031699D02*
X021595Y031699D01*
X021595Y031640D02*
X023349Y031640D01*
X023349Y031582D02*
X021595Y031582D01*
X021595Y031523D02*
X023349Y031523D01*
X023349Y031465D02*
X021595Y031465D01*
X021595Y031406D02*
X023349Y031406D01*
X023349Y031348D02*
X021595Y031348D01*
X021595Y031289D02*
X023349Y031289D01*
X023349Y031231D02*
X021595Y031231D01*
X021595Y031172D02*
X023349Y031172D01*
X023349Y031114D02*
X021595Y031114D01*
X021581Y031055D02*
X023349Y031055D01*
X023349Y030997D02*
X021556Y030997D01*
X021532Y030938D02*
X023349Y030938D01*
X023349Y030880D02*
X021508Y030880D01*
X021466Y030821D02*
X023349Y030821D01*
X023349Y030763D02*
X021408Y030763D01*
X021349Y030704D02*
X023349Y030704D01*
X023349Y030646D02*
X021258Y030646D01*
X021117Y030587D02*
X023349Y030587D01*
X023349Y032986D02*
X020101Y032986D01*
X020101Y033044D02*
X023349Y033044D01*
X023349Y033103D02*
X020101Y033103D01*
X020101Y033161D02*
X023349Y033161D01*
X023349Y033220D02*
X020101Y033220D01*
X020101Y033278D02*
X023349Y033278D01*
X023349Y033337D02*
X020101Y033337D01*
X020101Y033395D02*
X023349Y033395D01*
X023349Y033454D02*
X020101Y033454D01*
X020101Y033512D02*
X023349Y033512D01*
X021233Y028481D02*
X020101Y028481D01*
X020101Y028423D02*
X021148Y028423D01*
X021090Y028364D02*
X020101Y028364D01*
X020101Y028306D02*
X021046Y028306D01*
X021022Y028247D02*
X020101Y028247D01*
X020101Y028189D02*
X020998Y028189D01*
X020986Y028130D02*
X020101Y028130D01*
X020101Y028072D02*
X020986Y028072D01*
X020986Y028013D02*
X020101Y028013D01*
X020101Y027955D02*
X020993Y027955D01*
X021018Y027896D02*
X020101Y027896D01*
X020101Y027838D02*
X021042Y027838D01*
X021079Y027779D02*
X020101Y027779D01*
X020101Y027721D02*
X021137Y027721D01*
X021206Y027662D02*
X020101Y027662D01*
X020101Y027604D02*
X021347Y027604D01*
M02*
