%
M48
M72
T01C0.0236
T02C0.0320
T03C0.0360
T04C0.0394
T05C0.0400
T06C0.0520
T07C0.0669
T08C0.1051
T09C0.1772
%
T01
X13408Y3031
X18231Y9084
X18378Y13562
X19707Y14547
X19018Y15137
X20740Y15088
X21921Y14251
X22374Y13346
X23162Y13267
X22955Y14251
X24874Y14055
X25219Y13366
X26203Y14547
X26941Y14842
X28270Y13070
X26892Y10757
X26055Y10708
X26252Y9576
X26301Y8740
X24727Y8986
X24431Y10954
X28467Y10462
X30731Y8986
X34028Y8936
X31321Y12529
X33093Y14301
X34766Y15334
X33880Y16171
X32109Y16614
X31518Y16417
X31813Y17696
X31075Y17844
X29303Y18877
X28398Y17903
X27729Y17893
X26203Y19222
X25120Y20009
X25071Y20895
X24786Y18759
X24038Y18730
X23053Y18287
X24077Y17273
X25022Y17204
X25711Y17736
X27335Y21387
X29943Y22765
X32207Y20846
X30506Y20600
X33585Y18090
X35996Y15334
X34077Y24832
X33437Y26112
X32650Y28917
X32650Y30590
X30731Y30590
X30731Y32214
X30731Y28917
X29746Y26358
X20593Y20305
X19707Y20403
X19609Y18828
X18270Y17440
X20297Y16417
X13605Y19862
X12571Y19399
X14786Y26604
X24727Y5836
X25859Y5245
X25317Y4606
X27138Y5836
X28516Y4409
X30189Y5196
X31272Y4458
X30189Y2637
X29107Y1899
X29107Y915
X28368Y767
X27532Y1997
X33585Y4163
X34274Y2047
T02
X6829Y13956
X4829Y13956
X6388Y28966
X10388Y28966
T03
X21668Y12037
X23168Y12037
X23168Y10068
X21668Y10068
X31616Y2145
X31616Y1358
X32404Y1358
X32404Y2145
X33191Y2145
X33191Y1358
T04
X37758Y7175
X37758Y8175
X37758Y9175
X37758Y10175
X37758Y11175
X37758Y12175
X37758Y13505
X37758Y14505
X37758Y16655
X37758Y17655
X37758Y20576
X37758Y21576
X37758Y22576
X37758Y23576
X37758Y25710
X37758Y26710
X25268Y23208
X24628Y2194
T05
X22435Y7525
X21435Y7525
X20435Y7525
X11144Y6494
X8388Y6494
X5381Y8224
X8388Y10494
X8388Y11824
X8388Y13824
X11144Y13824
X11144Y11824
X11144Y10494
X5981Y11224
X8207Y19501
X8207Y20501
X8207Y21501
X6388Y26997
X10388Y26997
X15607Y26391
X16607Y26391
X17607Y26391
X21774Y26566
X21774Y28066
X21774Y25066
X21774Y23566
X17171Y21682
X14171Y21682
T06
X13581Y16490
X16581Y16490
X16581Y10490
X16581Y8490
X16581Y6490
X16581Y4482
X13581Y6490
X13581Y8490
X13581Y10490
X10581Y4482
X8581Y4482
X6581Y4482
X6581Y1482
X8581Y1482
X10581Y1482
X16581Y1482
T07
X2089Y8108
X2089Y9667
X2089Y12045
X2089Y13604
X6427Y31722
X7986Y31722
X10364Y31722
X11923Y31722
X20945Y31722
X22504Y31722
T08
X18606Y28751
X14606Y28751
X5435Y24635
X5435Y16368
X19430Y5165
X23430Y5165
T09
X2876Y4163
X2876Y29753
X36341Y29753
X36341Y4163
M30
