G75*
G70*
%OFA0B0*%
%FSLAX24Y24*%
%IPPOS*%
%LPD*%
%AMOC8*
5,1,8,0,0,1.08239X$1,22.5*
%
%ADD10C,0.0000*%
%ADD11C,0.0320*%
%ADD12C,0.0160*%
%ADD13C,0.0120*%
%ADD14C,0.0070*%
%ADD15C,0.0060*%
%ADD16C,0.0217*%
%ADD17C,0.0040*%
%ADD18R,0.0551X0.0256*%
%ADD19C,0.0050*%
%ADD20C,0.0079*%
%ADD21C,0.0080*%
%ADD22R,0.0433X0.0148*%
%ADD23R,0.0620X0.0118*%
%ADD24R,0.0148X0.0433*%
%ADD25R,0.0118X0.0620*%
%ADD26R,0.0230X0.0180*%
%ADD27R,0.0157X0.0394*%
%ADD28R,0.0472X0.0394*%
%ADD29R,0.0160X0.0340*%
%ADD30R,0.0049X0.0472*%
%ADD31R,0.0118X0.0965*%
%ADD32R,0.0295X0.0669*%
%ADD33R,0.0236X0.0118*%
%ADD34R,0.0118X0.0236*%
%ADD35R,0.0669X0.0295*%
%ADD36C,0.0118*%
%ADD37C,0.0030*%
%ADD38R,0.0197X0.0374*%
%ADD39C,0.0020*%
%ADD40R,0.0280X0.0226*%
D10*
X000120Y000226D02*
X000120Y033690D01*
X039097Y033690D01*
X039097Y000226D01*
X000120Y000226D01*
D11*
X005632Y003769D02*
X005632Y005836D01*
X004549Y006919D01*
X000317Y006919D01*
X000317Y025816D01*
X001301Y026997D01*
X004845Y026997D01*
X005632Y028179D01*
X005632Y033494D01*
X008782Y033494D01*
X008782Y029753D01*
X011538Y029753D01*
X011538Y015186D01*
X012719Y015186D01*
X012719Y011643D01*
X015081Y011643D01*
X015081Y005344D01*
X011931Y005344D01*
X011931Y003375D01*
X006026Y003375D01*
X005632Y003769D01*
D12*
X004451Y020305D02*
X004451Y023454D01*
X001301Y021879D01*
X004451Y020305D01*
D13*
X003997Y019851D02*
X003457Y019851D01*
X003727Y019851D02*
X003727Y019491D01*
X003457Y019491D02*
X003997Y019491D01*
X003907Y019243D02*
X003817Y019153D01*
X003817Y018883D01*
X003727Y018883D02*
X003997Y018883D01*
X003997Y019153D01*
X003907Y019243D01*
X003637Y019153D02*
X003637Y018973D01*
X003727Y018883D01*
X003637Y018635D02*
X003637Y018275D01*
X003997Y018635D01*
X003997Y018275D01*
X003907Y018028D02*
X003817Y017938D01*
X003817Y017667D01*
X003727Y017667D02*
X003997Y017667D01*
X003997Y017938D01*
X003907Y018028D01*
X003637Y017938D02*
X003637Y017757D01*
X003727Y017667D01*
X003637Y017420D02*
X003997Y017420D01*
X003817Y017420D02*
X003637Y017240D01*
X003637Y017150D01*
X003727Y016914D02*
X003637Y016823D01*
X003637Y016553D01*
X003457Y016553D02*
X003997Y016553D01*
X003997Y016823D01*
X003907Y016914D01*
X003727Y016914D01*
X003727Y016306D02*
X003907Y016306D01*
X003997Y016216D01*
X003997Y016036D01*
X003907Y015945D01*
X003727Y015945D01*
X003637Y016036D01*
X003637Y016216D01*
X003727Y016306D01*
X003637Y015698D02*
X003907Y015698D01*
X003997Y015608D01*
X003997Y015338D01*
X003637Y015338D01*
X003727Y015090D02*
X003637Y015000D01*
X003637Y014730D01*
X003817Y014820D02*
X003817Y015000D01*
X003727Y015090D01*
X003997Y015090D02*
X003997Y014820D01*
X003907Y014730D01*
X003817Y014820D01*
X003727Y014483D02*
X003367Y014483D01*
X003907Y014483D02*
X003997Y014483D01*
X003997Y013672D02*
X003457Y013672D01*
X003997Y013672D02*
X003997Y013312D01*
X003997Y013065D02*
X003997Y012884D01*
X003997Y012975D02*
X003637Y012975D01*
X003637Y013065D01*
X003457Y012975D02*
X003367Y012975D01*
X003637Y012659D02*
X003997Y012479D01*
X003637Y012299D01*
X003727Y012052D02*
X003637Y011962D01*
X003637Y011782D01*
X003727Y011691D01*
X003817Y011691D01*
X003817Y012052D01*
X003907Y012052D02*
X003727Y012052D01*
X003907Y012052D02*
X003997Y011962D01*
X003997Y011782D01*
X004057Y021486D02*
X003664Y021486D01*
X004057Y021486D02*
X003664Y021879D01*
X004057Y021486D02*
X002483Y022273D01*
X002876Y021486D01*
X002089Y021879D01*
D14*
X000542Y015329D02*
X000542Y015108D01*
X000542Y015218D02*
X000873Y015218D01*
X000873Y014960D02*
X000653Y014960D01*
X000763Y014960D02*
X000653Y014850D01*
X000653Y014795D01*
X000653Y014598D02*
X000653Y014488D01*
X000708Y014433D01*
X000873Y014433D01*
X000873Y014598D01*
X000818Y014653D01*
X000763Y014598D01*
X000763Y014433D01*
X000873Y014285D02*
X000653Y014285D01*
X000653Y014120D01*
X000708Y014065D01*
X000873Y014065D01*
X000873Y013917D02*
X000873Y013752D01*
X000818Y013697D01*
X000763Y013752D01*
X000763Y013862D01*
X000708Y013917D01*
X000653Y013862D01*
X000653Y013697D01*
X000708Y013548D02*
X000708Y013438D01*
X000597Y013493D02*
X000542Y013438D01*
X000597Y013493D02*
X000873Y013493D01*
X000873Y013303D02*
X000873Y013248D01*
X000818Y013248D01*
X000818Y013303D01*
X000873Y013303D01*
X000873Y012750D02*
X000542Y012750D01*
X000542Y012585D01*
X000597Y012530D01*
X000708Y012530D01*
X000763Y012585D01*
X000763Y012750D01*
X000763Y012382D02*
X000653Y012272D01*
X000653Y012217D01*
X000653Y012075D02*
X000653Y012020D01*
X000873Y012020D01*
X000873Y012075D02*
X000873Y011965D01*
X000873Y011830D02*
X000653Y011830D01*
X000653Y011775D01*
X000708Y011720D01*
X000653Y011664D01*
X000708Y011609D01*
X000873Y011609D01*
X000873Y011720D02*
X000708Y011720D01*
X000818Y011461D02*
X000763Y011406D01*
X000763Y011241D01*
X000708Y011241D02*
X000873Y011241D01*
X000873Y011406D01*
X000818Y011461D01*
X000653Y011406D02*
X000653Y011296D01*
X000708Y011241D01*
X000763Y011093D02*
X000653Y010983D01*
X000653Y010928D01*
X000653Y010786D02*
X000818Y010786D01*
X000873Y010731D01*
X000873Y010566D01*
X000928Y010566D02*
X000983Y010621D01*
X000983Y010676D01*
X000928Y010566D02*
X000653Y010566D01*
X000653Y011093D02*
X000873Y011093D01*
X000542Y012020D02*
X000487Y012020D01*
X000653Y012382D02*
X000873Y012382D01*
X000873Y009640D02*
X000542Y009640D01*
X000653Y009530D01*
X000542Y009419D01*
X000873Y009419D01*
X000818Y009271D02*
X000763Y009216D01*
X000763Y009051D01*
X000708Y009051D02*
X000873Y009051D01*
X000873Y009216D01*
X000818Y009271D01*
X000653Y009216D02*
X000653Y009106D01*
X000708Y009051D01*
X000653Y008903D02*
X000653Y008848D01*
X000873Y008848D01*
X000873Y008903D02*
X000873Y008793D01*
X000873Y008657D02*
X000653Y008657D01*
X000653Y008492D01*
X000708Y008437D01*
X000873Y008437D01*
X000873Y008289D02*
X000873Y008124D01*
X000818Y008069D01*
X000763Y008124D01*
X000763Y008234D01*
X000708Y008289D01*
X000653Y008234D01*
X000653Y008069D01*
X000542Y008848D02*
X000487Y008848D01*
X006437Y032879D02*
X006437Y033099D01*
X006327Y033099D02*
X006272Y033099D01*
X006327Y033099D02*
X006437Y032989D01*
X006586Y032989D02*
X006806Y032989D01*
X006806Y033044D02*
X006751Y033099D01*
X006641Y033099D01*
X006586Y033044D01*
X006586Y032989D01*
X006641Y032879D02*
X006751Y032879D01*
X006806Y032934D01*
X006806Y033044D01*
X006941Y033099D02*
X007051Y033099D01*
X006996Y033154D02*
X006996Y032934D01*
X006941Y032879D01*
X007199Y032879D02*
X007199Y033044D01*
X007254Y033099D01*
X007365Y033099D01*
X007365Y032989D02*
X007199Y032989D01*
X007199Y032879D02*
X007365Y032879D01*
X007420Y032934D01*
X007365Y032989D01*
X007568Y032989D02*
X007788Y032989D01*
X007788Y033044D02*
X007733Y033099D01*
X007623Y033099D01*
X007568Y033044D01*
X007568Y032989D01*
X007623Y032879D02*
X007733Y032879D01*
X007788Y032934D01*
X007788Y033044D01*
X007936Y033044D02*
X008156Y033044D01*
X008156Y032879D02*
X008156Y033209D01*
X007936Y033209D02*
X007936Y032879D01*
X009578Y033036D02*
X009744Y033036D01*
X009799Y033091D01*
X009799Y033202D01*
X009744Y033257D01*
X009578Y033257D01*
X009578Y033367D02*
X009578Y033036D01*
X009947Y033036D02*
X009947Y033202D01*
X010002Y033257D01*
X010167Y033257D01*
X010167Y033036D01*
X010315Y033036D02*
X010315Y033257D01*
X010535Y033257D02*
X010535Y033091D01*
X010480Y033036D01*
X010315Y033036D01*
X010683Y033091D02*
X010683Y033202D01*
X010738Y033257D01*
X010849Y033257D01*
X010904Y033202D01*
X010904Y033091D01*
X010849Y033036D01*
X010738Y033036D01*
X010683Y033091D01*
X011045Y033257D02*
X011100Y033257D01*
X011210Y033146D01*
X011210Y033036D02*
X011210Y033257D01*
X011359Y033312D02*
X011414Y033367D01*
X011524Y033367D01*
X011579Y033312D01*
X011579Y033091D01*
X011524Y033036D01*
X011414Y033036D01*
X011359Y033091D01*
X011359Y033202D01*
X011469Y033202D01*
X011727Y033367D02*
X011947Y033036D01*
X012095Y033036D02*
X012315Y033036D01*
X012315Y033367D01*
X012095Y033367D01*
X012205Y033202D02*
X012315Y033202D01*
X012464Y033202D02*
X012519Y033146D01*
X012684Y033146D01*
X012684Y033036D02*
X012684Y033367D01*
X012519Y033367D01*
X012464Y033312D01*
X012464Y033202D01*
X018261Y033158D02*
X018261Y032883D01*
X018316Y032828D01*
X018371Y032828D01*
X018426Y032938D02*
X018261Y032938D01*
X018426Y032938D02*
X018481Y032993D01*
X018481Y033158D01*
X018623Y033158D02*
X018678Y033158D01*
X018788Y033048D01*
X018788Y032938D02*
X018788Y033158D01*
X018936Y033103D02*
X018936Y032938D01*
X019101Y032938D01*
X019156Y032993D01*
X019101Y033048D01*
X018936Y033048D01*
X018936Y033103D02*
X018991Y033158D01*
X019101Y033158D01*
X019304Y033158D02*
X019470Y033158D01*
X019525Y033103D01*
X019525Y032993D01*
X019470Y032938D01*
X019304Y032938D01*
X019304Y033268D01*
X019673Y033103D02*
X019673Y032938D01*
X019673Y033103D02*
X019728Y033158D01*
X019893Y033158D01*
X019893Y032938D01*
X020041Y032993D02*
X020041Y033103D01*
X020096Y033158D01*
X020206Y033158D01*
X020261Y033103D01*
X020261Y032993D01*
X020206Y032938D01*
X020096Y032938D01*
X020041Y032993D01*
X020409Y032938D02*
X020574Y032938D01*
X020630Y032993D01*
X020630Y033103D01*
X020574Y033158D01*
X020409Y033158D01*
X020778Y033103D02*
X020778Y033048D01*
X020998Y033048D01*
X020998Y032993D02*
X020998Y033103D01*
X020943Y033158D01*
X020833Y033158D01*
X020778Y033103D01*
X020833Y032938D02*
X020943Y032938D01*
X020998Y032993D01*
X021146Y032993D02*
X021201Y032938D01*
X021311Y032938D01*
X021366Y032993D01*
X021311Y033103D02*
X021201Y033103D01*
X021146Y033048D01*
X021146Y032993D01*
X021311Y033103D02*
X021366Y033158D01*
X021366Y033213D01*
X021311Y033268D01*
X021201Y033268D01*
X021146Y033213D01*
X021876Y033158D02*
X021931Y033158D01*
X022041Y033048D01*
X022041Y032938D02*
X022041Y033158D01*
X022190Y033103D02*
X022190Y033048D01*
X022410Y033048D01*
X022410Y032993D02*
X022410Y033103D01*
X022355Y033158D01*
X022245Y033158D01*
X022190Y033103D01*
X022245Y032938D02*
X022355Y032938D01*
X022410Y032993D01*
X022558Y032938D02*
X022558Y033103D01*
X022613Y033158D01*
X022668Y033103D01*
X022668Y032938D01*
X022778Y032938D02*
X022778Y033158D01*
X022723Y033158D01*
X022668Y033103D01*
X022920Y033158D02*
X022975Y033158D01*
X023085Y033048D01*
X023085Y032938D02*
X023085Y033158D01*
X023233Y033103D02*
X023288Y033158D01*
X023398Y033158D01*
X023453Y033103D01*
X023453Y032993D01*
X023398Y032938D01*
X023288Y032938D01*
X023233Y032993D01*
X023233Y033103D01*
X023589Y033103D02*
X023699Y033103D01*
X023644Y033213D02*
X023589Y033268D01*
X023644Y033213D02*
X023644Y032938D01*
X023847Y032993D02*
X023902Y033048D01*
X024012Y033048D01*
X024067Y033103D01*
X024012Y033158D01*
X023847Y033158D01*
X023847Y032993D02*
X023902Y032938D01*
X024067Y032938D01*
X024215Y032938D02*
X024215Y033103D01*
X024270Y033158D01*
X024435Y033158D01*
X024435Y032938D01*
X024584Y032938D02*
X024749Y032938D01*
X024804Y032993D01*
X024749Y033048D01*
X024584Y033048D01*
X024584Y033103D02*
X024584Y032938D01*
X024584Y033103D02*
X024639Y033158D01*
X024749Y033158D01*
X024946Y033158D02*
X025001Y033158D01*
X025111Y033048D01*
X025111Y032938D02*
X025111Y033158D01*
X025259Y033268D02*
X025479Y033268D01*
X025369Y033268D02*
X025369Y032938D01*
X038541Y027102D02*
X038761Y027102D01*
X038651Y027102D02*
X038761Y027212D01*
X038761Y027268D01*
X038706Y026954D02*
X038651Y026954D01*
X038651Y026734D01*
X038596Y026734D02*
X038706Y026734D01*
X038761Y026789D01*
X038761Y026899D01*
X038706Y026954D01*
X038541Y026899D02*
X038541Y026789D01*
X038596Y026734D01*
X038541Y026586D02*
X038541Y026366D01*
X038761Y026586D01*
X038761Y026366D01*
X038761Y026218D02*
X038541Y025997D01*
X038541Y026218D01*
X038761Y026218D02*
X038761Y025997D01*
X038761Y025849D02*
X038541Y025849D01*
X038541Y025684D01*
X038596Y025629D01*
X038761Y025629D01*
X038761Y025481D02*
X038706Y025426D01*
X038706Y025261D01*
X038541Y025261D02*
X038541Y025426D01*
X038596Y025481D01*
X038651Y025481D01*
X038706Y025426D01*
X038761Y025481D02*
X038816Y025481D01*
X038871Y025426D01*
X038871Y025261D01*
X038541Y025261D01*
X038761Y023256D02*
X038761Y023201D01*
X038651Y023091D01*
X038541Y023091D02*
X038761Y023091D01*
X038706Y022943D02*
X038651Y022943D01*
X038651Y022722D01*
X038596Y022722D02*
X038706Y022722D01*
X038761Y022777D01*
X038761Y022888D01*
X038706Y022943D01*
X038541Y022888D02*
X038541Y022777D01*
X038596Y022722D01*
X038541Y022574D02*
X038541Y022409D01*
X038596Y022354D01*
X038706Y022354D01*
X038761Y022409D01*
X038761Y022574D01*
X038871Y022574D02*
X038541Y022574D01*
X038596Y022206D02*
X038706Y022206D01*
X038761Y022151D01*
X038761Y022041D01*
X038706Y021986D01*
X038596Y021986D01*
X038541Y022041D01*
X038541Y022151D01*
X038596Y022206D01*
X038541Y021838D02*
X038541Y021673D01*
X038596Y021617D01*
X038706Y021617D01*
X038761Y021673D01*
X038761Y021838D01*
X038706Y021469D02*
X038541Y021469D01*
X038706Y021469D02*
X038761Y021414D01*
X038761Y021249D01*
X038541Y021249D01*
X038541Y021101D02*
X038541Y020881D01*
X038871Y020881D01*
X038871Y021101D01*
X038706Y020991D02*
X038706Y020881D01*
X038706Y017826D02*
X038541Y017826D01*
X038706Y017826D02*
X038761Y017771D01*
X038761Y017606D01*
X038541Y017606D01*
X038596Y017458D02*
X038761Y017458D01*
X038596Y017458D02*
X038541Y017403D01*
X038596Y017348D01*
X038541Y017293D01*
X038596Y017238D01*
X038761Y017238D01*
X038706Y017089D02*
X038761Y017034D01*
X038761Y016924D01*
X038706Y016869D01*
X038596Y016869D01*
X038541Y016924D01*
X038541Y017034D01*
X038596Y017089D01*
X038706Y017089D01*
X038596Y016721D02*
X038816Y016721D01*
X038871Y016666D01*
X038871Y016501D01*
X038541Y016501D01*
X038541Y016666D01*
X038596Y016721D01*
X038596Y014432D02*
X038541Y014377D01*
X038541Y014212D01*
X038431Y014212D02*
X038761Y014212D01*
X038761Y014377D01*
X038706Y014432D01*
X038596Y014432D01*
X038596Y014064D02*
X038871Y014064D01*
X038871Y013843D02*
X038596Y013843D01*
X038541Y013899D01*
X038541Y014009D01*
X038596Y014064D01*
D15*
X038795Y012307D02*
X038968Y012307D01*
X038882Y012307D02*
X038882Y012047D01*
X038674Y012177D02*
X038500Y012177D01*
X038587Y011280D02*
X038587Y011106D01*
X038674Y011193D02*
X038500Y011193D01*
X038795Y011323D02*
X038968Y011323D01*
X038882Y011323D02*
X038882Y011063D01*
X038968Y010530D02*
X038708Y010530D01*
X038968Y010530D02*
X038968Y010357D01*
X038968Y010236D02*
X038968Y010062D01*
X038968Y009941D02*
X038968Y009811D01*
X038925Y009768D01*
X038751Y009768D01*
X038708Y009811D01*
X038708Y009941D01*
X038968Y009941D01*
X038838Y010149D02*
X038838Y010236D01*
X038708Y010236D02*
X038968Y010236D01*
X038708Y010236D02*
X038708Y010062D01*
X036901Y009213D02*
X036901Y009169D01*
X036858Y009126D01*
X036771Y009126D01*
X036728Y009083D01*
X036728Y009039D01*
X036771Y008996D01*
X036858Y008996D01*
X036901Y009039D01*
X036901Y009213D02*
X036858Y009256D01*
X036771Y009256D01*
X036728Y009213D01*
X036607Y009169D02*
X036607Y009039D01*
X036563Y008996D01*
X036520Y009039D01*
X036477Y008996D01*
X036433Y009039D01*
X036433Y009169D01*
X036312Y009169D02*
X036269Y009169D01*
X036269Y008996D01*
X036312Y008996D02*
X036225Y008996D01*
X036072Y009039D02*
X036072Y009213D01*
X036029Y009169D02*
X036116Y009169D01*
X036072Y009039D02*
X036029Y008996D01*
X035919Y009039D02*
X035876Y008996D01*
X035746Y008996D01*
X035625Y008996D02*
X035625Y009256D01*
X035581Y009169D02*
X035494Y009169D01*
X035451Y009126D01*
X035451Y008996D01*
X035581Y009169D02*
X035625Y009126D01*
X035746Y009169D02*
X035876Y009169D01*
X035919Y009126D01*
X035919Y009039D01*
X036269Y009256D02*
X036269Y009300D01*
X036017Y008272D02*
X036017Y008012D01*
X036139Y008012D02*
X036269Y008012D01*
X036312Y008055D01*
X036312Y008142D01*
X036269Y008185D01*
X036139Y008185D01*
X036017Y008142D02*
X035974Y008185D01*
X035887Y008185D01*
X035844Y008142D01*
X035844Y008012D01*
X036433Y008012D02*
X036433Y008142D01*
X036477Y008185D01*
X036563Y008185D01*
X036563Y008098D02*
X036433Y008098D01*
X036433Y008012D02*
X036563Y008012D01*
X036607Y008055D01*
X036563Y008098D01*
X036728Y008272D02*
X036901Y008272D01*
X036815Y008272D02*
X036815Y008012D01*
X036803Y007288D02*
X036629Y007288D01*
X036716Y007158D02*
X036803Y007158D01*
X036803Y007288D02*
X036803Y007027D01*
X036508Y007071D02*
X036465Y007114D01*
X036335Y007114D01*
X036335Y007158D02*
X036335Y007027D01*
X036465Y007027D01*
X036508Y007071D01*
X036465Y007201D02*
X036378Y007201D01*
X036335Y007158D01*
X036214Y007201D02*
X036083Y007201D01*
X036040Y007158D01*
X036040Y007027D01*
X036214Y007027D02*
X036214Y007201D01*
X033818Y005153D02*
X033644Y005153D01*
X033644Y005023D01*
X033688Y004980D01*
X033818Y004980D01*
X033644Y004858D02*
X033644Y004685D01*
X033644Y004772D02*
X033905Y004772D01*
X033818Y004685D01*
X032864Y004444D02*
X032864Y004270D01*
X032821Y004227D01*
X032734Y004227D01*
X032691Y004270D01*
X032569Y004227D02*
X032396Y004401D01*
X032396Y004444D01*
X032439Y004487D01*
X032526Y004487D01*
X032569Y004444D01*
X032691Y004444D02*
X032734Y004487D01*
X032821Y004487D01*
X032864Y004444D01*
X032569Y004227D02*
X032396Y004227D01*
X032275Y004227D02*
X032101Y004401D01*
X032101Y004444D01*
X032145Y004487D01*
X032231Y004487D01*
X032275Y004444D01*
X032275Y004227D02*
X032101Y004227D01*
X031646Y003275D02*
X031646Y003082D01*
X031469Y003082D02*
X031469Y003275D01*
X031065Y003275D02*
X031065Y003082D01*
X030888Y003082D02*
X030888Y003275D01*
X028829Y003001D02*
X028829Y002784D01*
X028786Y002741D01*
X028699Y002741D01*
X028656Y002784D01*
X028656Y003001D01*
X028535Y003001D02*
X028361Y003001D01*
X028361Y002958D01*
X028535Y002784D01*
X028535Y002741D01*
X027295Y003318D02*
X027252Y003274D01*
X027165Y003274D01*
X027122Y003318D01*
X027000Y003274D02*
X026827Y003448D01*
X026827Y003491D01*
X026870Y003535D01*
X026957Y003535D01*
X027000Y003491D01*
X027122Y003491D02*
X027165Y003535D01*
X027252Y003535D01*
X027295Y003491D01*
X027295Y003318D01*
X027000Y003274D02*
X026827Y003274D01*
X026706Y003318D02*
X026706Y003404D01*
X026576Y003404D01*
X026532Y003361D01*
X026532Y003318D01*
X026576Y003274D01*
X026662Y003274D01*
X026706Y003318D01*
X026706Y003404D02*
X026619Y003491D01*
X026532Y003535D01*
X026292Y003988D02*
X026379Y004075D01*
X026119Y004075D01*
X026119Y003988D02*
X026119Y004162D01*
X026162Y004283D02*
X026336Y004456D01*
X026162Y004456D01*
X026119Y004413D01*
X026119Y004326D01*
X026162Y004283D01*
X026336Y004283D01*
X026379Y004326D01*
X026379Y004413D01*
X026336Y004456D01*
X026336Y004577D02*
X026379Y004621D01*
X026379Y004707D01*
X026336Y004751D01*
X026162Y004577D01*
X026119Y004621D01*
X026119Y004707D01*
X026162Y004751D01*
X026336Y004751D01*
X026292Y004872D02*
X026292Y005002D01*
X026249Y005046D01*
X026119Y005046D01*
X026119Y004872D02*
X026292Y004872D01*
X026336Y004577D02*
X026162Y004577D01*
X026980Y006592D02*
X026980Y006734D01*
X027028Y006781D01*
X027169Y006781D01*
X027169Y006592D01*
X027296Y006640D02*
X027344Y006592D01*
X027438Y006592D01*
X027485Y006640D01*
X027296Y006828D01*
X027296Y006640D01*
X027296Y006828D02*
X027344Y006876D01*
X027438Y006876D01*
X027485Y006828D01*
X027485Y006640D01*
X027612Y006592D02*
X027801Y006592D01*
X027707Y006592D02*
X027707Y006876D01*
X027801Y006781D01*
X027453Y007736D02*
X027264Y007736D01*
X027358Y007736D02*
X027358Y008019D01*
X027453Y007925D01*
X027137Y007925D02*
X027137Y007783D01*
X027089Y007736D01*
X026948Y007736D01*
X026948Y007925D01*
X026948Y009114D02*
X026948Y009303D01*
X027137Y009303D02*
X027137Y009161D01*
X027089Y009114D01*
X026948Y009114D01*
X027264Y009114D02*
X027453Y009114D01*
X027358Y009114D02*
X027358Y009397D01*
X027453Y009303D01*
X027769Y010787D02*
X027958Y010787D01*
X027769Y010976D01*
X027769Y011023D01*
X027817Y011071D01*
X027911Y011071D01*
X027958Y011023D01*
X028085Y010929D02*
X028274Y010929D01*
X028132Y011071D01*
X028132Y010787D01*
X028401Y010787D02*
X028496Y010882D01*
X028448Y010882D02*
X028590Y010882D01*
X028590Y010787D02*
X028590Y011071D01*
X028448Y011071D01*
X028401Y011023D01*
X028401Y010929D01*
X028448Y010882D01*
X028448Y011267D02*
X028543Y011267D01*
X028590Y011314D01*
X028496Y011408D02*
X028448Y011408D01*
X028401Y011361D01*
X028401Y011314D01*
X028448Y011267D01*
X028448Y011408D02*
X028401Y011456D01*
X028401Y011503D01*
X028448Y011550D01*
X028543Y011550D01*
X028590Y011503D01*
X028274Y011503D02*
X028227Y011550D01*
X028132Y011550D01*
X028085Y011503D01*
X028274Y011314D01*
X028227Y011267D01*
X028132Y011267D01*
X028085Y011314D01*
X028085Y011503D01*
X027958Y011503D02*
X027911Y011550D01*
X027817Y011550D01*
X027769Y011503D01*
X027958Y011314D01*
X027911Y011267D01*
X027817Y011267D01*
X027769Y011314D01*
X027769Y011503D01*
X027642Y011550D02*
X027642Y011267D01*
X027642Y011361D02*
X027501Y011361D01*
X027454Y011408D01*
X027454Y011503D01*
X027501Y011550D01*
X027642Y011550D01*
X027548Y011361D02*
X027454Y011267D01*
X027327Y011172D02*
X027232Y011267D01*
X027279Y011267D01*
X027279Y011314D01*
X027232Y011314D01*
X027232Y011267D01*
X026800Y011314D02*
X026611Y011503D01*
X026611Y011314D01*
X026659Y011267D01*
X026753Y011267D01*
X026800Y011314D01*
X026800Y011503D01*
X026753Y011550D01*
X026659Y011550D01*
X026611Y011503D01*
X026484Y011314D02*
X026437Y011314D01*
X026437Y011267D01*
X026484Y011267D01*
X026484Y011314D01*
X026327Y011267D02*
X026138Y011267D01*
X026232Y011267D02*
X026232Y011550D01*
X026327Y011456D01*
X026011Y011503D02*
X026011Y011550D01*
X025964Y011550D01*
X025964Y011503D01*
X026011Y011503D01*
X026011Y011267D02*
X025775Y011550D01*
X025775Y011314D02*
X025775Y011267D01*
X025822Y011267D01*
X025822Y011314D01*
X025775Y011314D01*
X025775Y011857D02*
X025822Y011857D01*
X025822Y011905D01*
X025775Y011905D01*
X025775Y011857D01*
X026011Y011857D02*
X025775Y012141D01*
X025964Y012141D02*
X025964Y012093D01*
X026011Y012093D01*
X026011Y012141D01*
X025964Y012141D01*
X026232Y012141D02*
X026232Y011857D01*
X026138Y011857D02*
X026327Y011857D01*
X026437Y011857D02*
X026437Y011905D01*
X026484Y011905D01*
X026484Y011857D01*
X026437Y011857D01*
X026611Y011905D02*
X026659Y011857D01*
X026753Y011857D01*
X026800Y011905D01*
X026611Y012093D01*
X026611Y011905D01*
X026611Y012093D02*
X026659Y012141D01*
X026753Y012141D01*
X026800Y012093D01*
X026800Y011905D01*
X027232Y011905D02*
X027232Y011857D01*
X027279Y011857D01*
X027279Y011905D01*
X027232Y011905D01*
X027232Y011857D02*
X027327Y011763D01*
X027454Y011857D02*
X027548Y011952D01*
X027501Y011952D02*
X027642Y011952D01*
X027642Y011857D02*
X027642Y012141D01*
X027501Y012141D01*
X027454Y012093D01*
X027454Y011999D01*
X027501Y011952D01*
X027769Y011905D02*
X027817Y011857D01*
X027911Y011857D01*
X027958Y011905D01*
X027769Y012093D01*
X027769Y011905D01*
X027769Y012093D02*
X027817Y012141D01*
X027911Y012141D01*
X027958Y012093D01*
X027958Y011905D01*
X028085Y011905D02*
X028132Y011857D01*
X028227Y011857D01*
X028274Y011905D01*
X028085Y012093D01*
X028085Y011905D01*
X028085Y012093D02*
X028132Y012141D01*
X028227Y012141D01*
X028274Y012093D01*
X028274Y011905D01*
X028401Y011905D02*
X028448Y011857D01*
X028543Y011857D01*
X028590Y011905D01*
X028496Y011999D02*
X028448Y011999D01*
X028401Y011952D01*
X028401Y011905D01*
X028448Y011999D02*
X028401Y012046D01*
X028401Y012093D01*
X028448Y012141D01*
X028543Y012141D01*
X028590Y012093D01*
X028590Y012318D02*
X028590Y012602D01*
X028448Y012602D01*
X028401Y012554D01*
X028401Y012460D01*
X028448Y012413D01*
X028590Y012413D01*
X028496Y012413D02*
X028401Y012318D01*
X028274Y012460D02*
X028132Y012602D01*
X028132Y012318D01*
X028085Y012460D02*
X028274Y012460D01*
X027958Y012507D02*
X027864Y012602D01*
X027864Y012318D01*
X027958Y012318D02*
X027769Y012318D01*
X027958Y011503D02*
X027958Y011314D01*
X028274Y011314D02*
X028274Y011503D01*
X029003Y010818D02*
X029287Y010818D01*
X029145Y010677D01*
X029145Y010866D01*
X029084Y011109D02*
X029424Y011109D01*
X029424Y011390D02*
X029084Y011390D01*
X029084Y011897D02*
X029424Y011897D01*
X029424Y012177D02*
X029084Y012177D01*
X028990Y012571D02*
X028990Y012760D01*
X028990Y012665D02*
X029274Y012665D01*
X029179Y012571D01*
X029274Y012887D02*
X029179Y012981D01*
X029274Y013076D01*
X028990Y013076D01*
X028990Y012887D02*
X029274Y012887D01*
X029501Y012921D02*
X029501Y012728D01*
X029677Y012728D02*
X029677Y012921D01*
X029889Y012938D02*
X029936Y012890D01*
X030030Y012890D01*
X030077Y012938D01*
X029983Y013032D02*
X029936Y013032D01*
X029889Y012985D01*
X029889Y012938D01*
X029936Y013032D02*
X029889Y013079D01*
X029889Y013126D01*
X029936Y013174D01*
X030030Y013174D01*
X030077Y013126D01*
X030204Y013032D02*
X030393Y013032D01*
X030252Y013174D01*
X030252Y012890D01*
X030520Y012890D02*
X030615Y012985D01*
X030567Y012985D02*
X030709Y012985D01*
X030709Y012890D02*
X030709Y013174D01*
X030567Y013174D01*
X030520Y013126D01*
X030520Y013032D01*
X030567Y012985D01*
X030655Y013499D02*
X030655Y013782D01*
X030514Y013782D01*
X030466Y013735D01*
X030466Y013640D01*
X030514Y013593D01*
X030655Y013593D01*
X030561Y013593D02*
X030466Y013499D01*
X030339Y013640D02*
X030151Y013640D01*
X030198Y013499D02*
X030198Y013782D01*
X030339Y013640D01*
X030024Y013546D02*
X030024Y013499D01*
X030024Y013546D02*
X029835Y013735D01*
X029835Y013782D01*
X030024Y013782D01*
X029400Y013749D02*
X029207Y013749D01*
X029207Y013573D02*
X029400Y013573D01*
X028785Y013578D02*
X028738Y013531D01*
X028644Y013531D01*
X028596Y013578D01*
X028596Y013625D01*
X028644Y013672D01*
X028691Y013672D01*
X028644Y013672D02*
X028596Y013719D01*
X028596Y013767D01*
X028644Y013814D01*
X028738Y013814D01*
X028785Y013767D01*
X028469Y013814D02*
X028469Y013531D01*
X028469Y013625D02*
X028328Y013531D01*
X028206Y013578D02*
X028159Y013531D01*
X028065Y013531D01*
X028017Y013578D01*
X028017Y013625D01*
X028065Y013672D01*
X028112Y013672D01*
X028065Y013672D02*
X028017Y013719D01*
X028017Y013767D01*
X028065Y013814D01*
X028159Y013814D01*
X028206Y013767D01*
X028328Y013719D02*
X028469Y013625D01*
X027908Y013635D02*
X027861Y013587D01*
X027908Y013635D02*
X027908Y013729D01*
X027861Y013776D01*
X027814Y013776D01*
X027625Y013587D01*
X027625Y013776D01*
X027625Y013903D02*
X027908Y013903D01*
X027814Y014045D02*
X027719Y013903D01*
X027625Y014045D01*
X027625Y014166D02*
X027814Y014355D01*
X027861Y014355D01*
X027908Y014308D01*
X027908Y014214D01*
X027861Y014166D01*
X027625Y014166D02*
X027625Y014355D01*
X027423Y014102D02*
X027423Y013909D01*
X027247Y013909D02*
X027247Y014102D01*
X027054Y014041D02*
X026913Y013900D01*
X026913Y014089D01*
X026913Y014216D02*
X026913Y014357D01*
X026866Y014404D01*
X026818Y014404D01*
X026771Y014357D01*
X026771Y014263D01*
X026818Y014216D01*
X026913Y014216D01*
X027007Y014310D01*
X027054Y014404D01*
X027054Y014041D02*
X026771Y014041D01*
X026771Y013773D02*
X026866Y013678D01*
X026866Y013726D02*
X026866Y013584D01*
X026771Y013584D02*
X027054Y013584D01*
X027054Y013726D01*
X027007Y013773D01*
X026913Y013773D01*
X026866Y013726D01*
X025205Y012501D02*
X025161Y012545D01*
X024988Y012371D01*
X024944Y012415D01*
X024944Y012501D01*
X024988Y012545D01*
X025161Y012545D01*
X025205Y012501D02*
X025205Y012415D01*
X025161Y012371D01*
X024988Y012371D01*
X024988Y012250D02*
X024944Y012207D01*
X024944Y012120D01*
X024988Y012077D01*
X025161Y012250D01*
X024988Y012250D01*
X025161Y012250D02*
X025205Y012207D01*
X025205Y012120D01*
X025161Y012077D01*
X024988Y012077D01*
X024944Y011955D02*
X024944Y011782D01*
X024944Y011869D02*
X025205Y011869D01*
X025118Y011782D01*
X025118Y012666D02*
X025118Y012796D01*
X025075Y012839D01*
X024944Y012839D01*
X024944Y012666D02*
X025118Y012666D01*
X023902Y012599D02*
X023902Y012512D01*
X023858Y012469D01*
X023685Y012469D01*
X023858Y012642D01*
X023685Y012642D01*
X023641Y012599D01*
X023641Y012512D01*
X023685Y012469D01*
X023685Y012348D02*
X023641Y012304D01*
X023641Y012218D01*
X023685Y012174D01*
X023685Y012053D02*
X023641Y012010D01*
X023641Y011923D01*
X023685Y011880D01*
X023858Y011880D01*
X023902Y011923D01*
X023902Y012010D01*
X023858Y012053D01*
X023858Y012174D02*
X023902Y012218D01*
X023902Y012304D01*
X023858Y012348D01*
X023815Y012348D01*
X023771Y012304D01*
X023728Y012348D01*
X023685Y012348D01*
X023771Y012304D02*
X023771Y012261D01*
X023902Y012599D02*
X023858Y012642D01*
X026232Y012141D02*
X026327Y012046D01*
X029003Y010503D02*
X029287Y010503D01*
X029145Y010361D01*
X029145Y010550D01*
X029145Y010234D02*
X029098Y010187D01*
X029098Y010045D01*
X029003Y010045D02*
X029287Y010045D01*
X029287Y010187D01*
X029239Y010234D01*
X029145Y010234D01*
X029098Y010140D02*
X029003Y010234D01*
X029396Y009940D02*
X029396Y009657D01*
X029440Y009499D02*
X029440Y009311D01*
X029440Y009405D02*
X029723Y009405D01*
X029629Y009311D01*
X029723Y009184D02*
X029723Y008995D01*
X029440Y008995D01*
X029487Y008868D02*
X029440Y008821D01*
X029440Y008726D01*
X029487Y008679D01*
X029676Y008679D01*
X029723Y008726D01*
X029723Y008821D01*
X029676Y008868D01*
X029581Y008995D02*
X029581Y009089D01*
X029585Y009657D02*
X029585Y009940D01*
X029491Y009846D01*
X029396Y009940D01*
X029807Y009940D02*
X029807Y009657D01*
X029901Y009657D02*
X029712Y009657D01*
X029901Y009846D02*
X029807Y009940D01*
X029677Y010366D02*
X029677Y010558D01*
X029501Y010558D02*
X029501Y010366D01*
X030379Y010736D02*
X030379Y011019D01*
X030520Y010877D01*
X030331Y010877D01*
X030647Y010736D02*
X030836Y010736D01*
X030836Y011019D01*
X030532Y011260D02*
X030339Y011260D01*
X030339Y011436D02*
X030532Y011436D01*
X030532Y011850D02*
X030339Y011850D01*
X030339Y012027D02*
X030532Y012027D01*
X030450Y012216D02*
X030639Y012216D01*
X030639Y012499D01*
X030323Y012452D02*
X030276Y012499D01*
X030182Y012499D01*
X030135Y012452D01*
X030135Y012405D01*
X030182Y012358D01*
X030135Y012310D01*
X030135Y012263D01*
X030182Y012216D01*
X030276Y012216D01*
X030323Y012263D01*
X030229Y012358D02*
X030182Y012358D01*
X031493Y011041D02*
X031540Y011088D01*
X031634Y011088D01*
X031681Y011041D01*
X031493Y011041D02*
X031493Y010993D01*
X031681Y010804D01*
X031493Y010804D01*
X031808Y010804D02*
X031997Y010804D01*
X031997Y011088D01*
X033757Y011468D02*
X033946Y011468D01*
X033946Y011751D01*
X034073Y011751D02*
X034073Y011468D01*
X034261Y011751D01*
X034261Y011468D01*
X034388Y011515D02*
X034436Y011468D01*
X034530Y011468D01*
X034577Y011515D01*
X034704Y011515D02*
X034704Y011704D01*
X034893Y011515D01*
X034846Y011468D01*
X034751Y011468D01*
X034704Y011515D01*
X034704Y011704D02*
X034751Y011751D01*
X034846Y011751D01*
X034893Y011704D01*
X034893Y011515D01*
X035020Y011515D02*
X035020Y011704D01*
X035209Y011515D01*
X035162Y011468D01*
X035067Y011468D01*
X035020Y011515D01*
X035209Y011515D02*
X035209Y011704D01*
X035162Y011751D01*
X035067Y011751D01*
X035020Y011704D01*
X035336Y011610D02*
X035525Y011610D01*
X035383Y011751D01*
X035383Y011468D01*
X035652Y011515D02*
X035699Y011468D01*
X035840Y011468D01*
X035840Y011751D01*
X035699Y011751D01*
X035652Y011704D01*
X035652Y011657D01*
X035699Y011610D01*
X035840Y011610D01*
X035699Y011610D02*
X035652Y011562D01*
X035652Y011515D01*
X034577Y011704D02*
X034530Y011751D01*
X034436Y011751D01*
X034388Y011704D01*
X034388Y011657D01*
X034436Y011610D01*
X034388Y011562D01*
X034388Y011515D01*
X034436Y011610D02*
X034483Y011610D01*
X034444Y013701D02*
X034633Y013701D01*
X034538Y013701D02*
X034538Y013984D01*
X034633Y013889D01*
X034760Y013701D02*
X034949Y013701D01*
X034949Y013984D01*
X034907Y015856D02*
X035080Y015856D01*
X034994Y015856D02*
X034994Y016116D01*
X035080Y016030D01*
X034786Y016073D02*
X034786Y015900D01*
X034612Y016073D01*
X034612Y015900D01*
X034656Y015856D01*
X034742Y015856D01*
X034786Y015900D01*
X034786Y016073D02*
X034742Y016116D01*
X034656Y016116D01*
X034612Y016073D01*
X034491Y016116D02*
X034491Y015856D01*
X034491Y015943D02*
X034361Y015856D01*
X034491Y015943D02*
X034361Y016030D01*
X034620Y016329D02*
X034813Y016329D01*
X034813Y016505D02*
X034620Y016505D01*
X034656Y016717D02*
X034742Y016717D01*
X034786Y016761D01*
X034699Y016847D02*
X034656Y016847D01*
X034612Y016804D01*
X034612Y016761D01*
X034656Y016717D01*
X034656Y016847D02*
X034612Y016891D01*
X034612Y016934D01*
X034656Y016977D01*
X034742Y016977D01*
X034786Y016934D01*
X034907Y016934D02*
X034907Y016847D01*
X034950Y016804D01*
X035080Y016804D01*
X034994Y016804D02*
X034907Y016717D01*
X035080Y016717D02*
X035080Y016977D01*
X034950Y016977D01*
X034907Y016934D01*
X034491Y016977D02*
X034491Y016847D01*
X034404Y016891D01*
X034361Y016891D01*
X034318Y016847D01*
X034318Y016761D01*
X034361Y016717D01*
X034448Y016717D01*
X034491Y016761D01*
X034491Y016977D02*
X034318Y016977D01*
X035442Y016743D02*
X035572Y016656D01*
X035442Y016570D01*
X035572Y016570D02*
X035572Y016830D01*
X035693Y016786D02*
X035737Y016830D01*
X035823Y016830D01*
X035867Y016786D01*
X035693Y016786D02*
X035693Y016743D01*
X035867Y016570D01*
X035693Y016570D01*
X035988Y016570D02*
X036161Y016570D01*
X036075Y016570D02*
X036075Y016830D01*
X036161Y016743D01*
X036283Y016700D02*
X036456Y016700D01*
X036326Y016830D01*
X036326Y016570D01*
X036117Y017015D02*
X035777Y017015D01*
X035777Y017295D02*
X036117Y017295D01*
X036135Y017455D02*
X036222Y017542D01*
X036179Y017542D02*
X036309Y017542D01*
X036309Y017455D02*
X036309Y017716D01*
X036179Y017716D01*
X036135Y017672D01*
X036135Y017586D01*
X036179Y017542D01*
X036014Y017499D02*
X035971Y017455D01*
X035884Y017455D01*
X035841Y017499D01*
X035841Y017542D01*
X035884Y017586D01*
X035928Y017586D01*
X035884Y017586D02*
X035841Y017629D01*
X035841Y017672D01*
X035884Y017716D01*
X035971Y017716D01*
X036014Y017672D01*
X035720Y017586D02*
X035546Y017586D01*
X035590Y017716D02*
X035720Y017586D01*
X035590Y017716D02*
X035590Y017455D01*
X035629Y018268D02*
X035499Y018268D01*
X035499Y018441D01*
X035673Y018441D02*
X035673Y018311D01*
X035629Y018268D01*
X035794Y018484D02*
X035967Y018311D01*
X035967Y018268D01*
X036071Y018268D02*
X036115Y018268D01*
X036115Y018311D01*
X036071Y018311D01*
X036071Y018268D01*
X036279Y018268D02*
X036279Y018528D01*
X036409Y018398D01*
X036236Y018398D01*
X035967Y018528D02*
X035794Y018528D01*
X035794Y018484D01*
X035823Y019783D02*
X035996Y019783D01*
X035910Y019783D02*
X035910Y020044D01*
X035996Y019957D01*
X036118Y020000D02*
X036161Y020044D01*
X036248Y020044D01*
X036291Y020000D01*
X036291Y019827D01*
X036248Y019783D01*
X036161Y019783D01*
X036118Y019827D01*
X035702Y019827D02*
X035658Y019783D01*
X035572Y019783D01*
X035528Y019827D01*
X035528Y019870D01*
X035572Y019913D01*
X035702Y019913D01*
X035702Y019827D01*
X035702Y019913D02*
X035615Y020000D01*
X035528Y020044D01*
X035639Y021885D02*
X035595Y021928D01*
X035595Y022101D01*
X035639Y022145D01*
X035725Y022145D01*
X035769Y022101D01*
X035769Y022058D01*
X035725Y022015D01*
X035595Y022015D01*
X035639Y021885D02*
X035725Y021885D01*
X035769Y021928D01*
X035890Y021885D02*
X036063Y021885D01*
X035977Y021885D02*
X035977Y022145D01*
X036063Y022058D01*
X036185Y022101D02*
X036228Y022145D01*
X036315Y022145D01*
X036358Y022101D01*
X036358Y021928D01*
X036315Y021885D01*
X036228Y021885D01*
X036185Y021928D01*
X036167Y023164D02*
X036080Y023164D01*
X036037Y023208D01*
X036037Y023381D01*
X036210Y023208D01*
X036167Y023164D01*
X036210Y023208D02*
X036210Y023381D01*
X036167Y023424D01*
X036080Y023424D01*
X036037Y023381D01*
X035916Y023381D02*
X035872Y023424D01*
X035786Y023424D01*
X035742Y023381D01*
X035916Y023208D01*
X035872Y023164D01*
X035786Y023164D01*
X035742Y023208D01*
X035742Y023381D01*
X035621Y023338D02*
X035491Y023338D01*
X035448Y023294D01*
X035448Y023164D01*
X035621Y023164D02*
X035621Y023338D01*
X035916Y023381D02*
X035916Y023208D01*
X036332Y023164D02*
X036505Y023164D01*
X036418Y023164D02*
X036418Y023424D01*
X036505Y023338D01*
X034997Y024685D02*
X034737Y024685D01*
X034737Y024858D02*
X034997Y024858D01*
X034910Y024772D01*
X034997Y024685D01*
X034997Y024980D02*
X034910Y025066D01*
X034997Y025153D01*
X034737Y025153D01*
X034737Y025274D02*
X034737Y025404D01*
X034780Y025448D01*
X034824Y025448D01*
X034867Y025404D01*
X034867Y025274D01*
X034737Y025274D02*
X034997Y025274D01*
X034997Y025404D01*
X034954Y025448D01*
X034910Y025448D01*
X034867Y025404D01*
X034867Y025569D02*
X034867Y025656D01*
X034997Y025742D02*
X034997Y025569D01*
X034737Y025569D01*
X034737Y025864D02*
X034737Y026037D01*
X034737Y025950D02*
X034997Y025950D01*
X034910Y025864D01*
X034997Y026158D02*
X034997Y026332D01*
X034954Y026332D01*
X034780Y026158D01*
X034737Y026158D01*
X034780Y026453D02*
X034954Y026626D01*
X034780Y026626D01*
X034737Y026583D01*
X034737Y026496D01*
X034780Y026453D01*
X034954Y026453D01*
X034997Y026496D01*
X034997Y026583D01*
X034954Y026626D01*
X035658Y026675D02*
X035831Y026502D01*
X035831Y026459D01*
X035952Y026459D02*
X036039Y026545D01*
X035996Y026459D02*
X036082Y026459D01*
X036126Y026502D01*
X036126Y026675D01*
X036082Y026719D01*
X035996Y026719D01*
X035952Y026675D01*
X035952Y026502D01*
X035996Y026459D01*
X036158Y026278D02*
X035638Y026278D01*
X035638Y025158D01*
X036158Y025158D01*
X036158Y025459D01*
X036158Y025158D02*
X035825Y025158D01*
X036158Y025158D02*
X036158Y026278D01*
X036158Y025967D01*
X036158Y026278D02*
X035825Y026278D01*
X035658Y026675D02*
X035658Y026719D01*
X035831Y026719D01*
X034997Y024980D02*
X034737Y024980D01*
X033285Y023952D02*
X033241Y023866D01*
X033154Y023779D01*
X033154Y023909D01*
X033111Y023952D01*
X033068Y023952D01*
X033024Y023909D01*
X033024Y023822D01*
X033068Y023779D01*
X033154Y023779D01*
X033068Y023658D02*
X033285Y023658D01*
X033285Y023484D02*
X033068Y023484D01*
X033024Y023528D01*
X033024Y023614D01*
X033068Y023658D01*
X030788Y023766D02*
X030701Y023679D01*
X030788Y023766D02*
X030527Y023766D01*
X030527Y023679D02*
X030527Y023853D01*
X030658Y023974D02*
X030658Y024147D01*
X030788Y024104D02*
X030658Y023974D01*
X030788Y024104D02*
X030527Y024104D01*
X030527Y024268D02*
X030701Y024442D01*
X030744Y024442D01*
X030788Y024399D01*
X030788Y024312D01*
X030744Y024268D01*
X030527Y024268D02*
X030527Y024442D01*
X030527Y024563D02*
X030527Y024693D01*
X030571Y024737D01*
X030744Y024737D01*
X030788Y024693D01*
X030788Y024563D01*
X030527Y024563D01*
X030571Y024858D02*
X030527Y024901D01*
X030527Y024988D01*
X030571Y025031D01*
X030571Y025152D02*
X030527Y025196D01*
X030527Y025282D01*
X030571Y025326D01*
X030658Y025326D01*
X030701Y025282D01*
X030701Y025239D01*
X030658Y025152D01*
X030788Y025152D01*
X030788Y025326D01*
X030788Y025447D02*
X030788Y025534D01*
X030788Y025490D02*
X030527Y025490D01*
X030527Y025447D02*
X030527Y025534D01*
X030744Y025031D02*
X030788Y024988D01*
X030788Y024901D01*
X030744Y024858D01*
X030571Y024858D01*
X030527Y023558D02*
X030527Y023384D01*
X030527Y023471D02*
X030788Y023471D01*
X030701Y023384D01*
X030658Y023263D02*
X030658Y023090D01*
X030614Y022969D02*
X030571Y022969D01*
X030527Y022925D01*
X030527Y022839D01*
X030571Y022795D01*
X030658Y022839D02*
X030658Y022925D01*
X030614Y022969D01*
X030744Y022969D02*
X030788Y022925D01*
X030788Y022839D01*
X030744Y022795D01*
X030701Y022795D01*
X030658Y022839D01*
X027957Y020859D02*
X027913Y020902D01*
X027783Y020902D01*
X027783Y020729D02*
X027957Y020729D01*
X027957Y020859D01*
X028000Y020608D02*
X027826Y020434D01*
X027783Y020478D01*
X027783Y020564D01*
X027826Y020608D01*
X028000Y020608D01*
X028043Y020564D01*
X028043Y020478D01*
X028000Y020434D01*
X027826Y020434D01*
X027826Y020313D02*
X027783Y020270D01*
X027783Y020183D01*
X027826Y020140D01*
X028000Y020313D01*
X027826Y020313D01*
X027826Y020140D02*
X028000Y020140D01*
X028043Y020183D01*
X028043Y020270D01*
X028000Y020313D01*
X027783Y020018D02*
X027783Y019845D01*
X027783Y019932D02*
X028043Y019932D01*
X027957Y019845D01*
X027858Y019414D02*
X027771Y019414D01*
X027728Y019370D01*
X027728Y019327D01*
X027771Y019284D01*
X027728Y019240D01*
X027728Y019197D01*
X027771Y019153D01*
X027858Y019153D01*
X027902Y019197D01*
X027815Y019284D02*
X027771Y019284D01*
X027902Y019370D02*
X027858Y019414D01*
X028023Y019370D02*
X028023Y019284D01*
X028066Y019240D01*
X028196Y019240D01*
X028109Y019240D02*
X028023Y019153D01*
X028196Y019153D02*
X028196Y019414D01*
X028066Y019414D01*
X028023Y019370D01*
X027607Y019370D02*
X027564Y019414D01*
X027477Y019414D01*
X027433Y019370D01*
X027433Y019327D01*
X027477Y019284D01*
X027433Y019240D01*
X027433Y019197D01*
X027477Y019153D01*
X027564Y019153D01*
X027607Y019197D01*
X027520Y019284D02*
X027477Y019284D01*
X027509Y018968D02*
X027849Y018968D01*
X027849Y018688D02*
X027509Y018688D01*
X027532Y018479D02*
X027532Y018435D01*
X027705Y018262D01*
X027705Y018218D01*
X027821Y018218D02*
X027951Y018305D01*
X027821Y018392D01*
X027705Y018479D02*
X027532Y018479D01*
X027951Y018479D02*
X027951Y018218D01*
X028072Y018218D02*
X028245Y018218D01*
X028159Y018218D02*
X028159Y018479D01*
X028245Y018392D01*
X028894Y017588D02*
X028994Y017588D01*
X028994Y017428D01*
X028894Y017428D01*
X028894Y017588D01*
X028824Y017428D02*
X029664Y017428D01*
X029664Y016488D01*
X028824Y016488D01*
X028824Y016838D01*
X028824Y017428D01*
X028784Y017258D02*
X028784Y016658D01*
X028894Y016488D02*
X028894Y016328D01*
X028994Y016328D01*
X028994Y016488D01*
X028894Y016488D01*
X029094Y016488D02*
X029094Y016328D01*
X029194Y016328D01*
X029194Y016488D01*
X029094Y016488D01*
X029294Y016488D02*
X029294Y016328D01*
X029394Y016328D01*
X029394Y016488D01*
X029294Y016488D01*
X029494Y016488D02*
X029494Y016328D01*
X029594Y016328D01*
X029594Y016488D01*
X029494Y016488D01*
X029704Y016658D02*
X029704Y017258D01*
X029821Y017193D02*
X030057Y017193D01*
X030104Y017241D01*
X030104Y017335D01*
X030057Y017382D01*
X029821Y017382D01*
X029594Y017428D02*
X029594Y017588D01*
X029494Y017588D01*
X029494Y017428D01*
X029594Y017428D01*
X029394Y017428D02*
X029394Y017588D01*
X029294Y017588D01*
X029294Y017428D01*
X029394Y017428D01*
X029194Y017428D02*
X029194Y017588D01*
X029094Y017588D01*
X029094Y017428D01*
X029194Y017428D01*
X028834Y017078D02*
X028855Y017075D01*
X028875Y017069D01*
X028893Y017059D01*
X028910Y017047D01*
X028924Y017031D01*
X028935Y017014D01*
X028943Y016994D01*
X028948Y016974D01*
X028949Y016953D01*
X028946Y016932D01*
X028940Y016912D01*
X028930Y016894D01*
X028918Y016877D01*
X028902Y016863D01*
X028885Y016852D01*
X028865Y016844D01*
X028845Y016839D01*
X028824Y016838D01*
X029821Y016750D02*
X029821Y016562D01*
X029868Y016562D01*
X030057Y016750D01*
X030104Y016750D01*
X030104Y016877D02*
X030104Y017066D01*
X030104Y016972D02*
X029821Y016972D01*
X029915Y017066D01*
X032727Y019391D02*
X032987Y019564D01*
X032901Y019685D02*
X032987Y019772D01*
X032727Y019772D01*
X032727Y019685D02*
X032727Y019859D01*
X032727Y019980D02*
X032901Y020153D01*
X032944Y020153D01*
X032987Y020110D01*
X032987Y020023D01*
X032944Y019980D01*
X032727Y019980D02*
X032727Y020153D01*
X032727Y019564D02*
X032987Y019391D01*
X027607Y022157D02*
X027564Y022113D01*
X027477Y022113D01*
X027434Y022157D01*
X027434Y022373D01*
X027607Y022373D02*
X027607Y022157D01*
X027312Y022243D02*
X027139Y022243D01*
X027182Y022113D02*
X027182Y022373D01*
X027312Y022243D01*
X027040Y021984D02*
X027040Y021184D01*
X026990Y021244D02*
X025810Y021244D01*
X025810Y021464D01*
X025810Y021704D01*
X025810Y021924D01*
X026990Y021924D01*
X026990Y021244D01*
X026870Y021244D02*
X026870Y020994D01*
X026670Y020994D01*
X026670Y021244D01*
X026870Y021244D01*
X026500Y021244D02*
X026500Y020994D01*
X026300Y020994D01*
X026300Y021244D01*
X026500Y021244D01*
X026130Y021244D02*
X026130Y020994D01*
X025930Y020994D01*
X025930Y021244D01*
X026130Y021244D01*
X025760Y021184D02*
X025760Y021984D01*
X025930Y021924D02*
X025930Y022174D01*
X026130Y022174D01*
X026130Y021924D01*
X025930Y021924D01*
X025810Y021704D02*
X025831Y021702D01*
X025851Y021697D01*
X025870Y021688D01*
X025887Y021676D01*
X025902Y021661D01*
X025914Y021644D01*
X025923Y021625D01*
X025928Y021605D01*
X025930Y021584D01*
X025928Y021563D01*
X025923Y021543D01*
X025914Y021524D01*
X025902Y021507D01*
X025887Y021492D01*
X025870Y021480D01*
X025851Y021471D01*
X025831Y021466D01*
X025810Y021464D01*
X025177Y021477D02*
X025090Y021563D01*
X025090Y021303D01*
X025177Y021303D02*
X025003Y021303D01*
X024882Y021346D02*
X024709Y021520D01*
X024709Y021346D01*
X024752Y021303D01*
X024839Y021303D01*
X024882Y021346D01*
X024882Y021520D01*
X024839Y021563D01*
X024752Y021563D01*
X024709Y021520D01*
X024588Y021520D02*
X024544Y021563D01*
X024458Y021563D01*
X024414Y021520D01*
X024588Y021346D01*
X024544Y021303D01*
X024458Y021303D01*
X024414Y021346D01*
X024414Y021520D01*
X024293Y021477D02*
X024293Y021303D01*
X024119Y021303D02*
X024119Y021433D01*
X024163Y021477D01*
X024293Y021477D01*
X024588Y021520D02*
X024588Y021346D01*
X023565Y021385D02*
X023392Y021385D01*
X023478Y021385D02*
X023478Y021645D01*
X023565Y021558D01*
X023271Y021601D02*
X023227Y021645D01*
X023140Y021645D01*
X023097Y021601D01*
X023271Y021428D01*
X023227Y021385D01*
X023140Y021385D01*
X023097Y021428D01*
X023097Y021601D01*
X022976Y021558D02*
X022976Y021428D01*
X022932Y021385D01*
X022802Y021385D01*
X022802Y021558D01*
X022681Y021515D02*
X022508Y021515D01*
X022508Y021645D02*
X022508Y021385D01*
X022681Y021385D02*
X022681Y021645D01*
X023271Y021601D02*
X023271Y021428D01*
X023291Y022508D02*
X023465Y022508D01*
X023465Y022768D01*
X023170Y022768D02*
X023170Y022638D01*
X023083Y022681D01*
X023040Y022681D01*
X022997Y022638D01*
X022997Y022551D01*
X023040Y022508D01*
X023127Y022508D01*
X023170Y022551D01*
X023170Y022768D02*
X022997Y022768D01*
X024237Y022736D02*
X024367Y022736D01*
X024410Y022780D01*
X024410Y022823D01*
X024367Y022866D01*
X024280Y022866D01*
X024237Y022823D01*
X024237Y022650D01*
X024280Y022606D01*
X024367Y022606D01*
X024410Y022650D01*
X024532Y022606D02*
X024705Y022606D01*
X024532Y022780D01*
X024532Y022823D01*
X024575Y022866D01*
X024662Y022866D01*
X024705Y022823D01*
X024826Y022823D02*
X024870Y022866D01*
X024956Y022866D01*
X025000Y022823D01*
X025000Y022650D01*
X024956Y022606D01*
X024870Y022606D01*
X024826Y022650D01*
X026300Y022174D02*
X026300Y021924D01*
X026500Y021924D01*
X026500Y022174D01*
X026300Y022174D01*
X026670Y022174D02*
X026670Y021924D01*
X026870Y021924D01*
X026870Y022174D01*
X026670Y022174D01*
X026607Y019733D02*
X026434Y019733D01*
X026434Y019690D01*
X026607Y019517D01*
X026607Y019473D01*
X026729Y019473D02*
X026902Y019473D01*
X026815Y019473D02*
X026815Y019733D01*
X026902Y019647D01*
X027023Y019690D02*
X027067Y019733D01*
X027153Y019733D01*
X027197Y019690D01*
X027197Y019517D01*
X027153Y019473D01*
X027067Y019473D01*
X027023Y019517D01*
X025644Y016681D02*
X025557Y016594D01*
X025557Y016420D01*
X025557Y016550D02*
X025731Y016550D01*
X025731Y016594D02*
X025644Y016681D01*
X025731Y016594D02*
X025731Y016420D01*
X025349Y016420D02*
X025349Y016681D01*
X025263Y016681D02*
X025436Y016681D01*
X025141Y016681D02*
X025055Y016594D01*
X024968Y016681D01*
X024968Y016420D01*
X024847Y016420D02*
X024673Y016420D01*
X024552Y016464D02*
X024509Y016420D01*
X024422Y016420D01*
X024379Y016464D01*
X024379Y016550D01*
X024465Y016550D01*
X024552Y016464D02*
X024552Y016637D01*
X024509Y016681D01*
X024422Y016681D01*
X024379Y016637D01*
X024257Y016594D02*
X024171Y016681D01*
X024084Y016594D01*
X024084Y016420D01*
X023963Y016464D02*
X023919Y016420D01*
X023833Y016420D01*
X023789Y016464D01*
X023789Y016507D01*
X023833Y016550D01*
X023876Y016550D01*
X023833Y016550D02*
X023789Y016594D01*
X023789Y016637D01*
X023833Y016681D01*
X023919Y016681D01*
X023963Y016637D01*
X024084Y016550D02*
X024257Y016550D01*
X024257Y016594D02*
X024257Y016420D01*
X024673Y016681D02*
X024847Y016681D01*
X024847Y016420D01*
X024847Y016550D02*
X024760Y016550D01*
X025141Y016420D02*
X025141Y016681D01*
X023668Y016637D02*
X023625Y016681D01*
X023538Y016681D01*
X023495Y016637D01*
X023495Y016594D01*
X023668Y016420D01*
X023495Y016420D01*
X023373Y016550D02*
X023200Y016550D01*
X023079Y016507D02*
X022949Y016507D01*
X022905Y016550D01*
X022905Y016637D01*
X022949Y016681D01*
X023079Y016681D01*
X023079Y016420D01*
X023243Y016420D02*
X023243Y016681D01*
X023373Y016550D01*
X022784Y016550D02*
X022654Y016550D01*
X022611Y016507D01*
X022611Y016464D01*
X022654Y016420D01*
X022784Y016420D01*
X022784Y016681D01*
X022654Y016681D01*
X022611Y016637D01*
X022611Y016594D01*
X022654Y016550D01*
X022593Y019841D02*
X022637Y019884D01*
X022593Y019841D02*
X022507Y019841D01*
X022463Y019884D01*
X022463Y019971D01*
X022507Y020015D01*
X022550Y020015D01*
X022637Y019971D01*
X022637Y020101D01*
X022463Y020101D01*
X022845Y020101D02*
X022845Y019841D01*
X022931Y019841D02*
X022758Y019841D01*
X022931Y020015D02*
X022845Y020101D01*
X023053Y020101D02*
X023053Y019884D01*
X023096Y019841D01*
X023183Y019841D01*
X023226Y019884D01*
X023226Y020101D01*
X018594Y024122D02*
X018551Y024078D01*
X018508Y024078D01*
X018464Y024122D01*
X018464Y024209D01*
X018421Y024252D01*
X018378Y024252D01*
X018334Y024209D01*
X018334Y024122D01*
X018378Y024078D01*
X018594Y024122D02*
X018594Y024209D01*
X018551Y024252D01*
X018594Y024373D02*
X018508Y024460D01*
X018594Y024547D01*
X018334Y024547D01*
X018334Y024373D02*
X018594Y024373D01*
X018464Y024668D02*
X018464Y024841D01*
X018334Y024798D02*
X018594Y024798D01*
X018464Y024668D01*
X018378Y024962D02*
X018551Y025136D01*
X018378Y025136D01*
X018334Y025092D01*
X018334Y025006D01*
X018378Y024962D01*
X018551Y024962D01*
X018594Y025006D01*
X018594Y025092D01*
X018551Y025136D01*
X018551Y025257D02*
X018594Y025300D01*
X018594Y025387D01*
X018551Y025431D01*
X018378Y025257D01*
X018334Y025300D01*
X018334Y025387D01*
X018378Y025431D01*
X018551Y025431D01*
X018464Y025552D02*
X018464Y025725D01*
X018334Y025682D02*
X018594Y025682D01*
X018464Y025552D01*
X018378Y025257D02*
X018551Y025257D01*
X017807Y025256D02*
X017677Y025256D01*
X017633Y025299D01*
X017633Y025473D01*
X017677Y025516D01*
X017807Y025516D01*
X017807Y025256D01*
X017512Y025256D02*
X017339Y025429D01*
X017339Y025473D01*
X017382Y025516D01*
X017469Y025516D01*
X017512Y025473D01*
X017512Y025256D02*
X017339Y025256D01*
X016552Y024149D02*
X016509Y024149D01*
X016335Y023976D01*
X016292Y023976D01*
X016292Y023854D02*
X016379Y023768D01*
X016379Y023811D02*
X016379Y023681D01*
X016292Y023681D02*
X016552Y023681D01*
X016552Y023811D01*
X016509Y023854D01*
X016422Y023854D01*
X016379Y023811D01*
X016552Y023976D02*
X016552Y024149D01*
X016186Y023523D02*
X016099Y023523D01*
X016056Y023479D01*
X016056Y023436D01*
X016230Y023263D01*
X016056Y023263D01*
X015935Y023393D02*
X015761Y023393D01*
X015805Y023523D02*
X015935Y023393D01*
X015805Y023263D02*
X015805Y023523D01*
X015640Y023479D02*
X015640Y023306D01*
X015467Y023479D01*
X015467Y023306D01*
X015510Y023263D01*
X015597Y023263D01*
X015640Y023306D01*
X015640Y023479D02*
X015597Y023523D01*
X015510Y023523D01*
X015467Y023479D01*
X015346Y023523D02*
X015215Y023523D01*
X015172Y023479D01*
X015172Y023393D01*
X015215Y023349D01*
X015346Y023349D01*
X015346Y023263D02*
X015346Y023523D01*
X015259Y023349D02*
X015172Y023263D01*
X015501Y023708D02*
X015842Y023708D01*
X015842Y023988D02*
X015501Y023988D01*
X016186Y023523D02*
X016230Y023479D01*
X016778Y022909D02*
X016822Y022909D01*
X016865Y022866D01*
X016865Y022735D01*
X016778Y022735D01*
X016735Y022779D01*
X016735Y022866D01*
X016778Y022909D01*
X016952Y022822D02*
X016865Y022735D01*
X016952Y022822D02*
X016995Y022909D01*
X016952Y022614D02*
X016995Y022571D01*
X016995Y022484D01*
X016952Y022441D01*
X016778Y022441D01*
X016735Y022484D01*
X016735Y022571D01*
X016778Y022614D01*
X016279Y022117D02*
X016192Y022204D01*
X016192Y021944D01*
X016279Y021944D02*
X016105Y021944D01*
X015984Y021987D02*
X015811Y022161D01*
X015811Y021987D01*
X015854Y021944D01*
X015941Y021944D01*
X015984Y021987D01*
X015984Y022161D01*
X015941Y022204D01*
X015854Y022204D01*
X015811Y022161D01*
X015689Y022161D02*
X015689Y021987D01*
X015516Y022161D01*
X015516Y021987D01*
X015559Y021944D01*
X015646Y021944D01*
X015689Y021987D01*
X015689Y022161D02*
X015646Y022204D01*
X015559Y022204D01*
X015516Y022161D01*
X015395Y022117D02*
X015265Y022117D01*
X015221Y022074D01*
X015221Y021944D01*
X015395Y021944D02*
X015395Y022117D01*
X014614Y024275D02*
X014571Y024275D01*
X014527Y024319D01*
X014527Y024405D01*
X014484Y024449D01*
X014441Y024449D01*
X014397Y024405D01*
X014397Y024319D01*
X014441Y024275D01*
X014614Y024275D02*
X014657Y024319D01*
X014657Y024405D01*
X014614Y024449D01*
X014657Y024570D02*
X014571Y024657D01*
X014657Y024743D01*
X014397Y024743D01*
X014397Y024570D02*
X014657Y024570D01*
X014527Y024865D02*
X014527Y025038D01*
X014397Y024995D02*
X014657Y024995D01*
X014527Y024865D01*
X014441Y025159D02*
X014614Y025333D01*
X014441Y025333D01*
X014397Y025289D01*
X014397Y025203D01*
X014441Y025159D01*
X014614Y025159D01*
X014657Y025203D01*
X014657Y025289D01*
X014614Y025333D01*
X014614Y025454D02*
X014441Y025454D01*
X014614Y025627D01*
X014441Y025627D01*
X014397Y025584D01*
X014397Y025497D01*
X014441Y025454D01*
X014614Y025454D02*
X014657Y025497D01*
X014657Y025584D01*
X014614Y025627D01*
X014527Y025749D02*
X014527Y025922D01*
X014397Y025879D02*
X014657Y025879D01*
X014527Y025749D01*
X013671Y025727D02*
X013628Y025684D01*
X013541Y025684D01*
X013498Y025727D01*
X013376Y025684D02*
X013203Y025684D01*
X013290Y025684D02*
X013290Y025944D01*
X013376Y025857D01*
X013498Y025901D02*
X013541Y025944D01*
X013628Y025944D01*
X013671Y025901D01*
X013671Y025727D01*
X013082Y025727D02*
X013082Y025901D01*
X013038Y025944D01*
X012952Y025944D01*
X012908Y025901D01*
X013082Y025727D01*
X013038Y025684D01*
X012952Y025684D01*
X012908Y025727D01*
X012908Y025901D01*
X012002Y025377D02*
X009498Y025377D01*
X009498Y021934D01*
X011799Y021934D01*
X011799Y025338D01*
X012002Y025377D02*
X012002Y021934D01*
X011799Y021934D01*
X012024Y021595D02*
X012198Y021595D01*
X012241Y021552D01*
X012241Y021465D01*
X012198Y021422D01*
X012155Y021422D01*
X012111Y021465D01*
X012111Y021595D01*
X012024Y021595D02*
X011981Y021552D01*
X011981Y021465D01*
X012024Y021422D01*
X011981Y021301D02*
X011981Y021127D01*
X011981Y021214D02*
X012241Y021214D01*
X012155Y021127D01*
X012198Y021006D02*
X012111Y021006D01*
X012068Y020963D01*
X012068Y020832D01*
X011981Y020832D02*
X012241Y020832D01*
X012241Y020963D01*
X012198Y021006D01*
X012068Y020919D02*
X011981Y021006D01*
X012483Y021340D02*
X012483Y021533D01*
X012659Y021533D02*
X012659Y021340D01*
X012872Y021422D02*
X013132Y021422D01*
X013132Y021552D01*
X013089Y021595D01*
X013002Y021595D01*
X012958Y021552D01*
X012958Y021422D01*
X012958Y021509D02*
X012872Y021595D01*
X012915Y021301D02*
X012872Y021257D01*
X012872Y021170D01*
X012915Y021127D01*
X013089Y021301D01*
X012915Y021301D01*
X013089Y021301D02*
X013132Y021257D01*
X013132Y021170D01*
X013089Y021127D01*
X012915Y021127D01*
X012915Y021006D02*
X012872Y020963D01*
X012872Y020876D01*
X012915Y020832D01*
X013089Y021006D01*
X012915Y021006D01*
X013089Y021006D02*
X013132Y020963D01*
X013132Y020876D01*
X013089Y020832D01*
X012915Y020832D01*
X012915Y020711D02*
X012872Y020668D01*
X012872Y020581D01*
X012915Y020538D01*
X013002Y020538D02*
X013045Y020625D01*
X013045Y020668D01*
X013002Y020711D01*
X012915Y020711D01*
X013002Y020538D02*
X013132Y020538D01*
X013132Y020711D01*
X014072Y019328D02*
X014159Y019328D01*
X014202Y019285D01*
X014323Y019285D02*
X014323Y019111D01*
X014366Y019068D01*
X014453Y019068D01*
X014497Y019111D01*
X014497Y019285D01*
X014453Y019328D01*
X014366Y019328D01*
X014323Y019285D01*
X014410Y019154D02*
X014323Y019068D01*
X014202Y019068D02*
X014028Y019241D01*
X014028Y019285D01*
X014072Y019328D01*
X014028Y019068D02*
X014202Y019068D01*
X014170Y018896D02*
X013837Y018896D01*
X013837Y018595D01*
X013837Y018896D02*
X013837Y017776D01*
X013837Y018087D01*
X013837Y017776D02*
X014170Y017776D01*
X014357Y017776D02*
X014357Y018896D01*
X013837Y018896D01*
X013837Y017776D02*
X014357Y017776D01*
X015057Y017742D02*
X015317Y017742D01*
X015230Y017829D01*
X015317Y017915D01*
X015057Y017915D01*
X015057Y018036D02*
X015057Y018167D01*
X015100Y018210D01*
X015143Y018210D01*
X015187Y018167D01*
X015187Y018036D01*
X015317Y018036D02*
X015317Y018167D01*
X015274Y018210D01*
X015230Y018210D01*
X015187Y018167D01*
X015187Y018331D02*
X015187Y018418D01*
X015317Y018331D02*
X015317Y018505D01*
X015230Y018626D02*
X015317Y018713D01*
X015057Y018713D01*
X015057Y018799D02*
X015057Y018626D01*
X015057Y018920D02*
X015100Y018920D01*
X015274Y019094D01*
X015317Y019094D01*
X015317Y018920D01*
X015274Y019215D02*
X015317Y019258D01*
X015317Y019345D01*
X015274Y019389D01*
X015100Y019215D01*
X015057Y019258D01*
X015057Y019345D01*
X015100Y019389D01*
X015274Y019389D01*
X015274Y019215D02*
X015100Y019215D01*
X015057Y018331D02*
X015317Y018331D01*
X015317Y018036D02*
X015057Y018036D01*
X015057Y017621D02*
X015317Y017621D01*
X015230Y017534D01*
X015317Y017447D01*
X015057Y017447D01*
X015118Y015949D02*
X015248Y015949D01*
X015248Y015689D01*
X015118Y015689D01*
X015074Y015732D01*
X015074Y015906D01*
X015118Y015949D01*
X014953Y015949D02*
X014953Y015819D01*
X014866Y015862D01*
X014823Y015862D01*
X014780Y015819D01*
X014780Y015732D01*
X014823Y015689D01*
X014910Y015689D01*
X014953Y015732D01*
X014953Y015949D02*
X014780Y015949D01*
X014824Y014689D02*
X014781Y014646D01*
X014954Y014472D01*
X014911Y014429D01*
X014824Y014429D01*
X014781Y014472D01*
X014781Y014646D01*
X014824Y014689D02*
X014911Y014689D01*
X014954Y014646D01*
X014954Y014472D01*
X015076Y014559D02*
X015249Y014559D01*
X015119Y014689D01*
X015119Y014429D01*
X015370Y014429D02*
X015370Y014689D01*
X015457Y014602D01*
X015544Y014689D01*
X015544Y014429D01*
X015665Y014472D02*
X015708Y014429D01*
X015795Y014429D01*
X015838Y014472D01*
X015795Y014559D02*
X015708Y014559D01*
X015665Y014516D01*
X015665Y014472D01*
X015795Y014559D02*
X015838Y014602D01*
X015838Y014646D01*
X015795Y014689D01*
X015708Y014689D01*
X015665Y014646D01*
X014660Y014646D02*
X014660Y014472D01*
X014486Y014646D01*
X014486Y014472D01*
X014530Y014429D01*
X014616Y014429D01*
X014660Y014472D01*
X014660Y014646D02*
X014616Y014689D01*
X014530Y014689D01*
X014486Y014646D01*
X014365Y014559D02*
X014235Y014689D01*
X014235Y014429D01*
X014192Y014559D02*
X014365Y014559D01*
X017831Y012918D02*
X017831Y012874D01*
X018005Y012701D01*
X018005Y012657D01*
X018126Y012657D02*
X018300Y012657D01*
X018126Y012831D01*
X018126Y012874D01*
X018169Y012918D01*
X018256Y012918D01*
X018300Y012874D01*
X018421Y012874D02*
X018464Y012918D01*
X018551Y012918D01*
X018594Y012874D01*
X018594Y012701D01*
X018551Y012657D01*
X018464Y012657D01*
X018421Y012701D01*
X018005Y012918D02*
X017831Y012918D01*
X017981Y010654D02*
X017938Y010610D01*
X018111Y010437D01*
X018068Y010394D01*
X017981Y010394D01*
X017938Y010437D01*
X017938Y010610D01*
X017981Y010654D02*
X018068Y010654D01*
X018111Y010610D01*
X018111Y010437D01*
X018232Y010437D02*
X018276Y010394D01*
X018363Y010394D01*
X018406Y010437D01*
X018232Y010610D01*
X018232Y010437D01*
X018232Y010610D02*
X018276Y010654D01*
X018363Y010654D01*
X018406Y010610D01*
X018406Y010437D01*
X018527Y010394D02*
X018701Y010394D01*
X018614Y010394D02*
X018614Y010654D01*
X018701Y010567D01*
X017817Y010567D02*
X017817Y010394D01*
X017817Y010567D02*
X017686Y010567D01*
X017643Y010524D01*
X017643Y010394D01*
X021081Y010730D02*
X021211Y010730D01*
X021298Y010817D01*
X021341Y010817D01*
X021254Y010938D02*
X021341Y011024D01*
X021081Y011024D01*
X021081Y010938D02*
X021081Y011111D01*
X021211Y010730D02*
X021298Y010643D01*
X021341Y010643D01*
X016040Y004956D02*
X015997Y004869D01*
X015910Y004782D01*
X015910Y004912D01*
X015867Y004956D01*
X015824Y004956D01*
X015780Y004912D01*
X015780Y004825D01*
X015824Y004782D01*
X015910Y004782D01*
X015954Y004661D02*
X015997Y004661D01*
X016040Y004618D01*
X016040Y004531D01*
X015997Y004487D01*
X015997Y004366D02*
X015910Y004366D01*
X015867Y004323D01*
X015867Y004193D01*
X015867Y004280D02*
X015780Y004366D01*
X015780Y004487D02*
X015954Y004661D01*
X015780Y004661D02*
X015780Y004487D01*
X015563Y004460D02*
X015563Y004653D01*
X015386Y004653D02*
X015386Y004460D01*
X015174Y004531D02*
X015174Y004618D01*
X015131Y004661D01*
X014957Y004487D01*
X014914Y004531D01*
X014914Y004618D01*
X014957Y004661D01*
X015131Y004661D01*
X015174Y004782D02*
X014914Y004782D01*
X015001Y004782D02*
X014914Y004912D01*
X015001Y004782D02*
X015088Y004912D01*
X015174Y004531D02*
X015131Y004487D01*
X014957Y004487D01*
X014914Y004366D02*
X014914Y004193D01*
X014914Y004280D02*
X015174Y004280D01*
X015088Y004193D01*
X014977Y003828D02*
X014717Y003828D01*
X014847Y003871D02*
X014847Y003698D01*
X014977Y003828D01*
X014934Y003576D02*
X014761Y003403D01*
X014717Y003446D01*
X014717Y003533D01*
X014761Y003576D01*
X014934Y003576D01*
X014977Y003533D01*
X014977Y003446D01*
X014934Y003403D01*
X014761Y003403D01*
X014761Y003282D02*
X014717Y003238D01*
X014717Y003152D01*
X014761Y003108D01*
X014934Y003282D01*
X014761Y003282D01*
X014934Y003282D02*
X014977Y003238D01*
X014977Y003152D01*
X014934Y003108D01*
X014761Y003108D01*
X014847Y002987D02*
X014847Y002814D01*
X014977Y002944D01*
X014717Y002944D01*
X014717Y002692D02*
X014977Y002692D01*
X014891Y002606D01*
X014977Y002519D01*
X014717Y002519D01*
X014761Y002398D02*
X014717Y002354D01*
X014717Y002268D01*
X014761Y002224D01*
X014847Y002268D02*
X014847Y002354D01*
X014804Y002398D01*
X014761Y002398D01*
X014847Y002268D02*
X014891Y002224D01*
X014934Y002224D01*
X014977Y002268D01*
X014977Y002354D01*
X014934Y002398D01*
X015948Y002815D02*
X015948Y002945D01*
X015991Y002988D01*
X016164Y002988D01*
X016208Y002945D01*
X016208Y002815D01*
X015948Y002815D01*
X016078Y003109D02*
X016078Y003283D01*
X016208Y003240D02*
X016078Y003109D01*
X015948Y003240D02*
X016208Y003240D01*
X016986Y003241D02*
X016986Y003542D01*
X017319Y003542D01*
X017506Y003542D02*
X016986Y003542D01*
X016986Y002422D01*
X016986Y002733D01*
X016986Y002422D02*
X017319Y002422D01*
X017327Y002250D02*
X017327Y001990D01*
X017414Y001990D02*
X017240Y001990D01*
X017414Y002164D02*
X017327Y002250D01*
X017535Y002207D02*
X017535Y002033D01*
X017578Y001990D01*
X017665Y001990D01*
X017708Y002033D01*
X017708Y002207D01*
X017665Y002250D01*
X017578Y002250D01*
X017535Y002207D01*
X017622Y002077D02*
X017535Y001990D01*
X017506Y002422D02*
X016986Y002422D01*
X017506Y002422D02*
X017506Y003542D01*
X018088Y003456D02*
X018132Y003456D01*
X018305Y003629D01*
X018348Y003629D01*
X018348Y003456D01*
X018348Y003248D02*
X018088Y003248D01*
X018088Y003161D02*
X018088Y003335D01*
X018262Y003161D02*
X018348Y003248D01*
X018348Y003040D02*
X018348Y002867D01*
X018088Y002867D01*
X018132Y002745D02*
X018088Y002702D01*
X018088Y002572D01*
X018348Y002572D01*
X018348Y002702D01*
X018305Y002745D01*
X018262Y002745D01*
X018218Y002702D01*
X018218Y002572D01*
X018218Y002702D02*
X018175Y002745D01*
X018132Y002745D01*
X018218Y002867D02*
X018218Y002953D01*
X018348Y002451D02*
X018088Y002451D01*
X018088Y002277D02*
X018348Y002277D01*
X018262Y002364D01*
X018348Y002451D01*
X018348Y002156D02*
X018088Y002156D01*
X018088Y001983D02*
X018348Y001983D01*
X018262Y002069D01*
X018348Y002156D01*
X020007Y002127D02*
X020007Y002301D01*
X020007Y002214D02*
X020268Y002214D01*
X020181Y002127D01*
X020224Y002006D02*
X020268Y001963D01*
X020268Y001876D01*
X020224Y001832D01*
X020051Y001832D01*
X020007Y001876D01*
X020007Y001963D01*
X020051Y002006D01*
X020697Y001744D02*
X020697Y002644D01*
X020268Y002552D02*
X020138Y002422D01*
X020138Y002595D01*
X020268Y002552D02*
X020007Y002552D01*
X018348Y003794D02*
X018348Y003881D01*
X018305Y003924D01*
X018132Y003751D01*
X018088Y003794D01*
X018088Y003881D01*
X018132Y003924D01*
X018305Y003924D01*
X018348Y003794D02*
X018305Y003751D01*
X018132Y003751D01*
X016040Y004193D02*
X016040Y004323D01*
X015997Y004366D01*
X016040Y004193D02*
X015780Y004193D01*
X013732Y002165D02*
X013732Y001904D01*
X013819Y001904D02*
X013645Y001904D01*
X013524Y001948D02*
X013351Y002121D01*
X013351Y001948D01*
X013394Y001904D01*
X013481Y001904D01*
X013524Y001948D01*
X013524Y002121D01*
X013481Y002165D01*
X013394Y002165D01*
X013351Y002121D01*
X013230Y002165D02*
X013230Y001904D01*
X013230Y001991D02*
X013099Y002078D01*
X013230Y001991D02*
X013099Y001904D01*
X013410Y001692D02*
X013603Y001692D01*
X013603Y001516D02*
X013410Y001516D01*
X013443Y001274D02*
X013530Y001274D01*
X013573Y001231D01*
X013694Y001231D02*
X013694Y001144D01*
X013738Y001100D01*
X013868Y001100D01*
X013868Y001014D02*
X013868Y001274D01*
X013738Y001274D01*
X013694Y001231D01*
X013781Y001100D02*
X013694Y001014D01*
X013573Y001014D02*
X013400Y001187D01*
X013400Y001231D01*
X013443Y001274D01*
X013279Y001274D02*
X013279Y001144D01*
X013192Y001187D01*
X013149Y001187D01*
X013105Y001144D01*
X013105Y001057D01*
X013149Y001014D01*
X013235Y001014D01*
X013279Y001057D01*
X013400Y001014D02*
X013573Y001014D01*
X013279Y001274D02*
X013105Y001274D01*
X013819Y002078D02*
X013732Y002165D01*
X021070Y004266D02*
X021070Y004397D01*
X021113Y004440D01*
X021243Y004440D01*
X021243Y004266D01*
X021364Y004310D02*
X021408Y004266D01*
X021495Y004266D01*
X021538Y004310D01*
X021364Y004483D01*
X021364Y004310D01*
X021364Y004483D02*
X021408Y004527D01*
X021495Y004527D01*
X021538Y004483D01*
X021538Y004310D01*
X021659Y004483D02*
X021833Y004310D01*
X021833Y004266D01*
X021997Y004266D02*
X021997Y004527D01*
X022127Y004397D01*
X021954Y004397D01*
X021833Y004527D02*
X021659Y004527D01*
X021659Y004483D01*
X022468Y004127D02*
X022468Y004040D01*
X022511Y003997D01*
X022598Y004083D02*
X022598Y004127D01*
X022555Y004170D01*
X022511Y004170D01*
X022468Y004127D01*
X022598Y004127D02*
X022642Y004170D01*
X022685Y004170D01*
X022728Y004127D01*
X022728Y004040D01*
X022685Y003997D01*
X022728Y003789D02*
X022468Y003789D01*
X022468Y003875D02*
X022468Y003702D01*
X022511Y003581D02*
X022468Y003537D01*
X022468Y003451D01*
X022511Y003407D01*
X022685Y003407D01*
X022728Y003451D01*
X022728Y003537D01*
X022685Y003581D01*
X022642Y003702D02*
X022728Y003789D01*
X023638Y002644D02*
X023638Y001744D01*
X022529Y001094D02*
X022443Y001180D01*
X022443Y000920D01*
X022529Y000920D02*
X022356Y000920D01*
X022235Y000963D02*
X022061Y001137D01*
X022061Y000963D01*
X022105Y000920D01*
X022191Y000920D01*
X022235Y000963D01*
X022235Y001137D01*
X022191Y001180D01*
X022105Y001180D01*
X022061Y001137D01*
X021940Y001094D02*
X021940Y000963D01*
X021897Y000920D01*
X021767Y000920D01*
X021767Y001094D01*
X029150Y006600D02*
X029198Y006553D01*
X029292Y006553D01*
X029339Y006600D01*
X029245Y006694D02*
X029198Y006694D01*
X029150Y006647D01*
X029150Y006600D01*
X029198Y006694D02*
X029150Y006741D01*
X029150Y006789D01*
X029198Y006836D01*
X029292Y006836D01*
X029339Y006789D01*
X029466Y006836D02*
X029655Y006836D01*
X029655Y006553D01*
X029782Y006600D02*
X029829Y006553D01*
X029924Y006553D01*
X029971Y006600D01*
X029971Y006789D01*
X029924Y006836D01*
X029829Y006836D01*
X029782Y006789D01*
X029655Y006694D02*
X029561Y006694D01*
X030276Y006645D02*
X030276Y006601D01*
X030320Y006558D01*
X030407Y006558D01*
X030450Y006601D01*
X030450Y006645D01*
X030407Y006688D01*
X030320Y006688D01*
X030276Y006645D01*
X030320Y006558D02*
X030276Y006515D01*
X030276Y006471D01*
X030320Y006428D01*
X030407Y006428D01*
X030450Y006471D01*
X030450Y006515D01*
X030407Y006558D01*
X030571Y006601D02*
X030571Y006645D01*
X030614Y006688D01*
X030701Y006688D01*
X030745Y006645D01*
X030866Y006645D02*
X030909Y006688D01*
X030996Y006688D01*
X031039Y006645D01*
X031039Y006471D01*
X030996Y006428D01*
X030909Y006428D01*
X030866Y006471D01*
X030745Y006428D02*
X030571Y006428D01*
X030614Y006261D02*
X030571Y006218D01*
X030745Y006044D01*
X030701Y006001D01*
X030614Y006001D01*
X030571Y006044D01*
X030571Y006218D01*
X030614Y006261D02*
X030701Y006261D01*
X030745Y006218D01*
X030745Y006044D01*
X030866Y006001D02*
X031039Y006001D01*
X030952Y006001D02*
X030952Y006261D01*
X031039Y006174D01*
X031271Y006458D02*
X031228Y006501D01*
X031228Y006588D01*
X031271Y006631D01*
X031488Y006631D01*
X031488Y006752D02*
X031358Y006752D01*
X031401Y006839D01*
X031401Y006883D01*
X031358Y006926D01*
X031271Y006926D01*
X031228Y006883D01*
X031228Y006796D01*
X031271Y006752D01*
X031488Y006752D02*
X031488Y006926D01*
X031488Y006458D02*
X031271Y006458D01*
X030745Y006428D02*
X030571Y006601D01*
X030450Y006174D02*
X030320Y006174D01*
X030276Y006131D01*
X030276Y006001D01*
X030450Y006001D02*
X030450Y006174D01*
X030231Y007730D02*
X030136Y007730D01*
X030089Y007777D01*
X029962Y007730D02*
X029962Y008013D01*
X029773Y008013D01*
X029646Y007966D02*
X029599Y008013D01*
X029505Y008013D01*
X029457Y007966D01*
X029457Y007919D01*
X029646Y007730D01*
X029457Y007730D01*
X029868Y007871D02*
X029962Y007871D01*
X030089Y007966D02*
X030136Y008013D01*
X030231Y008013D01*
X030278Y007966D01*
X030278Y007777D01*
X030231Y007730D01*
X030903Y008033D02*
X030903Y008206D01*
X030903Y008119D02*
X031163Y008119D01*
X031077Y008033D01*
X031077Y008327D02*
X030947Y008327D01*
X030903Y008371D01*
X030903Y008501D01*
X031077Y008501D01*
X031985Y009000D02*
X032028Y008957D01*
X032115Y008957D01*
X032158Y009000D01*
X032072Y009087D02*
X032028Y009087D01*
X031985Y009043D01*
X031985Y009000D01*
X032028Y009087D02*
X031985Y009130D01*
X031985Y009173D01*
X032028Y009217D01*
X032115Y009217D01*
X032158Y009173D01*
X032280Y009173D02*
X032280Y009130D01*
X032453Y008957D01*
X032280Y008957D01*
X032280Y009173D02*
X032323Y009217D01*
X032410Y009217D01*
X032453Y009173D01*
X032574Y009173D02*
X032618Y009217D01*
X032704Y009217D01*
X032748Y009173D01*
X032748Y009000D01*
X032704Y008957D01*
X032618Y008957D01*
X032574Y009000D01*
X032723Y007282D02*
X032085Y007282D01*
X032085Y007245D01*
X032085Y006927D02*
X032085Y006516D01*
X032085Y006199D02*
X032085Y006162D01*
X032723Y006162D01*
X032723Y006199D01*
X032723Y006516D02*
X032723Y006553D01*
X032723Y006890D02*
X032723Y006927D01*
X032723Y007245D02*
X032723Y007282D01*
X032661Y000885D02*
X032575Y000885D01*
X032531Y000841D01*
X032575Y000755D02*
X032661Y000755D01*
X032705Y000798D01*
X032705Y000841D01*
X032661Y000885D01*
X032575Y000755D02*
X032531Y000711D01*
X032531Y000668D01*
X032575Y000625D01*
X032661Y000625D01*
X032705Y000668D01*
X032826Y000625D02*
X032956Y000625D01*
X032999Y000668D01*
X032999Y000755D01*
X032956Y000798D01*
X032826Y000798D01*
X032826Y000885D02*
X032826Y000625D01*
X032410Y000668D02*
X032367Y000625D01*
X032280Y000625D01*
X032237Y000668D01*
X032237Y000841D01*
X032280Y000885D01*
X032367Y000885D01*
X032410Y000841D01*
X032127Y000885D02*
X032040Y000885D01*
X032083Y000885D02*
X032083Y000625D01*
X032040Y000625D02*
X032127Y000625D01*
X009736Y019158D02*
X009736Y019245D01*
X009693Y019288D01*
X009649Y019288D01*
X009606Y019245D01*
X009563Y019288D01*
X009519Y019288D01*
X009476Y019245D01*
X009476Y019158D01*
X009519Y019115D01*
X009606Y019201D02*
X009606Y019245D01*
X009693Y019115D02*
X009736Y019158D01*
X009693Y019409D02*
X009736Y019453D01*
X009736Y019539D01*
X009693Y019583D01*
X009649Y019583D01*
X009606Y019539D01*
X009563Y019583D01*
X009519Y019583D01*
X009476Y019539D01*
X009476Y019453D01*
X009519Y019409D01*
X009606Y019496D02*
X009606Y019539D01*
X009519Y019704D02*
X009693Y019877D01*
X009519Y019877D01*
X009476Y019834D01*
X009476Y019747D01*
X009519Y019704D01*
X009693Y019704D01*
X009736Y019747D01*
X009736Y019834D01*
X009693Y019877D01*
X009736Y019999D02*
X009736Y020129D01*
X009693Y020172D01*
X009606Y020172D01*
X009563Y020129D01*
X009563Y019999D01*
X009563Y020085D02*
X009476Y020172D01*
X009389Y020293D02*
X009476Y020380D01*
X009476Y020337D01*
X009519Y020337D01*
X009519Y020380D01*
X009476Y020380D01*
X009519Y020784D02*
X009693Y020958D01*
X009519Y020958D01*
X009476Y020914D01*
X009476Y020828D01*
X009519Y020784D01*
X009693Y020784D01*
X009736Y020828D01*
X009736Y020914D01*
X009693Y020958D01*
X009519Y021079D02*
X009519Y021122D01*
X009476Y021122D01*
X009476Y021079D01*
X009519Y021079D01*
X009519Y021226D02*
X009476Y021270D01*
X009476Y021356D01*
X009519Y021400D01*
X009606Y021400D01*
X009649Y021356D01*
X009649Y021313D01*
X009606Y021226D01*
X009736Y021226D01*
X009736Y021400D01*
X009736Y021521D02*
X009476Y021521D01*
X009563Y021608D01*
X009476Y021694D01*
X009736Y021694D01*
X009910Y020860D02*
X009910Y020537D01*
X010410Y020537D02*
X010410Y020860D01*
X010590Y020853D02*
X010633Y020896D01*
X010676Y020896D01*
X010720Y020853D01*
X010720Y020723D01*
X010633Y020723D01*
X010590Y020766D01*
X010590Y020853D01*
X010720Y020723D02*
X010807Y020810D01*
X010850Y020896D01*
X010807Y020602D02*
X010720Y020602D01*
X010676Y020558D01*
X010676Y020428D01*
X010590Y020428D02*
X010850Y020428D01*
X010850Y020558D01*
X010807Y020602D01*
X010676Y020515D02*
X010590Y020602D01*
X009736Y019999D02*
X009476Y019999D01*
X006783Y019982D02*
X006740Y020025D01*
X006567Y019852D01*
X006523Y019895D01*
X006523Y019982D01*
X006567Y020025D01*
X006740Y020025D01*
X006783Y019982D02*
X006783Y019895D01*
X006740Y019852D01*
X006567Y019852D01*
X006567Y019730D02*
X006523Y019687D01*
X006523Y019600D01*
X006567Y019557D01*
X006567Y019436D02*
X006523Y019392D01*
X006523Y019306D01*
X006567Y019262D01*
X006653Y019349D02*
X006653Y019392D01*
X006610Y019436D01*
X006567Y019436D01*
X006653Y019392D02*
X006697Y019436D01*
X006740Y019436D01*
X006783Y019392D01*
X006783Y019306D01*
X006740Y019262D01*
X006740Y019557D02*
X006783Y019600D01*
X006783Y019687D01*
X006740Y019730D01*
X006697Y019730D01*
X006653Y019687D01*
X006610Y019730D01*
X006567Y019730D01*
X006653Y019687D02*
X006653Y019644D01*
X006610Y020146D02*
X006610Y020276D01*
X006653Y020320D01*
X006740Y020320D01*
X006783Y020276D01*
X006783Y020146D01*
X006523Y020146D01*
X006610Y020233D02*
X006523Y020320D01*
X006436Y020441D02*
X006523Y020528D01*
X006523Y020484D01*
X006567Y020484D01*
X006567Y020528D01*
X006523Y020528D01*
X006276Y020663D02*
X006276Y020340D01*
X005776Y020340D02*
X005776Y020663D01*
X005596Y020586D02*
X005466Y020586D01*
X005509Y020673D01*
X005509Y020716D01*
X005466Y020759D01*
X005379Y020759D01*
X005336Y020716D01*
X005336Y020629D01*
X005379Y020586D01*
X005336Y020465D02*
X005423Y020378D01*
X005423Y020421D02*
X005423Y020291D01*
X005336Y020291D02*
X005596Y020291D01*
X005596Y020421D01*
X005553Y020465D01*
X005466Y020465D01*
X005423Y020421D01*
X005596Y020586D02*
X005596Y020759D01*
X006523Y020975D02*
X006567Y020932D01*
X006740Y021105D01*
X006567Y021105D01*
X006523Y021062D01*
X006523Y020975D01*
X006567Y020932D02*
X006740Y020932D01*
X006783Y020975D01*
X006783Y021062D01*
X006740Y021105D01*
X006567Y021227D02*
X006567Y021270D01*
X006523Y021270D01*
X006523Y021227D01*
X006567Y021227D01*
X006567Y021374D02*
X006523Y021417D01*
X006523Y021504D01*
X006567Y021547D01*
X006653Y021547D01*
X006697Y021504D01*
X006697Y021461D01*
X006653Y021374D01*
X006783Y021374D01*
X006783Y021547D01*
X006783Y021669D02*
X006523Y021669D01*
X006610Y021755D01*
X006523Y021842D01*
X006783Y021842D01*
X008198Y023268D02*
X008154Y023311D01*
X008154Y023398D01*
X008198Y023441D01*
X008414Y023441D01*
X008328Y023562D02*
X008414Y023649D01*
X008154Y023649D01*
X008154Y023562D02*
X008154Y023736D01*
X008198Y023857D02*
X008371Y024030D01*
X008198Y024030D01*
X008154Y023987D01*
X008154Y023900D01*
X008198Y023857D01*
X008371Y023857D01*
X008414Y023900D01*
X008414Y023987D01*
X008371Y024030D01*
X008414Y023268D02*
X008198Y023268D01*
X013026Y027298D02*
X013026Y027471D01*
X013026Y027298D02*
X013157Y027298D01*
X013200Y027341D01*
X013200Y027471D01*
X013321Y027298D02*
X013495Y027298D01*
X013408Y027298D02*
X013408Y027558D01*
X013495Y027471D01*
X015567Y025473D02*
X015567Y025429D01*
X015610Y025386D01*
X015567Y025343D01*
X015567Y025299D01*
X015610Y025256D01*
X015697Y025256D01*
X015741Y025299D01*
X015862Y025299D02*
X015862Y025473D01*
X015905Y025516D01*
X016035Y025516D01*
X016035Y025256D01*
X015905Y025256D01*
X015862Y025299D01*
X015741Y025473D02*
X015697Y025516D01*
X015610Y025516D01*
X015567Y025473D01*
X015610Y025386D02*
X015654Y025386D01*
X016206Y029858D02*
X017106Y029858D01*
X017686Y030402D02*
X017686Y030488D01*
X017729Y030532D01*
X017729Y030653D02*
X017686Y030696D01*
X017686Y030783D01*
X017729Y030826D01*
X017903Y030826D01*
X017946Y030783D01*
X017946Y030696D01*
X017903Y030653D01*
X017859Y030653D01*
X017816Y030696D01*
X017816Y030826D01*
X017903Y030532D02*
X017946Y030488D01*
X017946Y030402D01*
X017903Y030358D01*
X017729Y030358D01*
X017686Y030402D01*
X015647Y030445D02*
X015387Y030445D01*
X015387Y030358D02*
X015387Y030532D01*
X015430Y030653D02*
X015603Y030826D01*
X015430Y030826D01*
X015387Y030783D01*
X015387Y030696D01*
X015430Y030653D01*
X015603Y030653D01*
X015647Y030696D01*
X015647Y030783D01*
X015603Y030826D01*
X015560Y030947D02*
X015430Y030947D01*
X015387Y030991D01*
X015387Y031121D01*
X015560Y031121D01*
X015647Y030445D02*
X015560Y030358D01*
X016206Y032798D02*
X017106Y032798D01*
X032684Y028117D02*
X032684Y027987D01*
X032684Y028117D02*
X032727Y028160D01*
X032857Y028160D01*
X032857Y027987D01*
X032979Y028030D02*
X033022Y027987D01*
X033109Y027987D01*
X033152Y028030D01*
X032979Y028204D01*
X032979Y028030D01*
X033152Y028030D02*
X033152Y028204D01*
X033109Y028247D01*
X033022Y028247D01*
X032979Y028204D01*
X033273Y028204D02*
X033273Y028030D01*
X033317Y027987D01*
X033403Y027987D01*
X033447Y028030D01*
X033273Y028204D01*
X033317Y028247D01*
X033403Y028247D01*
X033447Y028204D01*
X033447Y028030D01*
X033568Y027987D02*
X033741Y027987D01*
X033655Y027987D02*
X033655Y028247D01*
X033741Y028160D01*
X033502Y026960D02*
X033545Y026916D01*
X033545Y026743D01*
X033502Y026700D01*
X033415Y026700D01*
X033372Y026743D01*
X033250Y026700D02*
X033077Y026700D01*
X033164Y026700D02*
X033164Y026960D01*
X033250Y026873D01*
X033372Y026916D02*
X033415Y026960D01*
X033502Y026960D01*
X032956Y026916D02*
X032956Y026873D01*
X032912Y026830D01*
X032826Y026830D01*
X032782Y026786D01*
X032782Y026743D01*
X032826Y026700D01*
X032912Y026700D01*
X032956Y026743D01*
X032956Y026786D01*
X032912Y026830D01*
X032826Y026830D02*
X032782Y026873D01*
X032782Y026916D01*
X032826Y026960D01*
X032912Y026960D01*
X032956Y026916D01*
D16*
X011538Y025029D03*
D17*
X010291Y024936D02*
X010091Y024936D01*
X010091Y024802D02*
X010291Y024802D01*
X010225Y024869D01*
X010291Y024936D01*
X010291Y024715D02*
X010158Y024715D01*
X010091Y024648D01*
X010158Y024581D01*
X010291Y024581D01*
X010258Y024494D02*
X010291Y024460D01*
X010291Y024394D01*
X010258Y024360D01*
X010258Y024273D02*
X010191Y024273D01*
X010158Y024239D01*
X010158Y024139D01*
X010091Y024139D02*
X010291Y024139D01*
X010291Y024239D01*
X010258Y024273D01*
X010158Y024206D02*
X010091Y024273D01*
X010091Y024360D02*
X010225Y024494D01*
X010258Y024494D01*
X010091Y024494D02*
X010091Y024360D01*
X010125Y024052D02*
X010091Y024018D01*
X010091Y023952D01*
X010125Y023918D01*
X010191Y023952D02*
X010191Y024018D01*
X010158Y024052D01*
X010125Y024052D01*
X010191Y023952D02*
X010225Y023918D01*
X010258Y023918D01*
X010291Y023952D01*
X010291Y024018D01*
X010258Y024052D01*
X010258Y023831D02*
X010291Y023797D01*
X010291Y023731D01*
X010258Y023697D01*
X010291Y023610D02*
X010258Y023543D01*
X010191Y023476D01*
X010191Y023577D01*
X010158Y023610D01*
X010125Y023610D01*
X010091Y023577D01*
X010091Y023510D01*
X010125Y023476D01*
X010191Y023476D01*
X010125Y023389D02*
X010091Y023356D01*
X010091Y023289D01*
X010125Y023255D01*
X010258Y023389D01*
X010125Y023389D01*
X010258Y023389D02*
X010291Y023356D01*
X010291Y023289D01*
X010258Y023255D01*
X010125Y023255D01*
X010125Y023168D02*
X010091Y023135D01*
X010091Y023068D01*
X010125Y023034D01*
X010125Y022947D02*
X010091Y022914D01*
X010091Y022847D01*
X010125Y022813D01*
X010258Y022813D01*
X010291Y022847D01*
X010291Y022914D01*
X010258Y022947D01*
X010258Y023034D02*
X010291Y023068D01*
X010291Y023135D01*
X010258Y023168D01*
X010225Y023168D01*
X010191Y023135D01*
X010158Y023168D01*
X010125Y023168D01*
X010191Y023135D02*
X010191Y023101D01*
X010125Y022726D02*
X010258Y022726D01*
X010291Y022693D01*
X010291Y022626D01*
X010258Y022592D01*
X010125Y022592D01*
X010091Y022626D01*
X010091Y022693D01*
X010125Y022726D01*
X010091Y022505D02*
X010291Y022505D01*
X010225Y022438D01*
X010291Y022371D01*
X010091Y022371D01*
X010091Y023697D02*
X010225Y023831D01*
X010258Y023831D01*
X010091Y023831D02*
X010091Y023697D01*
X012679Y026131D02*
X012679Y027076D01*
X013939Y027076D01*
X013939Y026131D01*
X012679Y026131D01*
X015341Y022977D02*
X016101Y022977D01*
X016101Y022357D02*
X015341Y022357D01*
X024347Y022386D02*
X025107Y022386D01*
X025509Y022655D02*
X025509Y022855D01*
X025576Y022855D02*
X025442Y022855D01*
X025663Y022855D02*
X025797Y022855D01*
X025797Y022755D01*
X025730Y022788D01*
X025696Y022788D01*
X025663Y022755D01*
X025663Y022688D01*
X025696Y022655D01*
X025763Y022655D01*
X025797Y022688D01*
X025884Y022655D02*
X026018Y022655D01*
X025884Y022788D01*
X025884Y022822D01*
X025917Y022855D01*
X025984Y022855D01*
X026018Y022822D01*
X026105Y022855D02*
X026239Y022855D01*
X026172Y022855D02*
X026172Y022655D01*
X026326Y022688D02*
X026326Y022855D01*
X026460Y022855D02*
X026460Y022688D01*
X026426Y022655D01*
X026359Y022655D01*
X026326Y022688D01*
X026547Y022655D02*
X026547Y022788D01*
X026614Y022855D01*
X026681Y022788D01*
X026681Y022655D01*
X026768Y022688D02*
X026801Y022655D01*
X026901Y022655D01*
X026901Y022855D01*
X026801Y022855D01*
X026768Y022822D01*
X026768Y022788D01*
X026801Y022755D01*
X026901Y022755D01*
X026801Y022755D02*
X026768Y022722D01*
X026768Y022688D01*
X026681Y022755D02*
X026547Y022755D01*
X026989Y022655D02*
X027122Y022655D01*
X027056Y022655D02*
X027056Y022855D01*
X027122Y022788D01*
X027210Y022822D02*
X027343Y022688D01*
X027343Y022655D01*
X027431Y022688D02*
X027464Y022655D01*
X027531Y022655D01*
X027564Y022688D01*
X027431Y022822D01*
X027431Y022688D01*
X027564Y022688D02*
X027564Y022822D01*
X027531Y022855D01*
X027464Y022855D01*
X027431Y022822D01*
X027343Y022855D02*
X027210Y022855D01*
X027210Y022822D01*
X027652Y022855D02*
X027719Y022822D01*
X027785Y022755D01*
X027685Y022755D01*
X027652Y022722D01*
X027652Y022688D01*
X027685Y022655D01*
X027752Y022655D01*
X027785Y022688D01*
X027785Y022755D01*
X027873Y022655D02*
X028006Y022855D01*
X028094Y022788D02*
X028094Y022655D01*
X028006Y022655D02*
X027873Y022855D01*
X028094Y022788D02*
X028161Y022855D01*
X028227Y022788D01*
X028227Y022655D01*
X028315Y022655D02*
X028315Y022855D01*
X028382Y022788D01*
X028448Y022855D01*
X028448Y022655D01*
X028227Y022755D02*
X028094Y022755D01*
X027173Y020516D02*
X026414Y020516D01*
X026414Y019896D02*
X027173Y019896D01*
X025107Y021766D02*
X024347Y021766D01*
X030563Y018497D02*
X030763Y018497D01*
X030663Y018497D02*
X030663Y018363D01*
X030630Y018276D02*
X030597Y018276D01*
X030563Y018243D01*
X030563Y018176D01*
X030597Y018142D01*
X030663Y018176D02*
X030663Y018243D01*
X030630Y018276D01*
X030730Y018276D02*
X030763Y018243D01*
X030763Y018176D01*
X030730Y018142D01*
X030697Y018142D01*
X030663Y018176D01*
X030663Y018055D02*
X030597Y018055D01*
X030563Y018022D01*
X030563Y017955D01*
X030597Y017921D01*
X030663Y017921D02*
X030697Y017988D01*
X030697Y018022D01*
X030663Y018055D01*
X030763Y018055D02*
X030763Y017921D01*
X030663Y017921D01*
X030597Y017844D02*
X030563Y017844D01*
X030563Y017811D01*
X030597Y017811D01*
X030597Y017844D01*
X030597Y017723D02*
X030563Y017690D01*
X030563Y017623D01*
X030597Y017590D01*
X030730Y017723D01*
X030597Y017723D01*
X030730Y017723D02*
X030763Y017690D01*
X030763Y017623D01*
X030730Y017590D01*
X030597Y017590D01*
X030663Y017502D02*
X030663Y017369D01*
X030630Y017281D02*
X030597Y017281D01*
X030563Y017248D01*
X030563Y017181D01*
X030597Y017148D01*
X030663Y017181D02*
X030663Y017248D01*
X030630Y017281D01*
X030730Y017281D02*
X030763Y017248D01*
X030763Y017181D01*
X030730Y017148D01*
X030697Y017148D01*
X030663Y017181D01*
X030663Y017060D02*
X030663Y016927D01*
X030763Y017027D01*
X030563Y017027D01*
X030563Y016839D02*
X030563Y016706D01*
X030697Y016839D01*
X030730Y016839D01*
X030763Y016806D01*
X030763Y016739D01*
X030730Y016706D01*
X030663Y016618D02*
X030663Y016485D01*
X030697Y016397D02*
X030730Y016397D01*
X030763Y016364D01*
X030763Y016297D01*
X030730Y016264D01*
X030697Y016397D02*
X030563Y016264D01*
X030563Y016397D01*
X030563Y016176D02*
X030563Y016043D01*
X030563Y016110D02*
X030763Y016110D01*
X030697Y016043D01*
X030663Y015955D02*
X030663Y015822D01*
X030563Y015822D02*
X030763Y015822D01*
X030763Y015735D02*
X030763Y015601D01*
X030563Y015601D01*
X030663Y015601D02*
X030663Y015668D01*
X030763Y015955D02*
X030563Y015955D01*
X029981Y015968D02*
X029948Y015935D01*
X029881Y015935D01*
X029848Y015968D01*
X029760Y015968D02*
X029627Y016102D01*
X029660Y016135D01*
X029727Y016135D01*
X029760Y016102D01*
X029760Y015968D01*
X029727Y015935D01*
X029660Y015935D01*
X029627Y015968D01*
X029627Y016102D01*
X029539Y016135D02*
X029406Y016135D01*
X029472Y016135D02*
X029472Y015935D01*
X029406Y016002D01*
X029318Y015968D02*
X029185Y016102D01*
X029218Y016135D01*
X029285Y016135D01*
X029318Y016102D01*
X029318Y015968D01*
X029285Y015935D01*
X029218Y015935D01*
X029185Y015968D01*
X029185Y016102D01*
X029097Y016102D02*
X029064Y016135D01*
X028964Y016135D01*
X028964Y015935D01*
X029064Y015935D01*
X029097Y015968D01*
X029097Y016002D01*
X029064Y016035D01*
X028964Y016035D01*
X029064Y016035D02*
X029097Y016068D01*
X029097Y016102D01*
X028876Y016135D02*
X028743Y015935D01*
X028655Y015935D02*
X028522Y015935D01*
X028588Y015935D02*
X028588Y016135D01*
X028743Y016135D02*
X028876Y015935D01*
X029848Y016135D02*
X029981Y016002D01*
X029981Y015968D01*
X029981Y016135D02*
X029848Y016135D01*
X030563Y018363D02*
X030763Y018363D01*
X035317Y018651D02*
X036577Y018651D01*
X036577Y019596D01*
X035317Y019596D01*
X035317Y018651D01*
X035567Y022357D02*
X036327Y022357D01*
X036327Y022977D02*
X035567Y022977D01*
X033571Y027180D02*
X032811Y027180D01*
X032811Y027799D02*
X033571Y027799D01*
X019349Y014451D02*
X019315Y014485D01*
X019248Y014485D01*
X019215Y014451D01*
X019215Y014351D01*
X019148Y014351D02*
X019349Y014351D01*
X019349Y014451D01*
X019215Y014418D02*
X019148Y014485D01*
X019148Y014197D02*
X019349Y014197D01*
X019349Y014130D02*
X019349Y014264D01*
X019248Y014043D02*
X019248Y013909D01*
X019182Y013822D02*
X019349Y013822D01*
X019349Y013688D02*
X019182Y013688D01*
X019148Y013722D01*
X019148Y013788D01*
X019182Y013822D01*
X019148Y013601D02*
X019282Y013601D01*
X019349Y013534D01*
X019282Y013467D01*
X019148Y013467D01*
X019248Y013467D02*
X019248Y013601D01*
X019248Y013380D02*
X019248Y013246D01*
X019182Y013159D02*
X019148Y013125D01*
X019148Y013059D01*
X019182Y013025D01*
X019315Y013159D01*
X019182Y013159D01*
X019315Y013159D02*
X019349Y013125D01*
X019349Y013059D01*
X019315Y013025D01*
X019182Y013025D01*
X019182Y012938D02*
X019148Y012904D01*
X019148Y012838D01*
X019182Y012804D01*
X019315Y012938D01*
X019182Y012938D01*
X019315Y012938D02*
X019349Y012904D01*
X019349Y012838D01*
X019315Y012804D01*
X019182Y012804D01*
X019148Y012717D02*
X019148Y012583D01*
X019282Y012717D01*
X019315Y012717D01*
X019349Y012683D01*
X019349Y012617D01*
X019315Y012583D01*
X019248Y012496D02*
X019248Y012362D01*
X019148Y012275D02*
X019148Y012141D01*
X019148Y012208D02*
X019349Y012208D01*
X019282Y012141D01*
X019349Y012054D02*
X019315Y011987D01*
X019248Y011920D01*
X019248Y012020D01*
X019215Y012054D01*
X019182Y012054D01*
X019148Y012020D01*
X019148Y011954D01*
X019182Y011920D01*
X019248Y011920D01*
X019248Y011833D02*
X019248Y011733D01*
X019282Y011699D01*
X019315Y011699D01*
X019349Y011733D01*
X019349Y011799D01*
X019315Y011833D01*
X019182Y011833D01*
X019148Y011799D01*
X019148Y011733D01*
X019182Y011699D01*
X019182Y011612D02*
X019148Y011578D01*
X019148Y011512D01*
X019182Y011478D01*
X019248Y011545D02*
X019248Y011578D01*
X019215Y011612D01*
X019182Y011612D01*
X019248Y011578D02*
X019282Y011612D01*
X019315Y011612D01*
X019349Y011578D01*
X019349Y011512D01*
X019315Y011478D01*
X019248Y011391D02*
X019248Y011257D01*
X019215Y011170D02*
X019182Y011170D01*
X019148Y011136D01*
X019148Y011070D01*
X019182Y011036D01*
X019248Y011070D02*
X019248Y011136D01*
X019215Y011170D01*
X019315Y011170D02*
X019349Y011136D01*
X019349Y011070D01*
X019315Y011036D01*
X019282Y011036D01*
X019248Y011070D01*
X019182Y010949D02*
X019148Y010915D01*
X019148Y010849D01*
X019182Y010815D01*
X019315Y010815D01*
X019349Y010849D01*
X019349Y010915D01*
X019315Y010949D01*
X019349Y010728D02*
X019349Y010594D01*
X019148Y010594D01*
X019148Y010728D01*
X019248Y010661D02*
X019248Y010594D01*
X018540Y011263D02*
X018540Y012023D01*
X017921Y012023D02*
X017921Y011263D01*
X024121Y012247D02*
X024121Y013007D01*
X024741Y013007D02*
X024741Y012247D01*
X028087Y009591D02*
X028847Y009591D01*
X028847Y008971D02*
X028087Y008971D01*
X028087Y008213D02*
X028847Y008213D01*
X028847Y007593D02*
X028087Y007593D01*
X028327Y006887D02*
X028607Y006887D01*
X028607Y006552D02*
X028327Y006552D01*
X028321Y004930D02*
X028287Y004897D01*
X028287Y004864D01*
X028321Y004830D01*
X028387Y004830D01*
X028421Y004864D01*
X028421Y004897D01*
X028387Y004930D01*
X028321Y004930D01*
X028321Y004830D02*
X028287Y004797D01*
X028287Y004764D01*
X028321Y004730D01*
X028387Y004730D01*
X028421Y004764D01*
X028421Y004797D01*
X028387Y004830D01*
X028508Y004730D02*
X028642Y004730D01*
X028575Y004730D02*
X028575Y004930D01*
X028642Y004864D01*
X028729Y004864D02*
X028763Y004830D01*
X028729Y004797D01*
X028729Y004764D01*
X028763Y004730D01*
X028829Y004730D01*
X028863Y004764D01*
X028950Y004730D02*
X029084Y004930D01*
X029171Y004864D02*
X029171Y004730D01*
X029084Y004730D02*
X028950Y004930D01*
X028863Y004897D02*
X028829Y004930D01*
X028763Y004930D01*
X028729Y004897D01*
X028729Y004864D01*
X028763Y004830D02*
X028796Y004830D01*
X029171Y004830D02*
X029305Y004830D01*
X029305Y004864D02*
X029238Y004930D01*
X029171Y004864D01*
X029305Y004864D02*
X029305Y004730D01*
X029392Y004730D02*
X029392Y004930D01*
X029459Y004864D01*
X029526Y004930D01*
X029526Y004730D01*
X030839Y004296D02*
X030872Y004329D01*
X030905Y004329D01*
X030939Y004296D01*
X030939Y004196D01*
X030872Y004196D01*
X030839Y004229D01*
X030839Y004296D01*
X030939Y004196D02*
X031005Y004262D01*
X031039Y004329D01*
X031039Y004041D02*
X030839Y004041D01*
X030839Y003975D02*
X030839Y004108D01*
X030972Y003975D02*
X031039Y004041D01*
X031039Y003887D02*
X030872Y003887D01*
X030839Y003854D01*
X030839Y003787D01*
X030872Y003754D01*
X031039Y003754D01*
X031346Y003744D02*
X031379Y003710D01*
X031446Y003710D01*
X031479Y003744D01*
X031479Y003810D01*
X031379Y003810D01*
X031346Y003777D01*
X031346Y003744D01*
X031412Y003877D02*
X031479Y003810D01*
X031567Y003777D02*
X031567Y003744D01*
X031600Y003710D01*
X031667Y003710D01*
X031700Y003744D01*
X031788Y003710D02*
X031854Y003777D01*
X031821Y003777D02*
X031921Y003777D01*
X031921Y003710D02*
X031921Y003911D01*
X031821Y003911D01*
X031788Y003877D01*
X031788Y003810D01*
X031821Y003777D01*
X031700Y003877D02*
X031667Y003911D01*
X031600Y003911D01*
X031567Y003877D01*
X031567Y003844D01*
X031600Y003810D01*
X031567Y003777D01*
X031600Y003810D02*
X031633Y003810D01*
X031412Y003877D02*
X031346Y003911D01*
X030711Y003524D02*
X030677Y003558D01*
X030611Y003558D01*
X030577Y003524D01*
X030577Y003424D01*
X030511Y003424D02*
X030711Y003424D01*
X030711Y003524D01*
X030577Y003491D02*
X030511Y003558D01*
X030544Y003337D02*
X030511Y003303D01*
X030511Y003237D01*
X030544Y003203D01*
X030677Y003337D01*
X030544Y003337D01*
X030677Y003337D02*
X030711Y003303D01*
X030711Y003237D01*
X030677Y003203D01*
X030544Y003203D01*
X030544Y003116D02*
X030511Y003083D01*
X030511Y003016D01*
X030544Y002982D01*
X030544Y002895D02*
X030511Y002862D01*
X030511Y002795D01*
X030544Y002761D01*
X030611Y002828D02*
X030611Y002862D01*
X030577Y002895D01*
X030544Y002895D01*
X030611Y002862D02*
X030644Y002895D01*
X030677Y002895D01*
X030711Y002862D01*
X030711Y002795D01*
X030677Y002761D01*
X030725Y002667D02*
X030591Y002667D01*
X030591Y002633D01*
X030725Y002500D01*
X030725Y002466D01*
X030812Y002500D02*
X030846Y002466D01*
X030912Y002466D01*
X030946Y002500D01*
X031033Y002466D02*
X031100Y002533D01*
X031067Y002533D02*
X031167Y002533D01*
X031167Y002466D02*
X031167Y002667D01*
X031067Y002667D01*
X031033Y002633D01*
X031033Y002567D01*
X031067Y002533D01*
X030946Y002633D02*
X030912Y002667D01*
X030846Y002667D01*
X030812Y002633D01*
X030812Y002600D01*
X030846Y002567D01*
X030812Y002533D01*
X030812Y002500D01*
X030846Y002567D02*
X030879Y002567D01*
X030677Y002982D02*
X030711Y003016D01*
X030711Y003083D01*
X030677Y003116D01*
X030644Y003116D01*
X030611Y003083D01*
X030577Y003116D01*
X030544Y003116D01*
X030611Y003083D02*
X030611Y003049D01*
X031839Y003016D02*
X031873Y002982D01*
X031839Y003016D02*
X031839Y003083D01*
X031873Y003116D01*
X031906Y003116D01*
X031939Y003083D01*
X031939Y003049D01*
X031939Y003083D02*
X031973Y003116D01*
X032006Y003116D01*
X032039Y003083D01*
X032039Y003016D01*
X032006Y002982D01*
X032006Y002895D02*
X031973Y002895D01*
X031939Y002862D01*
X031906Y002895D01*
X031873Y002895D01*
X031839Y002862D01*
X031839Y002795D01*
X031873Y002761D01*
X031939Y002828D02*
X031939Y002862D01*
X032006Y002895D02*
X032039Y002862D01*
X032039Y002795D01*
X032006Y002761D01*
X032006Y003203D02*
X032039Y003237D01*
X032039Y003303D01*
X032006Y003337D01*
X031873Y003203D01*
X031839Y003237D01*
X031839Y003303D01*
X031873Y003337D01*
X032006Y003337D01*
X032039Y003424D02*
X032039Y003524D01*
X032006Y003558D01*
X031939Y003558D01*
X031906Y003524D01*
X031906Y003424D01*
X031839Y003424D02*
X032039Y003424D01*
X031906Y003491D02*
X031839Y003558D01*
X031873Y003203D02*
X032006Y003203D01*
X031774Y004675D02*
X031774Y005619D01*
X033034Y005619D01*
X033034Y004675D01*
X031774Y004675D01*
X033583Y005541D02*
X033783Y005541D01*
X033583Y005674D01*
X033783Y005674D01*
X033750Y005762D02*
X033616Y005762D01*
X033583Y005795D01*
X033583Y005862D01*
X033616Y005895D01*
X033650Y005983D02*
X033583Y006050D01*
X033650Y006116D01*
X033783Y006116D01*
X033750Y006204D02*
X033716Y006204D01*
X033683Y006237D01*
X033683Y006304D01*
X033650Y006337D01*
X033616Y006337D01*
X033583Y006304D01*
X033583Y006237D01*
X033616Y006204D01*
X033650Y006204D01*
X033683Y006237D01*
X033683Y006304D02*
X033716Y006337D01*
X033750Y006337D01*
X033783Y006304D01*
X033783Y006237D01*
X033750Y006204D01*
X033783Y005983D02*
X033650Y005983D01*
X033750Y005895D02*
X033783Y005862D01*
X033783Y005795D01*
X033750Y005762D01*
X033716Y006425D02*
X033783Y006492D01*
X033583Y006492D01*
X033583Y006558D02*
X033583Y006425D01*
X033616Y006646D02*
X033583Y006679D01*
X033583Y006746D01*
X033616Y006779D01*
X033650Y006779D01*
X033683Y006746D01*
X033683Y006646D01*
X033616Y006646D01*
X033683Y006646D02*
X033750Y006713D01*
X033783Y006779D01*
X033716Y006867D02*
X033783Y006934D01*
X033583Y006934D01*
X033583Y007000D02*
X033583Y006867D01*
X033683Y007088D02*
X033683Y007221D01*
X033616Y007309D02*
X033583Y007342D01*
X033583Y007409D01*
X033616Y007442D01*
X033650Y007442D01*
X033683Y007409D01*
X033683Y007376D01*
X033683Y007409D02*
X033716Y007442D01*
X033750Y007442D01*
X033783Y007409D01*
X033783Y007342D01*
X033750Y007309D01*
X033616Y007530D02*
X033616Y007563D01*
X033583Y007563D01*
X033583Y007530D01*
X033616Y007530D01*
X033616Y007640D02*
X033583Y007674D01*
X033583Y007740D01*
X033616Y007774D01*
X033650Y007774D01*
X033683Y007740D01*
X033683Y007707D01*
X033683Y007740D02*
X033716Y007774D01*
X033750Y007774D01*
X033783Y007740D01*
X033783Y007674D01*
X033750Y007640D01*
X033783Y007861D02*
X033650Y007861D01*
X033583Y007928D01*
X033650Y007995D01*
X033783Y007995D01*
X033034Y007824D02*
X033034Y008769D01*
X031774Y008769D01*
X031774Y007824D01*
X033034Y007824D01*
X028200Y004930D02*
X028200Y004830D01*
X028133Y004864D01*
X028100Y004864D01*
X028066Y004830D01*
X028066Y004764D01*
X028100Y004730D01*
X028166Y004730D01*
X028200Y004764D01*
X028200Y004930D02*
X028066Y004930D01*
X027979Y004930D02*
X027979Y004830D01*
X027912Y004864D01*
X027879Y004864D01*
X027845Y004830D01*
X027845Y004764D01*
X027879Y004730D01*
X027945Y004730D01*
X027979Y004764D01*
X027979Y004930D02*
X027845Y004930D01*
X027202Y004936D02*
X027202Y004177D01*
X026582Y004177D02*
X026582Y004936D01*
X021859Y004079D02*
X021099Y004079D01*
X021099Y003459D02*
X021859Y003459D01*
D18*
X006025Y020213D03*
X006025Y020793D03*
X010160Y020986D03*
X010160Y020406D03*
D19*
X014184Y027029D02*
X014184Y027154D01*
X014309Y027154D01*
X014184Y027154D02*
X014059Y027154D01*
X014184Y027154D02*
X014184Y027279D01*
X022837Y022338D02*
X023467Y022338D01*
X023467Y021814D02*
X022837Y021814D01*
X022380Y019123D02*
X022168Y019123D01*
X022168Y018911D01*
X025892Y019123D02*
X026105Y019123D01*
X026105Y018911D01*
X026105Y015399D02*
X026105Y015186D01*
X025892Y015186D01*
X022380Y015186D02*
X022168Y015186D01*
X022168Y015399D01*
X020829Y012627D02*
X019569Y012627D01*
X019569Y012519D01*
X020829Y012519D02*
X020829Y012627D01*
X020829Y010768D02*
X020829Y010659D01*
X019569Y010659D01*
X019569Y010768D01*
X027674Y005344D02*
X027674Y003769D01*
X027679Y003769D02*
X029648Y003769D01*
X029648Y005344D01*
X027679Y005344D01*
X027679Y003769D01*
X029653Y003769D02*
X029653Y005344D01*
X030071Y003651D02*
X030073Y003663D01*
X030078Y003674D01*
X030087Y003683D01*
X030098Y003688D01*
X030110Y003690D01*
X030122Y003688D01*
X030133Y003683D01*
X030142Y003674D01*
X030147Y003663D01*
X030149Y003651D01*
X030147Y003639D01*
X030142Y003628D01*
X030133Y003619D01*
X030122Y003614D01*
X030110Y003612D01*
X030098Y003614D01*
X030087Y003619D01*
X030078Y003628D01*
X030073Y003639D01*
X030071Y003651D01*
X033154Y005697D02*
X033279Y005697D01*
X033404Y005697D01*
X033279Y005697D02*
X033279Y005822D01*
X033279Y005697D02*
X033279Y005572D01*
X031529Y007622D02*
X031529Y007747D01*
X031404Y007747D01*
X031529Y007747D02*
X031529Y007872D01*
X031529Y007747D02*
X031654Y007747D01*
X032991Y009918D02*
X032991Y013368D01*
X036541Y013368D01*
X036541Y009918D01*
X032991Y009918D01*
X032010Y011328D02*
X031616Y011328D01*
X031616Y011958D02*
X032010Y011958D01*
X035072Y018448D02*
X035072Y018573D01*
X034947Y018573D01*
X035072Y018573D02*
X035072Y018698D01*
X035072Y018573D02*
X035197Y018573D01*
D20*
X025841Y014336D02*
X025843Y014348D01*
X025848Y014359D01*
X025857Y014368D01*
X025868Y014373D01*
X025880Y014375D01*
X025892Y014373D01*
X025903Y014368D01*
X025912Y014359D01*
X025917Y014348D01*
X025919Y014336D01*
X025917Y014324D01*
X025912Y014313D01*
X025903Y014304D01*
X025892Y014299D01*
X025880Y014297D01*
X025868Y014299D01*
X025857Y014304D01*
X025848Y014313D01*
X025843Y014324D01*
X025841Y014336D01*
X019688Y010462D02*
X019690Y010474D01*
X019695Y010485D01*
X019704Y010494D01*
X019715Y010499D01*
X019727Y010501D01*
X019739Y010499D01*
X019750Y010494D01*
X019759Y010485D01*
X019764Y010474D01*
X019766Y010462D01*
X019764Y010450D01*
X019759Y010439D01*
X019750Y010430D01*
X019739Y010425D01*
X019727Y010423D01*
X019715Y010425D01*
X019704Y010430D01*
X019695Y010439D01*
X019690Y010450D01*
X019688Y010462D01*
X027877Y006249D02*
X027879Y006261D01*
X027884Y006272D01*
X027893Y006281D01*
X027904Y006286D01*
X027916Y006288D01*
X027928Y006286D01*
X027939Y006281D01*
X027948Y006272D01*
X027953Y006261D01*
X027955Y006249D01*
X027953Y006237D01*
X027948Y006226D01*
X027939Y006217D01*
X027928Y006212D01*
X027916Y006210D01*
X027904Y006212D01*
X027893Y006217D01*
X027884Y006226D01*
X027879Y006237D01*
X027877Y006249D01*
X027877Y004899D02*
X027879Y004911D01*
X027884Y004922D01*
X027893Y004931D01*
X027904Y004936D01*
X027916Y004938D01*
X027928Y004936D01*
X027939Y004931D01*
X027948Y004922D01*
X027953Y004911D01*
X027955Y004899D01*
X027953Y004887D01*
X027948Y004876D01*
X027939Y004867D01*
X027928Y004862D01*
X027916Y004860D01*
X027904Y004862D01*
X027893Y004867D01*
X027884Y004876D01*
X027879Y004887D01*
X027877Y004899D01*
D21*
X023578Y003058D02*
X023578Y001330D01*
X020753Y001330D01*
X020753Y003058D01*
X023578Y003058D01*
X021833Y002194D02*
X021498Y002194D01*
X021664Y002037D02*
X021664Y002352D01*
X015790Y002450D02*
X015160Y002450D01*
X015160Y003513D01*
X015790Y003513D01*
X015790Y002450D01*
X015790Y002647D02*
X015790Y003316D01*
X015160Y003316D02*
X015160Y002647D01*
X015416Y014871D02*
X014746Y014871D01*
X014549Y014871D02*
X015612Y014871D01*
X015612Y015501D01*
X014549Y015501D01*
X014549Y014871D01*
X014746Y015501D02*
X015416Y015501D01*
X015337Y024517D02*
X016006Y024517D01*
X016203Y024517D02*
X016203Y025147D01*
X015140Y025147D01*
X015140Y024517D01*
X016203Y024517D01*
X016006Y025147D02*
X015337Y025147D01*
X016912Y025147D02*
X016912Y024517D01*
X017975Y024517D01*
X017975Y025147D01*
X016912Y025147D01*
X017109Y025147D02*
X017778Y025147D01*
X017778Y024517D02*
X017109Y024517D01*
X017520Y029914D02*
X015792Y029914D01*
X015792Y032738D01*
X017520Y032738D01*
X017520Y029914D01*
X016656Y030659D02*
X016656Y030994D01*
X016813Y030824D02*
X016498Y030824D01*
X030475Y019891D02*
X030475Y014025D01*
X030750Y014025D01*
X030750Y014143D01*
X030868Y014143D01*
X030868Y019773D01*
X030868Y019891D01*
X031026Y019891D01*
X030868Y019773D02*
X030750Y019773D01*
X030750Y019891D01*
X030475Y019891D01*
X032207Y019891D02*
X032601Y019891D01*
X032601Y019419D01*
X032853Y023444D02*
X030967Y023444D01*
X030967Y023641D01*
X030967Y024940D01*
X032853Y024940D01*
X032853Y023641D01*
X030967Y023641D01*
X032853Y023641D02*
X032853Y023444D01*
X030750Y014773D02*
X030593Y014694D01*
X030750Y014616D01*
X030750Y014773D01*
X030750Y014748D02*
X030701Y014748D01*
X030750Y014670D02*
X030642Y014670D01*
X030868Y014143D02*
X030868Y014025D01*
X031026Y014025D01*
X032207Y014025D02*
X032601Y014025D01*
X032601Y014497D01*
D22*
X015475Y003617D03*
X015475Y002347D03*
D23*
X015480Y002667D03*
D24*
X015716Y015186D03*
X014446Y015186D03*
X015037Y024832D03*
X016306Y024832D03*
X016808Y024832D03*
X018078Y024832D03*
D25*
X017758Y024837D03*
X015986Y024837D03*
X015396Y015191D03*
D26*
X014492Y017966D03*
X013702Y018336D03*
X014492Y018706D03*
X017641Y003352D03*
X017641Y002612D03*
X016851Y002982D03*
X035503Y025348D03*
X035503Y026088D03*
X036293Y025718D03*
D27*
X032662Y025177D03*
X031158Y025177D03*
X031158Y023208D03*
X032662Y023208D03*
D28*
X031910Y023208D03*
X031910Y025177D03*
D29*
X027929Y018828D03*
X027429Y018828D03*
X029004Y012037D03*
X029504Y012037D03*
X029504Y011249D03*
X029004Y011249D03*
X035697Y017155D03*
X036197Y017155D03*
X015921Y023848D03*
X015421Y023848D03*
D30*
X013974Y026604D03*
X012645Y026604D03*
X031739Y008297D03*
X033068Y008297D03*
X033068Y005147D03*
X031739Y005147D03*
X035283Y019123D03*
X036611Y019123D03*
D31*
X035514Y019123D03*
X031971Y008297D03*
X032837Y005147D03*
X013742Y026604D03*
D32*
X015198Y022667D03*
X016243Y022666D03*
X024204Y022077D03*
X025249Y022076D03*
X026271Y020206D03*
X027316Y020206D03*
X035425Y022667D03*
X036469Y022666D03*
X033714Y027489D03*
X032669Y027490D03*
X028989Y009281D03*
X027944Y009281D03*
X027944Y007903D03*
X028989Y007903D03*
X022001Y003769D03*
X020956Y003769D03*
D33*
X015473Y004397D03*
X015473Y004717D03*
X027337Y013844D03*
X027337Y014164D03*
X029591Y012983D03*
X029591Y012663D03*
X029591Y010621D03*
X029591Y010301D03*
X030975Y003339D03*
X030975Y003019D03*
X031555Y003019D03*
X031555Y003339D03*
X012573Y021275D03*
X012573Y021595D03*
D34*
X029142Y013659D03*
X029462Y013659D03*
X030276Y011940D03*
X030596Y011940D03*
X030596Y011350D03*
X030276Y011350D03*
X034556Y016415D03*
X034876Y016415D03*
X013667Y001606D03*
X013347Y001606D03*
D35*
X018230Y011121D03*
X018231Y012165D03*
X024431Y012105D03*
X024432Y013150D03*
X026892Y005079D03*
X026892Y004034D03*
D36*
X032286Y011053D02*
X032288Y011065D01*
X032293Y011076D01*
X032302Y011085D01*
X032313Y011090D01*
X032325Y011092D01*
X032337Y011090D01*
X032348Y011085D01*
X032357Y011076D01*
X032362Y011065D01*
X032364Y011053D01*
X032362Y011041D01*
X032357Y011030D01*
X032348Y011021D01*
X032337Y011016D01*
X032325Y011014D01*
X032313Y011016D01*
X032302Y011021D01*
X032293Y011030D01*
X032288Y011041D01*
X032286Y011053D01*
D37*
X032655Y011038D02*
X032785Y011038D01*
X032763Y011099D02*
X032785Y011121D01*
X032785Y011164D01*
X032763Y011186D01*
X032742Y011186D01*
X032720Y011164D01*
X032698Y011186D01*
X032677Y011186D01*
X032655Y011164D01*
X032655Y011121D01*
X032677Y011099D01*
X032720Y011142D02*
X032720Y011164D01*
X032742Y011246D02*
X032785Y011290D01*
X032655Y011290D01*
X032655Y011333D02*
X032655Y011246D01*
X032677Y011394D02*
X032655Y011415D01*
X032655Y011459D01*
X032677Y011480D01*
X032698Y011480D01*
X032720Y011459D01*
X032720Y011415D01*
X032742Y011394D01*
X032763Y011394D01*
X032785Y011415D01*
X032785Y011459D01*
X032763Y011480D01*
X032785Y011541D02*
X032655Y011628D01*
X032785Y011628D01*
X032785Y011541D02*
X032655Y011541D01*
X032677Y011688D02*
X032655Y011710D01*
X032655Y011753D01*
X032677Y011775D01*
X032698Y011775D01*
X032720Y011753D01*
X032720Y011688D01*
X032677Y011688D01*
X032720Y011688D02*
X032763Y011732D01*
X032785Y011775D01*
X032763Y011836D02*
X032785Y011857D01*
X032785Y011901D01*
X032763Y011922D01*
X032677Y011836D01*
X032655Y011857D01*
X032655Y011901D01*
X032677Y011922D01*
X032763Y011922D01*
X032742Y011983D02*
X032785Y012026D01*
X032655Y012026D01*
X032655Y011983D02*
X032655Y012070D01*
X032677Y012130D02*
X032655Y012152D01*
X032655Y012195D01*
X032677Y012217D01*
X032698Y012217D01*
X032720Y012195D01*
X032720Y012152D01*
X032742Y012130D01*
X032763Y012130D01*
X032785Y012152D01*
X032785Y012195D01*
X032763Y012217D01*
X032763Y012278D02*
X032785Y012299D01*
X032785Y012343D01*
X032763Y012364D01*
X032677Y012364D01*
X032655Y012343D01*
X032655Y012299D01*
X032677Y012278D01*
X032763Y012278D01*
X032698Y012321D02*
X032655Y012364D01*
X032655Y012425D02*
X032742Y012512D01*
X032763Y012512D01*
X032785Y012490D01*
X032785Y012447D01*
X032763Y012425D01*
X032655Y012425D02*
X032655Y012512D01*
X032655Y012572D02*
X032655Y012659D01*
X032655Y012572D02*
X032785Y012572D01*
X032763Y011836D02*
X032677Y011836D01*
X032655Y011038D02*
X032698Y010995D01*
X032655Y010952D01*
X032785Y010952D01*
X032655Y010891D02*
X032655Y010804D01*
X032785Y010804D01*
X032763Y010744D02*
X032785Y010722D01*
X032785Y010657D01*
X032655Y010657D01*
X032655Y010722D01*
X032677Y010744D01*
X032763Y010744D01*
X030233Y010716D02*
X030212Y010716D01*
X030125Y010630D01*
X030103Y010630D01*
X030103Y010716D01*
X030103Y010777D02*
X030103Y010864D01*
X030103Y010820D02*
X030233Y010820D01*
X030190Y010777D01*
X030233Y010716D02*
X030233Y010630D01*
X030212Y010569D02*
X030233Y010547D01*
X030233Y010504D01*
X030212Y010482D01*
X030190Y010482D01*
X030168Y010504D01*
X030168Y010547D01*
X030147Y010569D01*
X030125Y010569D01*
X030103Y010547D01*
X030103Y010504D01*
X030125Y010482D01*
X030103Y010422D02*
X030103Y010335D01*
X030190Y010422D01*
X030212Y010422D01*
X030233Y010400D01*
X030233Y010357D01*
X030212Y010335D01*
X030212Y010274D02*
X030125Y010188D01*
X030103Y010209D01*
X030103Y010253D01*
X030125Y010274D01*
X030212Y010274D01*
X030233Y010253D01*
X030233Y010209D01*
X030212Y010188D01*
X030125Y010188D01*
X030103Y010127D02*
X030103Y010040D01*
X030103Y010084D02*
X030233Y010084D01*
X030190Y010040D01*
X030233Y009980D02*
X030103Y009893D01*
X030103Y009832D02*
X030190Y009832D01*
X030233Y009789D01*
X030190Y009746D01*
X030103Y009746D01*
X030125Y009685D02*
X030103Y009663D01*
X030103Y009620D01*
X030125Y009598D01*
X030168Y009598D02*
X030190Y009642D01*
X030190Y009663D01*
X030168Y009685D01*
X030125Y009685D01*
X030168Y009746D02*
X030168Y009832D01*
X030233Y009893D02*
X030103Y009980D01*
X030233Y009685D02*
X030233Y009598D01*
X030168Y009598D01*
X030103Y009538D02*
X030103Y009451D01*
X030103Y009494D02*
X030233Y009494D01*
X030190Y009451D01*
X030233Y009390D02*
X030103Y009390D01*
X030103Y009304D02*
X030233Y009304D01*
X030190Y009347D01*
X030233Y009390D01*
X030103Y009243D02*
X030103Y009156D01*
X030233Y009156D01*
X030212Y009096D02*
X030190Y009096D01*
X030168Y009074D01*
X030168Y009009D01*
X030103Y009009D02*
X030103Y009074D01*
X030125Y009096D01*
X030147Y009096D01*
X030168Y009074D01*
X030212Y009096D02*
X030233Y009074D01*
X030233Y009009D01*
X030103Y009009D01*
X030103Y010924D02*
X030103Y010989D01*
X030125Y011011D01*
X030212Y011011D01*
X030233Y010989D01*
X030233Y010924D01*
X030103Y010924D01*
X029880Y004618D02*
X029880Y004531D01*
X029945Y004596D01*
X029815Y004596D01*
X029837Y004471D02*
X029815Y004449D01*
X029815Y004406D01*
X029837Y004384D01*
X029924Y004471D01*
X029837Y004471D01*
X029924Y004471D02*
X029945Y004449D01*
X029945Y004406D01*
X029924Y004384D01*
X029837Y004384D01*
X029815Y004323D02*
X029815Y004237D01*
X029815Y004280D02*
X029945Y004280D01*
X029902Y004237D01*
X029924Y004176D02*
X029837Y004089D01*
X029815Y004111D01*
X029815Y004154D01*
X029837Y004176D01*
X029924Y004176D01*
X029945Y004154D01*
X029945Y004111D01*
X029924Y004089D01*
X029837Y004089D01*
X029837Y004029D02*
X029815Y004007D01*
X029815Y003942D01*
X029945Y003942D01*
X029945Y004007D01*
X029924Y004029D01*
X029902Y004029D01*
X029880Y004007D01*
X029880Y003942D01*
X029880Y004007D02*
X029859Y004029D01*
X029837Y004029D01*
X029815Y003881D02*
X029945Y003795D01*
X029945Y003734D02*
X029945Y003647D01*
X029945Y003691D02*
X029815Y003691D01*
X029815Y003795D02*
X029945Y003881D01*
D38*
X028695Y006720D03*
X028235Y006720D03*
D39*
X030051Y004556D02*
X030051Y003769D01*
X030721Y003769D01*
X030721Y004556D01*
X030051Y004556D01*
D40*
X030187Y003902D03*
M02*
