G75*
G70*
%OFA0B0*%
%FSLAX24Y24*%
%IPPOS*%
%LPD*%
%AMOC8*
5,1,8,0,0,1.08239X$1,22.5*
%
%ADD10C,0.0000*%
%ADD11C,0.1004*%
%ADD12C,0.0600*%
%ADD13C,0.0520*%
%ADD14C,0.0780*%
%ADD15C,0.1451*%
%ADD16C,0.0594*%
%ADD17C,0.0560*%
%ADD18C,0.0060*%
%ADD19C,0.0591*%
%ADD20C,0.2172*%
%ADD21C,0.0436*%
%ADD22C,0.0394*%
%ADD23C,0.0295*%
%ADD24C,0.0197*%
%ADD25C,0.0787*%
D10*
X000120Y000226D02*
X000120Y033690D01*
X039097Y033690D01*
X039097Y000226D01*
X000120Y000226D01*
D11*
X002089Y008108D03*
X002089Y009667D03*
X002089Y012045D03*
X002089Y013604D03*
X006427Y031722D03*
X007986Y031722D03*
X010364Y031722D03*
X011923Y031722D03*
X020945Y031722D03*
X022504Y031722D03*
D12*
X021774Y028066D03*
X021774Y026566D03*
X021774Y025066D03*
X021774Y023566D03*
X017607Y026391D03*
X016607Y026391D03*
X015607Y026391D03*
X010388Y026997D03*
X006388Y026997D03*
X008207Y021501D03*
X008207Y020501D03*
X008207Y019501D03*
X014171Y021682D03*
X017171Y021682D03*
X011144Y013824D03*
X011144Y011824D03*
X011144Y010494D03*
X008388Y010494D03*
X008388Y011824D03*
X008388Y013824D03*
X005981Y011224D03*
X005381Y008224D03*
X008388Y006494D03*
X011144Y006494D03*
X020435Y007525D03*
X021435Y007525D03*
X022435Y007525D03*
D13*
X006829Y013956D03*
X004829Y013956D03*
X006388Y028966D03*
X010388Y028966D03*
D14*
X013581Y016490D03*
X016581Y016490D03*
X016581Y010490D03*
X016581Y008490D03*
X016581Y006490D03*
X016581Y004482D03*
X013581Y006490D03*
X013581Y008490D03*
X013581Y010490D03*
X010581Y004482D03*
X008581Y004482D03*
X006581Y004482D03*
X006581Y001482D03*
X008581Y001482D03*
X010581Y001482D03*
X016581Y001482D03*
D15*
X019430Y005165D03*
X023430Y005165D03*
X005435Y016368D03*
X005435Y024635D03*
X014606Y028751D03*
X018606Y028751D03*
D16*
X025268Y023208D03*
X037758Y023576D03*
X037758Y022576D03*
X037758Y021576D03*
X037758Y020576D03*
X037758Y017655D03*
X037758Y016655D03*
X037758Y014505D03*
X037758Y013505D03*
X037758Y012175D03*
X037758Y011175D03*
X037758Y010175D03*
X037758Y009175D03*
X037758Y008175D03*
X037758Y007175D03*
X024628Y002194D03*
X037758Y025710D03*
X037758Y026710D03*
D17*
X023168Y012037D03*
X021668Y012037D03*
X021668Y010068D03*
X023168Y010068D03*
X031616Y002145D03*
X031616Y001358D03*
X032404Y001358D03*
X032404Y002145D03*
X033191Y002145D03*
X033191Y001358D03*
D18*
X032994Y003179D02*
X032994Y006673D01*
X038506Y006673D01*
X038506Y007657D01*
X032010Y007657D01*
X032010Y004114D01*
X028661Y004114D01*
X028581Y004081D01*
X028451Y004081D01*
X028371Y004114D01*
X018378Y004114D01*
X018378Y006722D01*
X020790Y006722D01*
X020790Y008297D01*
X017640Y008297D01*
X017640Y003179D01*
X032994Y003179D01*
X032994Y003209D02*
X017640Y003209D01*
X017640Y003268D02*
X032994Y003268D01*
X032994Y003326D02*
X017640Y003326D01*
X017640Y003385D02*
X032994Y003385D01*
X032994Y003443D02*
X017640Y003443D01*
X017640Y003502D02*
X032994Y003502D01*
X032994Y003560D02*
X017640Y003560D01*
X017640Y003619D02*
X032994Y003619D01*
X032994Y003677D02*
X017640Y003677D01*
X017640Y003736D02*
X032994Y003736D01*
X032994Y003794D02*
X017640Y003794D01*
X017640Y003853D02*
X032994Y003853D01*
X032994Y003911D02*
X017640Y003911D01*
X017640Y003970D02*
X032994Y003970D01*
X032994Y004028D02*
X017640Y004028D01*
X017640Y004087D02*
X028436Y004087D01*
X028596Y004087D02*
X032994Y004087D01*
X032994Y004145D02*
X032010Y004145D01*
X032010Y004204D02*
X032994Y004204D01*
X032994Y004262D02*
X032010Y004262D01*
X032010Y004321D02*
X032994Y004321D01*
X032994Y004379D02*
X032010Y004379D01*
X032010Y004438D02*
X032994Y004438D01*
X032994Y004496D02*
X032010Y004496D01*
X032010Y004555D02*
X032994Y004555D01*
X032994Y004613D02*
X032010Y004613D01*
X032010Y004672D02*
X032994Y004672D01*
X032994Y004730D02*
X032010Y004730D01*
X032010Y004789D02*
X032994Y004789D01*
X032994Y004847D02*
X032010Y004847D01*
X032010Y004906D02*
X032994Y004906D01*
X032994Y004964D02*
X032010Y004964D01*
X032010Y005023D02*
X032994Y005023D01*
X032994Y005081D02*
X032010Y005081D01*
X032010Y005140D02*
X032994Y005140D01*
X032994Y005198D02*
X032010Y005198D01*
X032010Y005257D02*
X032994Y005257D01*
X032994Y005315D02*
X032010Y005315D01*
X032010Y005374D02*
X032994Y005374D01*
X032994Y005432D02*
X032010Y005432D01*
X032010Y005491D02*
X032994Y005491D01*
X032994Y005549D02*
X032010Y005549D01*
X032010Y005608D02*
X032994Y005608D01*
X032994Y005666D02*
X032010Y005666D01*
X032010Y005725D02*
X032994Y005725D01*
X032994Y005783D02*
X032010Y005783D01*
X032010Y005842D02*
X032994Y005842D01*
X032994Y005900D02*
X032010Y005900D01*
X032010Y005959D02*
X032994Y005959D01*
X032994Y006017D02*
X032010Y006017D01*
X032010Y006076D02*
X032994Y006076D01*
X032994Y006134D02*
X032010Y006134D01*
X032010Y006193D02*
X032994Y006193D01*
X032994Y006251D02*
X032010Y006251D01*
X032010Y006310D02*
X032994Y006310D01*
X032994Y006368D02*
X032010Y006368D01*
X032010Y006427D02*
X032994Y006427D01*
X032994Y006485D02*
X032010Y006485D01*
X032010Y006544D02*
X032994Y006544D01*
X032994Y006602D02*
X032010Y006602D01*
X032010Y006661D02*
X032994Y006661D01*
X032010Y006719D02*
X038506Y006719D01*
X038506Y006778D02*
X032010Y006778D01*
X032010Y006836D02*
X038506Y006836D01*
X038506Y006895D02*
X032010Y006895D01*
X032010Y006953D02*
X038506Y006953D01*
X038506Y007012D02*
X032010Y007012D01*
X032010Y007070D02*
X038506Y007070D01*
X038506Y007129D02*
X032010Y007129D01*
X032010Y007187D02*
X038506Y007187D01*
X038506Y007246D02*
X032010Y007246D01*
X032010Y007304D02*
X038506Y007304D01*
X038506Y007363D02*
X032010Y007363D01*
X032010Y007421D02*
X038506Y007421D01*
X038506Y007480D02*
X032010Y007480D01*
X032010Y007538D02*
X038506Y007538D01*
X038506Y007597D02*
X032010Y007597D01*
X032010Y007655D02*
X038506Y007655D01*
X022364Y009478D02*
X021872Y009478D01*
X021872Y006525D01*
X021036Y006525D01*
X021085Y012283D01*
X020297Y012283D01*
X020101Y012480D01*
X020101Y014005D01*
X020544Y014399D01*
X021085Y014891D01*
X021085Y021289D01*
X018526Y021289D01*
X018526Y023454D01*
X016065Y023461D01*
X016065Y027686D01*
X017148Y027686D01*
X017148Y024537D01*
X019609Y024537D01*
X019609Y022371D01*
X021971Y022371D01*
X021971Y014940D01*
X021134Y013907D01*
X021134Y013169D01*
X021971Y013169D01*
X021971Y012627D01*
X022364Y012627D01*
X022364Y009478D01*
X022364Y009527D02*
X021061Y009527D01*
X021061Y009469D02*
X021872Y009469D01*
X021872Y009410D02*
X021060Y009410D01*
X021060Y009352D02*
X021872Y009352D01*
X021872Y009293D02*
X021059Y009293D01*
X021059Y009235D02*
X021872Y009235D01*
X021872Y009176D02*
X021058Y009176D01*
X021058Y009118D02*
X021872Y009118D01*
X021872Y009059D02*
X021057Y009059D01*
X021057Y009001D02*
X021872Y009001D01*
X021872Y008942D02*
X021056Y008942D01*
X021056Y008884D02*
X021872Y008884D01*
X021872Y008825D02*
X021055Y008825D01*
X021055Y008767D02*
X021872Y008767D01*
X021872Y008708D02*
X021054Y008708D01*
X021054Y008650D02*
X021872Y008650D01*
X021872Y008591D02*
X021053Y008591D01*
X021053Y008533D02*
X021872Y008533D01*
X021872Y008474D02*
X021052Y008474D01*
X021052Y008416D02*
X021872Y008416D01*
X021872Y008357D02*
X021051Y008357D01*
X021051Y008299D02*
X021872Y008299D01*
X021872Y008240D02*
X021050Y008240D01*
X021050Y008182D02*
X021872Y008182D01*
X021872Y008123D02*
X021049Y008123D01*
X021049Y008065D02*
X021872Y008065D01*
X021872Y008006D02*
X021048Y008006D01*
X021048Y007948D02*
X021872Y007948D01*
X021872Y007889D02*
X021047Y007889D01*
X021047Y007831D02*
X021872Y007831D01*
X021872Y007772D02*
X021046Y007772D01*
X021046Y007714D02*
X021872Y007714D01*
X021872Y007655D02*
X021045Y007655D01*
X021045Y007597D02*
X021872Y007597D01*
X021872Y007538D02*
X021044Y007538D01*
X021044Y007480D02*
X021872Y007480D01*
X021872Y007421D02*
X021043Y007421D01*
X021043Y007363D02*
X021872Y007363D01*
X021872Y007304D02*
X021042Y007304D01*
X021042Y007246D02*
X021872Y007246D01*
X021872Y007187D02*
X021041Y007187D01*
X021041Y007129D02*
X021872Y007129D01*
X021872Y007070D02*
X021040Y007070D01*
X021040Y007012D02*
X021872Y007012D01*
X021872Y006953D02*
X021039Y006953D01*
X021039Y006895D02*
X021872Y006895D01*
X021872Y006836D02*
X021038Y006836D01*
X021038Y006778D02*
X021872Y006778D01*
X021872Y006719D02*
X021037Y006719D01*
X021037Y006661D02*
X021872Y006661D01*
X021872Y006602D02*
X021036Y006602D01*
X021036Y006544D02*
X021872Y006544D01*
X020790Y006778D02*
X017640Y006778D01*
X017640Y006836D02*
X020790Y006836D01*
X020790Y006895D02*
X017640Y006895D01*
X017640Y006953D02*
X020790Y006953D01*
X020790Y007012D02*
X017640Y007012D01*
X017640Y007070D02*
X020790Y007070D01*
X020790Y007129D02*
X017640Y007129D01*
X017640Y007187D02*
X020790Y007187D01*
X020790Y007246D02*
X017640Y007246D01*
X017640Y007304D02*
X020790Y007304D01*
X020790Y007363D02*
X017640Y007363D01*
X017640Y007421D02*
X020790Y007421D01*
X020790Y007480D02*
X017640Y007480D01*
X017640Y007538D02*
X020790Y007538D01*
X020790Y007597D02*
X017640Y007597D01*
X017640Y007655D02*
X020790Y007655D01*
X020790Y007714D02*
X017640Y007714D01*
X017640Y007772D02*
X020790Y007772D01*
X020790Y007831D02*
X017640Y007831D01*
X017640Y007889D02*
X020790Y007889D01*
X020790Y007948D02*
X017640Y007948D01*
X017640Y008006D02*
X020790Y008006D01*
X020790Y008065D02*
X017640Y008065D01*
X017640Y008123D02*
X020790Y008123D01*
X020790Y008182D02*
X017640Y008182D01*
X017640Y008240D02*
X020790Y008240D01*
X021062Y009586D02*
X022364Y009586D01*
X022364Y009644D02*
X021062Y009644D01*
X021063Y009703D02*
X022364Y009703D01*
X022364Y009761D02*
X021063Y009761D01*
X021064Y009820D02*
X022364Y009820D01*
X022364Y009878D02*
X021064Y009878D01*
X021065Y009937D02*
X022364Y009937D01*
X022364Y009995D02*
X021065Y009995D01*
X021066Y010054D02*
X022364Y010054D01*
X022364Y010112D02*
X021066Y010112D01*
X021067Y010171D02*
X022364Y010171D01*
X022364Y010229D02*
X021067Y010229D01*
X021068Y010288D02*
X022364Y010288D01*
X022364Y010346D02*
X021068Y010346D01*
X021069Y010405D02*
X022364Y010405D01*
X022364Y010463D02*
X021069Y010463D01*
X021070Y010522D02*
X022364Y010522D01*
X022364Y010580D02*
X021070Y010580D01*
X021071Y010639D02*
X022364Y010639D01*
X022364Y010697D02*
X021071Y010697D01*
X021072Y010756D02*
X022364Y010756D01*
X022364Y010814D02*
X021072Y010814D01*
X021073Y010873D02*
X022364Y010873D01*
X022364Y010931D02*
X021073Y010931D01*
X021074Y010990D02*
X022364Y010990D01*
X022364Y011048D02*
X021074Y011048D01*
X021075Y011107D02*
X022364Y011107D01*
X022364Y011165D02*
X021075Y011165D01*
X021076Y011224D02*
X022364Y011224D01*
X022364Y011282D02*
X021076Y011282D01*
X021077Y011341D02*
X022364Y011341D01*
X022364Y011399D02*
X021077Y011399D01*
X021078Y011458D02*
X022364Y011458D01*
X022364Y011516D02*
X021078Y011516D01*
X021079Y011575D02*
X022364Y011575D01*
X022364Y011633D02*
X021079Y011633D01*
X021080Y011692D02*
X022364Y011692D01*
X022364Y011750D02*
X021080Y011750D01*
X021081Y011809D02*
X022364Y011809D01*
X022364Y011867D02*
X021081Y011867D01*
X021082Y011926D02*
X022364Y011926D01*
X022364Y011984D02*
X021082Y011984D01*
X021083Y012043D02*
X022364Y012043D01*
X022364Y012101D02*
X021083Y012101D01*
X021084Y012160D02*
X022364Y012160D01*
X022364Y012218D02*
X021084Y012218D01*
X021085Y012277D02*
X022364Y012277D01*
X022364Y012335D02*
X020245Y012335D01*
X020187Y012394D02*
X022364Y012394D01*
X022364Y012452D02*
X020128Y012452D01*
X020101Y012511D02*
X022364Y012511D01*
X022364Y012569D02*
X020101Y012569D01*
X020101Y012628D02*
X021971Y012628D01*
X021971Y012686D02*
X020101Y012686D01*
X020101Y012745D02*
X021971Y012745D01*
X021971Y012803D02*
X020101Y012803D01*
X020101Y012862D02*
X021971Y012862D01*
X021971Y012920D02*
X020101Y012920D01*
X020101Y012979D02*
X021971Y012979D01*
X021971Y013037D02*
X020101Y013037D01*
X020101Y013096D02*
X021971Y013096D01*
X021971Y013154D02*
X020101Y013154D01*
X020101Y013213D02*
X021134Y013213D01*
X021134Y013271D02*
X020101Y013271D01*
X020101Y013330D02*
X021134Y013330D01*
X021134Y013388D02*
X020101Y013388D01*
X020101Y013447D02*
X021134Y013447D01*
X021134Y013505D02*
X020101Y013505D01*
X020101Y013564D02*
X021134Y013564D01*
X021134Y013622D02*
X020101Y013622D01*
X020101Y013681D02*
X021134Y013681D01*
X021134Y013739D02*
X020101Y013739D01*
X020101Y013798D02*
X021134Y013798D01*
X021134Y013856D02*
X020101Y013856D01*
X020101Y013915D02*
X021141Y013915D01*
X021188Y013973D02*
X020101Y013973D01*
X020130Y014032D02*
X021235Y014032D01*
X021283Y014090D02*
X020196Y014090D01*
X020262Y014149D02*
X021330Y014149D01*
X021377Y014207D02*
X020328Y014207D01*
X020394Y014266D02*
X021425Y014266D01*
X021472Y014324D02*
X020460Y014324D01*
X020525Y014383D02*
X021519Y014383D01*
X021567Y014441D02*
X020590Y014441D01*
X020654Y014500D02*
X021614Y014500D01*
X021661Y014558D02*
X020719Y014558D01*
X020783Y014617D02*
X021709Y014617D01*
X021756Y014675D02*
X020848Y014675D01*
X020912Y014734D02*
X021804Y014734D01*
X021851Y014792D02*
X020976Y014792D01*
X021041Y014851D02*
X021898Y014851D01*
X021946Y014909D02*
X021085Y014909D01*
X021085Y014968D02*
X021971Y014968D01*
X021971Y015026D02*
X021085Y015026D01*
X021085Y015085D02*
X021971Y015085D01*
X021971Y015143D02*
X021085Y015143D01*
X021085Y015202D02*
X021971Y015202D01*
X021971Y015260D02*
X021085Y015260D01*
X021085Y015319D02*
X021971Y015319D01*
X021971Y015377D02*
X021085Y015377D01*
X021085Y015436D02*
X021971Y015436D01*
X021971Y015494D02*
X021085Y015494D01*
X021085Y015553D02*
X021971Y015553D01*
X021971Y015611D02*
X021085Y015611D01*
X021085Y015670D02*
X021971Y015670D01*
X021971Y015728D02*
X021085Y015728D01*
X021085Y015787D02*
X021971Y015787D01*
X021971Y015845D02*
X021085Y015845D01*
X021085Y015904D02*
X021971Y015904D01*
X021971Y015962D02*
X021085Y015962D01*
X021085Y016021D02*
X021971Y016021D01*
X021971Y016079D02*
X021085Y016079D01*
X021085Y016138D02*
X021971Y016138D01*
X021971Y016196D02*
X021085Y016196D01*
X021085Y016255D02*
X021971Y016255D01*
X021971Y016313D02*
X021085Y016313D01*
X021085Y016372D02*
X021971Y016372D01*
X021971Y016430D02*
X021085Y016430D01*
X021085Y016489D02*
X021971Y016489D01*
X021971Y016547D02*
X021085Y016547D01*
X021085Y016606D02*
X021971Y016606D01*
X021971Y016664D02*
X021085Y016664D01*
X021085Y016723D02*
X021971Y016723D01*
X021971Y016781D02*
X021085Y016781D01*
X021085Y016840D02*
X021971Y016840D01*
X021971Y016898D02*
X021085Y016898D01*
X021085Y016957D02*
X021971Y016957D01*
X021971Y017015D02*
X021085Y017015D01*
X021085Y017074D02*
X021971Y017074D01*
X021971Y017132D02*
X021085Y017132D01*
X021085Y017191D02*
X021971Y017191D01*
X021971Y017249D02*
X021085Y017249D01*
X021085Y017308D02*
X021971Y017308D01*
X021971Y017366D02*
X021085Y017366D01*
X021085Y017425D02*
X021971Y017425D01*
X021971Y017483D02*
X021085Y017483D01*
X021085Y017542D02*
X021971Y017542D01*
X021971Y017600D02*
X021085Y017600D01*
X021085Y017659D02*
X021971Y017659D01*
X021971Y017717D02*
X021085Y017717D01*
X021085Y017776D02*
X021971Y017776D01*
X021971Y017834D02*
X021085Y017834D01*
X021085Y017893D02*
X021971Y017893D01*
X021971Y017951D02*
X021085Y017951D01*
X021085Y018010D02*
X021971Y018010D01*
X021971Y018068D02*
X021085Y018068D01*
X021085Y018127D02*
X021971Y018127D01*
X021971Y018185D02*
X021085Y018185D01*
X021085Y018244D02*
X021971Y018244D01*
X021971Y018302D02*
X021085Y018302D01*
X021085Y018361D02*
X021971Y018361D01*
X021971Y018419D02*
X021085Y018419D01*
X021085Y018478D02*
X021971Y018478D01*
X021971Y018536D02*
X021085Y018536D01*
X021085Y018595D02*
X021971Y018595D01*
X021971Y018653D02*
X021085Y018653D01*
X021085Y018712D02*
X021971Y018712D01*
X021971Y018770D02*
X021085Y018770D01*
X021085Y018829D02*
X021971Y018829D01*
X021971Y018887D02*
X021085Y018887D01*
X021085Y018946D02*
X021971Y018946D01*
X021971Y019004D02*
X021085Y019004D01*
X021085Y019063D02*
X021971Y019063D01*
X021971Y019121D02*
X021085Y019121D01*
X021085Y019180D02*
X021971Y019180D01*
X021971Y019238D02*
X021085Y019238D01*
X021085Y019297D02*
X021971Y019297D01*
X021971Y019355D02*
X021085Y019355D01*
X021085Y019414D02*
X021971Y019414D01*
X021971Y019472D02*
X021085Y019472D01*
X021085Y019531D02*
X021971Y019531D01*
X021971Y019589D02*
X021085Y019589D01*
X021085Y019648D02*
X021971Y019648D01*
X021971Y019706D02*
X021085Y019706D01*
X021085Y019765D02*
X021971Y019765D01*
X021971Y019823D02*
X021085Y019823D01*
X021085Y019882D02*
X021971Y019882D01*
X021971Y019940D02*
X021085Y019940D01*
X021085Y019999D02*
X021971Y019999D01*
X021971Y020057D02*
X021085Y020057D01*
X021085Y020116D02*
X021971Y020116D01*
X021971Y020174D02*
X021085Y020174D01*
X021085Y020233D02*
X021971Y020233D01*
X021971Y020291D02*
X021085Y020291D01*
X021085Y020350D02*
X021971Y020350D01*
X021971Y020408D02*
X021085Y020408D01*
X021085Y020467D02*
X021971Y020467D01*
X021971Y020525D02*
X021085Y020525D01*
X021085Y020584D02*
X021971Y020584D01*
X021971Y020642D02*
X021085Y020642D01*
X021085Y020701D02*
X021971Y020701D01*
X021971Y020759D02*
X021085Y020759D01*
X021085Y020818D02*
X021971Y020818D01*
X021971Y020876D02*
X021085Y020876D01*
X021085Y020935D02*
X021971Y020935D01*
X021971Y020993D02*
X021085Y020993D01*
X021085Y021052D02*
X021971Y021052D01*
X021971Y021110D02*
X021085Y021110D01*
X021085Y021169D02*
X021971Y021169D01*
X021971Y021227D02*
X021085Y021227D01*
X021085Y021286D02*
X021971Y021286D01*
X021971Y021344D02*
X018526Y021344D01*
X018526Y021403D02*
X021971Y021403D01*
X021971Y021461D02*
X018526Y021461D01*
X018526Y021520D02*
X021971Y021520D01*
X021971Y021578D02*
X018526Y021578D01*
X018526Y021637D02*
X021971Y021637D01*
X021971Y021695D02*
X018526Y021695D01*
X018526Y021754D02*
X021971Y021754D01*
X021971Y021812D02*
X018526Y021812D01*
X018526Y021871D02*
X021971Y021871D01*
X021971Y021929D02*
X018526Y021929D01*
X018526Y021988D02*
X021971Y021988D01*
X021971Y022046D02*
X018526Y022046D01*
X018526Y022105D02*
X021971Y022105D01*
X021971Y022163D02*
X018526Y022163D01*
X018526Y022222D02*
X021971Y022222D01*
X021971Y022280D02*
X018526Y022280D01*
X018526Y022339D02*
X021971Y022339D01*
X019609Y022397D02*
X018526Y022397D01*
X018526Y022456D02*
X019609Y022456D01*
X019609Y022514D02*
X018526Y022514D01*
X018526Y022573D02*
X019609Y022573D01*
X019609Y022631D02*
X018526Y022631D01*
X018526Y022690D02*
X019609Y022690D01*
X019609Y022748D02*
X018526Y022748D01*
X018526Y022807D02*
X019609Y022807D01*
X019609Y022865D02*
X018526Y022865D01*
X018526Y022924D02*
X019609Y022924D01*
X019609Y022982D02*
X018526Y022982D01*
X018526Y023041D02*
X019609Y023041D01*
X019609Y023099D02*
X018526Y023099D01*
X018526Y023158D02*
X019609Y023158D01*
X019609Y023216D02*
X018526Y023216D01*
X018526Y023275D02*
X019609Y023275D01*
X019609Y023333D02*
X018526Y023333D01*
X018526Y023392D02*
X019609Y023392D01*
X019609Y023450D02*
X018526Y023450D01*
X019609Y023509D02*
X016065Y023509D01*
X016065Y023567D02*
X019609Y023567D01*
X019609Y023626D02*
X016065Y023626D01*
X016065Y023684D02*
X019609Y023684D01*
X019609Y023743D02*
X016065Y023743D01*
X016065Y023801D02*
X019609Y023801D01*
X019609Y023860D02*
X016065Y023860D01*
X016065Y023918D02*
X019609Y023918D01*
X019609Y023977D02*
X016065Y023977D01*
X016065Y024035D02*
X019609Y024035D01*
X019609Y024094D02*
X016065Y024094D01*
X016065Y024152D02*
X019609Y024152D01*
X019609Y024211D02*
X016065Y024211D01*
X016065Y024269D02*
X019609Y024269D01*
X019609Y024328D02*
X016065Y024328D01*
X016065Y024386D02*
X019609Y024386D01*
X019609Y024445D02*
X016065Y024445D01*
X016065Y024503D02*
X019609Y024503D01*
X020101Y024503D02*
X023349Y024503D01*
X023349Y024445D02*
X020101Y024445D01*
X020101Y024396D02*
X020101Y033542D01*
X023349Y033542D01*
X023349Y024396D01*
X020101Y024396D01*
X020101Y024562D02*
X023349Y024562D01*
X023349Y024620D02*
X020101Y024620D01*
X020101Y024679D02*
X023349Y024679D01*
X023349Y024737D02*
X020101Y024737D01*
X020101Y024796D02*
X023349Y024796D01*
X023349Y024854D02*
X020101Y024854D01*
X020101Y024913D02*
X023349Y024913D01*
X023349Y024971D02*
X020101Y024971D01*
X020101Y025030D02*
X023349Y025030D01*
X023349Y025088D02*
X020101Y025088D01*
X020101Y025147D02*
X023349Y025147D01*
X023349Y025205D02*
X020101Y025205D01*
X020101Y025264D02*
X023349Y025264D01*
X023349Y025322D02*
X020101Y025322D01*
X020101Y025381D02*
X023349Y025381D01*
X023349Y025439D02*
X020101Y025439D01*
X020101Y025498D02*
X023349Y025498D01*
X023349Y025556D02*
X020101Y025556D01*
X020101Y025615D02*
X023349Y025615D01*
X023349Y025673D02*
X020101Y025673D01*
X020101Y025732D02*
X023349Y025732D01*
X023349Y025790D02*
X020101Y025790D01*
X020101Y025849D02*
X023349Y025849D01*
X023349Y025907D02*
X020101Y025907D01*
X020101Y025966D02*
X023349Y025966D01*
X023349Y026024D02*
X020101Y026024D01*
X020101Y026083D02*
X023349Y026083D01*
X023349Y026141D02*
X021919Y026141D01*
X021863Y026118D02*
X022028Y026186D01*
X022154Y026313D01*
X022222Y026477D01*
X022222Y026655D01*
X022154Y026820D01*
X022028Y026946D01*
X021863Y027014D01*
X021685Y027014D01*
X021520Y026946D01*
X021394Y026820D01*
X021326Y026655D01*
X021326Y026477D01*
X021394Y026313D01*
X021520Y026186D01*
X021685Y026118D01*
X021863Y026118D01*
X022041Y026200D02*
X023349Y026200D01*
X023349Y026258D02*
X022100Y026258D01*
X022156Y026317D02*
X023349Y026317D01*
X023349Y026375D02*
X022180Y026375D01*
X022204Y026434D02*
X023349Y026434D01*
X023349Y026492D02*
X022222Y026492D01*
X022222Y026551D02*
X023349Y026551D01*
X023349Y026609D02*
X022222Y026609D01*
X022217Y026668D02*
X023349Y026668D01*
X023349Y026726D02*
X022193Y026726D01*
X022168Y026785D02*
X023349Y026785D01*
X023349Y026843D02*
X022131Y026843D01*
X022072Y026902D02*
X023349Y026902D01*
X023349Y026960D02*
X021993Y026960D01*
X021554Y026960D02*
X020101Y026960D01*
X020101Y026902D02*
X021476Y026902D01*
X021417Y026843D02*
X020101Y026843D01*
X020101Y026785D02*
X021379Y026785D01*
X021355Y026726D02*
X020101Y026726D01*
X020101Y026668D02*
X021331Y026668D01*
X021326Y026609D02*
X020101Y026609D01*
X020101Y026551D02*
X021326Y026551D01*
X021326Y026492D02*
X020101Y026492D01*
X020101Y026434D02*
X021344Y026434D01*
X021368Y026375D02*
X020101Y026375D01*
X020101Y026317D02*
X021392Y026317D01*
X021448Y026258D02*
X020101Y026258D01*
X020101Y026200D02*
X021507Y026200D01*
X021629Y026141D02*
X020101Y026141D01*
X020101Y027019D02*
X023349Y027019D01*
X023349Y027077D02*
X020101Y027077D01*
X020101Y027136D02*
X023349Y027136D01*
X023349Y027194D02*
X020101Y027194D01*
X020101Y027253D02*
X023349Y027253D01*
X023349Y027311D02*
X020101Y027311D01*
X020101Y027370D02*
X023349Y027370D01*
X023349Y027428D02*
X020101Y027428D01*
X020101Y027487D02*
X023349Y027487D01*
X023349Y027545D02*
X020101Y027545D01*
X020101Y027604D02*
X023349Y027604D01*
X023349Y027662D02*
X021970Y027662D01*
X022028Y027686D02*
X021863Y027618D01*
X021685Y027618D01*
X021520Y027686D01*
X021394Y027813D01*
X021326Y027977D01*
X021326Y028155D01*
X021394Y028320D01*
X021520Y028446D01*
X021685Y028514D01*
X021863Y028514D01*
X022028Y028446D01*
X022154Y028320D01*
X022222Y028155D01*
X022222Y027977D01*
X022154Y027813D01*
X022028Y027686D01*
X022062Y027721D02*
X023349Y027721D01*
X023349Y027779D02*
X022121Y027779D01*
X022164Y027838D02*
X023349Y027838D01*
X023349Y027896D02*
X022188Y027896D01*
X022213Y027955D02*
X023349Y027955D01*
X023349Y028013D02*
X022222Y028013D01*
X022222Y028072D02*
X023349Y028072D01*
X023349Y028130D02*
X022222Y028130D01*
X022208Y028189D02*
X023349Y028189D01*
X023349Y028247D02*
X022184Y028247D01*
X022160Y028306D02*
X023349Y028306D01*
X023349Y028364D02*
X022110Y028364D01*
X022051Y028423D02*
X023349Y028423D01*
X023349Y028481D02*
X021943Y028481D01*
X021605Y028481D02*
X020101Y028481D01*
X020101Y028423D02*
X021497Y028423D01*
X021438Y028364D02*
X020101Y028364D01*
X020101Y028306D02*
X021388Y028306D01*
X021364Y028247D02*
X020101Y028247D01*
X020101Y028189D02*
X021340Y028189D01*
X021326Y028130D02*
X020101Y028130D01*
X020101Y028072D02*
X021326Y028072D01*
X021326Y028013D02*
X020101Y028013D01*
X020101Y027955D02*
X021335Y027955D01*
X021359Y027896D02*
X020101Y027896D01*
X020101Y027838D02*
X021383Y027838D01*
X021427Y027779D02*
X020101Y027779D01*
X020101Y027721D02*
X021486Y027721D01*
X021578Y027662D02*
X020101Y027662D01*
X020101Y028540D02*
X023349Y028540D01*
X023349Y028598D02*
X020101Y028598D01*
X020101Y028657D02*
X023349Y028657D01*
X023349Y028715D02*
X020101Y028715D01*
X020101Y028774D02*
X023349Y028774D01*
X023349Y028832D02*
X020101Y028832D01*
X020101Y028891D02*
X023349Y028891D01*
X023349Y028949D02*
X020101Y028949D01*
X020101Y029008D02*
X023349Y029008D01*
X023349Y029066D02*
X020101Y029066D01*
X020101Y029125D02*
X023349Y029125D01*
X023349Y029183D02*
X020101Y029183D01*
X020101Y029242D02*
X023349Y029242D01*
X023349Y029300D02*
X020101Y029300D01*
X020101Y029359D02*
X023349Y029359D01*
X023349Y029417D02*
X020101Y029417D01*
X020101Y029476D02*
X023349Y029476D01*
X023349Y029534D02*
X020101Y029534D01*
X020101Y029593D02*
X023349Y029593D01*
X023349Y029651D02*
X020101Y029651D01*
X020101Y029710D02*
X023349Y029710D01*
X023349Y029768D02*
X020101Y029768D01*
X020101Y029827D02*
X023349Y029827D01*
X023349Y029885D02*
X020101Y029885D01*
X020101Y029944D02*
X023349Y029944D01*
X023349Y030002D02*
X020101Y030002D01*
X020101Y030061D02*
X023349Y030061D01*
X023349Y030119D02*
X020101Y030119D01*
X020101Y030178D02*
X023349Y030178D01*
X023349Y030236D02*
X020101Y030236D01*
X020101Y030295D02*
X023349Y030295D01*
X023349Y030353D02*
X020101Y030353D01*
X020101Y030412D02*
X023349Y030412D01*
X023349Y030470D02*
X020101Y030470D01*
X020101Y030529D02*
X023349Y030529D01*
X023349Y030587D02*
X020101Y030587D01*
X020101Y030646D02*
X023349Y030646D01*
X023349Y030704D02*
X020101Y030704D01*
X020101Y030763D02*
X023349Y030763D01*
X023349Y030821D02*
X020101Y030821D01*
X020101Y030880D02*
X023349Y030880D01*
X023349Y030938D02*
X020101Y030938D01*
X020101Y030997D02*
X023349Y030997D01*
X023349Y031055D02*
X020101Y031055D01*
X020101Y031114D02*
X022273Y031114D01*
X022375Y031072D02*
X022633Y031072D01*
X022872Y031171D01*
X023055Y031354D01*
X023154Y031593D01*
X023154Y031851D01*
X023055Y032090D01*
X022872Y032273D01*
X022633Y032372D01*
X022375Y032372D01*
X022136Y032273D01*
X021953Y032090D01*
X021854Y031851D01*
X021854Y031593D01*
X021953Y031354D01*
X022136Y031171D01*
X022375Y031072D01*
X022134Y031172D02*
X020101Y031172D01*
X020101Y031231D02*
X022076Y031231D01*
X022017Y031289D02*
X020101Y031289D01*
X020101Y031348D02*
X021959Y031348D01*
X021931Y031406D02*
X020101Y031406D01*
X020101Y031465D02*
X021907Y031465D01*
X021883Y031523D02*
X020101Y031523D01*
X020101Y031582D02*
X021858Y031582D01*
X021854Y031640D02*
X020101Y031640D01*
X020101Y031699D02*
X021854Y031699D01*
X021854Y031757D02*
X020101Y031757D01*
X020101Y031816D02*
X021854Y031816D01*
X021864Y031874D02*
X020101Y031874D01*
X020101Y031933D02*
X021888Y031933D01*
X021912Y031991D02*
X020101Y031991D01*
X020101Y032050D02*
X021936Y032050D01*
X021971Y032108D02*
X020101Y032108D01*
X020101Y032167D02*
X022030Y032167D01*
X022088Y032225D02*
X020101Y032225D01*
X020101Y032284D02*
X022162Y032284D01*
X022304Y032342D02*
X020101Y032342D01*
X020101Y032401D02*
X023349Y032401D01*
X023349Y032459D02*
X020101Y032459D01*
X020101Y032518D02*
X023349Y032518D01*
X023349Y032576D02*
X020101Y032576D01*
X020101Y032635D02*
X023349Y032635D01*
X023349Y032693D02*
X020101Y032693D01*
X020101Y032752D02*
X023349Y032752D01*
X023349Y032810D02*
X020101Y032810D01*
X020101Y032869D02*
X023349Y032869D01*
X023349Y032927D02*
X020101Y032927D01*
X020101Y032986D02*
X023349Y032986D01*
X023349Y033044D02*
X020101Y033044D01*
X020101Y033103D02*
X023349Y033103D01*
X023349Y033161D02*
X020101Y033161D01*
X020101Y033220D02*
X023349Y033220D01*
X023349Y033278D02*
X020101Y033278D01*
X020101Y033337D02*
X023349Y033337D01*
X023349Y033395D02*
X020101Y033395D01*
X020101Y033454D02*
X023349Y033454D01*
X023349Y033512D02*
X020101Y033512D01*
X022705Y032342D02*
X023349Y032342D01*
X023349Y032284D02*
X022846Y032284D01*
X022920Y032225D02*
X023349Y032225D01*
X023349Y032167D02*
X022978Y032167D01*
X023037Y032108D02*
X023349Y032108D01*
X023349Y032050D02*
X023072Y032050D01*
X023096Y031991D02*
X023349Y031991D01*
X023349Y031933D02*
X023120Y031933D01*
X023145Y031874D02*
X023349Y031874D01*
X023349Y031816D02*
X023154Y031816D01*
X023154Y031757D02*
X023349Y031757D01*
X023349Y031699D02*
X023154Y031699D01*
X023154Y031640D02*
X023349Y031640D01*
X023349Y031582D02*
X023150Y031582D01*
X023126Y031523D02*
X023349Y031523D01*
X023349Y031465D02*
X023101Y031465D01*
X023077Y031406D02*
X023349Y031406D01*
X023349Y031348D02*
X023050Y031348D01*
X022991Y031289D02*
X023349Y031289D01*
X023349Y031231D02*
X022933Y031231D01*
X022874Y031172D02*
X023349Y031172D01*
X023349Y031114D02*
X022735Y031114D01*
X017148Y027662D02*
X016065Y027662D01*
X016065Y027604D02*
X017148Y027604D01*
X017148Y027545D02*
X016065Y027545D01*
X016065Y027487D02*
X017148Y027487D01*
X017148Y027428D02*
X016065Y027428D01*
X016065Y027370D02*
X017148Y027370D01*
X017148Y027311D02*
X016065Y027311D01*
X016065Y027253D02*
X017148Y027253D01*
X017148Y027194D02*
X016065Y027194D01*
X016065Y027136D02*
X017148Y027136D01*
X017148Y027077D02*
X016065Y027077D01*
X016065Y027019D02*
X017148Y027019D01*
X017148Y026960D02*
X016065Y026960D01*
X016065Y026902D02*
X017148Y026902D01*
X017148Y026843D02*
X016065Y026843D01*
X016065Y026785D02*
X017148Y026785D01*
X017148Y026726D02*
X016065Y026726D01*
X016065Y026668D02*
X017148Y026668D01*
X017148Y026609D02*
X016065Y026609D01*
X016065Y026551D02*
X017148Y026551D01*
X017148Y026492D02*
X016065Y026492D01*
X016065Y026434D02*
X017148Y026434D01*
X017148Y026375D02*
X016065Y026375D01*
X016065Y026317D02*
X017148Y026317D01*
X017148Y026258D02*
X016065Y026258D01*
X016065Y026200D02*
X017148Y026200D01*
X017148Y026141D02*
X016065Y026141D01*
X016065Y026083D02*
X017148Y026083D01*
X017148Y026024D02*
X016065Y026024D01*
X016065Y025966D02*
X017148Y025966D01*
X017148Y025907D02*
X016065Y025907D01*
X016065Y025849D02*
X017148Y025849D01*
X017148Y025790D02*
X016065Y025790D01*
X016065Y025732D02*
X017148Y025732D01*
X017148Y025673D02*
X016065Y025673D01*
X016065Y025615D02*
X017148Y025615D01*
X017148Y025556D02*
X016065Y025556D01*
X016065Y025498D02*
X017148Y025498D01*
X017148Y025439D02*
X016065Y025439D01*
X016065Y025381D02*
X017148Y025381D01*
X017148Y025322D02*
X016065Y025322D01*
X016065Y025264D02*
X017148Y025264D01*
X017148Y025205D02*
X016065Y025205D01*
X016065Y025147D02*
X017148Y025147D01*
X017148Y025088D02*
X016065Y025088D01*
X016065Y025030D02*
X017148Y025030D01*
X017148Y024971D02*
X016065Y024971D01*
X016065Y024913D02*
X017148Y024913D01*
X017148Y024854D02*
X016065Y024854D01*
X016065Y024796D02*
X017148Y024796D01*
X017148Y024737D02*
X016065Y024737D01*
X016065Y024679D02*
X017148Y024679D01*
X017148Y024620D02*
X016065Y024620D01*
X016065Y024562D02*
X017148Y024562D01*
X011242Y024562D02*
X007010Y024562D01*
X007010Y024620D02*
X011242Y024620D01*
X011242Y024679D02*
X007010Y024679D01*
X007010Y024737D02*
X011242Y024737D01*
X011242Y024796D02*
X007010Y024796D01*
X007010Y024854D02*
X011242Y024854D01*
X011242Y024913D02*
X007010Y024913D01*
X007010Y024971D02*
X011242Y024971D01*
X011242Y025030D02*
X007010Y025030D01*
X007010Y025088D02*
X011242Y025088D01*
X011242Y025147D02*
X007010Y025147D01*
X007010Y025205D02*
X011242Y025205D01*
X011242Y025264D02*
X007010Y025264D01*
X007010Y025322D02*
X011242Y025322D01*
X011242Y025381D02*
X007010Y025381D01*
X007010Y025439D02*
X011242Y025439D01*
X011242Y025498D02*
X007010Y025498D01*
X007010Y025556D02*
X011242Y025556D01*
X011242Y025615D02*
X007010Y025615D01*
X007010Y025673D02*
X011242Y025673D01*
X011242Y025732D02*
X007010Y025732D01*
X007010Y025790D02*
X011242Y025790D01*
X011242Y025849D02*
X007010Y025849D01*
X007010Y025907D02*
X011242Y025907D01*
X011242Y025966D02*
X007010Y025966D01*
X007010Y026024D02*
X011242Y026024D01*
X011242Y026083D02*
X007010Y026083D01*
X007010Y026119D02*
X007010Y020009D01*
X008056Y020009D01*
X008102Y020028D01*
X008312Y020028D01*
X008358Y020009D01*
X010061Y020009D01*
X010061Y012923D01*
X012423Y012923D01*
X012423Y014891D01*
X011242Y014891D01*
X011242Y026112D01*
X008093Y026112D01*
X008093Y029556D01*
X007207Y029556D01*
X007207Y033297D01*
X005829Y033297D01*
X005829Y026119D01*
X007010Y026119D01*
X008093Y026141D02*
X005829Y026141D01*
X005829Y026200D02*
X008093Y026200D01*
X008093Y026258D02*
X005829Y026258D01*
X005829Y026317D02*
X008093Y026317D01*
X008093Y026375D02*
X005829Y026375D01*
X005829Y026434D02*
X008093Y026434D01*
X008093Y026492D02*
X005829Y026492D01*
X005829Y026551D02*
X008093Y026551D01*
X008093Y026609D02*
X005829Y026609D01*
X005829Y026668D02*
X008093Y026668D01*
X008093Y026726D02*
X005829Y026726D01*
X005829Y026785D02*
X008093Y026785D01*
X008093Y026843D02*
X005829Y026843D01*
X005829Y026902D02*
X008093Y026902D01*
X008093Y026960D02*
X005829Y026960D01*
X005829Y027019D02*
X008093Y027019D01*
X008093Y027077D02*
X005829Y027077D01*
X005829Y027136D02*
X008093Y027136D01*
X008093Y027194D02*
X005829Y027194D01*
X005829Y027253D02*
X008093Y027253D01*
X008093Y027311D02*
X005829Y027311D01*
X005829Y027370D02*
X008093Y027370D01*
X008093Y027428D02*
X005829Y027428D01*
X005829Y027487D02*
X008093Y027487D01*
X008093Y027545D02*
X005829Y027545D01*
X005829Y027604D02*
X008093Y027604D01*
X008093Y027662D02*
X005829Y027662D01*
X005829Y027721D02*
X008093Y027721D01*
X008093Y027779D02*
X005829Y027779D01*
X005829Y027838D02*
X008093Y027838D01*
X008093Y027896D02*
X005829Y027896D01*
X005829Y027955D02*
X008093Y027955D01*
X008093Y028013D02*
X005829Y028013D01*
X005829Y028072D02*
X008093Y028072D01*
X008093Y028130D02*
X005829Y028130D01*
X005829Y028189D02*
X008093Y028189D01*
X008093Y028247D02*
X005829Y028247D01*
X005829Y028306D02*
X008093Y028306D01*
X008093Y028364D02*
X005829Y028364D01*
X005829Y028423D02*
X008093Y028423D01*
X008093Y028481D02*
X005829Y028481D01*
X005829Y028540D02*
X008093Y028540D01*
X008093Y028598D02*
X005829Y028598D01*
X005829Y028657D02*
X008093Y028657D01*
X008093Y028715D02*
X005829Y028715D01*
X005829Y028774D02*
X008093Y028774D01*
X008093Y028832D02*
X005829Y028832D01*
X005829Y028891D02*
X008093Y028891D01*
X008093Y028949D02*
X005829Y028949D01*
X005829Y029008D02*
X008093Y029008D01*
X008093Y029066D02*
X005829Y029066D01*
X005829Y029125D02*
X008093Y029125D01*
X008093Y029183D02*
X005829Y029183D01*
X005829Y029242D02*
X008093Y029242D01*
X008093Y029300D02*
X005829Y029300D01*
X005829Y029359D02*
X008093Y029359D01*
X008093Y029417D02*
X005829Y029417D01*
X005829Y029476D02*
X008093Y029476D01*
X008093Y029534D02*
X005829Y029534D01*
X005829Y029593D02*
X007207Y029593D01*
X007207Y029651D02*
X005829Y029651D01*
X005829Y029710D02*
X007207Y029710D01*
X007207Y029768D02*
X005829Y029768D01*
X005829Y029827D02*
X007207Y029827D01*
X007207Y029885D02*
X005829Y029885D01*
X005829Y029944D02*
X007207Y029944D01*
X007207Y030002D02*
X005829Y030002D01*
X005829Y030061D02*
X007207Y030061D01*
X007207Y030119D02*
X005829Y030119D01*
X005829Y030178D02*
X007207Y030178D01*
X007207Y030236D02*
X005829Y030236D01*
X005829Y030295D02*
X007207Y030295D01*
X007207Y030353D02*
X005829Y030353D01*
X005829Y030412D02*
X007207Y030412D01*
X007207Y030470D02*
X005829Y030470D01*
X005829Y030529D02*
X007207Y030529D01*
X007207Y030587D02*
X005829Y030587D01*
X005829Y030646D02*
X007207Y030646D01*
X007207Y030704D02*
X005829Y030704D01*
X005829Y030763D02*
X007207Y030763D01*
X007207Y030821D02*
X005829Y030821D01*
X005829Y030880D02*
X007207Y030880D01*
X007207Y030938D02*
X005829Y030938D01*
X005829Y030997D02*
X007207Y030997D01*
X007207Y031055D02*
X005829Y031055D01*
X005829Y031114D02*
X007207Y031114D01*
X007207Y031172D02*
X005829Y031172D01*
X005829Y031231D02*
X007207Y031231D01*
X007207Y031289D02*
X005829Y031289D01*
X005829Y031348D02*
X007207Y031348D01*
X007207Y031406D02*
X005829Y031406D01*
X005829Y031465D02*
X007207Y031465D01*
X007207Y031523D02*
X005829Y031523D01*
X005829Y031582D02*
X007207Y031582D01*
X007207Y031640D02*
X005829Y031640D01*
X005829Y031699D02*
X007207Y031699D01*
X007207Y031757D02*
X005829Y031757D01*
X005829Y031816D02*
X007207Y031816D01*
X007207Y031874D02*
X005829Y031874D01*
X005829Y031933D02*
X007207Y031933D01*
X007207Y031991D02*
X005829Y031991D01*
X005829Y032050D02*
X007207Y032050D01*
X007207Y032108D02*
X005829Y032108D01*
X005829Y032167D02*
X007207Y032167D01*
X007207Y032225D02*
X005829Y032225D01*
X005829Y032284D02*
X007207Y032284D01*
X007207Y032342D02*
X005829Y032342D01*
X005829Y032401D02*
X007207Y032401D01*
X007207Y032459D02*
X005829Y032459D01*
X005829Y032518D02*
X007207Y032518D01*
X007207Y032576D02*
X005829Y032576D01*
X005829Y032635D02*
X007207Y032635D01*
X007207Y032693D02*
X005829Y032693D01*
X005829Y032752D02*
X007207Y032752D01*
X007207Y032810D02*
X005829Y032810D01*
X005829Y032869D02*
X007207Y032869D01*
X007207Y032927D02*
X005829Y032927D01*
X005829Y032986D02*
X007207Y032986D01*
X007207Y033044D02*
X005829Y033044D01*
X005829Y033103D02*
X007207Y033103D01*
X007207Y033161D02*
X005829Y033161D01*
X005829Y033220D02*
X007207Y033220D01*
X007207Y033278D02*
X005829Y033278D01*
X007010Y024503D02*
X011242Y024503D01*
X011242Y024445D02*
X007010Y024445D01*
X007010Y024386D02*
X011242Y024386D01*
X011242Y024328D02*
X007010Y024328D01*
X007010Y024269D02*
X011242Y024269D01*
X011242Y024211D02*
X007010Y024211D01*
X007010Y024152D02*
X011242Y024152D01*
X011242Y024094D02*
X007010Y024094D01*
X007010Y024035D02*
X011242Y024035D01*
X011242Y023977D02*
X007010Y023977D01*
X007010Y023918D02*
X011242Y023918D01*
X011242Y023860D02*
X007010Y023860D01*
X007010Y023801D02*
X011242Y023801D01*
X011242Y023743D02*
X007010Y023743D01*
X007010Y023684D02*
X011242Y023684D01*
X011242Y023626D02*
X007010Y023626D01*
X007010Y023567D02*
X011242Y023567D01*
X011242Y023509D02*
X007010Y023509D01*
X007010Y023450D02*
X011242Y023450D01*
X011242Y023392D02*
X007010Y023392D01*
X007010Y023333D02*
X011242Y023333D01*
X011242Y023275D02*
X007010Y023275D01*
X007010Y023216D02*
X011242Y023216D01*
X011242Y023158D02*
X007010Y023158D01*
X007010Y023099D02*
X011242Y023099D01*
X011242Y023041D02*
X007010Y023041D01*
X007010Y022982D02*
X011242Y022982D01*
X011242Y022924D02*
X007010Y022924D01*
X007010Y022865D02*
X011242Y022865D01*
X011242Y022807D02*
X007010Y022807D01*
X007010Y022748D02*
X011242Y022748D01*
X011242Y022690D02*
X007010Y022690D01*
X007010Y022631D02*
X011242Y022631D01*
X011242Y022573D02*
X007010Y022573D01*
X007010Y022514D02*
X011242Y022514D01*
X011242Y022456D02*
X007010Y022456D01*
X007010Y022397D02*
X011242Y022397D01*
X011242Y022339D02*
X007010Y022339D01*
X007010Y022280D02*
X011242Y022280D01*
X011242Y022222D02*
X007010Y022222D01*
X007010Y022163D02*
X011242Y022163D01*
X011242Y022105D02*
X007010Y022105D01*
X007010Y022046D02*
X011242Y022046D01*
X011242Y021988D02*
X008409Y021988D01*
X008505Y021948D02*
X008312Y022028D01*
X008102Y022028D01*
X007908Y021948D01*
X007760Y021800D01*
X007680Y021606D01*
X007680Y021397D01*
X007760Y021203D01*
X007908Y021055D01*
X008102Y020975D01*
X008312Y020975D01*
X008505Y021055D01*
X008654Y021203D01*
X008734Y021397D01*
X008734Y021606D01*
X008654Y021800D01*
X008505Y021948D01*
X008524Y021929D02*
X011242Y021929D01*
X011242Y021871D02*
X008583Y021871D01*
X008641Y021812D02*
X011242Y021812D01*
X011242Y021754D02*
X008673Y021754D01*
X008697Y021695D02*
X011242Y021695D01*
X011242Y021637D02*
X008721Y021637D01*
X008734Y021578D02*
X011242Y021578D01*
X011242Y021520D02*
X008734Y021520D01*
X008734Y021461D02*
X011242Y021461D01*
X011242Y021403D02*
X008734Y021403D01*
X008712Y021344D02*
X011242Y021344D01*
X011242Y021286D02*
X008688Y021286D01*
X008664Y021227D02*
X011242Y021227D01*
X011242Y021169D02*
X008620Y021169D01*
X008561Y021110D02*
X011242Y021110D01*
X011242Y021052D02*
X008498Y021052D01*
X008357Y020993D02*
X011242Y020993D01*
X011242Y020935D02*
X007010Y020935D01*
X007010Y020993D02*
X008057Y020993D01*
X007915Y021052D02*
X007010Y021052D01*
X007010Y021110D02*
X007853Y021110D01*
X007794Y021169D02*
X007010Y021169D01*
X007010Y021227D02*
X007750Y021227D01*
X007726Y021286D02*
X007010Y021286D01*
X007010Y021344D02*
X007702Y021344D01*
X007680Y021403D02*
X007010Y021403D01*
X007010Y021461D02*
X007680Y021461D01*
X007680Y021520D02*
X007010Y021520D01*
X007010Y021578D02*
X007680Y021578D01*
X007693Y021637D02*
X007010Y021637D01*
X007010Y021695D02*
X007717Y021695D01*
X007741Y021754D02*
X007010Y021754D01*
X007010Y021812D02*
X007773Y021812D01*
X007831Y021871D02*
X007010Y021871D01*
X007010Y021929D02*
X007890Y021929D01*
X008005Y021988D02*
X007010Y021988D01*
X007010Y020876D02*
X011242Y020876D01*
X011242Y020818D02*
X007010Y020818D01*
X007010Y020759D02*
X011242Y020759D01*
X011242Y020701D02*
X007010Y020701D01*
X007010Y020642D02*
X011242Y020642D01*
X011242Y020584D02*
X007010Y020584D01*
X007010Y020525D02*
X011242Y020525D01*
X011242Y020467D02*
X007010Y020467D01*
X007010Y020408D02*
X011242Y020408D01*
X011242Y020350D02*
X007010Y020350D01*
X007010Y020291D02*
X011242Y020291D01*
X011242Y020233D02*
X007010Y020233D01*
X007010Y020174D02*
X011242Y020174D01*
X011242Y020116D02*
X007010Y020116D01*
X007010Y020057D02*
X011242Y020057D01*
X011242Y019999D02*
X010061Y019999D01*
X010061Y019940D02*
X011242Y019940D01*
X011242Y019882D02*
X010061Y019882D01*
X010061Y019823D02*
X011242Y019823D01*
X011242Y019765D02*
X010061Y019765D01*
X010061Y019706D02*
X011242Y019706D01*
X011242Y019648D02*
X010061Y019648D01*
X010061Y019589D02*
X011242Y019589D01*
X011242Y019531D02*
X010061Y019531D01*
X010061Y019472D02*
X011242Y019472D01*
X011242Y019414D02*
X010061Y019414D01*
X010061Y019355D02*
X011242Y019355D01*
X011242Y019297D02*
X010061Y019297D01*
X010061Y019238D02*
X011242Y019238D01*
X011242Y019180D02*
X010061Y019180D01*
X010061Y019121D02*
X011242Y019121D01*
X011242Y019063D02*
X010061Y019063D01*
X010061Y019004D02*
X011242Y019004D01*
X011242Y018946D02*
X010061Y018946D01*
X010061Y018887D02*
X011242Y018887D01*
X011242Y018829D02*
X010061Y018829D01*
X010061Y018770D02*
X011242Y018770D01*
X011242Y018712D02*
X010061Y018712D01*
X010061Y018653D02*
X011242Y018653D01*
X011242Y018595D02*
X010061Y018595D01*
X010061Y018536D02*
X011242Y018536D01*
X011242Y018478D02*
X010061Y018478D01*
X010061Y018419D02*
X011242Y018419D01*
X011242Y018361D02*
X010061Y018361D01*
X010061Y018302D02*
X011242Y018302D01*
X011242Y018244D02*
X010061Y018244D01*
X010061Y018185D02*
X011242Y018185D01*
X011242Y018127D02*
X010061Y018127D01*
X010061Y018068D02*
X011242Y018068D01*
X011242Y018010D02*
X010061Y018010D01*
X010061Y017951D02*
X011242Y017951D01*
X011242Y017893D02*
X010061Y017893D01*
X010061Y017834D02*
X011242Y017834D01*
X011242Y017776D02*
X010061Y017776D01*
X010061Y017717D02*
X011242Y017717D01*
X011242Y017659D02*
X010061Y017659D01*
X010061Y017600D02*
X011242Y017600D01*
X011242Y017542D02*
X010061Y017542D01*
X010061Y017483D02*
X011242Y017483D01*
X011242Y017425D02*
X010061Y017425D01*
X010061Y017366D02*
X011242Y017366D01*
X011242Y017308D02*
X010061Y017308D01*
X010061Y017249D02*
X011242Y017249D01*
X011242Y017191D02*
X010061Y017191D01*
X010061Y017132D02*
X011242Y017132D01*
X011242Y017074D02*
X010061Y017074D01*
X010061Y017015D02*
X011242Y017015D01*
X011242Y016957D02*
X010061Y016957D01*
X010061Y016898D02*
X011242Y016898D01*
X011242Y016840D02*
X010061Y016840D01*
X010061Y016781D02*
X011242Y016781D01*
X011242Y016723D02*
X010061Y016723D01*
X010061Y016664D02*
X011242Y016664D01*
X011242Y016606D02*
X010061Y016606D01*
X010061Y016547D02*
X011242Y016547D01*
X011242Y016489D02*
X010061Y016489D01*
X010061Y016430D02*
X011242Y016430D01*
X011242Y016372D02*
X010061Y016372D01*
X010061Y016313D02*
X011242Y016313D01*
X011242Y016255D02*
X010061Y016255D01*
X010061Y016196D02*
X011242Y016196D01*
X011242Y016138D02*
X010061Y016138D01*
X010061Y016079D02*
X011242Y016079D01*
X011242Y016021D02*
X010061Y016021D01*
X010061Y015962D02*
X011242Y015962D01*
X011242Y015904D02*
X010061Y015904D01*
X010061Y015845D02*
X011242Y015845D01*
X011242Y015787D02*
X010061Y015787D01*
X010061Y015728D02*
X011242Y015728D01*
X011242Y015670D02*
X010061Y015670D01*
X010061Y015611D02*
X011242Y015611D01*
X011242Y015553D02*
X010061Y015553D01*
X010061Y015494D02*
X011242Y015494D01*
X011242Y015436D02*
X010061Y015436D01*
X010061Y015377D02*
X011242Y015377D01*
X011242Y015319D02*
X010061Y015319D01*
X010061Y015260D02*
X011242Y015260D01*
X011242Y015202D02*
X010061Y015202D01*
X010061Y015143D02*
X011242Y015143D01*
X011242Y015085D02*
X010061Y015085D01*
X010061Y015026D02*
X011242Y015026D01*
X011242Y014968D02*
X010061Y014968D01*
X010061Y014909D02*
X011242Y014909D01*
X010061Y014851D02*
X012423Y014851D01*
X012423Y014792D02*
X010061Y014792D01*
X010061Y014734D02*
X012423Y014734D01*
X012423Y014675D02*
X010061Y014675D01*
X010061Y014617D02*
X012423Y014617D01*
X012423Y014558D02*
X010061Y014558D01*
X010061Y014500D02*
X012423Y014500D01*
X012423Y014441D02*
X010061Y014441D01*
X010061Y014383D02*
X012423Y014383D01*
X012423Y014324D02*
X010061Y014324D01*
X010061Y014266D02*
X012423Y014266D01*
X012423Y014207D02*
X010061Y014207D01*
X010061Y014149D02*
X012423Y014149D01*
X012423Y014090D02*
X010061Y014090D01*
X010061Y014032D02*
X012423Y014032D01*
X012423Y013973D02*
X010061Y013973D01*
X010061Y013915D02*
X012423Y013915D01*
X012423Y013856D02*
X010061Y013856D01*
X010061Y013798D02*
X012423Y013798D01*
X012423Y013739D02*
X010061Y013739D01*
X010061Y013681D02*
X012423Y013681D01*
X012423Y013622D02*
X010061Y013622D01*
X010061Y013564D02*
X012423Y013564D01*
X012423Y013505D02*
X010061Y013505D01*
X010061Y013447D02*
X012423Y013447D01*
X012423Y013388D02*
X010061Y013388D01*
X010061Y013330D02*
X012423Y013330D01*
X012423Y013271D02*
X010061Y013271D01*
X010061Y013213D02*
X012423Y013213D01*
X012423Y013154D02*
X010061Y013154D01*
X010061Y013096D02*
X012423Y013096D01*
X012423Y013037D02*
X010061Y013037D01*
X010061Y012979D02*
X012423Y012979D01*
X012620Y011348D02*
X014786Y011348D01*
X014786Y007608D01*
X012128Y007608D01*
X011636Y007116D01*
X011636Y006682D01*
X011591Y006792D01*
X011442Y006940D01*
X011249Y007020D01*
X011039Y007020D01*
X010845Y006940D01*
X010697Y006792D01*
X010617Y006598D01*
X010617Y006389D01*
X010697Y006195D01*
X010845Y006047D01*
X011039Y005967D01*
X011249Y005967D01*
X011442Y006047D01*
X011591Y006195D01*
X011636Y006305D01*
X011636Y003382D01*
X009766Y003382D01*
X009766Y009274D01*
X012128Y009274D01*
X012620Y009766D01*
X012620Y011348D01*
X012620Y011341D02*
X014786Y011341D01*
X014786Y011282D02*
X012620Y011282D01*
X012620Y011224D02*
X014786Y011224D01*
X014786Y011165D02*
X012620Y011165D01*
X012620Y011107D02*
X014786Y011107D01*
X014786Y011048D02*
X012620Y011048D01*
X012620Y010990D02*
X014786Y010990D01*
X014786Y010931D02*
X012620Y010931D01*
X012620Y010873D02*
X014786Y010873D01*
X014786Y010814D02*
X012620Y010814D01*
X012620Y010756D02*
X014786Y010756D01*
X014786Y010697D02*
X012620Y010697D01*
X012620Y010639D02*
X014786Y010639D01*
X014786Y010580D02*
X012620Y010580D01*
X012620Y010522D02*
X014786Y010522D01*
X014786Y010463D02*
X012620Y010463D01*
X012620Y010405D02*
X014786Y010405D01*
X014786Y010346D02*
X012620Y010346D01*
X012620Y010288D02*
X014786Y010288D01*
X014786Y010229D02*
X012620Y010229D01*
X012620Y010171D02*
X014786Y010171D01*
X014786Y010112D02*
X012620Y010112D01*
X012620Y010054D02*
X014786Y010054D01*
X014786Y009995D02*
X012620Y009995D01*
X012620Y009937D02*
X014786Y009937D01*
X014786Y009878D02*
X012620Y009878D01*
X012620Y009820D02*
X014786Y009820D01*
X014786Y009761D02*
X012616Y009761D01*
X012557Y009703D02*
X014786Y009703D01*
X014786Y009644D02*
X012499Y009644D01*
X012440Y009586D02*
X014786Y009586D01*
X014786Y009527D02*
X012381Y009527D01*
X012323Y009469D02*
X014786Y009469D01*
X014786Y009410D02*
X012264Y009410D01*
X012206Y009352D02*
X014786Y009352D01*
X014786Y009293D02*
X012147Y009293D01*
X012117Y007597D02*
X009766Y007597D01*
X009766Y007655D02*
X014786Y007655D01*
X014786Y007714D02*
X009766Y007714D01*
X009766Y007772D02*
X014786Y007772D01*
X014786Y007831D02*
X009766Y007831D01*
X009766Y007889D02*
X014786Y007889D01*
X014786Y007948D02*
X009766Y007948D01*
X009766Y008006D02*
X014786Y008006D01*
X014786Y008065D02*
X009766Y008065D01*
X009766Y008123D02*
X014786Y008123D01*
X014786Y008182D02*
X009766Y008182D01*
X009766Y008240D02*
X014786Y008240D01*
X014786Y008299D02*
X009766Y008299D01*
X009766Y008357D02*
X014786Y008357D01*
X014786Y008416D02*
X009766Y008416D01*
X009766Y008474D02*
X014786Y008474D01*
X014786Y008533D02*
X009766Y008533D01*
X009766Y008591D02*
X014786Y008591D01*
X014786Y008650D02*
X009766Y008650D01*
X009766Y008708D02*
X014786Y008708D01*
X014786Y008767D02*
X009766Y008767D01*
X009766Y008825D02*
X014786Y008825D01*
X014786Y008884D02*
X009766Y008884D01*
X009766Y008942D02*
X014786Y008942D01*
X014786Y009001D02*
X009766Y009001D01*
X009766Y009059D02*
X014786Y009059D01*
X014786Y009118D02*
X009766Y009118D01*
X009766Y009176D02*
X014786Y009176D01*
X014786Y009235D02*
X009766Y009235D01*
X009372Y008198D02*
X008263Y008198D01*
X007502Y008887D01*
X007502Y014793D01*
X004057Y014793D01*
X003985Y014786D01*
X000711Y014786D01*
X000711Y007312D01*
X004697Y007312D01*
X005927Y006131D01*
X005927Y003874D01*
X006124Y003375D01*
X009372Y003382D01*
X009372Y008198D01*
X009372Y008182D02*
X002818Y008182D01*
X002818Y008240D02*
X008217Y008240D01*
X008152Y008299D02*
X002799Y008299D01*
X002818Y008253D02*
X002707Y008521D01*
X002502Y008726D01*
X002234Y008836D01*
X001944Y008836D01*
X001676Y008726D01*
X001471Y008521D01*
X001360Y008253D01*
X001360Y007963D01*
X001471Y007695D01*
X001676Y007490D01*
X001944Y007379D01*
X002234Y007379D01*
X002502Y007490D01*
X002707Y007695D01*
X002818Y007963D01*
X002818Y008253D01*
X002774Y008357D02*
X008087Y008357D01*
X008023Y008416D02*
X002750Y008416D01*
X002726Y008474D02*
X007958Y008474D01*
X007894Y008533D02*
X002694Y008533D01*
X002636Y008591D02*
X007829Y008591D01*
X007764Y008650D02*
X002577Y008650D01*
X002519Y008708D02*
X007700Y008708D01*
X007635Y008767D02*
X002402Y008767D01*
X002261Y008825D02*
X007571Y008825D01*
X007506Y008884D02*
X000711Y008884D01*
X000711Y008942D02*
X007502Y008942D01*
X007502Y009001D02*
X000711Y009001D01*
X000711Y009059D02*
X007502Y009059D01*
X007502Y009118D02*
X000711Y009118D01*
X000711Y009176D02*
X007502Y009176D01*
X007502Y009235D02*
X000711Y009235D01*
X000711Y009293D02*
X007502Y009293D01*
X007502Y009352D02*
X000711Y009352D01*
X000711Y009410D02*
X007502Y009410D01*
X007502Y009469D02*
X000711Y009469D01*
X000711Y009527D02*
X007502Y009527D01*
X007502Y009586D02*
X000711Y009586D01*
X000711Y009644D02*
X007502Y009644D01*
X007502Y009703D02*
X000711Y009703D01*
X000711Y009761D02*
X007502Y009761D01*
X007502Y009820D02*
X000711Y009820D01*
X000711Y009878D02*
X007502Y009878D01*
X007502Y009937D02*
X000711Y009937D01*
X000711Y009995D02*
X007502Y009995D01*
X007502Y010054D02*
X000711Y010054D01*
X000711Y010112D02*
X007502Y010112D01*
X007502Y010171D02*
X000711Y010171D01*
X000711Y010229D02*
X007502Y010229D01*
X007502Y010288D02*
X000711Y010288D01*
X000711Y010346D02*
X007502Y010346D01*
X007502Y010405D02*
X000711Y010405D01*
X000711Y010463D02*
X007502Y010463D01*
X007502Y010522D02*
X000711Y010522D01*
X000711Y010580D02*
X007502Y010580D01*
X007502Y010639D02*
X000711Y010639D01*
X000711Y010697D02*
X005876Y010697D01*
X005877Y010697D02*
X006086Y010697D01*
X006280Y010777D01*
X006428Y010925D01*
X006508Y011119D01*
X006508Y011329D01*
X006428Y011522D01*
X006280Y011670D01*
X006086Y011751D01*
X005877Y011751D01*
X005683Y011670D01*
X005535Y011522D01*
X005454Y011329D01*
X005454Y011119D01*
X005535Y010925D01*
X005683Y010777D01*
X005877Y010697D01*
X005734Y010756D02*
X000711Y010756D01*
X000711Y010814D02*
X005646Y010814D01*
X005587Y010873D02*
X000711Y010873D01*
X000711Y010931D02*
X005532Y010931D01*
X005508Y010990D02*
X000711Y010990D01*
X000711Y011048D02*
X005484Y011048D01*
X005460Y011107D02*
X000711Y011107D01*
X000711Y011165D02*
X005454Y011165D01*
X005454Y011224D02*
X000711Y011224D01*
X000711Y011282D02*
X005454Y011282D01*
X005460Y011341D02*
X002294Y011341D01*
X002234Y011316D02*
X002502Y011427D01*
X002707Y011632D01*
X002818Y011900D01*
X002818Y012190D01*
X002707Y012458D01*
X002502Y012663D01*
X002234Y012774D01*
X001944Y012774D01*
X001676Y012663D01*
X001471Y012458D01*
X001360Y012190D01*
X001360Y011900D01*
X001471Y011632D01*
X001676Y011427D01*
X001944Y011316D01*
X002234Y011316D01*
X002435Y011399D02*
X005484Y011399D01*
X005508Y011458D02*
X002533Y011458D01*
X002591Y011516D02*
X005532Y011516D01*
X005587Y011575D02*
X002650Y011575D01*
X002707Y011633D02*
X005646Y011633D01*
X005735Y011692D02*
X002732Y011692D01*
X002756Y011750D02*
X005876Y011750D01*
X006087Y011750D02*
X007502Y011750D01*
X007502Y011692D02*
X006228Y011692D01*
X006317Y011633D02*
X007502Y011633D01*
X007502Y011575D02*
X006375Y011575D01*
X006430Y011516D02*
X007502Y011516D01*
X007502Y011458D02*
X006455Y011458D01*
X006479Y011399D02*
X007502Y011399D01*
X007502Y011341D02*
X006503Y011341D01*
X006508Y011282D02*
X007502Y011282D01*
X007502Y011224D02*
X006508Y011224D01*
X006508Y011165D02*
X007502Y011165D01*
X007502Y011107D02*
X006503Y011107D01*
X006479Y011048D02*
X007502Y011048D01*
X007502Y010990D02*
X006455Y010990D01*
X006430Y010931D02*
X007502Y010931D01*
X007502Y010873D02*
X006375Y010873D01*
X006317Y010814D02*
X007502Y010814D01*
X007502Y010756D02*
X006228Y010756D01*
X006087Y010697D02*
X007502Y010697D01*
X007502Y011809D02*
X002780Y011809D01*
X002804Y011867D02*
X007502Y011867D01*
X007502Y011926D02*
X002818Y011926D01*
X002818Y011984D02*
X007502Y011984D01*
X007502Y012043D02*
X002818Y012043D01*
X002818Y012101D02*
X007502Y012101D01*
X007502Y012160D02*
X002818Y012160D01*
X002806Y012218D02*
X007502Y012218D01*
X007502Y012277D02*
X002782Y012277D01*
X002757Y012335D02*
X007502Y012335D01*
X007502Y012394D02*
X002733Y012394D01*
X002709Y012452D02*
X007502Y012452D01*
X007502Y012511D02*
X002653Y012511D01*
X002595Y012569D02*
X007502Y012569D01*
X007502Y012628D02*
X002536Y012628D01*
X002444Y012686D02*
X007502Y012686D01*
X007502Y012745D02*
X002303Y012745D01*
X002234Y012875D02*
X002495Y012983D01*
X004509Y012983D01*
X004738Y013078D01*
X004912Y013252D01*
X004976Y013406D01*
X005235Y013612D01*
X005336Y013794D01*
X005359Y014000D01*
X005302Y014200D01*
X005173Y014362D01*
X004991Y014463D01*
X004785Y014487D01*
X004585Y014429D01*
X004327Y014224D01*
X002495Y014224D01*
X002234Y014333D01*
X001944Y014333D01*
X001676Y014222D01*
X001471Y014017D01*
X001360Y013749D01*
X001360Y013459D01*
X001471Y013191D01*
X001676Y012986D01*
X001944Y012875D01*
X002234Y012875D01*
X002343Y012920D02*
X007502Y012920D01*
X007502Y012862D02*
X000711Y012862D01*
X000711Y012920D02*
X001834Y012920D01*
X001693Y012979D02*
X000711Y012979D01*
X000711Y013037D02*
X001625Y013037D01*
X001566Y013096D02*
X000711Y013096D01*
X000711Y013154D02*
X001508Y013154D01*
X001462Y013213D02*
X000711Y013213D01*
X000711Y013271D02*
X001438Y013271D01*
X001413Y013330D02*
X000711Y013330D01*
X000711Y013388D02*
X001389Y013388D01*
X001365Y013447D02*
X000711Y013447D01*
X000711Y013505D02*
X001360Y013505D01*
X001360Y013564D02*
X000711Y013564D01*
X000711Y013622D02*
X001360Y013622D01*
X001360Y013681D02*
X000711Y013681D01*
X000711Y013739D02*
X001360Y013739D01*
X001380Y013798D02*
X000711Y013798D01*
X000711Y013856D02*
X001405Y013856D01*
X001429Y013915D02*
X000711Y013915D01*
X000711Y013973D02*
X001453Y013973D01*
X001486Y014032D02*
X000711Y014032D01*
X000711Y014090D02*
X001545Y014090D01*
X001603Y014149D02*
X000711Y014149D01*
X000711Y014207D02*
X001662Y014207D01*
X001783Y014266D02*
X000711Y014266D01*
X000711Y014324D02*
X001924Y014324D01*
X002254Y014324D02*
X004453Y014324D01*
X004380Y014266D02*
X002395Y014266D01*
X002485Y012979D02*
X007502Y012979D01*
X007502Y013037D02*
X004640Y013037D01*
X004756Y013096D02*
X007502Y013096D01*
X007502Y013154D02*
X004814Y013154D01*
X004873Y013213D02*
X007502Y013213D01*
X007502Y013271D02*
X004920Y013271D01*
X004944Y013330D02*
X007502Y013330D01*
X007502Y013388D02*
X004969Y013388D01*
X005028Y013447D02*
X007502Y013447D01*
X007502Y013505D02*
X005101Y013505D01*
X005175Y013564D02*
X007502Y013564D01*
X007502Y013622D02*
X005241Y013622D01*
X005273Y013681D02*
X007502Y013681D01*
X007502Y013739D02*
X005306Y013739D01*
X005336Y013798D02*
X007502Y013798D01*
X007502Y013856D02*
X005343Y013856D01*
X005350Y013915D02*
X007502Y013915D01*
X007502Y013973D02*
X005356Y013973D01*
X005350Y014032D02*
X007502Y014032D01*
X007502Y014090D02*
X005334Y014090D01*
X005317Y014149D02*
X007502Y014149D01*
X007502Y014207D02*
X005296Y014207D01*
X005250Y014266D02*
X007502Y014266D01*
X007502Y014324D02*
X005203Y014324D01*
X005136Y014383D02*
X007502Y014383D01*
X007502Y014441D02*
X005031Y014441D01*
X004627Y014441D02*
X000711Y014441D01*
X000711Y014383D02*
X004527Y014383D01*
X004053Y014792D02*
X007502Y014792D01*
X007502Y014734D02*
X000711Y014734D01*
X000711Y014675D02*
X007502Y014675D01*
X007502Y014617D02*
X000711Y014617D01*
X000711Y014558D02*
X007502Y014558D01*
X007502Y014500D02*
X000711Y014500D01*
X000711Y012803D02*
X007502Y012803D01*
X009372Y008123D02*
X002818Y008123D01*
X002818Y008065D02*
X009372Y008065D01*
X009372Y008006D02*
X002818Y008006D01*
X002811Y007948D02*
X009372Y007948D01*
X009372Y007889D02*
X002787Y007889D01*
X002763Y007831D02*
X009372Y007831D01*
X009372Y007772D02*
X002739Y007772D01*
X002715Y007714D02*
X009372Y007714D01*
X009372Y007655D02*
X002667Y007655D01*
X002609Y007597D02*
X009372Y007597D01*
X009372Y007538D02*
X002550Y007538D01*
X002478Y007480D02*
X009372Y007480D01*
X009372Y007421D02*
X002336Y007421D01*
X001841Y007421D02*
X000711Y007421D01*
X000711Y007363D02*
X009372Y007363D01*
X009372Y007304D02*
X004706Y007304D01*
X004766Y007246D02*
X009372Y007246D01*
X009372Y007187D02*
X004827Y007187D01*
X004888Y007129D02*
X009372Y007129D01*
X009372Y007070D02*
X004949Y007070D01*
X005010Y007012D02*
X009372Y007012D01*
X009372Y006953D02*
X005071Y006953D01*
X005132Y006895D02*
X009372Y006895D01*
X009372Y006836D02*
X005193Y006836D01*
X005254Y006778D02*
X009372Y006778D01*
X009372Y006719D02*
X005315Y006719D01*
X005376Y006661D02*
X009372Y006661D01*
X009372Y006602D02*
X005437Y006602D01*
X005498Y006544D02*
X009372Y006544D01*
X009372Y006485D02*
X005559Y006485D01*
X005620Y006427D02*
X009372Y006427D01*
X009372Y006368D02*
X005681Y006368D01*
X005741Y006310D02*
X009372Y006310D01*
X009372Y006251D02*
X005802Y006251D01*
X005863Y006193D02*
X009372Y006193D01*
X009372Y006134D02*
X005924Y006134D01*
X005927Y006076D02*
X009372Y006076D01*
X009372Y006017D02*
X005927Y006017D01*
X005927Y005959D02*
X009372Y005959D01*
X009372Y005900D02*
X005927Y005900D01*
X005927Y005842D02*
X009372Y005842D01*
X009372Y005783D02*
X005927Y005783D01*
X005927Y005725D02*
X009372Y005725D01*
X009372Y005666D02*
X005927Y005666D01*
X005927Y005608D02*
X009372Y005608D01*
X009372Y005549D02*
X005927Y005549D01*
X005927Y005491D02*
X009372Y005491D01*
X009372Y005432D02*
X005927Y005432D01*
X005927Y005374D02*
X009372Y005374D01*
X009372Y005315D02*
X005927Y005315D01*
X005927Y005257D02*
X009372Y005257D01*
X009372Y005198D02*
X005927Y005198D01*
X005927Y005140D02*
X009372Y005140D01*
X009372Y005081D02*
X005927Y005081D01*
X005927Y005023D02*
X009372Y005023D01*
X009372Y004964D02*
X005927Y004964D01*
X005927Y004906D02*
X009372Y004906D01*
X009372Y004847D02*
X005927Y004847D01*
X005927Y004789D02*
X009372Y004789D01*
X009372Y004730D02*
X005927Y004730D01*
X005927Y004672D02*
X009372Y004672D01*
X009372Y004613D02*
X005927Y004613D01*
X005927Y004555D02*
X009372Y004555D01*
X009372Y004496D02*
X005927Y004496D01*
X005927Y004438D02*
X009372Y004438D01*
X009372Y004379D02*
X005927Y004379D01*
X005927Y004321D02*
X009372Y004321D01*
X009372Y004262D02*
X005927Y004262D01*
X005927Y004204D02*
X009372Y004204D01*
X009372Y004145D02*
X005927Y004145D01*
X005927Y004087D02*
X009372Y004087D01*
X009372Y004028D02*
X005927Y004028D01*
X005927Y003970D02*
X009372Y003970D01*
X009372Y003911D02*
X005927Y003911D01*
X005936Y003853D02*
X009372Y003853D01*
X009372Y003794D02*
X005959Y003794D01*
X005982Y003736D02*
X009372Y003736D01*
X009372Y003677D02*
X006005Y003677D01*
X006028Y003619D02*
X009372Y003619D01*
X009372Y003560D02*
X006051Y003560D01*
X006074Y003502D02*
X009372Y003502D01*
X009372Y003443D02*
X006097Y003443D01*
X006121Y003385D02*
X009372Y003385D01*
X009766Y003385D02*
X011636Y003385D01*
X011636Y003443D02*
X009766Y003443D01*
X009766Y003502D02*
X011636Y003502D01*
X011636Y003560D02*
X009766Y003560D01*
X009766Y003619D02*
X011636Y003619D01*
X011636Y003677D02*
X009766Y003677D01*
X009766Y003736D02*
X011636Y003736D01*
X011636Y003794D02*
X009766Y003794D01*
X009766Y003853D02*
X011636Y003853D01*
X011636Y003911D02*
X009766Y003911D01*
X009766Y003970D02*
X011636Y003970D01*
X011636Y004028D02*
X009766Y004028D01*
X009766Y004087D02*
X011636Y004087D01*
X011636Y004145D02*
X009766Y004145D01*
X009766Y004204D02*
X011636Y004204D01*
X011636Y004262D02*
X009766Y004262D01*
X009766Y004321D02*
X011636Y004321D01*
X011636Y004379D02*
X009766Y004379D01*
X009766Y004438D02*
X011636Y004438D01*
X011636Y004496D02*
X009766Y004496D01*
X009766Y004555D02*
X011636Y004555D01*
X011636Y004613D02*
X009766Y004613D01*
X009766Y004672D02*
X011636Y004672D01*
X011636Y004730D02*
X009766Y004730D01*
X009766Y004789D02*
X011636Y004789D01*
X011636Y004847D02*
X009766Y004847D01*
X009766Y004906D02*
X011636Y004906D01*
X011636Y004964D02*
X009766Y004964D01*
X009766Y005023D02*
X011636Y005023D01*
X011636Y005081D02*
X009766Y005081D01*
X009766Y005140D02*
X011636Y005140D01*
X011636Y005198D02*
X009766Y005198D01*
X009766Y005257D02*
X011636Y005257D01*
X011636Y005315D02*
X009766Y005315D01*
X009766Y005374D02*
X011636Y005374D01*
X011636Y005432D02*
X009766Y005432D01*
X009766Y005491D02*
X011636Y005491D01*
X011636Y005549D02*
X009766Y005549D01*
X009766Y005608D02*
X011636Y005608D01*
X011636Y005666D02*
X009766Y005666D01*
X009766Y005725D02*
X011636Y005725D01*
X011636Y005783D02*
X009766Y005783D01*
X009766Y005842D02*
X011636Y005842D01*
X011636Y005900D02*
X009766Y005900D01*
X009766Y005959D02*
X011636Y005959D01*
X011636Y006017D02*
X011371Y006017D01*
X011471Y006076D02*
X011636Y006076D01*
X011636Y006134D02*
X011530Y006134D01*
X011588Y006193D02*
X011636Y006193D01*
X011636Y006251D02*
X011614Y006251D01*
X011621Y006719D02*
X011636Y006719D01*
X011636Y006778D02*
X011596Y006778D01*
X011636Y006836D02*
X011546Y006836D01*
X011488Y006895D02*
X011636Y006895D01*
X011636Y006953D02*
X011411Y006953D01*
X011269Y007012D02*
X011636Y007012D01*
X011636Y007070D02*
X009766Y007070D01*
X009766Y007012D02*
X011019Y007012D01*
X010877Y006953D02*
X009766Y006953D01*
X009766Y006895D02*
X010800Y006895D01*
X010742Y006836D02*
X009766Y006836D01*
X009766Y006778D02*
X010691Y006778D01*
X010667Y006719D02*
X009766Y006719D01*
X009766Y006661D02*
X010643Y006661D01*
X010619Y006602D02*
X009766Y006602D01*
X009766Y006544D02*
X010617Y006544D01*
X010617Y006485D02*
X009766Y006485D01*
X009766Y006427D02*
X010617Y006427D01*
X010626Y006368D02*
X009766Y006368D01*
X009766Y006310D02*
X010650Y006310D01*
X010674Y006251D02*
X009766Y006251D01*
X009766Y006193D02*
X010700Y006193D01*
X010758Y006134D02*
X009766Y006134D01*
X009766Y006076D02*
X010817Y006076D01*
X010917Y006017D02*
X009766Y006017D01*
X009766Y007129D02*
X011649Y007129D01*
X011708Y007187D02*
X009766Y007187D01*
X009766Y007246D02*
X011766Y007246D01*
X011825Y007304D02*
X009766Y007304D01*
X009766Y007363D02*
X011883Y007363D01*
X011942Y007421D02*
X009766Y007421D01*
X009766Y007480D02*
X012000Y007480D01*
X012059Y007538D02*
X009766Y007538D01*
X017640Y006719D02*
X018378Y006719D01*
X018378Y006661D02*
X017640Y006661D01*
X017640Y006602D02*
X018378Y006602D01*
X018378Y006544D02*
X017640Y006544D01*
X017640Y006485D02*
X018378Y006485D01*
X018378Y006427D02*
X017640Y006427D01*
X017640Y006368D02*
X018378Y006368D01*
X018378Y006310D02*
X017640Y006310D01*
X017640Y006251D02*
X018378Y006251D01*
X018378Y006193D02*
X017640Y006193D01*
X017640Y006134D02*
X018378Y006134D01*
X018378Y006076D02*
X017640Y006076D01*
X017640Y006017D02*
X018378Y006017D01*
X018378Y005959D02*
X017640Y005959D01*
X017640Y005900D02*
X018378Y005900D01*
X018378Y005842D02*
X017640Y005842D01*
X017640Y005783D02*
X018378Y005783D01*
X018378Y005725D02*
X017640Y005725D01*
X017640Y005666D02*
X018378Y005666D01*
X018378Y005608D02*
X017640Y005608D01*
X017640Y005549D02*
X018378Y005549D01*
X018378Y005491D02*
X017640Y005491D01*
X017640Y005432D02*
X018378Y005432D01*
X018378Y005374D02*
X017640Y005374D01*
X017640Y005315D02*
X018378Y005315D01*
X018378Y005257D02*
X017640Y005257D01*
X017640Y005198D02*
X018378Y005198D01*
X018378Y005140D02*
X017640Y005140D01*
X017640Y005081D02*
X018378Y005081D01*
X018378Y005023D02*
X017640Y005023D01*
X017640Y004964D02*
X018378Y004964D01*
X018378Y004906D02*
X017640Y004906D01*
X017640Y004847D02*
X018378Y004847D01*
X018378Y004789D02*
X017640Y004789D01*
X017640Y004730D02*
X018378Y004730D01*
X018378Y004672D02*
X017640Y004672D01*
X017640Y004613D02*
X018378Y004613D01*
X018378Y004555D02*
X017640Y004555D01*
X017640Y004496D02*
X018378Y004496D01*
X018378Y004438D02*
X017640Y004438D01*
X017640Y004379D02*
X018378Y004379D01*
X018378Y004321D02*
X017640Y004321D01*
X017640Y004262D02*
X018378Y004262D01*
X018378Y004204D02*
X017640Y004204D01*
X017640Y004145D02*
X018378Y004145D01*
X001700Y007480D02*
X000711Y007480D01*
X000711Y007538D02*
X001627Y007538D01*
X001569Y007597D02*
X000711Y007597D01*
X000711Y007655D02*
X001510Y007655D01*
X001463Y007714D02*
X000711Y007714D01*
X000711Y007772D02*
X001439Y007772D01*
X001415Y007831D02*
X000711Y007831D01*
X000711Y007889D02*
X001390Y007889D01*
X001366Y007948D02*
X000711Y007948D01*
X000711Y008006D02*
X001360Y008006D01*
X001360Y008065D02*
X000711Y008065D01*
X000711Y008123D02*
X001360Y008123D01*
X001360Y008182D02*
X000711Y008182D01*
X000711Y008240D02*
X001360Y008240D01*
X001379Y008299D02*
X000711Y008299D01*
X000711Y008357D02*
X001403Y008357D01*
X001428Y008416D02*
X000711Y008416D01*
X000711Y008474D02*
X001452Y008474D01*
X001483Y008533D02*
X000711Y008533D01*
X000711Y008591D02*
X001542Y008591D01*
X001600Y008650D02*
X000711Y008650D01*
X000711Y008708D02*
X001659Y008708D01*
X001776Y008767D02*
X000711Y008767D01*
X000711Y008825D02*
X001917Y008825D01*
X001884Y011341D02*
X000711Y011341D01*
X000711Y011399D02*
X001742Y011399D01*
X001645Y011458D02*
X000711Y011458D01*
X000711Y011516D02*
X001586Y011516D01*
X001528Y011575D02*
X000711Y011575D01*
X000711Y011633D02*
X001470Y011633D01*
X001446Y011692D02*
X000711Y011692D01*
X000711Y011750D02*
X001422Y011750D01*
X001398Y011809D02*
X000711Y011809D01*
X000711Y011867D02*
X001373Y011867D01*
X001360Y011926D02*
X000711Y011926D01*
X000711Y011984D02*
X001360Y011984D01*
X001360Y012043D02*
X000711Y012043D01*
X000711Y012101D02*
X001360Y012101D01*
X001360Y012160D02*
X000711Y012160D01*
X000711Y012218D02*
X001372Y012218D01*
X001396Y012277D02*
X000711Y012277D01*
X000711Y012335D02*
X001420Y012335D01*
X001445Y012394D02*
X000711Y012394D01*
X000711Y012452D02*
X001469Y012452D01*
X001524Y012511D02*
X000711Y012511D01*
X000711Y012569D02*
X001583Y012569D01*
X001641Y012628D02*
X000711Y012628D01*
X000711Y012686D02*
X001733Y012686D01*
X001875Y012745D02*
X000711Y012745D01*
D19*
X004386Y013604D02*
X004829Y013956D01*
X008388Y011824D02*
X008388Y010494D01*
X011144Y010494D02*
X011144Y011824D01*
D20*
X002876Y004163D03*
X002876Y029753D03*
X036341Y029753D03*
X036341Y004163D03*
D21*
X034274Y002047D03*
X033585Y004163D03*
X031272Y004458D03*
X030189Y005196D03*
X028516Y004409D03*
X027138Y005836D03*
X025859Y005245D03*
X025317Y004606D03*
X024727Y005836D03*
X026301Y008740D03*
X026252Y009576D03*
X026055Y010708D03*
X026892Y010757D03*
X028467Y010462D03*
X030731Y008986D03*
X034028Y008936D03*
X031321Y012529D03*
X033093Y014301D03*
X034766Y015334D03*
X033880Y016171D03*
X032109Y016614D03*
X031518Y016417D03*
X031813Y017696D03*
X031075Y017844D03*
X029303Y018877D03*
X028398Y017903D03*
X027729Y017893D03*
X026203Y019222D03*
X025120Y020009D03*
X025071Y020895D03*
X024786Y018759D03*
X024038Y018730D03*
X023053Y018287D03*
X024077Y017273D03*
X025022Y017204D03*
X025711Y017736D03*
X026941Y014842D03*
X026203Y014547D03*
X024874Y014055D03*
X025219Y013366D03*
X023162Y013267D03*
X022374Y013346D03*
X021921Y014251D03*
X022955Y014251D03*
X020740Y015088D03*
X019707Y014547D03*
X019018Y015137D03*
X020297Y016417D03*
X018270Y017440D03*
X019609Y018828D03*
X020593Y020305D03*
X019707Y020403D03*
X013605Y019862D03*
X012571Y019399D03*
X018378Y013562D03*
X018231Y009084D03*
X024431Y010954D03*
X024727Y008986D03*
X028270Y013070D03*
X033585Y018090D03*
X032207Y020846D03*
X030506Y020600D03*
X029943Y022765D03*
X027335Y021387D03*
X029746Y026358D03*
X030731Y028917D03*
X030731Y030590D03*
X030731Y032214D03*
X032650Y030590D03*
X032650Y028917D03*
X033437Y026112D03*
X034077Y024832D03*
X035996Y015334D03*
X030189Y002637D03*
X029107Y001899D03*
X029107Y000915D03*
X028368Y000767D03*
X027532Y001997D03*
X013408Y003031D03*
X014786Y026604D03*
D22*
X021668Y012037D02*
X021626Y011995D01*
X021626Y011299D01*
X023792Y011299D01*
X024234Y011742D01*
X033634Y011742D01*
X034028Y011348D01*
X034028Y008936D01*
D23*
X027286Y022224D02*
X019067Y022175D01*
X019067Y023799D01*
X018821Y023946D01*
X016803Y023946D01*
X016557Y024192D01*
X016557Y026342D01*
X016607Y026391D01*
X027286Y022224D02*
X027729Y022716D01*
X027729Y024783D01*
X028171Y025226D01*
X032847Y025226D01*
X033437Y026112D01*
D24*
X034077Y024832D02*
X033880Y024635D01*
X028713Y024635D01*
X028221Y024094D01*
X028221Y020797D01*
X027630Y020255D01*
X026105Y020255D01*
X025662Y019517D01*
X023939Y019517D01*
X023546Y019123D01*
X023546Y016712D01*
X022266Y015285D01*
X022266Y014645D01*
X021921Y014251D01*
X022955Y014251D02*
X023250Y014842D01*
X025366Y014842D01*
X025612Y014596D01*
X025612Y013759D01*
X025908Y013464D01*
X027679Y013464D01*
X027876Y013710D01*
X036144Y013710D01*
X036636Y014202D01*
X036636Y020206D01*
X036390Y020452D01*
X032551Y020452D01*
X032404Y020600D01*
X032207Y020846D01*
X029943Y020600D02*
X028860Y019517D01*
X028860Y019222D01*
X028664Y019025D01*
X028664Y018828D01*
X029451Y018041D01*
X029451Y016663D01*
X029648Y016417D01*
X031518Y016417D01*
X029303Y018877D02*
X035603Y018877D01*
X035996Y018434D01*
X035996Y015334D01*
X029943Y020600D02*
X029943Y022765D01*
X028093Y018484D02*
X027187Y018484D01*
X026941Y018238D01*
X026941Y014842D01*
X028398Y017903D02*
X028093Y018484D01*
X020297Y018434D02*
X020297Y016417D01*
X018270Y017440D02*
X017827Y017618D01*
X012896Y017618D01*
X012571Y018011D01*
X012571Y019399D01*
X019609Y018828D02*
X019609Y018434D01*
X020297Y018434D01*
X026055Y010708D02*
X025514Y010167D01*
X025514Y006131D01*
X025859Y005836D01*
X026351Y005836D01*
X026646Y005393D01*
X026646Y004852D01*
X026941Y004409D01*
X028516Y004409D01*
X024727Y005836D02*
X024727Y008986D01*
X026252Y009576D02*
X026252Y010167D01*
X026843Y010757D01*
X026892Y010757D01*
D25*
X004386Y013604D02*
X002089Y013604D01*
M02*
