G75*
G70*
%OFA0B0*%
%FSLAX24Y24*%
%IPPOS*%
%LPD*%
%AMOC8*
5,1,8,0,0,1.08239X$1,22.5*
%
%ADD10C,0.0000*%
%ADD11C,0.0320*%
%ADD12C,0.0160*%
%ADD13C,0.0120*%
%ADD14C,0.0070*%
%ADD15C,0.0060*%
%ADD16C,0.0217*%
%ADD17C,0.0040*%
%ADD18R,0.0551X0.0256*%
%ADD19C,0.0050*%
%ADD20C,0.0079*%
%ADD21C,0.0080*%
%ADD22R,0.0433X0.0148*%
%ADD23R,0.0620X0.0118*%
%ADD24R,0.0148X0.0433*%
%ADD25R,0.0118X0.0620*%
%ADD26R,0.0230X0.0180*%
%ADD27R,0.0157X0.0394*%
%ADD28R,0.0472X0.0394*%
%ADD29R,0.0160X0.0340*%
%ADD30R,0.0049X0.0472*%
%ADD31R,0.0118X0.0965*%
%ADD32R,0.0669X0.0295*%
%ADD33R,0.0295X0.0669*%
%ADD34R,0.0236X0.0118*%
%ADD35R,0.0118X0.0236*%
%ADD36C,0.0118*%
%ADD37C,0.0030*%
%ADD38R,0.0197X0.0374*%
%ADD39C,0.0020*%
%ADD40R,0.0280X0.0226*%
D10*
X000120Y000226D02*
X000120Y033690D01*
X039097Y033690D01*
X039097Y000226D01*
X000120Y000226D01*
D11*
X005632Y003769D02*
X005632Y005836D01*
X004549Y006919D01*
X000317Y006919D01*
X000317Y025816D01*
X001301Y026997D01*
X004845Y026997D01*
X005632Y028179D01*
X005632Y033494D01*
X008782Y033494D01*
X008782Y029753D01*
X011538Y029753D01*
X011538Y015186D01*
X012719Y015186D01*
X012719Y011643D01*
X015081Y011643D01*
X015081Y005344D01*
X011931Y005344D01*
X011931Y003375D01*
X006026Y003375D01*
X005632Y003769D01*
D12*
X004451Y020305D02*
X004451Y023454D01*
X001301Y021879D01*
X004451Y020305D01*
D13*
X003997Y019851D02*
X003457Y019851D01*
X003727Y019851D02*
X003727Y019491D01*
X003457Y019491D02*
X003997Y019491D01*
X003907Y019243D02*
X003817Y019153D01*
X003817Y018883D01*
X003727Y018883D02*
X003997Y018883D01*
X003997Y019153D01*
X003907Y019243D01*
X003637Y019153D02*
X003637Y018973D01*
X003727Y018883D01*
X003637Y018635D02*
X003637Y018275D01*
X003997Y018635D01*
X003997Y018275D01*
X003907Y018028D02*
X003817Y017938D01*
X003817Y017667D01*
X003727Y017667D02*
X003997Y017667D01*
X003997Y017938D01*
X003907Y018028D01*
X003637Y017938D02*
X003637Y017757D01*
X003727Y017667D01*
X003637Y017420D02*
X003997Y017420D01*
X003817Y017420D02*
X003637Y017240D01*
X003637Y017150D01*
X003727Y016914D02*
X003637Y016823D01*
X003637Y016553D01*
X003457Y016553D02*
X003997Y016553D01*
X003997Y016823D01*
X003907Y016914D01*
X003727Y016914D01*
X003727Y016306D02*
X003907Y016306D01*
X003997Y016216D01*
X003997Y016036D01*
X003907Y015945D01*
X003727Y015945D01*
X003637Y016036D01*
X003637Y016216D01*
X003727Y016306D01*
X003637Y015698D02*
X003907Y015698D01*
X003997Y015608D01*
X003997Y015338D01*
X003637Y015338D01*
X003727Y015090D02*
X003637Y015000D01*
X003637Y014730D01*
X003817Y014820D02*
X003817Y015000D01*
X003727Y015090D01*
X003997Y015090D02*
X003997Y014820D01*
X003907Y014730D01*
X003817Y014820D01*
X003727Y014483D02*
X003367Y014483D01*
X003907Y014483D02*
X003997Y014483D01*
X003997Y013672D02*
X003457Y013672D01*
X003997Y013672D02*
X003997Y013312D01*
X003997Y013065D02*
X003997Y012884D01*
X003997Y012975D02*
X003637Y012975D01*
X003637Y013065D01*
X003457Y012975D02*
X003367Y012975D01*
X003637Y012659D02*
X003997Y012479D01*
X003637Y012299D01*
X003727Y012052D02*
X003637Y011962D01*
X003637Y011782D01*
X003727Y011691D01*
X003817Y011691D01*
X003817Y012052D01*
X003907Y012052D02*
X003727Y012052D01*
X003907Y012052D02*
X003997Y011962D01*
X003997Y011782D01*
X004057Y021486D02*
X003664Y021486D01*
X004057Y021486D02*
X003664Y021879D01*
X004057Y021486D02*
X002483Y022273D01*
X002876Y021486D01*
X002089Y021879D01*
D14*
X000542Y015250D02*
X000542Y015030D01*
X000542Y015140D02*
X000873Y015140D01*
X000873Y014882D02*
X000653Y014882D01*
X000763Y014882D02*
X000653Y014771D01*
X000653Y014716D01*
X000653Y014520D02*
X000653Y014409D01*
X000708Y014354D01*
X000873Y014354D01*
X000873Y014520D01*
X000818Y014575D01*
X000763Y014520D01*
X000763Y014354D01*
X000873Y014206D02*
X000653Y014206D01*
X000653Y014041D01*
X000708Y013986D01*
X000873Y013986D01*
X000873Y013838D02*
X000873Y013673D01*
X000818Y013618D01*
X000763Y013673D01*
X000763Y013783D01*
X000708Y013838D01*
X000653Y013783D01*
X000653Y013618D01*
X000708Y013470D02*
X000708Y013360D01*
X000597Y013415D02*
X000542Y013360D01*
X000597Y013415D02*
X000873Y013415D01*
X000873Y013224D02*
X000873Y013169D01*
X000818Y013169D01*
X000818Y013224D01*
X000873Y013224D01*
X000873Y012672D02*
X000542Y012672D01*
X000542Y012507D01*
X000597Y012451D01*
X000708Y012451D01*
X000763Y012507D01*
X000763Y012672D01*
X000763Y012303D02*
X000653Y012193D01*
X000653Y012138D01*
X000653Y011996D02*
X000653Y011941D01*
X000873Y011941D01*
X000873Y011996D02*
X000873Y011886D01*
X000873Y011751D02*
X000653Y011751D01*
X000653Y011696D01*
X000708Y011641D01*
X000653Y011586D01*
X000708Y011531D01*
X000873Y011531D01*
X000873Y011641D02*
X000708Y011641D01*
X000818Y011383D02*
X000763Y011327D01*
X000763Y011162D01*
X000708Y011162D02*
X000873Y011162D01*
X000873Y011327D01*
X000818Y011383D01*
X000653Y011327D02*
X000653Y011217D01*
X000708Y011162D01*
X000763Y011014D02*
X000653Y010904D01*
X000653Y010849D01*
X000653Y010707D02*
X000818Y010707D01*
X000873Y010652D01*
X000873Y010487D01*
X000928Y010487D02*
X000983Y010542D01*
X000983Y010597D01*
X000928Y010487D02*
X000653Y010487D01*
X000653Y011014D02*
X000873Y011014D01*
X000542Y011941D02*
X000487Y011941D01*
X000653Y012303D02*
X000873Y012303D01*
X000873Y009640D02*
X000542Y009640D01*
X000653Y009530D01*
X000542Y009419D01*
X000873Y009419D01*
X000818Y009271D02*
X000763Y009216D01*
X000763Y009051D01*
X000708Y009051D02*
X000873Y009051D01*
X000873Y009216D01*
X000818Y009271D01*
X000653Y009216D02*
X000653Y009106D01*
X000708Y009051D01*
X000653Y008903D02*
X000653Y008848D01*
X000873Y008848D01*
X000873Y008903D02*
X000873Y008793D01*
X000873Y008657D02*
X000653Y008657D01*
X000653Y008492D01*
X000708Y008437D01*
X000873Y008437D01*
X000873Y008289D02*
X000873Y008124D01*
X000818Y008069D01*
X000763Y008124D01*
X000763Y008234D01*
X000708Y008289D01*
X000653Y008234D01*
X000653Y008069D01*
X000542Y008848D02*
X000487Y008848D01*
X006437Y032879D02*
X006437Y033099D01*
X006327Y033099D02*
X006272Y033099D01*
X006327Y033099D02*
X006437Y032989D01*
X006586Y032989D02*
X006806Y032989D01*
X006806Y033044D02*
X006751Y033099D01*
X006641Y033099D01*
X006586Y033044D01*
X006586Y032989D01*
X006641Y032879D02*
X006751Y032879D01*
X006806Y032934D01*
X006806Y033044D01*
X006941Y033099D02*
X007051Y033099D01*
X006996Y033154D02*
X006996Y032934D01*
X006941Y032879D01*
X007199Y032879D02*
X007199Y033044D01*
X007254Y033099D01*
X007365Y033099D01*
X007365Y032989D02*
X007199Y032989D01*
X007199Y032879D02*
X007365Y032879D01*
X007420Y032934D01*
X007365Y032989D01*
X007568Y032989D02*
X007788Y032989D01*
X007788Y033044D02*
X007733Y033099D01*
X007623Y033099D01*
X007568Y033044D01*
X007568Y032989D01*
X007623Y032879D02*
X007733Y032879D01*
X007788Y032934D01*
X007788Y033044D01*
X007936Y033044D02*
X008156Y033044D01*
X008156Y032879D02*
X008156Y033209D01*
X007936Y033209D02*
X007936Y032879D01*
X009578Y033036D02*
X009744Y033036D01*
X009799Y033091D01*
X009799Y033202D01*
X009744Y033257D01*
X009578Y033257D01*
X009578Y033367D02*
X009578Y033036D01*
X009947Y033036D02*
X009947Y033202D01*
X010002Y033257D01*
X010167Y033257D01*
X010167Y033036D01*
X010315Y033036D02*
X010315Y033257D01*
X010535Y033257D02*
X010535Y033091D01*
X010480Y033036D01*
X010315Y033036D01*
X010683Y033091D02*
X010683Y033202D01*
X010738Y033257D01*
X010849Y033257D01*
X010904Y033202D01*
X010904Y033091D01*
X010849Y033036D01*
X010738Y033036D01*
X010683Y033091D01*
X011045Y033257D02*
X011100Y033257D01*
X011210Y033146D01*
X011210Y033036D02*
X011210Y033257D01*
X011359Y033312D02*
X011414Y033367D01*
X011524Y033367D01*
X011579Y033312D01*
X011579Y033091D01*
X011524Y033036D01*
X011414Y033036D01*
X011359Y033091D01*
X011359Y033202D01*
X011469Y033202D01*
X011727Y033367D02*
X011947Y033036D01*
X012095Y033036D02*
X012315Y033036D01*
X012315Y033367D01*
X012095Y033367D01*
X012205Y033202D02*
X012315Y033202D01*
X012464Y033202D02*
X012519Y033146D01*
X012684Y033146D01*
X012684Y033036D02*
X012684Y033367D01*
X012519Y033367D01*
X012464Y033312D01*
X012464Y033202D01*
X019639Y033158D02*
X019639Y032883D01*
X019694Y032828D01*
X019749Y032828D01*
X019804Y032938D02*
X019639Y032938D01*
X019804Y032938D02*
X019859Y032993D01*
X019859Y033158D01*
X020001Y033158D02*
X020056Y033158D01*
X020166Y033048D01*
X020166Y032938D02*
X020166Y033158D01*
X020314Y033103D02*
X020314Y032938D01*
X020479Y032938D01*
X020534Y032993D01*
X020479Y033048D01*
X020314Y033048D01*
X020314Y033103D02*
X020369Y033158D01*
X020479Y033158D01*
X020682Y033158D02*
X020848Y033158D01*
X020903Y033103D01*
X020903Y032993D01*
X020848Y032938D01*
X020682Y032938D01*
X020682Y033268D01*
X021051Y033103D02*
X021051Y032938D01*
X021051Y033103D02*
X021106Y033158D01*
X021271Y033158D01*
X021271Y032938D01*
X021419Y032993D02*
X021419Y033103D01*
X021474Y033158D01*
X021584Y033158D01*
X021639Y033103D01*
X021639Y032993D01*
X021584Y032938D01*
X021474Y032938D01*
X021419Y032993D01*
X021787Y032938D02*
X021952Y032938D01*
X022007Y032993D01*
X022007Y033103D01*
X021952Y033158D01*
X021787Y033158D01*
X022156Y033103D02*
X022156Y033048D01*
X022376Y033048D01*
X022376Y032993D02*
X022376Y033103D01*
X022321Y033158D01*
X022211Y033158D01*
X022156Y033103D01*
X022211Y032938D02*
X022321Y032938D01*
X022376Y032993D01*
X022524Y032993D02*
X022579Y032938D01*
X022689Y032938D01*
X022744Y032993D01*
X022689Y033103D02*
X022579Y033103D01*
X022524Y033048D01*
X022524Y032993D01*
X022689Y033103D02*
X022744Y033158D01*
X022744Y033213D01*
X022689Y033268D01*
X022579Y033268D01*
X022524Y033213D01*
X023254Y033158D02*
X023309Y033158D01*
X023419Y033048D01*
X023419Y032938D02*
X023419Y033158D01*
X023567Y033103D02*
X023567Y033048D01*
X023788Y033048D01*
X023788Y032993D02*
X023788Y033103D01*
X023733Y033158D01*
X023623Y033158D01*
X023567Y033103D01*
X023623Y032938D02*
X023733Y032938D01*
X023788Y032993D01*
X023936Y032938D02*
X023936Y033103D01*
X023991Y033158D01*
X024046Y033103D01*
X024046Y032938D01*
X024156Y032938D02*
X024156Y033158D01*
X024101Y033158D01*
X024046Y033103D01*
X024298Y033158D02*
X024353Y033158D01*
X024463Y033048D01*
X024463Y032938D02*
X024463Y033158D01*
X024611Y033103D02*
X024666Y033158D01*
X024776Y033158D01*
X024831Y033103D01*
X024831Y032993D01*
X024776Y032938D01*
X024666Y032938D01*
X024611Y032993D01*
X024611Y033103D01*
X024967Y033103D02*
X025077Y033103D01*
X025022Y033213D02*
X024967Y033268D01*
X025022Y033213D02*
X025022Y032938D01*
X025225Y032993D02*
X025280Y033048D01*
X025390Y033048D01*
X025445Y033103D01*
X025390Y033158D01*
X025225Y033158D01*
X025225Y032993D02*
X025280Y032938D01*
X025445Y032938D01*
X025593Y032938D02*
X025593Y033103D01*
X025648Y033158D01*
X025813Y033158D01*
X025813Y032938D01*
X025962Y032938D02*
X026127Y032938D01*
X026182Y032993D01*
X026127Y033048D01*
X025962Y033048D01*
X025962Y033103D02*
X025962Y032938D01*
X025962Y033103D02*
X026017Y033158D01*
X026127Y033158D01*
X026324Y033158D02*
X026379Y033158D01*
X026489Y033048D01*
X026489Y032938D02*
X026489Y033158D01*
X026637Y033268D02*
X026857Y033268D01*
X026747Y033268D02*
X026747Y032938D01*
X038590Y027102D02*
X038811Y027102D01*
X038811Y027212D02*
X038700Y027102D01*
X038700Y026954D02*
X038700Y026734D01*
X038645Y026734D02*
X038755Y026734D01*
X038811Y026789D01*
X038811Y026899D01*
X038755Y026954D01*
X038700Y026954D01*
X038590Y026899D02*
X038590Y026789D01*
X038645Y026734D01*
X038590Y026586D02*
X038590Y026366D01*
X038811Y026586D01*
X038811Y026366D01*
X038811Y026218D02*
X038590Y025997D01*
X038590Y026218D01*
X038811Y026218D02*
X038811Y025997D01*
X038811Y025849D02*
X038590Y025849D01*
X038590Y025684D01*
X038645Y025629D01*
X038811Y025629D01*
X038811Y025481D02*
X038755Y025426D01*
X038755Y025261D01*
X038590Y025261D02*
X038590Y025426D01*
X038645Y025481D01*
X038700Y025481D01*
X038755Y025426D01*
X038811Y025481D02*
X038866Y025481D01*
X038921Y025426D01*
X038921Y025261D01*
X038590Y025261D01*
X038811Y027212D02*
X038811Y027268D01*
X038811Y023305D02*
X038811Y023250D01*
X038700Y023140D01*
X038590Y023140D02*
X038811Y023140D01*
X038755Y022992D02*
X038700Y022992D01*
X038700Y022772D01*
X038645Y022772D02*
X038755Y022772D01*
X038811Y022827D01*
X038811Y022937D01*
X038755Y022992D01*
X038590Y022937D02*
X038590Y022827D01*
X038645Y022772D01*
X038590Y022624D02*
X038590Y022458D01*
X038645Y022403D01*
X038755Y022403D01*
X038811Y022458D01*
X038811Y022624D01*
X038921Y022624D02*
X038590Y022624D01*
X038645Y022255D02*
X038755Y022255D01*
X038811Y022200D01*
X038811Y022090D01*
X038755Y022035D01*
X038645Y022035D01*
X038590Y022090D01*
X038590Y022200D01*
X038645Y022255D01*
X038590Y021887D02*
X038590Y021722D01*
X038645Y021667D01*
X038755Y021667D01*
X038811Y021722D01*
X038811Y021887D01*
X038755Y021519D02*
X038590Y021519D01*
X038755Y021519D02*
X038811Y021464D01*
X038811Y021298D01*
X038590Y021298D01*
X038590Y021150D02*
X038590Y020930D01*
X038921Y020930D01*
X038921Y021150D01*
X038755Y021040D02*
X038755Y020930D01*
X038706Y017875D02*
X038541Y017875D01*
X038706Y017875D02*
X038761Y017820D01*
X038761Y017655D01*
X038541Y017655D01*
X038596Y017507D02*
X038761Y017507D01*
X038596Y017507D02*
X038541Y017452D01*
X038596Y017397D01*
X038541Y017342D01*
X038596Y017287D01*
X038761Y017287D01*
X038706Y017139D02*
X038761Y017084D01*
X038761Y016974D01*
X038706Y016918D01*
X038596Y016918D01*
X038541Y016974D01*
X038541Y017084D01*
X038596Y017139D01*
X038706Y017139D01*
X038596Y016770D02*
X038816Y016770D01*
X038871Y016715D01*
X038871Y016550D01*
X038541Y016550D01*
X038541Y016715D01*
X038596Y016770D01*
X038596Y014432D02*
X038541Y014377D01*
X038541Y014212D01*
X038431Y014212D02*
X038761Y014212D01*
X038761Y014377D01*
X038706Y014432D01*
X038596Y014432D01*
X038596Y014064D02*
X038871Y014064D01*
X038871Y013843D02*
X038596Y013843D01*
X038541Y013899D01*
X038541Y014009D01*
X038596Y014064D01*
D15*
X038795Y012307D02*
X038968Y012307D01*
X038882Y012307D02*
X038882Y012047D01*
X038674Y012177D02*
X038500Y012177D01*
X038587Y011280D02*
X038587Y011106D01*
X038674Y011193D02*
X038500Y011193D01*
X038795Y011323D02*
X038968Y011323D01*
X038882Y011323D02*
X038882Y011063D01*
X038968Y010530D02*
X038708Y010530D01*
X038968Y010530D02*
X038968Y010357D01*
X038968Y010236D02*
X038968Y010062D01*
X038968Y009941D02*
X038968Y009811D01*
X038925Y009768D01*
X038751Y009768D01*
X038708Y009811D01*
X038708Y009941D01*
X038968Y009941D01*
X038838Y010149D02*
X038838Y010236D01*
X038708Y010236D02*
X038968Y010236D01*
X038708Y010236D02*
X038708Y010062D01*
X036901Y009213D02*
X036901Y009169D01*
X036858Y009126D01*
X036771Y009126D01*
X036728Y009083D01*
X036728Y009039D01*
X036771Y008996D01*
X036858Y008996D01*
X036901Y009039D01*
X036901Y009213D02*
X036858Y009256D01*
X036771Y009256D01*
X036728Y009213D01*
X036607Y009169D02*
X036607Y009039D01*
X036563Y008996D01*
X036520Y009039D01*
X036477Y008996D01*
X036433Y009039D01*
X036433Y009169D01*
X036312Y009169D02*
X036269Y009169D01*
X036269Y008996D01*
X036312Y008996D02*
X036225Y008996D01*
X036072Y009039D02*
X036072Y009213D01*
X036029Y009169D02*
X036116Y009169D01*
X036072Y009039D02*
X036029Y008996D01*
X035919Y009039D02*
X035876Y008996D01*
X035746Y008996D01*
X035625Y008996D02*
X035625Y009256D01*
X035581Y009169D02*
X035494Y009169D01*
X035451Y009126D01*
X035451Y008996D01*
X035581Y009169D02*
X035625Y009126D01*
X035746Y009169D02*
X035876Y009169D01*
X035919Y009126D01*
X035919Y009039D01*
X036269Y009256D02*
X036269Y009300D01*
X036017Y008272D02*
X036017Y008012D01*
X036139Y008012D02*
X036269Y008012D01*
X036312Y008055D01*
X036312Y008142D01*
X036269Y008185D01*
X036139Y008185D01*
X036017Y008142D02*
X035974Y008185D01*
X035887Y008185D01*
X035844Y008142D01*
X035844Y008012D01*
X036433Y008012D02*
X036433Y008142D01*
X036477Y008185D01*
X036563Y008185D01*
X036563Y008098D02*
X036433Y008098D01*
X036433Y008012D02*
X036563Y008012D01*
X036607Y008055D01*
X036563Y008098D01*
X036728Y008272D02*
X036901Y008272D01*
X036815Y008272D02*
X036815Y008012D01*
X036803Y007288D02*
X036629Y007288D01*
X036716Y007158D02*
X036803Y007158D01*
X036803Y007288D02*
X036803Y007027D01*
X036508Y007071D02*
X036465Y007114D01*
X036335Y007114D01*
X036335Y007158D02*
X036335Y007027D01*
X036465Y007027D01*
X036508Y007071D01*
X036465Y007201D02*
X036378Y007201D01*
X036335Y007158D01*
X036214Y007201D02*
X036083Y007201D01*
X036040Y007158D01*
X036040Y007027D01*
X036214Y007027D02*
X036214Y007201D01*
X033818Y005153D02*
X033644Y005153D01*
X033644Y005023D01*
X033688Y004980D01*
X033818Y004980D01*
X033644Y004858D02*
X033644Y004685D01*
X033644Y004772D02*
X033905Y004772D01*
X033818Y004685D01*
X032864Y004444D02*
X032864Y004270D01*
X032821Y004227D01*
X032734Y004227D01*
X032691Y004270D01*
X032569Y004227D02*
X032396Y004401D01*
X032396Y004444D01*
X032439Y004487D01*
X032526Y004487D01*
X032569Y004444D01*
X032691Y004444D02*
X032734Y004487D01*
X032821Y004487D01*
X032864Y004444D01*
X032569Y004227D02*
X032396Y004227D01*
X032275Y004227D02*
X032101Y004401D01*
X032101Y004444D01*
X032145Y004487D01*
X032231Y004487D01*
X032275Y004444D01*
X032275Y004227D02*
X032101Y004227D01*
X031857Y004224D02*
X031814Y004267D01*
X031771Y004267D01*
X031727Y004224D01*
X031684Y004267D01*
X031641Y004267D01*
X031597Y004224D01*
X031597Y004137D01*
X031641Y004094D01*
X031727Y004180D02*
X031727Y004224D01*
X031857Y004224D02*
X031857Y004137D01*
X031814Y004094D01*
X031814Y003973D02*
X031727Y003973D01*
X031684Y003929D01*
X031684Y003799D01*
X031684Y003886D02*
X031597Y003973D01*
X031597Y003799D02*
X031857Y003799D01*
X031857Y003929D01*
X031814Y003973D01*
X031819Y003633D02*
X031905Y003546D01*
X031905Y003589D02*
X031905Y003459D01*
X031819Y003459D02*
X032079Y003459D01*
X032079Y003589D01*
X032035Y003633D01*
X031949Y003633D01*
X031905Y003589D01*
X031862Y003338D02*
X031819Y003295D01*
X031819Y003208D01*
X031862Y003165D01*
X032035Y003338D01*
X031862Y003338D01*
X032035Y003338D02*
X032079Y003295D01*
X032079Y003208D01*
X032035Y003165D01*
X031862Y003165D01*
X031862Y003043D02*
X031819Y003000D01*
X031819Y002913D01*
X031862Y002870D01*
X031862Y002749D02*
X031819Y002705D01*
X031819Y002619D01*
X031862Y002575D01*
X031949Y002662D02*
X031949Y002705D01*
X031905Y002749D01*
X031862Y002749D01*
X031949Y002705D02*
X031992Y002749D01*
X032035Y002749D01*
X032079Y002705D01*
X032079Y002619D01*
X032035Y002575D01*
X032035Y002870D02*
X032079Y002913D01*
X032079Y003000D01*
X032035Y003043D01*
X031992Y003043D01*
X031949Y003000D01*
X031905Y003043D01*
X031862Y003043D01*
X031949Y003000D02*
X031949Y002957D01*
X031646Y003082D02*
X031646Y003275D01*
X031469Y003275D02*
X031469Y003082D01*
X031065Y003082D02*
X031065Y003275D01*
X030888Y003275D02*
X030888Y003082D01*
X030701Y003000D02*
X030657Y003043D01*
X030614Y003043D01*
X030571Y003000D01*
X030527Y003043D01*
X030484Y003043D01*
X030441Y003000D01*
X030441Y002913D01*
X030484Y002870D01*
X030484Y002749D02*
X030441Y002705D01*
X030441Y002619D01*
X030484Y002575D01*
X030571Y002662D02*
X030571Y002705D01*
X030527Y002749D01*
X030484Y002749D01*
X030571Y002705D02*
X030614Y002749D01*
X030657Y002749D01*
X030701Y002705D01*
X030701Y002619D01*
X030657Y002575D01*
X030785Y002363D02*
X030828Y002363D01*
X031002Y002536D01*
X031045Y002536D01*
X031045Y002363D01*
X031002Y002242D02*
X030959Y002242D01*
X030915Y002198D01*
X030872Y002242D01*
X030828Y002242D01*
X030785Y002198D01*
X030785Y002111D01*
X030828Y002068D01*
X030915Y002155D02*
X030915Y002198D01*
X031002Y002242D02*
X031045Y002198D01*
X031045Y002111D01*
X031002Y002068D01*
X031002Y001947D02*
X030915Y001947D01*
X030872Y001904D01*
X030872Y001773D01*
X030785Y001773D02*
X031045Y001773D01*
X031045Y001904D01*
X031002Y001947D01*
X030872Y001860D02*
X030785Y001947D01*
X030657Y002870D02*
X030701Y002913D01*
X030701Y003000D01*
X030571Y003000D02*
X030571Y002957D01*
X030484Y003165D02*
X030657Y003165D01*
X030701Y003208D01*
X030701Y003295D01*
X030657Y003338D01*
X030484Y003165D01*
X030441Y003208D01*
X030441Y003295D01*
X030484Y003338D01*
X030657Y003338D01*
X030701Y003459D02*
X030441Y003459D01*
X030527Y003459D02*
X030527Y003589D01*
X030571Y003633D01*
X030657Y003633D01*
X030701Y003589D01*
X030701Y003459D01*
X030527Y003546D02*
X030441Y003633D01*
X031597Y004432D02*
X031597Y004519D01*
X031641Y004562D01*
X031684Y004562D01*
X031727Y004519D01*
X031727Y004388D01*
X031641Y004388D01*
X031597Y004432D01*
X031727Y004388D02*
X031814Y004475D01*
X031857Y004562D01*
X031876Y005755D02*
X031702Y005755D01*
X031789Y005755D02*
X031789Y006015D01*
X031876Y005928D01*
X031581Y005972D02*
X031538Y006015D01*
X031451Y006015D01*
X031408Y005972D01*
X031581Y005798D01*
X031538Y005755D01*
X031451Y005755D01*
X031408Y005798D01*
X031408Y005972D01*
X031287Y005928D02*
X031156Y005928D01*
X031113Y005885D01*
X031113Y005755D01*
X031287Y005755D02*
X031287Y005928D01*
X031581Y005972D02*
X031581Y005798D01*
X032085Y006162D02*
X032085Y006199D01*
X032085Y006162D02*
X032723Y006162D01*
X032723Y006199D01*
X032723Y006516D02*
X032723Y006553D01*
X032723Y006890D02*
X032723Y006927D01*
X032723Y007245D02*
X032723Y007282D01*
X032085Y007282D01*
X032085Y007245D01*
X032085Y006927D02*
X032085Y006516D01*
X031488Y006458D02*
X031271Y006458D01*
X031228Y006501D01*
X031228Y006588D01*
X031271Y006631D01*
X031488Y006631D01*
X031488Y006752D02*
X031358Y006752D01*
X031401Y006839D01*
X031401Y006883D01*
X031358Y006926D01*
X031271Y006926D01*
X031228Y006883D01*
X031228Y006796D01*
X031271Y006752D01*
X031488Y006752D02*
X031488Y006926D01*
X031077Y008033D02*
X031163Y008119D01*
X030903Y008119D01*
X030903Y008033D02*
X030903Y008206D01*
X030947Y008327D02*
X030903Y008371D01*
X030903Y008501D01*
X031077Y008501D01*
X031077Y008327D02*
X030947Y008327D01*
X030278Y007917D02*
X030278Y007728D01*
X030231Y007681D01*
X030136Y007681D01*
X030089Y007728D01*
X029962Y007681D02*
X029962Y007964D01*
X029773Y007964D01*
X029646Y007917D02*
X029599Y007964D01*
X029505Y007964D01*
X029457Y007917D01*
X029457Y007869D01*
X029646Y007681D01*
X029457Y007681D01*
X029868Y007822D02*
X029962Y007822D01*
X030089Y007917D02*
X030136Y007964D01*
X030231Y007964D01*
X030278Y007917D01*
X029626Y008728D02*
X029438Y008728D01*
X029390Y008775D01*
X029390Y008870D01*
X029438Y008917D01*
X029390Y009044D02*
X029674Y009044D01*
X029674Y009233D01*
X029579Y009360D02*
X029674Y009454D01*
X029390Y009454D01*
X029390Y009360D02*
X029390Y009549D01*
X029363Y009705D02*
X029363Y009988D01*
X029458Y009893D01*
X029552Y009988D01*
X029552Y009705D01*
X029679Y009705D02*
X029868Y009705D01*
X029773Y009705D02*
X029773Y009988D01*
X029868Y009893D01*
X029677Y010366D02*
X029677Y010558D01*
X029501Y010558D02*
X029501Y010366D01*
X029287Y010503D02*
X029145Y010361D01*
X029145Y010550D01*
X029145Y010677D02*
X029145Y010866D01*
X029003Y010818D02*
X029287Y010818D01*
X029145Y010677D01*
X029003Y010503D02*
X029287Y010503D01*
X029239Y010234D02*
X029145Y010234D01*
X029098Y010187D01*
X029098Y010045D01*
X029003Y010045D02*
X029287Y010045D01*
X029287Y010187D01*
X029239Y010234D01*
X029098Y010140D02*
X029003Y010234D01*
X028590Y010738D02*
X028590Y011021D01*
X028448Y011021D01*
X028401Y010974D01*
X028401Y010880D01*
X028448Y010832D01*
X028590Y010832D01*
X028496Y010832D02*
X028401Y010738D01*
X028274Y010880D02*
X028085Y010880D01*
X028132Y011021D02*
X028274Y010880D01*
X028132Y010738D02*
X028132Y011021D01*
X027958Y010974D02*
X027911Y011021D01*
X027817Y011021D01*
X027769Y010974D01*
X027769Y010927D01*
X027958Y010738D01*
X027769Y010738D01*
X027327Y011172D02*
X027232Y011267D01*
X027279Y011267D01*
X027279Y011314D01*
X027232Y011314D01*
X027232Y011267D01*
X027454Y011267D02*
X027548Y011361D01*
X027501Y011361D02*
X027642Y011361D01*
X027642Y011267D02*
X027642Y011550D01*
X027501Y011550D01*
X027454Y011503D01*
X027454Y011408D01*
X027501Y011361D01*
X027769Y011314D02*
X027817Y011267D01*
X027911Y011267D01*
X027958Y011314D01*
X027769Y011503D01*
X027769Y011314D01*
X027769Y011503D02*
X027817Y011550D01*
X027911Y011550D01*
X027958Y011503D01*
X027958Y011314D01*
X028085Y011314D02*
X028132Y011267D01*
X028227Y011267D01*
X028274Y011314D01*
X028085Y011503D01*
X028085Y011314D01*
X028085Y011503D02*
X028132Y011550D01*
X028227Y011550D01*
X028274Y011503D01*
X028274Y011314D01*
X028401Y011314D02*
X028448Y011267D01*
X028543Y011267D01*
X028590Y011314D01*
X028496Y011408D02*
X028448Y011408D01*
X028401Y011361D01*
X028401Y011314D01*
X028448Y011408D02*
X028401Y011456D01*
X028401Y011503D01*
X028448Y011550D01*
X028543Y011550D01*
X028590Y011503D01*
X028543Y011857D02*
X028590Y011905D01*
X028543Y011857D02*
X028448Y011857D01*
X028401Y011905D01*
X028401Y011952D01*
X028448Y011999D01*
X028496Y011999D01*
X028448Y011999D02*
X028401Y012046D01*
X028401Y012093D01*
X028448Y012141D01*
X028543Y012141D01*
X028590Y012093D01*
X028274Y012093D02*
X028227Y012141D01*
X028132Y012141D01*
X028085Y012093D01*
X028274Y011905D01*
X028227Y011857D01*
X028132Y011857D01*
X028085Y011905D01*
X028085Y012093D01*
X027958Y012093D02*
X027911Y012141D01*
X027817Y012141D01*
X027769Y012093D01*
X027958Y011905D01*
X027911Y011857D01*
X027817Y011857D01*
X027769Y011905D01*
X027769Y012093D01*
X027642Y012141D02*
X027501Y012141D01*
X027454Y012093D01*
X027454Y011999D01*
X027501Y011952D01*
X027642Y011952D01*
X027548Y011952D02*
X027454Y011857D01*
X027327Y011763D02*
X027232Y011857D01*
X027279Y011857D01*
X027279Y011905D01*
X027232Y011905D01*
X027232Y011857D01*
X027642Y011857D02*
X027642Y012141D01*
X027769Y012417D02*
X027958Y012417D01*
X027864Y012417D02*
X027864Y012700D01*
X027958Y012606D01*
X028085Y012558D02*
X028274Y012558D01*
X028132Y012700D01*
X028132Y012417D01*
X028401Y012417D02*
X028496Y012511D01*
X028448Y012511D02*
X028590Y012511D01*
X028590Y012417D02*
X028590Y012700D01*
X028448Y012700D01*
X028401Y012653D01*
X028401Y012558D01*
X028448Y012511D01*
X028274Y012093D02*
X028274Y011905D01*
X027958Y011905D02*
X027958Y012093D01*
X029084Y012177D02*
X029424Y012177D01*
X029424Y011897D02*
X029084Y011897D01*
X029084Y011390D02*
X029424Y011390D01*
X029424Y011109D02*
X029084Y011109D01*
X030339Y011260D02*
X030532Y011260D01*
X030532Y011436D02*
X030339Y011436D01*
X030339Y011850D02*
X030532Y011850D01*
X030532Y012027D02*
X030339Y012027D01*
X030401Y012216D02*
X030590Y012216D01*
X030590Y012499D01*
X030274Y012452D02*
X030227Y012499D01*
X030133Y012499D01*
X030085Y012452D01*
X030085Y012405D01*
X030133Y012358D01*
X030085Y012310D01*
X030085Y012263D01*
X030133Y012216D01*
X030227Y012216D01*
X030274Y012263D01*
X030180Y012358D02*
X030133Y012358D01*
X029677Y012728D02*
X029677Y012921D01*
X029501Y012921D02*
X029501Y012728D01*
X029277Y012903D02*
X029089Y012903D01*
X029183Y012903D02*
X029183Y013187D01*
X029277Y013092D01*
X028962Y013187D02*
X028867Y013092D01*
X028773Y013187D01*
X028773Y012903D01*
X028962Y012903D02*
X028962Y013187D01*
X028787Y013580D02*
X028834Y013627D01*
X028787Y013580D02*
X028693Y013580D01*
X028646Y013627D01*
X028646Y013674D01*
X028693Y013721D01*
X028740Y013721D01*
X028693Y013721D02*
X028646Y013769D01*
X028646Y013816D01*
X028693Y013863D01*
X028787Y013863D01*
X028834Y013816D01*
X028519Y013863D02*
X028519Y013580D01*
X028519Y013674D02*
X028377Y013769D01*
X028255Y013816D02*
X028208Y013863D01*
X028114Y013863D01*
X028067Y013816D01*
X028067Y013769D01*
X028114Y013721D01*
X028067Y013674D01*
X028067Y013627D01*
X028114Y013580D01*
X028208Y013580D01*
X028255Y013627D01*
X028377Y013580D02*
X028519Y013674D01*
X028161Y013721D02*
X028114Y013721D01*
X027908Y013729D02*
X027908Y013635D01*
X027861Y013587D01*
X027908Y013729D02*
X027861Y013776D01*
X027814Y013776D01*
X027625Y013587D01*
X027625Y013776D01*
X027625Y013903D02*
X027908Y013903D01*
X027814Y014045D02*
X027719Y013903D01*
X027625Y014045D01*
X027625Y014166D02*
X027814Y014355D01*
X027861Y014355D01*
X027908Y014308D01*
X027908Y014214D01*
X027861Y014166D01*
X027625Y014166D02*
X027625Y014355D01*
X027423Y014102D02*
X027423Y013909D01*
X027247Y013909D02*
X027247Y014102D01*
X027054Y014041D02*
X026913Y013900D01*
X026913Y014089D01*
X026913Y014216D02*
X026913Y014357D01*
X026866Y014404D01*
X026818Y014404D01*
X026771Y014357D01*
X026771Y014263D01*
X026818Y014216D01*
X026913Y014216D01*
X027007Y014310D01*
X027054Y014404D01*
X027054Y014041D02*
X026771Y014041D01*
X026771Y013773D02*
X026866Y013678D01*
X026866Y013726D02*
X026866Y013584D01*
X026771Y013584D02*
X027054Y013584D01*
X027054Y013726D01*
X027007Y013773D01*
X026913Y013773D01*
X026866Y013726D01*
X025205Y012501D02*
X025161Y012545D01*
X024988Y012371D01*
X024944Y012415D01*
X024944Y012501D01*
X024988Y012545D01*
X025161Y012545D01*
X025205Y012501D02*
X025205Y012415D01*
X025161Y012371D01*
X024988Y012371D01*
X024988Y012250D02*
X024944Y012207D01*
X024944Y012120D01*
X024988Y012077D01*
X025161Y012250D01*
X024988Y012250D01*
X025161Y012250D02*
X025205Y012207D01*
X025205Y012120D01*
X025161Y012077D01*
X024988Y012077D01*
X024944Y011955D02*
X024944Y011782D01*
X024944Y011869D02*
X025205Y011869D01*
X025118Y011782D01*
X025775Y011857D02*
X025822Y011857D01*
X025822Y011905D01*
X025775Y011905D01*
X025775Y011857D01*
X026011Y011857D02*
X025775Y012141D01*
X025964Y012141D02*
X025964Y012093D01*
X026011Y012093D01*
X026011Y012141D01*
X025964Y012141D01*
X026232Y012141D02*
X026232Y011857D01*
X026138Y011857D02*
X026327Y011857D01*
X026437Y011857D02*
X026437Y011905D01*
X026484Y011905D01*
X026484Y011857D01*
X026437Y011857D01*
X026611Y011905D02*
X026659Y011857D01*
X026753Y011857D01*
X026800Y011905D01*
X026611Y012093D01*
X026611Y011905D01*
X026611Y012093D02*
X026659Y012141D01*
X026753Y012141D01*
X026800Y012093D01*
X026800Y011905D01*
X026753Y011550D02*
X026659Y011550D01*
X026611Y011503D01*
X026800Y011314D01*
X026753Y011267D01*
X026659Y011267D01*
X026611Y011314D01*
X026611Y011503D01*
X026753Y011550D02*
X026800Y011503D01*
X026800Y011314D01*
X026484Y011314D02*
X026437Y011314D01*
X026437Y011267D01*
X026484Y011267D01*
X026484Y011314D01*
X026327Y011267D02*
X026138Y011267D01*
X026232Y011267D02*
X026232Y011550D01*
X026327Y011456D01*
X026011Y011503D02*
X026011Y011550D01*
X025964Y011550D01*
X025964Y011503D01*
X026011Y011503D01*
X026011Y011267D02*
X025775Y011550D01*
X025775Y011314D02*
X025775Y011267D01*
X025822Y011267D01*
X025822Y011314D01*
X025775Y011314D01*
X026327Y012046D02*
X026232Y012141D01*
X025118Y012666D02*
X025118Y012796D01*
X025075Y012839D01*
X024944Y012839D01*
X024944Y012666D02*
X025118Y012666D01*
X023902Y012599D02*
X023902Y012512D01*
X023858Y012469D01*
X023685Y012469D01*
X023858Y012642D01*
X023685Y012642D01*
X023641Y012599D01*
X023641Y012512D01*
X023685Y012469D01*
X023685Y012348D02*
X023641Y012304D01*
X023641Y012218D01*
X023685Y012174D01*
X023685Y012053D02*
X023641Y012010D01*
X023641Y011923D01*
X023685Y011880D01*
X023858Y011880D01*
X023902Y011923D01*
X023902Y012010D01*
X023858Y012053D01*
X023858Y012174D02*
X023902Y012218D01*
X023902Y012304D01*
X023858Y012348D01*
X023815Y012348D01*
X023771Y012304D01*
X023728Y012348D01*
X023685Y012348D01*
X023771Y012304D02*
X023771Y012261D01*
X023902Y012599D02*
X023858Y012642D01*
X021341Y011024D02*
X021081Y011024D01*
X021081Y010938D02*
X021081Y011111D01*
X021254Y010938D02*
X021341Y011024D01*
X021341Y010817D02*
X021298Y010817D01*
X021211Y010730D01*
X021081Y010730D01*
X021211Y010730D02*
X021298Y010643D01*
X021341Y010643D01*
X018701Y010567D02*
X018614Y010654D01*
X018614Y010394D01*
X018701Y010394D02*
X018527Y010394D01*
X018406Y010437D02*
X018232Y010610D01*
X018232Y010437D01*
X018276Y010394D01*
X018363Y010394D01*
X018406Y010437D01*
X018406Y010610D01*
X018363Y010654D01*
X018276Y010654D01*
X018232Y010610D01*
X018111Y010610D02*
X018068Y010654D01*
X017981Y010654D01*
X017938Y010610D01*
X018111Y010437D01*
X018068Y010394D01*
X017981Y010394D01*
X017938Y010437D01*
X017938Y010610D01*
X017817Y010567D02*
X017686Y010567D01*
X017643Y010524D01*
X017643Y010394D01*
X017817Y010394D02*
X017817Y010567D01*
X018111Y010610D02*
X018111Y010437D01*
X018126Y012657D02*
X018300Y012657D01*
X018126Y012831D01*
X018126Y012874D01*
X018169Y012918D01*
X018256Y012918D01*
X018300Y012874D01*
X018421Y012874D02*
X018464Y012918D01*
X018551Y012918D01*
X018594Y012874D01*
X018594Y012701D01*
X018551Y012657D01*
X018464Y012657D01*
X018421Y012701D01*
X018005Y012701D02*
X018005Y012657D01*
X018005Y012701D02*
X017831Y012874D01*
X017831Y012918D01*
X018005Y012918D01*
X015838Y014472D02*
X015795Y014429D01*
X015708Y014429D01*
X015665Y014472D01*
X015665Y014516D01*
X015708Y014559D01*
X015795Y014559D01*
X015838Y014602D01*
X015838Y014646D01*
X015795Y014689D01*
X015708Y014689D01*
X015665Y014646D01*
X015544Y014689D02*
X015457Y014602D01*
X015370Y014689D01*
X015370Y014429D01*
X015544Y014429D02*
X015544Y014689D01*
X015249Y014559D02*
X015076Y014559D01*
X015119Y014429D02*
X015119Y014689D01*
X015249Y014559D01*
X014954Y014472D02*
X014781Y014646D01*
X014781Y014472D01*
X014824Y014429D01*
X014911Y014429D01*
X014954Y014472D01*
X014954Y014646D01*
X014911Y014689D01*
X014824Y014689D01*
X014781Y014646D01*
X014660Y014646D02*
X014616Y014689D01*
X014530Y014689D01*
X014486Y014646D01*
X014660Y014472D01*
X014616Y014429D01*
X014530Y014429D01*
X014486Y014472D01*
X014486Y014646D01*
X014365Y014559D02*
X014235Y014689D01*
X014235Y014429D01*
X014192Y014559D02*
X014365Y014559D01*
X014660Y014472D02*
X014660Y014646D01*
X014823Y015689D02*
X014910Y015689D01*
X014953Y015732D01*
X014953Y015819D02*
X014866Y015862D01*
X014823Y015862D01*
X014780Y015819D01*
X014780Y015732D01*
X014823Y015689D01*
X014953Y015819D02*
X014953Y015949D01*
X014780Y015949D01*
X015074Y015906D02*
X015118Y015949D01*
X015248Y015949D01*
X015248Y015689D01*
X015118Y015689D01*
X015074Y015732D01*
X015074Y015906D01*
X015057Y017447D02*
X015317Y017447D01*
X015230Y017534D01*
X015317Y017621D01*
X015057Y017621D01*
X015057Y017742D02*
X015317Y017742D01*
X015230Y017829D01*
X015317Y017915D01*
X015057Y017915D01*
X015057Y018036D02*
X015057Y018167D01*
X015100Y018210D01*
X015143Y018210D01*
X015187Y018167D01*
X015187Y018036D01*
X015317Y018036D02*
X015317Y018167D01*
X015274Y018210D01*
X015230Y018210D01*
X015187Y018167D01*
X015187Y018331D02*
X015187Y018418D01*
X015317Y018331D02*
X015317Y018505D01*
X015230Y018626D02*
X015317Y018713D01*
X015057Y018713D01*
X015057Y018799D02*
X015057Y018626D01*
X015057Y018920D02*
X015100Y018920D01*
X015274Y019094D01*
X015317Y019094D01*
X015317Y018920D01*
X015274Y019215D02*
X015317Y019258D01*
X015317Y019345D01*
X015274Y019389D01*
X015100Y019215D01*
X015057Y019258D01*
X015057Y019345D01*
X015100Y019389D01*
X015274Y019389D01*
X015274Y019215D02*
X015100Y019215D01*
X014497Y019285D02*
X014453Y019328D01*
X014366Y019328D01*
X014323Y019285D01*
X014323Y019111D01*
X014366Y019068D01*
X014453Y019068D01*
X014497Y019111D01*
X014497Y019285D01*
X014410Y019154D02*
X014323Y019068D01*
X014202Y019068D02*
X014028Y019241D01*
X014028Y019285D01*
X014072Y019328D01*
X014159Y019328D01*
X014202Y019285D01*
X014202Y019068D02*
X014028Y019068D01*
X014170Y018896D02*
X013837Y018896D01*
X013837Y018595D01*
X013837Y018896D02*
X013837Y017776D01*
X013837Y018087D01*
X013837Y017776D02*
X014170Y017776D01*
X014357Y017776D02*
X014357Y018896D01*
X013837Y018896D01*
X013837Y017776D02*
X014357Y017776D01*
X015057Y018036D02*
X015317Y018036D01*
X015317Y018331D02*
X015057Y018331D01*
X016156Y019975D02*
X016156Y020105D01*
X016200Y020149D01*
X016330Y020149D01*
X016330Y019975D01*
X016451Y020019D02*
X016494Y019975D01*
X016581Y019975D01*
X016625Y020019D01*
X016451Y020192D01*
X016451Y020019D01*
X016451Y020192D02*
X016494Y020235D01*
X016581Y020235D01*
X016625Y020192D01*
X016625Y020019D01*
X016746Y020019D02*
X016789Y019975D01*
X016876Y019975D01*
X016919Y020019D01*
X016746Y020192D01*
X016746Y020019D01*
X016746Y020192D02*
X016789Y020235D01*
X016876Y020235D01*
X016919Y020192D01*
X016919Y020019D01*
X017040Y019975D02*
X017214Y019975D01*
X017127Y019975D02*
X017127Y020235D01*
X017214Y020149D01*
X017670Y020516D02*
X017670Y020602D01*
X017713Y020646D01*
X017713Y020767D02*
X017670Y020810D01*
X017670Y020897D01*
X017713Y020940D01*
X017757Y020940D01*
X017800Y020897D01*
X017800Y020767D01*
X017713Y020767D01*
X017800Y020767D02*
X017887Y020854D01*
X017930Y020940D01*
X017887Y020646D02*
X017930Y020602D01*
X017930Y020516D01*
X017887Y020472D01*
X017713Y020472D01*
X017670Y020516D01*
X016230Y023263D02*
X016056Y023263D01*
X016056Y023436D02*
X016056Y023479D01*
X016099Y023523D01*
X016186Y023523D01*
X016230Y023479D01*
X016056Y023436D02*
X016230Y023263D01*
X015935Y023393D02*
X015805Y023523D01*
X015805Y023263D01*
X015761Y023393D02*
X015935Y023393D01*
X015640Y023479D02*
X015597Y023523D01*
X015510Y023523D01*
X015467Y023479D01*
X015640Y023306D01*
X015597Y023263D01*
X015510Y023263D01*
X015467Y023306D01*
X015467Y023479D01*
X015346Y023523D02*
X015215Y023523D01*
X015172Y023479D01*
X015172Y023393D01*
X015215Y023349D01*
X015346Y023349D01*
X015346Y023263D02*
X015346Y023523D01*
X015259Y023349D02*
X015172Y023263D01*
X015640Y023306D02*
X015640Y023479D01*
X015501Y023708D02*
X015842Y023708D01*
X015842Y023988D02*
X015501Y023988D01*
X016292Y023976D02*
X016335Y023976D01*
X016509Y024149D01*
X016552Y024149D01*
X016552Y023976D01*
X016509Y023854D02*
X016422Y023854D01*
X016379Y023811D01*
X016379Y023681D01*
X016379Y023768D02*
X016292Y023854D01*
X016292Y023681D02*
X016552Y023681D01*
X016552Y023811D01*
X016509Y023854D01*
X015888Y025256D02*
X015757Y025256D01*
X015714Y025299D01*
X015714Y025473D01*
X015757Y025516D01*
X015888Y025516D01*
X015888Y025256D01*
X015593Y025299D02*
X015550Y025256D01*
X015463Y025256D01*
X015419Y025299D01*
X015419Y025343D01*
X015463Y025386D01*
X015506Y025386D01*
X015463Y025386D02*
X015419Y025429D01*
X015419Y025473D01*
X015463Y025516D01*
X015550Y025516D01*
X015593Y025473D01*
X014657Y025583D02*
X014527Y025453D01*
X014527Y025627D01*
X014397Y025583D02*
X014657Y025583D01*
X014614Y025332D02*
X014441Y025159D01*
X014397Y025202D01*
X014397Y025289D01*
X014441Y025332D01*
X014614Y025332D01*
X014657Y025289D01*
X014657Y025202D01*
X014614Y025159D01*
X014441Y025159D01*
X014441Y025037D02*
X014397Y024994D01*
X014397Y024907D01*
X014441Y024864D01*
X014614Y025037D01*
X014441Y025037D01*
X014441Y024864D02*
X014614Y024864D01*
X014657Y024907D01*
X014657Y024994D01*
X014614Y025037D01*
X014527Y024743D02*
X014527Y024569D01*
X014657Y024699D01*
X014397Y024699D01*
X014397Y024448D02*
X014657Y024448D01*
X014571Y024361D01*
X014657Y024275D01*
X014397Y024275D01*
X014441Y024153D02*
X014397Y024110D01*
X014397Y024023D01*
X014441Y023980D01*
X014527Y024023D02*
X014527Y024110D01*
X014484Y024153D01*
X014441Y024153D01*
X014527Y024023D02*
X014571Y023980D01*
X014614Y023980D01*
X014657Y024023D01*
X014657Y024110D01*
X014614Y024153D01*
X013628Y025684D02*
X013541Y025684D01*
X013498Y025727D01*
X013376Y025684D02*
X013203Y025684D01*
X013290Y025684D02*
X013290Y025944D01*
X013376Y025857D01*
X013498Y025901D02*
X013541Y025944D01*
X013628Y025944D01*
X013671Y025901D01*
X013671Y025727D01*
X013628Y025684D01*
X013082Y025727D02*
X013082Y025901D01*
X013038Y025944D01*
X012952Y025944D01*
X012908Y025901D01*
X013082Y025727D01*
X013038Y025684D01*
X012952Y025684D01*
X012908Y025727D01*
X012908Y025901D01*
X012002Y025377D02*
X009498Y025377D01*
X009498Y021934D01*
X011799Y021934D01*
X011799Y025338D01*
X012002Y025377D02*
X012002Y021934D01*
X011799Y021934D01*
X012916Y021908D02*
X012916Y021995D01*
X012960Y022038D01*
X013133Y022038D01*
X013176Y021995D01*
X013176Y021908D01*
X013133Y021865D01*
X013090Y021865D01*
X013046Y021908D01*
X013046Y022038D01*
X012916Y021908D02*
X012960Y021865D01*
X012916Y021744D02*
X012916Y021570D01*
X012916Y021657D02*
X013176Y021657D01*
X013090Y021570D01*
X013133Y021449D02*
X013046Y021449D01*
X013003Y021405D01*
X013003Y021275D01*
X012916Y021275D02*
X013176Y021275D01*
X013176Y021405D01*
X013133Y021449D01*
X013003Y021362D02*
X012916Y021449D01*
X013418Y021783D02*
X013418Y021976D01*
X013594Y021976D02*
X013594Y021783D01*
X013807Y021865D02*
X014067Y021865D01*
X014067Y021995D01*
X014024Y022038D01*
X013937Y022038D01*
X013893Y021995D01*
X013893Y021865D01*
X013893Y021951D02*
X013807Y022038D01*
X013850Y021744D02*
X013807Y021700D01*
X013807Y021613D01*
X013850Y021570D01*
X014024Y021744D01*
X013850Y021744D01*
X014024Y021744D02*
X014067Y021700D01*
X014067Y021613D01*
X014024Y021570D01*
X013850Y021570D01*
X013850Y021449D02*
X013807Y021405D01*
X013807Y021319D01*
X013850Y021275D01*
X014024Y021449D01*
X013850Y021449D01*
X014024Y021449D02*
X014067Y021405D01*
X014067Y021319D01*
X014024Y021275D01*
X013850Y021275D01*
X013850Y021154D02*
X013807Y021111D01*
X013807Y021024D01*
X013850Y020981D01*
X013937Y020981D02*
X013980Y021067D01*
X013980Y021111D01*
X013937Y021154D01*
X013850Y021154D01*
X013937Y020981D02*
X014067Y020981D01*
X014067Y021154D01*
X010850Y020896D02*
X010807Y020810D01*
X010720Y020723D01*
X010720Y020853D01*
X010676Y020896D01*
X010633Y020896D01*
X010590Y020853D01*
X010590Y020766D01*
X010633Y020723D01*
X010720Y020723D01*
X010720Y020602D02*
X010676Y020558D01*
X010676Y020428D01*
X010590Y020428D02*
X010850Y020428D01*
X010850Y020558D01*
X010807Y020602D01*
X010720Y020602D01*
X010676Y020515D02*
X010590Y020602D01*
X010410Y020537D02*
X010410Y020860D01*
X009910Y020860D02*
X009910Y020537D01*
X009693Y020784D02*
X009736Y020828D01*
X009736Y020914D01*
X009693Y020958D01*
X009519Y020784D01*
X009476Y020828D01*
X009476Y020914D01*
X009519Y020958D01*
X009693Y020958D01*
X009693Y020784D02*
X009519Y020784D01*
X009519Y021079D02*
X009519Y021122D01*
X009476Y021122D01*
X009476Y021079D01*
X009519Y021079D01*
X009519Y021226D02*
X009476Y021270D01*
X009476Y021356D01*
X009519Y021400D01*
X009606Y021400D01*
X009649Y021356D01*
X009649Y021313D01*
X009606Y021226D01*
X009736Y021226D01*
X009736Y021400D01*
X009736Y021521D02*
X009476Y021521D01*
X009563Y021608D01*
X009476Y021694D01*
X009736Y021694D01*
X009519Y020380D02*
X009519Y020337D01*
X009476Y020337D01*
X009476Y020380D01*
X009519Y020380D01*
X009476Y020380D02*
X009389Y020293D01*
X009476Y020172D02*
X009563Y020085D01*
X009563Y020129D02*
X009563Y019999D01*
X009476Y019999D02*
X009736Y019999D01*
X009736Y020129D01*
X009693Y020172D01*
X009606Y020172D01*
X009563Y020129D01*
X009519Y019877D02*
X009476Y019834D01*
X009476Y019747D01*
X009519Y019704D01*
X009693Y019877D01*
X009519Y019877D01*
X009519Y019704D02*
X009693Y019704D01*
X009736Y019747D01*
X009736Y019834D01*
X009693Y019877D01*
X009693Y019583D02*
X009649Y019583D01*
X009606Y019539D01*
X009563Y019583D01*
X009519Y019583D01*
X009476Y019539D01*
X009476Y019453D01*
X009519Y019409D01*
X009519Y019288D02*
X009476Y019245D01*
X009476Y019158D01*
X009519Y019115D01*
X009606Y019201D02*
X009606Y019245D01*
X009563Y019288D01*
X009519Y019288D01*
X009606Y019245D02*
X009649Y019288D01*
X009693Y019288D01*
X009736Y019245D01*
X009736Y019158D01*
X009693Y019115D01*
X009693Y019409D02*
X009736Y019453D01*
X009736Y019539D01*
X009693Y019583D01*
X009606Y019539D02*
X009606Y019496D01*
X006783Y019502D02*
X006783Y019589D01*
X006740Y019632D01*
X006697Y019632D01*
X006653Y019589D01*
X006610Y019632D01*
X006567Y019632D01*
X006523Y019589D01*
X006523Y019502D01*
X006567Y019459D01*
X006567Y019337D02*
X006523Y019294D01*
X006523Y019207D01*
X006567Y019164D01*
X006653Y019251D02*
X006653Y019294D01*
X006610Y019337D01*
X006567Y019337D01*
X006653Y019294D02*
X006697Y019337D01*
X006740Y019337D01*
X006783Y019294D01*
X006783Y019207D01*
X006740Y019164D01*
X006740Y019459D02*
X006783Y019502D01*
X006653Y019545D02*
X006653Y019589D01*
X006567Y019753D02*
X006740Y019927D01*
X006567Y019927D01*
X006523Y019883D01*
X006523Y019797D01*
X006567Y019753D01*
X006740Y019753D01*
X006783Y019797D01*
X006783Y019883D01*
X006740Y019927D01*
X006783Y020048D02*
X006523Y020048D01*
X006610Y020048D02*
X006610Y020178D01*
X006653Y020221D01*
X006740Y020221D01*
X006783Y020178D01*
X006783Y020048D01*
X006610Y020135D02*
X006523Y020221D01*
X006436Y020342D02*
X006523Y020429D01*
X006523Y020386D01*
X006567Y020386D01*
X006567Y020429D01*
X006523Y020429D01*
X006276Y020340D02*
X006276Y020663D01*
X006523Y020877D02*
X006567Y020834D01*
X006740Y021007D01*
X006567Y021007D01*
X006523Y020964D01*
X006523Y020877D01*
X006567Y020834D02*
X006740Y020834D01*
X006783Y020877D01*
X006783Y020964D01*
X006740Y021007D01*
X006567Y021128D02*
X006567Y021172D01*
X006523Y021172D01*
X006523Y021128D01*
X006567Y021128D01*
X006567Y021276D02*
X006523Y021319D01*
X006523Y021406D01*
X006567Y021449D01*
X006653Y021449D01*
X006697Y021406D01*
X006697Y021362D01*
X006653Y021276D01*
X006783Y021276D01*
X006783Y021449D01*
X006783Y021570D02*
X006523Y021570D01*
X006610Y021657D01*
X006523Y021744D01*
X006783Y021744D01*
X005596Y020710D02*
X005596Y020537D01*
X005466Y020537D01*
X005509Y020623D01*
X005509Y020667D01*
X005466Y020710D01*
X005379Y020710D01*
X005336Y020667D01*
X005336Y020580D01*
X005379Y020537D01*
X005336Y020416D02*
X005423Y020329D01*
X005423Y020372D02*
X005423Y020242D01*
X005336Y020242D02*
X005596Y020242D01*
X005596Y020372D01*
X005553Y020416D01*
X005466Y020416D01*
X005423Y020372D01*
X005776Y020340D02*
X005776Y020663D01*
X008296Y023415D02*
X008253Y023459D01*
X008253Y023545D01*
X008296Y023589D01*
X008513Y023589D01*
X008426Y023710D02*
X008513Y023797D01*
X008253Y023797D01*
X008253Y023883D02*
X008253Y023710D01*
X008296Y024005D02*
X008470Y024178D01*
X008296Y024178D01*
X008253Y024135D01*
X008253Y024048D01*
X008296Y024005D01*
X008470Y024005D01*
X008513Y024048D01*
X008513Y024135D01*
X008470Y024178D01*
X008513Y023415D02*
X008296Y023415D01*
X013026Y027298D02*
X013026Y027471D01*
X013026Y027298D02*
X013157Y027298D01*
X013200Y027341D01*
X013200Y027471D01*
X013321Y027298D02*
X013495Y027298D01*
X013408Y027298D02*
X013408Y027558D01*
X013495Y027471D01*
X016410Y029173D02*
X016453Y029130D01*
X016540Y029130D01*
X016583Y029173D01*
X016540Y029260D02*
X016410Y029260D01*
X016410Y029347D02*
X016453Y029390D01*
X016540Y029390D01*
X016583Y029347D01*
X016583Y029303D01*
X016540Y029260D01*
X016410Y029173D02*
X016410Y029347D01*
X016704Y029347D02*
X016748Y029390D01*
X016834Y029390D01*
X016878Y029347D01*
X016878Y029173D01*
X016834Y029130D01*
X016748Y029130D01*
X016704Y029173D01*
X017106Y029858D02*
X016206Y029858D01*
X015607Y030445D02*
X015347Y030445D01*
X015347Y030358D02*
X015347Y030532D01*
X015391Y030653D02*
X015564Y030826D01*
X015391Y030826D01*
X015347Y030783D01*
X015347Y030696D01*
X015391Y030653D01*
X015564Y030653D01*
X015607Y030696D01*
X015607Y030783D01*
X015564Y030826D01*
X015521Y030947D02*
X015391Y030947D01*
X015347Y030991D01*
X015347Y031121D01*
X015521Y031121D01*
X015607Y030445D02*
X015521Y030358D01*
X016206Y032798D02*
X017106Y032798D01*
X018464Y025725D02*
X018464Y025552D01*
X018594Y025682D01*
X018334Y025682D01*
X018378Y025431D02*
X018334Y025387D01*
X018334Y025300D01*
X018378Y025257D01*
X018551Y025431D01*
X018378Y025431D01*
X018551Y025431D02*
X018594Y025387D01*
X018594Y025300D01*
X018551Y025257D01*
X018378Y025257D01*
X018378Y025136D02*
X018334Y025092D01*
X018334Y025006D01*
X018378Y024962D01*
X018551Y025136D01*
X018378Y025136D01*
X018551Y025136D02*
X018594Y025092D01*
X018594Y025006D01*
X018551Y024962D01*
X018378Y024962D01*
X018464Y024841D02*
X018464Y024668D01*
X018594Y024798D01*
X018334Y024798D01*
X018334Y024547D02*
X018594Y024547D01*
X018508Y024460D01*
X018594Y024373D01*
X018334Y024373D01*
X018378Y024252D02*
X018334Y024209D01*
X018334Y024122D01*
X018378Y024078D01*
X018464Y024122D02*
X018464Y024209D01*
X018421Y024252D01*
X018378Y024252D01*
X018464Y024122D02*
X018508Y024078D01*
X018551Y024078D01*
X018594Y024122D01*
X018594Y024209D01*
X018551Y024252D01*
X017659Y025256D02*
X017529Y025256D01*
X017486Y025299D01*
X017486Y025473D01*
X017529Y025516D01*
X017659Y025516D01*
X017659Y025256D01*
X017365Y025256D02*
X017191Y025429D01*
X017191Y025473D01*
X017234Y025516D01*
X017321Y025516D01*
X017365Y025473D01*
X017365Y025256D02*
X017191Y025256D01*
X022508Y021645D02*
X022508Y021385D01*
X022508Y021515D02*
X022681Y021515D01*
X022802Y021558D02*
X022802Y021385D01*
X022932Y021385D01*
X022976Y021428D01*
X022976Y021558D01*
X023097Y021601D02*
X023271Y021428D01*
X023227Y021385D01*
X023140Y021385D01*
X023097Y021428D01*
X023097Y021601D01*
X023140Y021645D01*
X023227Y021645D01*
X023271Y021601D01*
X023271Y021428D01*
X023392Y021385D02*
X023565Y021385D01*
X023478Y021385D02*
X023478Y021645D01*
X023565Y021558D01*
X024139Y021433D02*
X024139Y021303D01*
X024139Y021433D02*
X024183Y021477D01*
X024313Y021477D01*
X024313Y021303D01*
X024434Y021346D02*
X024434Y021520D01*
X024607Y021346D01*
X024564Y021303D01*
X024477Y021303D01*
X024434Y021346D01*
X024607Y021346D02*
X024607Y021520D01*
X024564Y021563D01*
X024477Y021563D01*
X024434Y021520D01*
X024728Y021520D02*
X024902Y021346D01*
X024859Y021303D01*
X024772Y021303D01*
X024728Y021346D01*
X024728Y021520D01*
X024772Y021563D01*
X024859Y021563D01*
X024902Y021520D01*
X024902Y021346D01*
X025023Y021303D02*
X025197Y021303D01*
X025110Y021303D02*
X025110Y021563D01*
X025197Y021477D01*
X025810Y021464D02*
X025810Y021244D01*
X026990Y021244D01*
X026990Y021924D01*
X025810Y021924D01*
X025810Y021704D01*
X025810Y021464D01*
X025831Y021466D01*
X025851Y021471D01*
X025870Y021480D01*
X025887Y021492D01*
X025902Y021507D01*
X025914Y021524D01*
X025923Y021543D01*
X025928Y021563D01*
X025930Y021584D01*
X025928Y021605D01*
X025923Y021625D01*
X025914Y021644D01*
X025902Y021661D01*
X025887Y021676D01*
X025870Y021688D01*
X025851Y021697D01*
X025831Y021702D01*
X025810Y021704D01*
X025930Y021924D02*
X025930Y022174D01*
X026130Y022174D01*
X026130Y021924D01*
X025930Y021924D01*
X025760Y021984D02*
X025760Y021184D01*
X025930Y021244D02*
X025930Y020994D01*
X026130Y020994D01*
X026130Y021244D01*
X025930Y021244D01*
X026300Y021244D02*
X026300Y020994D01*
X026500Y020994D01*
X026500Y021244D01*
X026300Y021244D01*
X026670Y021244D02*
X026670Y020994D01*
X026870Y020994D01*
X026870Y021244D01*
X026670Y021244D01*
X027040Y021184D02*
X027040Y021984D01*
X026870Y021924D02*
X026870Y022174D01*
X026670Y022174D01*
X026670Y021924D01*
X026870Y021924D01*
X027185Y021851D02*
X027229Y021894D01*
X027446Y021894D01*
X027446Y021721D02*
X027229Y021721D01*
X027185Y021764D01*
X027185Y021851D01*
X027316Y022015D02*
X027316Y022189D01*
X027446Y022145D02*
X027316Y022015D01*
X027446Y022145D02*
X027185Y022145D01*
X026500Y022174D02*
X026500Y021924D01*
X026300Y021924D01*
X026300Y022174D01*
X026500Y022174D01*
X025098Y022650D02*
X025055Y022606D01*
X024968Y022606D01*
X024925Y022650D01*
X024804Y022606D02*
X024630Y022780D01*
X024630Y022823D01*
X024673Y022866D01*
X024760Y022866D01*
X024804Y022823D01*
X024925Y022823D02*
X024968Y022866D01*
X025055Y022866D01*
X025098Y022823D01*
X025098Y022650D01*
X024804Y022606D02*
X024630Y022606D01*
X024509Y022650D02*
X024466Y022606D01*
X024379Y022606D01*
X024335Y022650D01*
X024335Y022823D01*
X024379Y022866D01*
X024466Y022866D01*
X024509Y022823D01*
X024509Y022780D01*
X024466Y022736D01*
X024335Y022736D01*
X023465Y022768D02*
X023465Y022508D01*
X023291Y022508D01*
X023170Y022551D02*
X023127Y022508D01*
X023040Y022508D01*
X022997Y022551D01*
X022997Y022638D01*
X023040Y022681D01*
X023083Y022681D01*
X023170Y022638D01*
X023170Y022768D01*
X022997Y022768D01*
X022681Y021645D02*
X022681Y021385D01*
X026198Y019628D02*
X026198Y019498D01*
X026198Y019628D02*
X026242Y019671D01*
X026372Y019671D01*
X026372Y019498D01*
X026493Y019541D02*
X026536Y019498D01*
X026623Y019498D01*
X026666Y019541D01*
X026493Y019715D01*
X026493Y019541D01*
X026666Y019541D02*
X026666Y019715D01*
X026623Y019758D01*
X026536Y019758D01*
X026493Y019715D01*
X026788Y019715D02*
X026961Y019541D01*
X026918Y019498D01*
X026831Y019498D01*
X026788Y019541D01*
X026788Y019715D01*
X026831Y019758D01*
X026918Y019758D01*
X026961Y019715D01*
X026961Y019541D01*
X027082Y019498D02*
X027256Y019498D01*
X027169Y019498D02*
X027169Y019758D01*
X027256Y019671D01*
X027280Y019414D02*
X027237Y019370D01*
X027237Y019327D01*
X027280Y019284D01*
X027237Y019240D01*
X027237Y019197D01*
X027280Y019153D01*
X027367Y019153D01*
X027410Y019197D01*
X027531Y019197D02*
X027575Y019153D01*
X027661Y019153D01*
X027705Y019197D01*
X027618Y019284D02*
X027575Y019284D01*
X027531Y019240D01*
X027531Y019197D01*
X027575Y019284D02*
X027531Y019327D01*
X027531Y019370D01*
X027575Y019414D01*
X027661Y019414D01*
X027705Y019370D01*
X027826Y019370D02*
X027826Y019284D01*
X027869Y019240D01*
X027999Y019240D01*
X027913Y019240D02*
X027826Y019153D01*
X027999Y019153D02*
X027999Y019414D01*
X027869Y019414D01*
X027826Y019370D01*
X027410Y019370D02*
X027367Y019414D01*
X027280Y019414D01*
X027280Y019284D02*
X027323Y019284D01*
X027509Y018968D02*
X027849Y018968D01*
X027849Y018688D02*
X027509Y018688D01*
X027459Y018528D02*
X027286Y018528D01*
X027286Y018484D01*
X027459Y018311D01*
X027459Y018268D01*
X027575Y018268D02*
X027705Y018354D01*
X027575Y018441D01*
X027705Y018528D02*
X027705Y018268D01*
X027826Y018268D02*
X027999Y018268D01*
X027913Y018268D02*
X027913Y018528D01*
X027999Y018441D01*
X028894Y017588D02*
X028994Y017588D01*
X028994Y017428D01*
X028894Y017428D01*
X028894Y017588D01*
X028824Y017428D02*
X029664Y017428D01*
X029664Y016488D01*
X028824Y016488D01*
X028824Y016838D01*
X028824Y017428D01*
X028784Y017258D02*
X028784Y016658D01*
X028894Y016488D02*
X028894Y016328D01*
X028994Y016328D01*
X028994Y016488D01*
X028894Y016488D01*
X029094Y016488D02*
X029094Y016328D01*
X029194Y016328D01*
X029194Y016488D01*
X029094Y016488D01*
X029294Y016488D02*
X029294Y016328D01*
X029394Y016328D01*
X029394Y016488D01*
X029294Y016488D01*
X029494Y016488D02*
X029494Y016328D01*
X029594Y016328D01*
X029594Y016488D01*
X029494Y016488D01*
X029704Y016658D02*
X029704Y017258D01*
X029821Y017193D02*
X030057Y017193D01*
X030104Y017241D01*
X030104Y017335D01*
X030057Y017382D01*
X029821Y017382D01*
X029594Y017428D02*
X029594Y017588D01*
X029494Y017588D01*
X029494Y017428D01*
X029594Y017428D01*
X029394Y017428D02*
X029394Y017588D01*
X029294Y017588D01*
X029294Y017428D01*
X029394Y017428D01*
X029194Y017428D02*
X029194Y017588D01*
X029094Y017588D01*
X029094Y017428D01*
X029194Y017428D01*
X028834Y017078D02*
X028855Y017075D01*
X028875Y017069D01*
X028893Y017059D01*
X028910Y017047D01*
X028924Y017031D01*
X028935Y017014D01*
X028943Y016994D01*
X028948Y016974D01*
X028949Y016953D01*
X028946Y016932D01*
X028940Y016912D01*
X028930Y016894D01*
X028918Y016877D01*
X028902Y016863D01*
X028885Y016852D01*
X028865Y016844D01*
X028845Y016839D01*
X028824Y016838D01*
X029821Y016750D02*
X029821Y016562D01*
X029868Y016562D01*
X030057Y016750D01*
X030104Y016750D01*
X030104Y016877D02*
X030104Y017066D01*
X030104Y016972D02*
X029821Y016972D01*
X029915Y017066D01*
X027456Y016229D02*
X027456Y016056D01*
X027326Y016056D01*
X027370Y016142D01*
X027370Y016186D01*
X027326Y016229D01*
X027240Y016229D01*
X027196Y016186D01*
X027196Y016099D01*
X027240Y016056D01*
X027196Y015935D02*
X027196Y015761D01*
X027196Y015848D02*
X027456Y015848D01*
X027370Y015761D01*
X027456Y015640D02*
X027240Y015640D01*
X027196Y015597D01*
X027196Y015510D01*
X027240Y015466D01*
X027456Y015466D01*
X025681Y016322D02*
X025681Y016495D01*
X025595Y016582D01*
X025508Y016495D01*
X025508Y016322D01*
X025508Y016452D02*
X025681Y016452D01*
X025387Y016582D02*
X025213Y016582D01*
X025300Y016582D02*
X025300Y016322D01*
X025092Y016322D02*
X025092Y016582D01*
X025005Y016495D01*
X024919Y016582D01*
X024919Y016322D01*
X024798Y016322D02*
X024624Y016322D01*
X024503Y016365D02*
X024460Y016322D01*
X024373Y016322D01*
X024329Y016365D01*
X024329Y016452D01*
X024416Y016452D01*
X024329Y016539D02*
X024373Y016582D01*
X024460Y016582D01*
X024503Y016539D01*
X024503Y016365D01*
X024711Y016452D02*
X024798Y016452D01*
X024798Y016582D02*
X024798Y016322D01*
X024798Y016582D02*
X024624Y016582D01*
X024208Y016495D02*
X024121Y016582D01*
X024035Y016495D01*
X024035Y016322D01*
X023914Y016365D02*
X023870Y016322D01*
X023783Y016322D01*
X023740Y016365D01*
X023740Y016409D01*
X023783Y016452D01*
X023827Y016452D01*
X023783Y016452D02*
X023740Y016495D01*
X023740Y016539D01*
X023783Y016582D01*
X023870Y016582D01*
X023914Y016539D01*
X024035Y016452D02*
X024208Y016452D01*
X024208Y016495D02*
X024208Y016322D01*
X023619Y016322D02*
X023445Y016495D01*
X023445Y016539D01*
X023489Y016582D01*
X023576Y016582D01*
X023619Y016539D01*
X023619Y016322D02*
X023445Y016322D01*
X023324Y016452D02*
X023151Y016452D01*
X023030Y016409D02*
X022900Y016409D01*
X022856Y016452D01*
X022856Y016539D01*
X022900Y016582D01*
X023030Y016582D01*
X023030Y016322D01*
X023194Y016322D02*
X023194Y016582D01*
X023324Y016452D01*
X022735Y016452D02*
X022605Y016452D01*
X022561Y016409D01*
X022561Y016365D01*
X022605Y016322D01*
X022735Y016322D01*
X022735Y016582D01*
X022605Y016582D01*
X022561Y016539D01*
X022561Y016495D01*
X022605Y016452D01*
X027783Y019896D02*
X027783Y019982D01*
X027826Y020026D01*
X027783Y020147D02*
X027783Y020320D01*
X027783Y020234D02*
X028043Y020234D01*
X027957Y020147D01*
X028000Y020026D02*
X028043Y019982D01*
X028043Y019896D01*
X028000Y019852D01*
X027826Y019852D01*
X027783Y019896D01*
X027783Y020441D02*
X027826Y020441D01*
X028000Y020615D01*
X028043Y020615D01*
X028043Y020441D01*
X029454Y022894D02*
X029454Y023024D01*
X029498Y023067D01*
X029628Y023067D01*
X029628Y022894D01*
X029749Y022937D02*
X029792Y022894D01*
X029879Y022894D01*
X029922Y022937D01*
X029749Y023110D01*
X029749Y022937D01*
X029922Y022937D02*
X029922Y023110D01*
X029879Y023154D01*
X029792Y023154D01*
X029749Y023110D01*
X030043Y023110D02*
X030217Y022937D01*
X030174Y022894D01*
X030087Y022894D01*
X030043Y022937D01*
X030043Y023110D01*
X030087Y023154D01*
X030174Y023154D01*
X030217Y023110D01*
X030217Y022937D01*
X030338Y022894D02*
X030512Y022894D01*
X030425Y022894D02*
X030425Y023154D01*
X030512Y023067D01*
X031031Y023487D02*
X031031Y023574D01*
X031074Y023618D01*
X031074Y023739D02*
X031031Y023739D01*
X031074Y023739D02*
X031248Y023912D01*
X031291Y023912D01*
X031291Y023739D01*
X031248Y023618D02*
X031291Y023574D01*
X031291Y023487D01*
X031248Y023444D01*
X031074Y023444D01*
X031031Y023487D01*
X030850Y025280D02*
X030894Y025324D01*
X030850Y025280D02*
X030764Y025280D01*
X030720Y025324D01*
X030720Y025367D01*
X030764Y025410D01*
X030850Y025410D01*
X030894Y025454D01*
X030894Y025497D01*
X030850Y025540D01*
X030764Y025540D01*
X030720Y025497D01*
X030599Y025540D02*
X030599Y025280D01*
X030426Y025280D02*
X030426Y025540D01*
X030512Y025454D01*
X030599Y025540D01*
X030304Y025410D02*
X030131Y025410D01*
X030174Y025280D02*
X030174Y025540D01*
X030304Y025410D01*
X030010Y025324D02*
X030010Y025497D01*
X029966Y025540D01*
X029880Y025540D01*
X029836Y025497D01*
X030010Y025324D01*
X029966Y025280D01*
X029880Y025280D01*
X029836Y025324D01*
X029836Y025497D01*
X029715Y025497D02*
X029672Y025540D01*
X029585Y025540D01*
X029542Y025497D01*
X029715Y025324D01*
X029672Y025280D01*
X029585Y025280D01*
X029542Y025324D01*
X029542Y025497D01*
X029420Y025410D02*
X029247Y025410D01*
X029290Y025280D02*
X029290Y025540D01*
X029420Y025410D01*
X029715Y025324D02*
X029715Y025497D01*
X029028Y025048D02*
X028767Y025048D01*
X028767Y024961D02*
X028767Y025135D01*
X028941Y024961D02*
X029028Y025048D01*
X028984Y024840D02*
X029028Y024797D01*
X029028Y024666D01*
X028767Y024666D01*
X028767Y024797D01*
X028811Y024840D01*
X028984Y024840D01*
X029741Y029153D02*
X029914Y029153D01*
X029828Y029153D02*
X029828Y029414D01*
X029914Y029327D01*
X030036Y029153D02*
X030209Y029153D01*
X030122Y029153D02*
X030122Y029414D01*
X030209Y029327D01*
X030330Y029370D02*
X030374Y029414D01*
X030460Y029414D01*
X030504Y029370D01*
X030504Y029197D01*
X030460Y029153D01*
X030374Y029153D01*
X030330Y029197D01*
X030590Y029858D02*
X029690Y029858D01*
X031154Y029964D02*
X031154Y030138D01*
X031154Y030051D02*
X031414Y030051D01*
X031328Y029964D01*
X031371Y030259D02*
X031414Y030302D01*
X031414Y030389D01*
X031371Y030433D01*
X031198Y030259D01*
X031154Y030302D01*
X031154Y030389D01*
X031198Y030433D01*
X031371Y030433D01*
X031328Y030554D02*
X031198Y030554D01*
X031154Y030597D01*
X031154Y030727D01*
X031328Y030727D01*
X031371Y030259D02*
X031198Y030259D01*
X030590Y032798D02*
X029690Y032798D01*
X028437Y032559D02*
X028437Y032386D01*
X028393Y032342D01*
X028307Y032342D01*
X028263Y032386D01*
X028142Y032342D02*
X027969Y032342D01*
X028055Y032342D02*
X028055Y032603D01*
X028142Y032516D01*
X028263Y032559D02*
X028307Y032603D01*
X028393Y032603D01*
X028437Y032559D01*
X027847Y032559D02*
X027804Y032603D01*
X027717Y032603D01*
X027674Y032559D01*
X027674Y032516D01*
X027847Y032342D01*
X027674Y032342D01*
X027446Y031916D02*
X027316Y031916D01*
X027446Y031916D02*
X027489Y031872D01*
X027489Y031742D01*
X027316Y031742D01*
X027359Y031621D02*
X027316Y031578D01*
X027316Y031491D01*
X027359Y031447D01*
X027533Y031621D01*
X027359Y031621D01*
X027533Y031621D02*
X027576Y031578D01*
X027576Y031491D01*
X027533Y031447D01*
X027359Y031447D01*
X027359Y031326D02*
X027316Y031283D01*
X027316Y031196D01*
X027359Y031153D01*
X027533Y031326D01*
X027359Y031326D01*
X027359Y031153D02*
X027533Y031153D01*
X027576Y031196D01*
X027576Y031283D01*
X027533Y031326D01*
X027316Y031032D02*
X027316Y030858D01*
X027316Y030945D02*
X027576Y030945D01*
X027489Y030858D01*
X034751Y027231D02*
X034751Y027101D01*
X034751Y027231D02*
X034794Y027275D01*
X034924Y027275D01*
X034924Y027101D01*
X035046Y027145D02*
X035089Y027101D01*
X035176Y027101D01*
X035219Y027145D01*
X035046Y027318D01*
X035046Y027145D01*
X035219Y027145D02*
X035219Y027318D01*
X035176Y027361D01*
X035089Y027361D01*
X035046Y027318D01*
X035340Y027318D02*
X035514Y027145D01*
X035470Y027101D01*
X035384Y027101D01*
X035340Y027145D01*
X035340Y027318D01*
X035384Y027361D01*
X035470Y027361D01*
X035514Y027318D01*
X035514Y027145D01*
X035635Y027101D02*
X035808Y027101D01*
X035722Y027101D02*
X035722Y027361D01*
X035808Y027275D01*
X035470Y026074D02*
X035514Y026031D01*
X035514Y025857D01*
X035470Y025814D01*
X035384Y025814D01*
X035340Y025857D01*
X035219Y025814D02*
X035046Y025814D01*
X035132Y025814D02*
X035132Y026074D01*
X035219Y025987D01*
X035340Y026031D02*
X035384Y026074D01*
X035470Y026074D01*
X034924Y026031D02*
X034924Y025987D01*
X034881Y025944D01*
X034794Y025944D01*
X034751Y025900D01*
X034751Y025857D01*
X034794Y025814D01*
X034881Y025814D01*
X034924Y025857D01*
X034924Y025900D01*
X034881Y025944D01*
X034794Y025944D02*
X034751Y025987D01*
X034751Y026031D01*
X034794Y026074D01*
X034881Y026074D01*
X034924Y026031D01*
X035007Y024494D02*
X034964Y024407D01*
X034877Y024320D01*
X034877Y024450D01*
X034834Y024494D01*
X034790Y024494D01*
X034747Y024450D01*
X034747Y024363D01*
X034790Y024320D01*
X034877Y024320D01*
X034790Y024199D02*
X035007Y024199D01*
X035007Y024025D02*
X034790Y024025D01*
X034747Y024069D01*
X034747Y024156D01*
X034790Y024199D01*
X035491Y023338D02*
X035448Y023294D01*
X035448Y023164D01*
X035621Y023164D02*
X035621Y023338D01*
X035491Y023338D01*
X035742Y023381D02*
X035916Y023208D01*
X035872Y023164D01*
X035786Y023164D01*
X035742Y023208D01*
X035742Y023381D01*
X035786Y023424D01*
X035872Y023424D01*
X035916Y023381D01*
X035916Y023208D01*
X036037Y023208D02*
X036080Y023164D01*
X036167Y023164D01*
X036210Y023208D01*
X036037Y023381D01*
X036037Y023208D01*
X036037Y023381D02*
X036080Y023424D01*
X036167Y023424D01*
X036210Y023381D01*
X036210Y023208D01*
X036332Y023164D02*
X036505Y023164D01*
X036418Y023164D02*
X036418Y023424D01*
X036505Y023338D01*
X036364Y022243D02*
X036407Y022200D01*
X036407Y022026D01*
X036364Y021983D01*
X036277Y021983D01*
X036234Y022026D01*
X036113Y021983D02*
X035939Y021983D01*
X036026Y021983D02*
X036026Y022243D01*
X036113Y022157D01*
X036234Y022200D02*
X036277Y022243D01*
X036364Y022243D01*
X035818Y022200D02*
X035818Y022157D01*
X035775Y022113D01*
X035645Y022113D01*
X035645Y022026D02*
X035645Y022200D01*
X035688Y022243D01*
X035775Y022243D01*
X035818Y022200D01*
X035818Y022026D02*
X035775Y021983D01*
X035688Y021983D01*
X035645Y022026D01*
X035528Y020044D02*
X035615Y020000D01*
X035702Y019913D01*
X035572Y019913D01*
X035528Y019870D01*
X035528Y019827D01*
X035572Y019783D01*
X035658Y019783D01*
X035702Y019827D01*
X035702Y019913D01*
X035823Y019783D02*
X035996Y019783D01*
X035910Y019783D02*
X035910Y020044D01*
X035996Y019957D01*
X036118Y020000D02*
X036161Y020044D01*
X036248Y020044D01*
X036291Y020000D01*
X036291Y019827D01*
X036248Y019783D01*
X036161Y019783D01*
X036118Y019827D01*
X035967Y018528D02*
X035794Y018528D01*
X035794Y018484D01*
X035967Y018311D01*
X035967Y018268D01*
X036071Y018268D02*
X036115Y018268D01*
X036115Y018311D01*
X036071Y018311D01*
X036071Y018268D01*
X036279Y018268D02*
X036279Y018528D01*
X036409Y018398D01*
X036236Y018398D01*
X035673Y018441D02*
X035673Y018311D01*
X035629Y018268D01*
X035499Y018268D01*
X035499Y018441D01*
X035590Y017716D02*
X035720Y017586D01*
X035546Y017586D01*
X035590Y017716D02*
X035590Y017455D01*
X035777Y017295D02*
X036117Y017295D01*
X036135Y017455D02*
X036222Y017542D01*
X036179Y017542D02*
X036309Y017542D01*
X036309Y017455D02*
X036309Y017716D01*
X036179Y017716D01*
X036135Y017672D01*
X036135Y017586D01*
X036179Y017542D01*
X036014Y017499D02*
X035971Y017455D01*
X035884Y017455D01*
X035841Y017499D01*
X035841Y017542D01*
X035884Y017586D01*
X035928Y017586D01*
X035884Y017586D02*
X035841Y017629D01*
X035841Y017672D01*
X035884Y017716D01*
X035971Y017716D01*
X036014Y017672D01*
X036117Y017015D02*
X035777Y017015D01*
X035737Y016830D02*
X035823Y016830D01*
X035867Y016786D01*
X035737Y016830D02*
X035693Y016786D01*
X035693Y016743D01*
X035867Y016570D01*
X035693Y016570D01*
X035572Y016570D02*
X035572Y016830D01*
X035442Y016743D02*
X035572Y016656D01*
X035442Y016570D01*
X035080Y016698D02*
X035080Y016958D01*
X034950Y016958D01*
X034907Y016914D01*
X034907Y016828D01*
X034950Y016784D01*
X035080Y016784D01*
X034994Y016784D02*
X034907Y016698D01*
X034786Y016741D02*
X034742Y016698D01*
X034656Y016698D01*
X034612Y016741D01*
X034612Y016784D01*
X034656Y016828D01*
X034699Y016828D01*
X034656Y016828D02*
X034612Y016871D01*
X034612Y016914D01*
X034656Y016958D01*
X034742Y016958D01*
X034786Y016914D01*
X034491Y016958D02*
X034491Y016828D01*
X034404Y016871D01*
X034361Y016871D01*
X034318Y016828D01*
X034318Y016741D01*
X034361Y016698D01*
X034448Y016698D01*
X034491Y016741D01*
X034491Y016958D02*
X034318Y016958D01*
X034620Y016505D02*
X034813Y016505D01*
X034813Y016329D02*
X034620Y016329D01*
X034656Y016116D02*
X034612Y016073D01*
X034786Y015900D01*
X034742Y015856D01*
X034656Y015856D01*
X034612Y015900D01*
X034612Y016073D01*
X034656Y016116D02*
X034742Y016116D01*
X034786Y016073D01*
X034786Y015900D01*
X034907Y015856D02*
X035080Y015856D01*
X034994Y015856D02*
X034994Y016116D01*
X035080Y016030D01*
X034491Y016116D02*
X034491Y015856D01*
X034491Y015943D02*
X034361Y015856D01*
X034491Y015943D02*
X034361Y016030D01*
X035988Y016570D02*
X036161Y016570D01*
X036075Y016570D02*
X036075Y016830D01*
X036161Y016743D01*
X036283Y016700D02*
X036456Y016700D01*
X036326Y016830D01*
X036326Y016570D01*
X034949Y013984D02*
X034949Y013701D01*
X034760Y013701D01*
X034633Y013701D02*
X034444Y013701D01*
X034538Y013701D02*
X034538Y013984D01*
X034633Y013889D01*
X034530Y011751D02*
X034436Y011751D01*
X034388Y011704D01*
X034388Y011657D01*
X034436Y011610D01*
X034388Y011562D01*
X034388Y011515D01*
X034436Y011468D01*
X034530Y011468D01*
X034577Y011515D01*
X034704Y011515D02*
X034704Y011704D01*
X034893Y011515D01*
X034846Y011468D01*
X034751Y011468D01*
X034704Y011515D01*
X034704Y011704D02*
X034751Y011751D01*
X034846Y011751D01*
X034893Y011704D01*
X034893Y011515D01*
X035020Y011515D02*
X035020Y011704D01*
X035209Y011515D01*
X035162Y011468D01*
X035067Y011468D01*
X035020Y011515D01*
X035209Y011515D02*
X035209Y011704D01*
X035162Y011751D01*
X035067Y011751D01*
X035020Y011704D01*
X035336Y011610D02*
X035525Y011610D01*
X035383Y011751D01*
X035383Y011468D01*
X035652Y011515D02*
X035699Y011468D01*
X035840Y011468D01*
X035840Y011751D01*
X035699Y011751D01*
X035652Y011704D01*
X035652Y011657D01*
X035699Y011610D01*
X035840Y011610D01*
X035699Y011610D02*
X035652Y011562D01*
X035652Y011515D01*
X034577Y011704D02*
X034530Y011751D01*
X034483Y011610D02*
X034436Y011610D01*
X034261Y011751D02*
X034073Y011468D01*
X034073Y011751D01*
X033946Y011751D02*
X033946Y011468D01*
X033757Y011468D01*
X034261Y011468D02*
X034261Y011751D01*
X031997Y011186D02*
X031997Y010903D01*
X031808Y010903D01*
X031681Y010903D02*
X031493Y011092D01*
X031493Y011139D01*
X031540Y011186D01*
X031634Y011186D01*
X031681Y011139D01*
X031681Y010903D02*
X031493Y010903D01*
X030885Y011019D02*
X030885Y010736D01*
X030697Y010736D01*
X030570Y010877D02*
X030381Y010877D01*
X030428Y010736D02*
X030428Y011019D01*
X030570Y010877D01*
X032028Y009217D02*
X031985Y009173D01*
X031985Y009130D01*
X032028Y009087D01*
X031985Y009043D01*
X031985Y009000D01*
X032028Y008957D01*
X032115Y008957D01*
X032158Y009000D01*
X032072Y009087D02*
X032028Y009087D01*
X032028Y009217D02*
X032115Y009217D01*
X032158Y009173D01*
X032280Y009173D02*
X032280Y009130D01*
X032453Y008957D01*
X032280Y008957D01*
X032280Y009173D02*
X032323Y009217D01*
X032410Y009217D01*
X032453Y009173D01*
X032574Y009173D02*
X032618Y009217D01*
X032704Y009217D01*
X032748Y009173D01*
X032748Y009000D01*
X032704Y008957D01*
X032618Y008957D01*
X032574Y009000D01*
X030118Y006789D02*
X030118Y006600D01*
X030071Y006553D01*
X029977Y006553D01*
X029930Y006600D01*
X029803Y006553D02*
X029803Y006836D01*
X029614Y006836D01*
X029487Y006789D02*
X029440Y006836D01*
X029345Y006836D01*
X029298Y006789D01*
X029298Y006741D01*
X029345Y006694D01*
X029298Y006647D01*
X029298Y006600D01*
X029345Y006553D01*
X029440Y006553D01*
X029487Y006600D01*
X029392Y006694D02*
X029345Y006694D01*
X029708Y006694D02*
X029803Y006694D01*
X029930Y006789D02*
X029977Y006836D01*
X030071Y006836D01*
X030118Y006789D01*
X030111Y005999D02*
X030154Y005956D01*
X030111Y005999D02*
X030024Y005999D01*
X029981Y005956D01*
X029981Y005912D01*
X030154Y005739D01*
X029981Y005739D01*
X029859Y005782D02*
X029859Y005826D01*
X029816Y005869D01*
X029729Y005869D01*
X029686Y005826D01*
X029686Y005782D01*
X029729Y005739D01*
X029816Y005739D01*
X029859Y005782D01*
X029816Y005869D02*
X029859Y005912D01*
X029859Y005956D01*
X029816Y005999D01*
X029729Y005999D01*
X029686Y005956D01*
X029686Y005912D01*
X029729Y005869D01*
X030275Y005782D02*
X030319Y005739D01*
X030405Y005739D01*
X030449Y005782D01*
X030449Y005956D01*
X030405Y005999D01*
X030319Y005999D01*
X030275Y005956D01*
X027703Y006592D02*
X027514Y006592D01*
X027608Y006592D02*
X027608Y006876D01*
X027703Y006781D01*
X027387Y006828D02*
X027339Y006876D01*
X027245Y006876D01*
X027198Y006828D01*
X027387Y006640D01*
X027339Y006592D01*
X027245Y006592D01*
X027198Y006640D01*
X027198Y006828D01*
X027071Y006781D02*
X026929Y006781D01*
X026882Y006734D01*
X026882Y006592D01*
X027071Y006592D02*
X027071Y006781D01*
X027387Y006828D02*
X027387Y006640D01*
X027358Y007736D02*
X027358Y008019D01*
X027453Y007925D01*
X027453Y007736D02*
X027264Y007736D01*
X027137Y007783D02*
X027089Y007736D01*
X026948Y007736D01*
X026948Y007925D01*
X027137Y007925D02*
X027137Y007783D01*
X027089Y009114D02*
X026948Y009114D01*
X026948Y009303D01*
X027137Y009303D02*
X027137Y009161D01*
X027089Y009114D01*
X027264Y009114D02*
X027453Y009114D01*
X027358Y009114D02*
X027358Y009397D01*
X027453Y009303D01*
X029532Y009138D02*
X029532Y009044D01*
X029626Y008917D02*
X029674Y008870D01*
X029674Y008775D01*
X029626Y008728D01*
X026249Y005046D02*
X026119Y005046D01*
X026249Y005046D02*
X026292Y005002D01*
X026292Y004872D01*
X026119Y004872D01*
X026162Y004751D02*
X026119Y004707D01*
X026119Y004621D01*
X026162Y004577D01*
X026336Y004751D01*
X026162Y004751D01*
X026162Y004577D02*
X026336Y004577D01*
X026379Y004621D01*
X026379Y004707D01*
X026336Y004751D01*
X026336Y004456D02*
X026162Y004456D01*
X026119Y004413D01*
X026119Y004326D01*
X026162Y004283D01*
X026336Y004456D01*
X026379Y004413D01*
X026379Y004326D01*
X026336Y004283D01*
X026162Y004283D01*
X026119Y004162D02*
X026119Y003988D01*
X026119Y004075D02*
X026379Y004075D01*
X026292Y003988D01*
X026532Y003535D02*
X026619Y003491D01*
X026706Y003404D01*
X026576Y003404D01*
X026532Y003361D01*
X026532Y003318D01*
X026576Y003274D01*
X026662Y003274D01*
X026706Y003318D01*
X026706Y003404D01*
X026827Y003448D02*
X027000Y003274D01*
X026827Y003274D01*
X026827Y003448D02*
X026827Y003491D01*
X026870Y003535D01*
X026957Y003535D01*
X027000Y003491D01*
X027122Y003491D02*
X027165Y003535D01*
X027252Y003535D01*
X027295Y003491D01*
X027295Y003318D01*
X027252Y003274D01*
X027165Y003274D01*
X027122Y003318D01*
X028410Y003050D02*
X028410Y003007D01*
X028584Y002833D01*
X028584Y002790D01*
X028705Y002833D02*
X028705Y003050D01*
X028584Y003050D02*
X028410Y003050D01*
X028705Y002833D02*
X028748Y002790D01*
X028835Y002790D01*
X028878Y002833D01*
X028878Y003050D01*
X032040Y000836D02*
X032127Y000836D01*
X032083Y000836D02*
X032083Y000575D01*
X032040Y000575D02*
X032127Y000575D01*
X032237Y000619D02*
X032237Y000792D01*
X032280Y000836D01*
X032367Y000836D01*
X032410Y000792D01*
X032531Y000792D02*
X032575Y000836D01*
X032661Y000836D01*
X032705Y000792D01*
X032705Y000749D01*
X032661Y000705D01*
X032575Y000705D01*
X032531Y000662D01*
X032531Y000619D01*
X032575Y000575D01*
X032661Y000575D01*
X032705Y000619D01*
X032826Y000575D02*
X032956Y000575D01*
X032999Y000619D01*
X032999Y000705D01*
X032956Y000749D01*
X032826Y000749D01*
X032826Y000836D02*
X032826Y000575D01*
X032410Y000619D02*
X032367Y000575D01*
X032280Y000575D01*
X032237Y000619D01*
X023638Y001744D02*
X023638Y002644D01*
X022728Y003451D02*
X022685Y003407D01*
X022511Y003407D01*
X022468Y003451D01*
X022468Y003537D01*
X022511Y003581D01*
X022468Y003702D02*
X022468Y003875D01*
X022468Y003789D02*
X022728Y003789D01*
X022642Y003702D01*
X022685Y003581D02*
X022728Y003537D01*
X022728Y003451D01*
X022685Y003997D02*
X022728Y004040D01*
X022728Y004127D01*
X022685Y004170D01*
X022642Y004170D01*
X022598Y004127D01*
X022555Y004170D01*
X022511Y004170D01*
X022468Y004127D01*
X022468Y004040D01*
X022511Y003997D01*
X022598Y004083D02*
X022598Y004127D01*
X022127Y004397D02*
X021954Y004397D01*
X021997Y004527D02*
X021997Y004266D01*
X021833Y004266D02*
X021833Y004310D01*
X021659Y004483D01*
X021659Y004527D01*
X021833Y004527D01*
X021997Y004527D02*
X022127Y004397D01*
X021538Y004310D02*
X021538Y004483D01*
X021495Y004527D01*
X021408Y004527D01*
X021364Y004483D01*
X021538Y004310D01*
X021495Y004266D01*
X021408Y004266D01*
X021364Y004310D01*
X021364Y004483D01*
X021243Y004440D02*
X021113Y004440D01*
X021070Y004397D01*
X021070Y004266D01*
X021243Y004266D02*
X021243Y004440D01*
X020697Y002644D02*
X020697Y001744D01*
X020268Y001876D02*
X020224Y001832D01*
X020051Y001832D01*
X020007Y001876D01*
X020007Y001963D01*
X020051Y002006D01*
X020007Y002127D02*
X020007Y002301D01*
X020007Y002214D02*
X020268Y002214D01*
X020181Y002127D01*
X020224Y002006D02*
X020268Y001963D01*
X020268Y001876D01*
X020138Y002422D02*
X020138Y002595D01*
X020268Y002552D02*
X020138Y002422D01*
X020268Y002552D02*
X020007Y002552D01*
X018348Y002523D02*
X018348Y002653D01*
X018305Y002696D01*
X018262Y002696D01*
X018218Y002653D01*
X018218Y002523D01*
X018218Y002653D02*
X018175Y002696D01*
X018132Y002696D01*
X018088Y002653D01*
X018088Y002523D01*
X018348Y002523D01*
X018348Y002402D02*
X018088Y002402D01*
X018088Y002228D02*
X018348Y002228D01*
X018262Y002315D01*
X018348Y002402D01*
X018348Y002107D02*
X018088Y002107D01*
X018088Y001933D02*
X018348Y001933D01*
X018262Y002020D01*
X018348Y002107D01*
X018348Y002817D02*
X018348Y002991D01*
X018262Y003112D02*
X018348Y003199D01*
X018088Y003199D01*
X018088Y003285D02*
X018088Y003112D01*
X018218Y002904D02*
X018218Y002817D01*
X018088Y002817D02*
X018348Y002817D01*
X018348Y003407D02*
X018348Y003580D01*
X018305Y003580D01*
X018132Y003407D01*
X018088Y003407D01*
X018132Y003701D02*
X018305Y003875D01*
X018132Y003875D01*
X018088Y003831D01*
X018088Y003745D01*
X018132Y003701D01*
X018305Y003701D01*
X018348Y003745D01*
X018348Y003831D01*
X018305Y003875D01*
X017506Y003542D02*
X016986Y003542D01*
X016986Y003241D01*
X016986Y003542D02*
X017319Y003542D01*
X017506Y003542D02*
X017506Y002422D01*
X016986Y002422D01*
X016986Y002733D01*
X016986Y002422D02*
X017319Y002422D01*
X017229Y002250D02*
X017229Y001990D01*
X017315Y001990D02*
X017142Y001990D01*
X017315Y002164D02*
X017229Y002250D01*
X017437Y002207D02*
X017437Y002033D01*
X017480Y001990D01*
X017567Y001990D01*
X017610Y002033D01*
X017610Y002207D01*
X017567Y002250D01*
X017480Y002250D01*
X017437Y002207D01*
X017523Y002077D02*
X017437Y001990D01*
X016986Y002422D02*
X016986Y003542D01*
X016208Y003240D02*
X016078Y003109D01*
X016078Y003283D01*
X015948Y003240D02*
X016208Y003240D01*
X016164Y002988D02*
X015991Y002988D01*
X015948Y002945D01*
X015948Y002815D01*
X016208Y002815D01*
X016208Y002945D01*
X016164Y002988D01*
X014977Y002944D02*
X014847Y002814D01*
X014847Y002987D01*
X014717Y002944D02*
X014977Y002944D01*
X014934Y003108D02*
X014761Y003108D01*
X014934Y003282D01*
X014761Y003282D01*
X014717Y003238D01*
X014717Y003152D01*
X014761Y003108D01*
X014934Y003108D02*
X014977Y003152D01*
X014977Y003238D01*
X014934Y003282D01*
X014934Y003403D02*
X014761Y003403D01*
X014934Y003576D01*
X014761Y003576D01*
X014717Y003533D01*
X014717Y003446D01*
X014761Y003403D01*
X014934Y003403D02*
X014977Y003446D01*
X014977Y003533D01*
X014934Y003576D01*
X014847Y003698D02*
X014847Y003871D01*
X014717Y003828D02*
X014977Y003828D01*
X014847Y003698D01*
X014914Y004193D02*
X014914Y004366D01*
X014914Y004280D02*
X015174Y004280D01*
X015088Y004193D01*
X015131Y004487D02*
X015174Y004531D01*
X015174Y004618D01*
X015131Y004661D01*
X014957Y004487D01*
X014914Y004531D01*
X014914Y004618D01*
X014957Y004661D01*
X015131Y004661D01*
X015174Y004782D02*
X014914Y004782D01*
X015001Y004782D02*
X014914Y004912D01*
X015001Y004782D02*
X015088Y004912D01*
X015386Y004653D02*
X015386Y004460D01*
X015563Y004460D02*
X015563Y004653D01*
X015780Y004661D02*
X015780Y004487D01*
X015954Y004661D01*
X015997Y004661D01*
X016040Y004618D01*
X016040Y004531D01*
X015997Y004487D01*
X015997Y004366D02*
X015910Y004366D01*
X015867Y004323D01*
X015867Y004193D01*
X015867Y004280D02*
X015780Y004366D01*
X015780Y004193D02*
X016040Y004193D01*
X016040Y004323D01*
X015997Y004366D01*
X015910Y004782D02*
X015910Y004912D01*
X015867Y004956D01*
X015824Y004956D01*
X015780Y004912D01*
X015780Y004825D01*
X015824Y004782D01*
X015910Y004782D01*
X015997Y004869D01*
X016040Y004956D01*
X015131Y004487D02*
X014957Y004487D01*
X014977Y002692D02*
X014717Y002692D01*
X014717Y002519D02*
X014977Y002519D01*
X014891Y002606D01*
X014977Y002692D01*
X014934Y002398D02*
X014977Y002354D01*
X014977Y002268D01*
X014934Y002224D01*
X014891Y002224D01*
X014847Y002268D01*
X014847Y002354D01*
X014804Y002398D01*
X014761Y002398D01*
X014717Y002354D01*
X014717Y002268D01*
X014761Y002224D01*
X013868Y002078D02*
X013781Y002165D01*
X013781Y001904D01*
X013695Y001904D02*
X013868Y001904D01*
X013573Y001948D02*
X013400Y002121D01*
X013400Y001948D01*
X013443Y001904D01*
X013530Y001904D01*
X013573Y001948D01*
X013573Y002121D01*
X013530Y002165D01*
X013443Y002165D01*
X013400Y002121D01*
X013279Y002165D02*
X013279Y001904D01*
X013279Y001991D02*
X013149Y002078D01*
X013279Y001991D02*
X013149Y001904D01*
X013410Y001692D02*
X013603Y001692D01*
X013603Y001516D02*
X013410Y001516D01*
X013443Y001274D02*
X013530Y001274D01*
X013573Y001231D01*
X013694Y001231D02*
X013694Y001144D01*
X013738Y001100D01*
X013868Y001100D01*
X013868Y001014D02*
X013868Y001274D01*
X013738Y001274D01*
X013694Y001231D01*
X013781Y001100D02*
X013694Y001014D01*
X013573Y001014D02*
X013400Y001187D01*
X013400Y001231D01*
X013443Y001274D01*
X013279Y001274D02*
X013279Y001144D01*
X013192Y001187D01*
X013149Y001187D01*
X013105Y001144D01*
X013105Y001057D01*
X013149Y001014D01*
X013235Y001014D01*
X013279Y001057D01*
X013400Y001014D02*
X013573Y001014D01*
X013279Y001274D02*
X013105Y001274D01*
X021767Y001094D02*
X021767Y000920D01*
X021897Y000920D01*
X021940Y000963D01*
X021940Y001094D01*
X022061Y001137D02*
X022235Y000963D01*
X022191Y000920D01*
X022105Y000920D01*
X022061Y000963D01*
X022061Y001137D01*
X022105Y001180D01*
X022191Y001180D01*
X022235Y001137D01*
X022235Y000963D01*
X022356Y000920D02*
X022529Y000920D01*
X022443Y000920D02*
X022443Y001180D01*
X022529Y001094D01*
X029936Y012890D02*
X030030Y012890D01*
X030077Y012938D01*
X029983Y013032D02*
X029936Y013032D01*
X029889Y012985D01*
X029889Y012938D01*
X029936Y012890D01*
X029936Y013032D02*
X029889Y013079D01*
X029889Y013126D01*
X029936Y013174D01*
X030030Y013174D01*
X030077Y013126D01*
X030204Y013032D02*
X030393Y013032D01*
X030252Y013174D01*
X030252Y012890D01*
X030520Y012890D02*
X030615Y012985D01*
X030567Y012985D02*
X030709Y012985D01*
X030709Y012890D02*
X030709Y013174D01*
X030567Y013174D01*
X030520Y013126D01*
X030520Y013032D01*
X030567Y012985D01*
X030655Y013597D02*
X030655Y013880D01*
X030514Y013880D01*
X030466Y013833D01*
X030466Y013739D01*
X030514Y013692D01*
X030655Y013692D01*
X030561Y013692D02*
X030466Y013597D01*
X030339Y013739D02*
X030151Y013739D01*
X030198Y013880D02*
X030339Y013739D01*
X030198Y013880D02*
X030198Y013597D01*
X030024Y013597D02*
X030024Y013644D01*
X029835Y013833D01*
X029835Y013880D01*
X030024Y013880D01*
X029400Y013749D02*
X029207Y013749D01*
X029207Y013573D02*
X029400Y013573D01*
X032716Y019381D02*
X032976Y019554D01*
X032890Y019675D02*
X032976Y019762D01*
X032716Y019762D01*
X032716Y019675D02*
X032716Y019849D01*
X032716Y019970D02*
X032890Y020144D01*
X032933Y020144D01*
X032976Y020100D01*
X032976Y020013D01*
X032933Y019970D01*
X032716Y019970D02*
X032716Y020144D01*
X032716Y019554D02*
X032976Y019381D01*
D16*
X011538Y025029D03*
D17*
X010833Y024936D02*
X010633Y024936D01*
X010633Y024802D02*
X010833Y024802D01*
X010766Y024869D01*
X010833Y024936D01*
X010833Y024715D02*
X010699Y024715D01*
X010633Y024648D01*
X010699Y024581D01*
X010833Y024581D01*
X010799Y024494D02*
X010833Y024460D01*
X010833Y024394D01*
X010799Y024360D01*
X010799Y024273D02*
X010733Y024273D01*
X010699Y024239D01*
X010699Y024139D01*
X010633Y024139D02*
X010833Y024139D01*
X010833Y024239D01*
X010799Y024273D01*
X010699Y024206D02*
X010633Y024273D01*
X010633Y024360D02*
X010766Y024494D01*
X010799Y024494D01*
X010633Y024494D02*
X010633Y024360D01*
X010666Y024052D02*
X010633Y024018D01*
X010633Y023952D01*
X010666Y023918D01*
X010733Y023952D02*
X010733Y024018D01*
X010699Y024052D01*
X010666Y024052D01*
X010733Y023952D02*
X010766Y023918D01*
X010799Y023918D01*
X010833Y023952D01*
X010833Y024018D01*
X010799Y024052D01*
X010799Y023831D02*
X010833Y023797D01*
X010833Y023731D01*
X010799Y023697D01*
X010833Y023610D02*
X010799Y023543D01*
X010733Y023476D01*
X010733Y023577D01*
X010699Y023610D01*
X010666Y023610D01*
X010633Y023577D01*
X010633Y023510D01*
X010666Y023476D01*
X010733Y023476D01*
X010799Y023389D02*
X010666Y023255D01*
X010633Y023289D01*
X010633Y023356D01*
X010666Y023389D01*
X010799Y023389D01*
X010833Y023356D01*
X010833Y023289D01*
X010799Y023255D01*
X010666Y023255D01*
X010666Y023168D02*
X010633Y023135D01*
X010633Y023068D01*
X010666Y023034D01*
X010666Y022947D02*
X010633Y022914D01*
X010633Y022847D01*
X010666Y022813D01*
X010799Y022813D01*
X010833Y022847D01*
X010833Y022914D01*
X010799Y022947D01*
X010799Y023034D02*
X010833Y023068D01*
X010833Y023135D01*
X010799Y023168D01*
X010766Y023168D01*
X010733Y023135D01*
X010699Y023168D01*
X010666Y023168D01*
X010733Y023135D02*
X010733Y023101D01*
X010799Y022726D02*
X010833Y022693D01*
X010833Y022626D01*
X010799Y022592D01*
X010666Y022592D01*
X010633Y022626D01*
X010633Y022693D01*
X010666Y022726D01*
X010799Y022726D01*
X010833Y022505D02*
X010633Y022505D01*
X010633Y022371D02*
X010833Y022371D01*
X010766Y022438D01*
X010833Y022505D01*
X010633Y023697D02*
X010766Y023831D01*
X010799Y023831D01*
X010633Y023831D02*
X010633Y023697D01*
X012679Y026131D02*
X012679Y027076D01*
X013939Y027076D01*
X013939Y026131D01*
X012679Y026131D01*
X016276Y021008D02*
X017036Y021008D01*
X017036Y020388D02*
X016276Y020388D01*
X019148Y014485D02*
X019215Y014418D01*
X019215Y014451D02*
X019215Y014351D01*
X019148Y014351D02*
X019349Y014351D01*
X019349Y014451D01*
X019315Y014485D01*
X019248Y014485D01*
X019215Y014451D01*
X019349Y014264D02*
X019349Y014130D01*
X019349Y014197D02*
X019148Y014197D01*
X019248Y014043D02*
X019248Y013909D01*
X019182Y013822D02*
X019349Y013822D01*
X019349Y013688D02*
X019182Y013688D01*
X019148Y013722D01*
X019148Y013788D01*
X019182Y013822D01*
X019148Y013601D02*
X019282Y013601D01*
X019349Y013534D01*
X019282Y013467D01*
X019148Y013467D01*
X019248Y013467D02*
X019248Y013601D01*
X019248Y013380D02*
X019248Y013246D01*
X019182Y013159D02*
X019148Y013125D01*
X019148Y013059D01*
X019182Y013025D01*
X019315Y013159D01*
X019182Y013159D01*
X019315Y013159D02*
X019349Y013125D01*
X019349Y013059D01*
X019315Y013025D01*
X019182Y013025D01*
X019182Y012938D02*
X019148Y012904D01*
X019148Y012838D01*
X019182Y012804D01*
X019315Y012938D01*
X019182Y012938D01*
X019315Y012938D02*
X019349Y012904D01*
X019349Y012838D01*
X019315Y012804D01*
X019182Y012804D01*
X019148Y012717D02*
X019148Y012583D01*
X019282Y012717D01*
X019315Y012717D01*
X019349Y012683D01*
X019349Y012617D01*
X019315Y012583D01*
X019248Y012496D02*
X019248Y012362D01*
X019148Y012275D02*
X019148Y012141D01*
X019148Y012208D02*
X019349Y012208D01*
X019282Y012141D01*
X019349Y012054D02*
X019315Y011987D01*
X019248Y011920D01*
X019248Y012020D01*
X019215Y012054D01*
X019182Y012054D01*
X019148Y012020D01*
X019148Y011954D01*
X019182Y011920D01*
X019248Y011920D01*
X019248Y011833D02*
X019248Y011733D01*
X019282Y011699D01*
X019315Y011699D01*
X019349Y011733D01*
X019349Y011799D01*
X019315Y011833D01*
X019182Y011833D01*
X019148Y011799D01*
X019148Y011733D01*
X019182Y011699D01*
X019182Y011612D02*
X019148Y011578D01*
X019148Y011512D01*
X019182Y011478D01*
X019248Y011545D02*
X019248Y011578D01*
X019215Y011612D01*
X019182Y011612D01*
X019248Y011578D02*
X019282Y011612D01*
X019315Y011612D01*
X019349Y011578D01*
X019349Y011512D01*
X019315Y011478D01*
X019248Y011391D02*
X019248Y011257D01*
X019215Y011170D02*
X019182Y011170D01*
X019148Y011136D01*
X019148Y011070D01*
X019182Y011036D01*
X019248Y011070D02*
X019248Y011136D01*
X019215Y011170D01*
X019315Y011170D02*
X019349Y011136D01*
X019349Y011070D01*
X019315Y011036D01*
X019282Y011036D01*
X019248Y011070D01*
X019182Y010949D02*
X019148Y010915D01*
X019148Y010849D01*
X019182Y010815D01*
X019315Y010815D01*
X019349Y010849D01*
X019349Y010915D01*
X019315Y010949D01*
X019349Y010728D02*
X019349Y010594D01*
X019148Y010594D01*
X019148Y010728D01*
X019248Y010661D02*
X019248Y010594D01*
X018540Y011263D02*
X018540Y012023D01*
X017921Y012023D02*
X017921Y011263D01*
X024121Y012247D02*
X024121Y013007D01*
X024741Y013007D02*
X024741Y012247D01*
X028087Y009591D02*
X028847Y009591D01*
X028847Y008971D02*
X028087Y008971D01*
X028087Y008213D02*
X028847Y008213D01*
X028847Y007593D02*
X028087Y007593D01*
X028327Y006887D02*
X028607Y006887D01*
X028607Y006552D02*
X028327Y006552D01*
X028338Y004930D02*
X028271Y004930D01*
X028238Y004897D01*
X028238Y004864D01*
X028271Y004830D01*
X028338Y004830D01*
X028372Y004864D01*
X028372Y004897D01*
X028338Y004930D01*
X028338Y004830D02*
X028372Y004797D01*
X028372Y004764D01*
X028338Y004730D01*
X028271Y004730D01*
X028238Y004764D01*
X028238Y004797D01*
X028271Y004830D01*
X028151Y004830D02*
X028084Y004864D01*
X028050Y004864D01*
X028017Y004830D01*
X028017Y004764D01*
X028050Y004730D01*
X028117Y004730D01*
X028151Y004764D01*
X028151Y004830D02*
X028151Y004930D01*
X028017Y004930D01*
X027930Y004930D02*
X027930Y004830D01*
X027863Y004864D01*
X027829Y004864D01*
X027796Y004830D01*
X027796Y004764D01*
X027829Y004730D01*
X027896Y004730D01*
X027930Y004764D01*
X027930Y004930D02*
X027796Y004930D01*
X027202Y004936D02*
X027202Y004177D01*
X026582Y004177D02*
X026582Y004936D01*
X028459Y004730D02*
X028593Y004730D01*
X028526Y004730D02*
X028526Y004930D01*
X028593Y004864D01*
X028680Y004864D02*
X028713Y004830D01*
X028680Y004797D01*
X028680Y004764D01*
X028713Y004730D01*
X028780Y004730D01*
X028814Y004764D01*
X028901Y004730D02*
X029035Y004930D01*
X029122Y004864D02*
X029122Y004730D01*
X029035Y004730D02*
X028901Y004930D01*
X028814Y004897D02*
X028780Y004930D01*
X028713Y004930D01*
X028680Y004897D01*
X028680Y004864D01*
X028713Y004830D02*
X028747Y004830D01*
X029122Y004830D02*
X029256Y004830D01*
X029256Y004864D02*
X029189Y004930D01*
X029122Y004864D01*
X029256Y004864D02*
X029256Y004730D01*
X029343Y004730D02*
X029343Y004930D01*
X029410Y004864D01*
X029476Y004930D01*
X029476Y004730D01*
X029783Y004442D02*
X029816Y004475D01*
X029850Y004475D01*
X029883Y004442D01*
X029883Y004342D01*
X029816Y004342D01*
X029783Y004375D01*
X029783Y004442D01*
X029883Y004342D02*
X029950Y004408D01*
X029983Y004475D01*
X029983Y004187D02*
X029783Y004187D01*
X029783Y004121D02*
X029783Y004254D01*
X029916Y004121D02*
X029983Y004187D01*
X029983Y004033D02*
X029816Y004033D01*
X029783Y004000D01*
X029783Y003933D01*
X029816Y003900D01*
X029983Y003900D01*
X031774Y004675D02*
X031774Y005619D01*
X033034Y005619D01*
X033034Y004675D01*
X031774Y004675D01*
X033632Y005541D02*
X033832Y005541D01*
X033632Y005674D01*
X033832Y005674D01*
X033799Y005762D02*
X033666Y005762D01*
X033632Y005795D01*
X033632Y005862D01*
X033666Y005895D01*
X033699Y005983D02*
X033632Y006050D01*
X033699Y006116D01*
X033832Y006116D01*
X033799Y006204D02*
X033766Y006204D01*
X033732Y006237D01*
X033732Y006304D01*
X033699Y006337D01*
X033666Y006337D01*
X033632Y006304D01*
X033632Y006237D01*
X033666Y006204D01*
X033699Y006204D01*
X033732Y006237D01*
X033732Y006304D02*
X033766Y006337D01*
X033799Y006337D01*
X033832Y006304D01*
X033832Y006237D01*
X033799Y006204D01*
X033766Y006425D02*
X033832Y006492D01*
X033632Y006492D01*
X033632Y006558D02*
X033632Y006425D01*
X033666Y006646D02*
X033632Y006679D01*
X033632Y006746D01*
X033666Y006779D01*
X033699Y006779D01*
X033732Y006746D01*
X033732Y006646D01*
X033666Y006646D01*
X033732Y006646D02*
X033799Y006713D01*
X033832Y006779D01*
X033766Y006867D02*
X033832Y006934D01*
X033632Y006934D01*
X033632Y007000D02*
X033632Y006867D01*
X033732Y007088D02*
X033732Y007221D01*
X033666Y007309D02*
X033632Y007342D01*
X033632Y007409D01*
X033666Y007442D01*
X033699Y007442D01*
X033732Y007409D01*
X033732Y007376D01*
X033732Y007409D02*
X033766Y007442D01*
X033799Y007442D01*
X033832Y007409D01*
X033832Y007342D01*
X033799Y007309D01*
X033666Y007530D02*
X033666Y007563D01*
X033632Y007563D01*
X033632Y007530D01*
X033666Y007530D01*
X033666Y007640D02*
X033632Y007674D01*
X033632Y007740D01*
X033666Y007774D01*
X033699Y007774D01*
X033732Y007740D01*
X033732Y007707D01*
X033732Y007740D02*
X033766Y007774D01*
X033799Y007774D01*
X033832Y007740D01*
X033832Y007674D01*
X033799Y007640D01*
X033832Y007861D02*
X033699Y007861D01*
X033632Y007928D01*
X033699Y007995D01*
X033832Y007995D01*
X033034Y007824D02*
X033034Y008769D01*
X031774Y008769D01*
X031774Y007824D01*
X033034Y007824D01*
X033699Y005983D02*
X033832Y005983D01*
X033799Y005895D02*
X033832Y005862D01*
X033832Y005795D01*
X033799Y005762D01*
X030773Y015552D02*
X030573Y015552D01*
X030673Y015552D02*
X030673Y015619D01*
X030773Y015685D02*
X030773Y015552D01*
X030773Y015773D02*
X030573Y015773D01*
X030673Y015773D02*
X030673Y015906D01*
X030707Y015994D02*
X030773Y016061D01*
X030573Y016061D01*
X030573Y016127D02*
X030573Y015994D01*
X030573Y015906D02*
X030773Y015906D01*
X030740Y016215D02*
X030773Y016248D01*
X030773Y016315D01*
X030740Y016348D01*
X030707Y016348D01*
X030573Y016215D01*
X030573Y016348D01*
X030673Y016436D02*
X030673Y016569D01*
X030740Y016657D02*
X030773Y016690D01*
X030773Y016757D01*
X030740Y016790D01*
X030707Y016790D01*
X030573Y016657D01*
X030573Y016790D01*
X030673Y016878D02*
X030673Y017011D01*
X030707Y017099D02*
X030673Y017132D01*
X030673Y017199D01*
X030640Y017232D01*
X030606Y017232D01*
X030573Y017199D01*
X030573Y017132D01*
X030606Y017099D01*
X030707Y017099D02*
X030740Y017099D01*
X030773Y017132D01*
X030773Y017199D01*
X030740Y017232D01*
X030673Y017320D02*
X030673Y017453D01*
X030606Y017541D02*
X030740Y017541D01*
X030773Y017574D01*
X030773Y017641D01*
X030740Y017674D01*
X030606Y017541D01*
X030573Y017574D01*
X030573Y017641D01*
X030606Y017674D01*
X030740Y017674D01*
X030606Y017762D02*
X030606Y017795D01*
X030573Y017795D01*
X030573Y017762D01*
X030606Y017762D01*
X030606Y017872D02*
X030573Y017906D01*
X030573Y017972D01*
X030606Y018006D01*
X030673Y018006D01*
X030707Y017972D01*
X030707Y017939D01*
X030673Y017872D01*
X030773Y017872D01*
X030773Y018006D01*
X030740Y018093D02*
X030707Y018093D01*
X030673Y018127D01*
X030673Y018193D01*
X030640Y018227D01*
X030606Y018227D01*
X030573Y018193D01*
X030573Y018127D01*
X030606Y018093D01*
X030740Y018093D02*
X030773Y018127D01*
X030773Y018193D01*
X030740Y018227D01*
X030773Y018314D02*
X030573Y018314D01*
X030673Y018314D02*
X030673Y018448D01*
X030773Y018448D02*
X030573Y018448D01*
X030573Y016978D02*
X030773Y016978D01*
X030673Y016878D01*
X029971Y016096D02*
X029838Y016096D01*
X029971Y015962D01*
X029971Y015929D01*
X029938Y015895D01*
X029871Y015895D01*
X029838Y015929D01*
X029750Y015929D02*
X029617Y016062D01*
X029650Y016096D01*
X029717Y016096D01*
X029750Y016062D01*
X029750Y015929D01*
X029717Y015895D01*
X029650Y015895D01*
X029617Y015929D01*
X029617Y016062D01*
X029529Y016096D02*
X029396Y016096D01*
X029463Y016096D02*
X029463Y015895D01*
X029396Y015962D01*
X029308Y015929D02*
X029175Y016062D01*
X029208Y016096D01*
X029275Y016096D01*
X029308Y016062D01*
X029308Y015929D01*
X029275Y015895D01*
X029208Y015895D01*
X029175Y015929D01*
X029175Y016062D01*
X029087Y016062D02*
X029054Y016096D01*
X028954Y016096D01*
X028954Y015895D01*
X029054Y015895D01*
X029087Y015929D01*
X029087Y015962D01*
X029054Y015995D01*
X028954Y015995D01*
X029054Y015995D02*
X029087Y016029D01*
X029087Y016062D01*
X028866Y016096D02*
X028733Y015895D01*
X028645Y015895D02*
X028512Y015895D01*
X028579Y015895D02*
X028579Y016096D01*
X028733Y016096D02*
X028866Y015895D01*
X027173Y019896D02*
X026414Y019896D01*
X026414Y020516D02*
X027173Y020516D01*
X027122Y022655D02*
X026989Y022655D01*
X027056Y022655D02*
X027056Y022855D01*
X027122Y022788D01*
X027210Y022822D02*
X027343Y022688D01*
X027343Y022655D01*
X027431Y022688D02*
X027464Y022655D01*
X027531Y022655D01*
X027564Y022688D01*
X027431Y022822D01*
X027431Y022688D01*
X027564Y022688D02*
X027564Y022822D01*
X027531Y022855D01*
X027464Y022855D01*
X027431Y022822D01*
X027343Y022855D02*
X027210Y022855D01*
X027210Y022822D01*
X026901Y022855D02*
X026901Y022655D01*
X026801Y022655D01*
X026768Y022688D01*
X026768Y022722D01*
X026801Y022755D01*
X026901Y022755D01*
X026801Y022755D02*
X026768Y022788D01*
X026768Y022822D01*
X026801Y022855D01*
X026901Y022855D01*
X026681Y022788D02*
X026681Y022655D01*
X026681Y022755D02*
X026547Y022755D01*
X026547Y022788D02*
X026547Y022655D01*
X026460Y022688D02*
X026426Y022655D01*
X026359Y022655D01*
X026326Y022688D01*
X026326Y022855D01*
X026239Y022855D02*
X026105Y022855D01*
X026172Y022855D02*
X026172Y022655D01*
X026018Y022655D02*
X025884Y022788D01*
X025884Y022822D01*
X025917Y022855D01*
X025984Y022855D01*
X026018Y022822D01*
X026018Y022655D02*
X025884Y022655D01*
X025797Y022688D02*
X025763Y022655D01*
X025696Y022655D01*
X025663Y022688D01*
X025663Y022755D01*
X025696Y022788D01*
X025730Y022788D01*
X025797Y022755D01*
X025797Y022855D01*
X025663Y022855D01*
X025576Y022855D02*
X025442Y022855D01*
X025509Y022855D02*
X025509Y022655D01*
X025107Y022386D02*
X024347Y022386D01*
X024347Y021766D02*
X025107Y021766D01*
X026460Y022688D02*
X026460Y022855D01*
X026547Y022788D02*
X026614Y022855D01*
X026681Y022788D01*
X027652Y022722D02*
X027685Y022755D01*
X027785Y022755D01*
X027785Y022688D01*
X027752Y022655D01*
X027685Y022655D01*
X027652Y022688D01*
X027652Y022722D01*
X027719Y022822D02*
X027785Y022755D01*
X027719Y022822D02*
X027652Y022855D01*
X027873Y022855D02*
X028006Y022655D01*
X028094Y022655D02*
X028094Y022788D01*
X028161Y022855D01*
X028227Y022788D01*
X028227Y022655D01*
X028315Y022655D02*
X028315Y022855D01*
X028382Y022788D01*
X028448Y022855D01*
X028448Y022655D01*
X028227Y022755D02*
X028094Y022755D01*
X028006Y022855D02*
X027873Y022655D01*
X029662Y023341D02*
X030421Y023341D01*
X030421Y023961D02*
X029662Y023961D01*
X032338Y023877D02*
X032338Y023743D01*
X032338Y023810D02*
X032539Y023810D01*
X032472Y023743D01*
X032338Y023656D02*
X032338Y023522D01*
X032338Y023589D02*
X032539Y023589D01*
X032472Y023522D01*
X032438Y023435D02*
X032438Y023301D01*
X032405Y023214D02*
X032372Y023214D01*
X032338Y023181D01*
X032338Y023114D01*
X032372Y023080D01*
X032438Y023114D02*
X032438Y023181D01*
X032405Y023214D01*
X032505Y023214D02*
X032539Y023181D01*
X032539Y023114D01*
X032505Y023080D01*
X032472Y023080D01*
X032438Y023114D01*
X032438Y023964D02*
X032438Y024098D01*
X032338Y024064D02*
X032539Y024064D01*
X032438Y023964D01*
X032505Y024185D02*
X032539Y024219D01*
X032539Y024285D01*
X032505Y024319D01*
X032472Y024319D01*
X032338Y024185D01*
X032338Y024319D01*
X032338Y024406D02*
X032338Y024506D01*
X032372Y024540D01*
X032505Y024540D01*
X032539Y024506D01*
X032539Y024406D01*
X032338Y024406D01*
X032372Y024627D02*
X032338Y024661D01*
X032338Y024727D01*
X032372Y024761D01*
X032372Y024848D02*
X032338Y024882D01*
X032338Y024948D01*
X032372Y024982D01*
X032438Y024982D01*
X032472Y024948D01*
X032472Y024915D01*
X032438Y024848D01*
X032539Y024848D01*
X032539Y024982D01*
X032539Y025069D02*
X032539Y025136D01*
X032539Y025103D02*
X032338Y025103D01*
X032338Y025136D02*
X032338Y025069D01*
X032505Y024761D02*
X032539Y024727D01*
X032539Y024661D01*
X032505Y024627D01*
X032372Y024627D01*
X034780Y026294D02*
X035540Y026294D01*
X035540Y026914D02*
X034780Y026914D01*
X035567Y022977D02*
X036327Y022977D01*
X036327Y022357D02*
X035567Y022357D01*
X035317Y019596D02*
X035317Y018651D01*
X036577Y018651D01*
X036577Y019596D01*
X035317Y019596D01*
X028383Y030948D02*
X028383Y031708D01*
X027763Y031708D02*
X027763Y030948D01*
X021859Y004079D02*
X021099Y004079D01*
X021099Y003459D02*
X021859Y003459D01*
D18*
X006025Y020213D03*
X006025Y020793D03*
X010160Y020986D03*
X010160Y020406D03*
D19*
X014184Y027029D02*
X014184Y027154D01*
X014309Y027154D01*
X014184Y027154D02*
X014059Y027154D01*
X014184Y027154D02*
X014184Y027279D01*
X022837Y022338D02*
X023467Y022338D01*
X023467Y021814D02*
X022837Y021814D01*
X022380Y019123D02*
X022168Y019123D01*
X022168Y018911D01*
X025892Y019123D02*
X026105Y019123D01*
X026105Y018911D01*
X026105Y015399D02*
X026105Y015186D01*
X025892Y015186D01*
X022380Y015186D02*
X022168Y015186D01*
X022168Y015399D01*
X020829Y012627D02*
X019569Y012627D01*
X019569Y012519D01*
X020829Y012519D02*
X020829Y012627D01*
X020829Y010768D02*
X020829Y010659D01*
X019569Y010659D01*
X019569Y010768D01*
X027674Y005344D02*
X027674Y003769D01*
X027679Y003769D02*
X029648Y003769D01*
X029648Y005344D01*
X027679Y005344D01*
X027679Y003769D01*
X029653Y003769D02*
X029653Y005344D01*
X030071Y003651D02*
X030073Y003663D01*
X030078Y003674D01*
X030087Y003683D01*
X030098Y003688D01*
X030110Y003690D01*
X030122Y003688D01*
X030133Y003683D01*
X030142Y003674D01*
X030147Y003663D01*
X030149Y003651D01*
X030147Y003639D01*
X030142Y003628D01*
X030133Y003619D01*
X030122Y003614D01*
X030110Y003612D01*
X030098Y003614D01*
X030087Y003619D01*
X030078Y003628D01*
X030073Y003639D01*
X030071Y003651D01*
X033154Y005697D02*
X033279Y005697D01*
X033404Y005697D01*
X033279Y005697D02*
X033279Y005822D01*
X033279Y005697D02*
X033279Y005572D01*
X031529Y007622D02*
X031529Y007747D01*
X031404Y007747D01*
X031529Y007747D02*
X031529Y007872D01*
X031529Y007747D02*
X031654Y007747D01*
X032991Y009918D02*
X032991Y013368D01*
X036541Y013368D01*
X036541Y009918D01*
X032991Y009918D01*
X032010Y011328D02*
X031616Y011328D01*
X031616Y011958D02*
X032010Y011958D01*
X035072Y018448D02*
X035072Y018573D01*
X034947Y018573D01*
X035072Y018573D02*
X035072Y018698D01*
X035072Y018573D02*
X035197Y018573D01*
D20*
X025841Y014336D02*
X025843Y014348D01*
X025848Y014359D01*
X025857Y014368D01*
X025868Y014373D01*
X025880Y014375D01*
X025892Y014373D01*
X025903Y014368D01*
X025912Y014359D01*
X025917Y014348D01*
X025919Y014336D01*
X025917Y014324D01*
X025912Y014313D01*
X025903Y014304D01*
X025892Y014299D01*
X025880Y014297D01*
X025868Y014299D01*
X025857Y014304D01*
X025848Y014313D01*
X025843Y014324D01*
X025841Y014336D01*
X019688Y010462D02*
X019690Y010474D01*
X019695Y010485D01*
X019704Y010494D01*
X019715Y010499D01*
X019727Y010501D01*
X019739Y010499D01*
X019750Y010494D01*
X019759Y010485D01*
X019764Y010474D01*
X019766Y010462D01*
X019764Y010450D01*
X019759Y010439D01*
X019750Y010430D01*
X019739Y010425D01*
X019727Y010423D01*
X019715Y010425D01*
X019704Y010430D01*
X019695Y010439D01*
X019690Y010450D01*
X019688Y010462D01*
X027877Y006249D02*
X027879Y006261D01*
X027884Y006272D01*
X027893Y006281D01*
X027904Y006286D01*
X027916Y006288D01*
X027928Y006286D01*
X027939Y006281D01*
X027948Y006272D01*
X027953Y006261D01*
X027955Y006249D01*
X027953Y006237D01*
X027948Y006226D01*
X027939Y006217D01*
X027928Y006212D01*
X027916Y006210D01*
X027904Y006212D01*
X027893Y006217D01*
X027884Y006226D01*
X027879Y006237D01*
X027877Y006249D01*
X027877Y004899D02*
X027879Y004911D01*
X027884Y004922D01*
X027893Y004931D01*
X027904Y004936D01*
X027916Y004938D01*
X027928Y004936D01*
X027939Y004931D01*
X027948Y004922D01*
X027953Y004911D01*
X027955Y004899D01*
X027953Y004887D01*
X027948Y004876D01*
X027939Y004867D01*
X027928Y004862D01*
X027916Y004860D01*
X027904Y004862D01*
X027893Y004867D01*
X027884Y004876D01*
X027879Y004887D01*
X027877Y004899D01*
D21*
X023578Y003058D02*
X023578Y001330D01*
X020753Y001330D01*
X020753Y003058D01*
X023578Y003058D01*
X021833Y002194D02*
X021498Y002194D01*
X021664Y002037D02*
X021664Y002352D01*
X015790Y002450D02*
X015160Y002450D01*
X015160Y003513D01*
X015790Y003513D01*
X015790Y002450D01*
X015790Y002647D02*
X015790Y003316D01*
X015160Y003316D02*
X015160Y002647D01*
X015416Y014871D02*
X014746Y014871D01*
X014549Y014871D02*
X015612Y014871D01*
X015612Y015501D01*
X014549Y015501D01*
X014549Y014871D01*
X014746Y015501D02*
X015416Y015501D01*
X015337Y024517D02*
X016006Y024517D01*
X016203Y024517D02*
X016203Y025147D01*
X015140Y025147D01*
X015140Y024517D01*
X016203Y024517D01*
X016006Y025147D02*
X015337Y025147D01*
X016912Y025147D02*
X016912Y024517D01*
X017975Y024517D01*
X017975Y025147D01*
X016912Y025147D01*
X017109Y025147D02*
X017778Y025147D01*
X017778Y024517D02*
X017109Y024517D01*
X017520Y029914D02*
X015792Y029914D01*
X015792Y032738D01*
X017520Y032738D01*
X017520Y029914D01*
X016656Y030659D02*
X016656Y030994D01*
X016813Y030824D02*
X016498Y030824D01*
X029276Y029914D02*
X029276Y032738D01*
X031004Y032738D01*
X031004Y029914D01*
X029276Y029914D01*
X030140Y030659D02*
X030140Y030994D01*
X030297Y030824D02*
X029983Y030824D01*
X029707Y025147D02*
X030376Y025147D01*
X030573Y025147D02*
X029510Y025147D01*
X029510Y024517D01*
X030573Y024517D01*
X030573Y025147D01*
X030376Y024517D02*
X029707Y024517D01*
X032689Y024990D02*
X032689Y023690D01*
X032689Y023494D01*
X034575Y023494D01*
X034575Y023690D01*
X032689Y023690D01*
X032689Y024990D02*
X034575Y024990D01*
X034575Y023690D01*
X032601Y019891D02*
X032207Y019891D01*
X032601Y019891D02*
X032601Y019419D01*
X031026Y019891D02*
X030868Y019891D01*
X030868Y019773D01*
X030868Y014143D01*
X030750Y014143D01*
X030750Y014025D01*
X030475Y014025D01*
X030475Y019891D01*
X030750Y019891D01*
X030750Y019773D01*
X030868Y019773D01*
X030750Y014773D02*
X030593Y014694D01*
X030750Y014616D01*
X030750Y014773D01*
X030750Y014748D02*
X030701Y014748D01*
X030750Y014670D02*
X030642Y014670D01*
X030868Y014143D02*
X030868Y014025D01*
X031026Y014025D01*
X032207Y014025D02*
X032601Y014025D01*
X032601Y014497D01*
D22*
X015475Y003617D03*
X015475Y002347D03*
D23*
X015480Y002667D03*
D24*
X015716Y015186D03*
X014446Y015186D03*
X015037Y024832D03*
X016306Y024832D03*
X016808Y024832D03*
X018078Y024832D03*
X029407Y024832D03*
X030676Y024832D03*
D25*
X029727Y024827D03*
X017758Y024837D03*
X015986Y024837D03*
X015396Y015191D03*
D26*
X014492Y017966D03*
X013702Y018336D03*
X014492Y018706D03*
X017641Y003352D03*
X017641Y002612D03*
X016851Y002982D03*
D27*
X032880Y023257D03*
X034384Y023257D03*
X034384Y025226D03*
X032880Y025226D03*
D28*
X033632Y025226D03*
X033632Y023257D03*
D29*
X027929Y018828D03*
X027429Y018828D03*
X029004Y012037D03*
X029504Y012037D03*
X029504Y011249D03*
X029004Y011249D03*
X035697Y017155D03*
X036197Y017155D03*
X015921Y023848D03*
X015421Y023848D03*
D30*
X013974Y026604D03*
X012645Y026604D03*
X031739Y008297D03*
X033068Y008297D03*
X033068Y005147D03*
X031739Y005147D03*
X035283Y019123D03*
X036611Y019123D03*
D31*
X035514Y019123D03*
X031971Y008297D03*
X032837Y005147D03*
X013742Y026604D03*
D32*
X028073Y030806D03*
X028073Y031850D03*
X024432Y013150D03*
X024431Y012105D03*
X018231Y012165D03*
X018230Y011121D03*
X026892Y005079D03*
X026892Y004034D03*
D33*
X027944Y007903D03*
X028989Y007903D03*
X028989Y009281D03*
X027944Y009281D03*
X022001Y003769D03*
X020956Y003769D03*
X026271Y020206D03*
X027316Y020206D03*
X025249Y022076D03*
X024204Y022077D03*
X029519Y023651D03*
X030564Y023651D03*
X034637Y026604D03*
X035682Y026603D03*
X035425Y022667D03*
X036469Y022666D03*
X017178Y020698D03*
X016133Y020699D03*
D34*
X013508Y021718D03*
X013508Y022038D03*
X027337Y014164D03*
X027337Y013844D03*
X029591Y012983D03*
X029591Y012663D03*
X029591Y010621D03*
X029591Y010301D03*
X030975Y003339D03*
X030975Y003019D03*
X031555Y003019D03*
X031555Y003339D03*
X015473Y004397D03*
X015473Y004717D03*
D35*
X013667Y001606D03*
X013347Y001606D03*
X029142Y013659D03*
X029462Y013659D03*
X030276Y011940D03*
X030596Y011940D03*
X030596Y011350D03*
X030276Y011350D03*
X034556Y016415D03*
X034876Y016415D03*
D36*
X032286Y011053D02*
X032288Y011065D01*
X032293Y011076D01*
X032302Y011085D01*
X032313Y011090D01*
X032325Y011092D01*
X032337Y011090D01*
X032348Y011085D01*
X032357Y011076D01*
X032362Y011065D01*
X032364Y011053D01*
X032362Y011041D01*
X032357Y011030D01*
X032348Y011021D01*
X032337Y011016D01*
X032325Y011014D01*
X032313Y011016D01*
X032302Y011021D01*
X032293Y011030D01*
X032288Y011041D01*
X032286Y011053D01*
D37*
X032655Y011038D02*
X032785Y011038D01*
X032763Y011099D02*
X032785Y011121D01*
X032785Y011164D01*
X032763Y011186D01*
X032742Y011186D01*
X032720Y011164D01*
X032698Y011186D01*
X032677Y011186D01*
X032655Y011164D01*
X032655Y011121D01*
X032677Y011099D01*
X032720Y011142D02*
X032720Y011164D01*
X032742Y011246D02*
X032785Y011290D01*
X032655Y011290D01*
X032655Y011333D02*
X032655Y011246D01*
X032677Y011394D02*
X032655Y011415D01*
X032655Y011459D01*
X032677Y011480D01*
X032698Y011480D01*
X032720Y011459D01*
X032720Y011415D01*
X032742Y011394D01*
X032763Y011394D01*
X032785Y011415D01*
X032785Y011459D01*
X032763Y011480D01*
X032785Y011541D02*
X032655Y011628D01*
X032785Y011628D01*
X032785Y011541D02*
X032655Y011541D01*
X032677Y011688D02*
X032655Y011710D01*
X032655Y011753D01*
X032677Y011775D01*
X032698Y011775D01*
X032720Y011753D01*
X032720Y011688D01*
X032677Y011688D01*
X032720Y011688D02*
X032763Y011732D01*
X032785Y011775D01*
X032763Y011836D02*
X032785Y011857D01*
X032785Y011901D01*
X032763Y011922D01*
X032677Y011836D01*
X032655Y011857D01*
X032655Y011901D01*
X032677Y011922D01*
X032763Y011922D01*
X032742Y011983D02*
X032785Y012026D01*
X032655Y012026D01*
X032655Y011983D02*
X032655Y012070D01*
X032677Y012130D02*
X032655Y012152D01*
X032655Y012195D01*
X032677Y012217D01*
X032698Y012217D01*
X032720Y012195D01*
X032720Y012152D01*
X032742Y012130D01*
X032763Y012130D01*
X032785Y012152D01*
X032785Y012195D01*
X032763Y012217D01*
X032763Y012278D02*
X032785Y012299D01*
X032785Y012343D01*
X032763Y012364D01*
X032677Y012364D01*
X032655Y012343D01*
X032655Y012299D01*
X032677Y012278D01*
X032763Y012278D01*
X032698Y012321D02*
X032655Y012364D01*
X032655Y012425D02*
X032742Y012512D01*
X032763Y012512D01*
X032785Y012490D01*
X032785Y012447D01*
X032763Y012425D01*
X032655Y012425D02*
X032655Y012512D01*
X032655Y012572D02*
X032655Y012659D01*
X032655Y012572D02*
X032785Y012572D01*
X032763Y011836D02*
X032677Y011836D01*
X032655Y011038D02*
X032698Y010995D01*
X032655Y010952D01*
X032785Y010952D01*
X032655Y010891D02*
X032655Y010804D01*
X032785Y010804D01*
X032763Y010744D02*
X032785Y010722D01*
X032785Y010657D01*
X032655Y010657D01*
X032655Y010722D01*
X032677Y010744D01*
X032763Y010744D01*
X030275Y010753D02*
X030254Y010753D01*
X030167Y010666D01*
X030145Y010666D01*
X030145Y010753D01*
X030145Y010814D02*
X030145Y010901D01*
X030145Y010857D02*
X030275Y010857D01*
X030232Y010814D01*
X030275Y010753D02*
X030275Y010666D01*
X030254Y010606D02*
X030275Y010584D01*
X030275Y010541D01*
X030254Y010519D01*
X030232Y010519D01*
X030210Y010541D01*
X030210Y010584D01*
X030189Y010606D01*
X030167Y010606D01*
X030145Y010584D01*
X030145Y010541D01*
X030167Y010519D01*
X030145Y010459D02*
X030145Y010372D01*
X030232Y010459D01*
X030254Y010459D01*
X030275Y010437D01*
X030275Y010394D01*
X030254Y010372D01*
X030254Y010311D02*
X030167Y010225D01*
X030145Y010246D01*
X030145Y010290D01*
X030167Y010311D01*
X030254Y010311D01*
X030275Y010290D01*
X030275Y010246D01*
X030254Y010225D01*
X030167Y010225D01*
X030145Y010164D02*
X030145Y010077D01*
X030145Y010121D02*
X030275Y010121D01*
X030232Y010077D01*
X030275Y010017D02*
X030145Y009930D01*
X030145Y009869D02*
X030232Y009869D01*
X030275Y009826D01*
X030232Y009783D01*
X030145Y009783D01*
X030167Y009722D02*
X030145Y009700D01*
X030145Y009657D01*
X030167Y009635D01*
X030210Y009635D02*
X030232Y009679D01*
X030232Y009700D01*
X030210Y009722D01*
X030167Y009722D01*
X030210Y009783D02*
X030210Y009869D01*
X030275Y009930D02*
X030145Y010017D01*
X030275Y009722D02*
X030275Y009635D01*
X030210Y009635D01*
X030145Y009575D02*
X030145Y009488D01*
X030145Y009531D02*
X030275Y009531D01*
X030232Y009488D01*
X030275Y009427D02*
X030145Y009427D01*
X030145Y009341D02*
X030275Y009341D01*
X030232Y009384D01*
X030275Y009427D01*
X030145Y009280D02*
X030145Y009193D01*
X030275Y009193D01*
X030254Y009133D02*
X030232Y009133D01*
X030210Y009111D01*
X030210Y009046D01*
X030145Y009046D02*
X030145Y009111D01*
X030167Y009133D01*
X030189Y009133D01*
X030210Y009111D01*
X030254Y009133D02*
X030275Y009111D01*
X030275Y009046D01*
X030145Y009046D01*
X030145Y010961D02*
X030145Y011026D01*
X030167Y011048D01*
X030254Y011048D01*
X030275Y011026D01*
X030275Y010961D01*
X030145Y010961D01*
X030904Y004618D02*
X030904Y004531D01*
X030969Y004596D01*
X030839Y004596D01*
X030861Y004471D02*
X030839Y004449D01*
X030839Y004406D01*
X030861Y004384D01*
X030947Y004471D01*
X030861Y004471D01*
X030947Y004471D02*
X030969Y004449D01*
X030969Y004406D01*
X030947Y004384D01*
X030861Y004384D01*
X030839Y004323D02*
X030839Y004237D01*
X030839Y004280D02*
X030969Y004280D01*
X030926Y004237D01*
X030947Y004176D02*
X030861Y004089D01*
X030839Y004111D01*
X030839Y004154D01*
X030861Y004176D01*
X030947Y004176D01*
X030969Y004154D01*
X030969Y004111D01*
X030947Y004089D01*
X030861Y004089D01*
X030861Y004029D02*
X030839Y004007D01*
X030839Y003942D01*
X030969Y003942D01*
X030969Y004007D01*
X030947Y004029D01*
X030926Y004029D01*
X030904Y004007D01*
X030904Y003942D01*
X030904Y004007D02*
X030882Y004029D01*
X030861Y004029D01*
X030839Y003881D02*
X030969Y003795D01*
X030969Y003734D02*
X030969Y003647D01*
X030969Y003691D02*
X030839Y003691D01*
X030839Y003795D02*
X030969Y003881D01*
D38*
X028695Y006720D03*
X028235Y006720D03*
D39*
X030051Y004556D02*
X030051Y003769D01*
X030721Y003769D01*
X030721Y004556D01*
X030051Y004556D01*
D40*
X030187Y003902D03*
M02*
