G75*
G70*
%OFA0B0*%
%FSLAX24Y24*%
%IPPOS*%
%LPD*%
%AMOC8*
5,1,8,0,0,1.08239X$1,22.5*
%
%ADD10C,0.0000*%
%ADD11C,0.0320*%
%ADD12C,0.0070*%
%ADD13C,0.0060*%
%ADD14C,0.0160*%
%ADD15C,0.0120*%
%ADD16C,0.0090*%
%ADD17C,0.0140*%
%ADD18C,0.0100*%
%ADD19C,0.0080*%
%ADD20C,0.0020*%
%ADD21C,0.0040*%
%ADD22R,0.0320X0.1030*%
%ADD23R,0.0340X0.0240*%
%ADD24C,0.0200*%
%ADD25R,0.0300X0.4200*%
%ADD26R,0.0200X0.0750*%
%ADD27R,0.0200X0.0300*%
%ADD28C,0.0050*%
%ADD29R,0.4200X0.0300*%
%ADD30R,0.0750X0.0200*%
%ADD31R,0.0300X0.0200*%
%ADD32R,0.0750X0.0500*%
%ADD33R,0.0700X0.0300*%
%ADD34R,0.0300X0.0500*%
%ADD35C,0.0079*%
%ADD36R,0.0250X0.1000*%
%ADD37R,0.0230X0.0180*%
%ADD38R,0.0340X0.0160*%
%ADD39R,0.0160X0.0340*%
%ADD40R,0.0118X0.0236*%
%ADD41R,0.0295X0.0669*%
%ADD42R,0.0669X0.0295*%
%ADD43R,0.0236X0.0118*%
%ADD44R,0.0240X0.0620*%
%ADD45R,0.0660X0.0300*%
%ADD46R,0.0433X0.0193*%
%ADD47R,0.0472X0.0049*%
%ADD48R,0.0965X0.0118*%
%ADD49R,0.0551X0.0256*%
%ADD50C,0.0039*%
%ADD51R,0.0193X0.0433*%
%ADD52R,0.0199X0.0449*%
%ADD53R,0.0201X0.0451*%
%ADD54R,0.0200X0.0451*%
%ADD55R,0.0200X0.0451*%
%ADD56R,0.0200X0.0450*%
%ADD57R,0.0200X0.0450*%
%ADD58R,0.0200X0.0449*%
%ADD59R,0.0201X0.0449*%
D10*
X000120Y000226D02*
X000120Y033690D01*
X039097Y033690D01*
X039097Y000226D01*
X000120Y000226D01*
X034646Y013809D02*
X034886Y013809D01*
X034884Y013830D01*
X034879Y013850D01*
X034870Y013869D01*
X034858Y013886D01*
X034843Y013901D01*
X034826Y013913D01*
X034807Y013922D01*
X034787Y013927D01*
X034766Y013929D01*
X034745Y013927D01*
X034725Y013922D01*
X034706Y013913D01*
X034689Y013901D01*
X034674Y013886D01*
X034662Y013869D01*
X034653Y013850D01*
X034648Y013830D01*
X034646Y013809D01*
X034646Y016565D02*
X034886Y016565D01*
X034884Y016586D01*
X034879Y016606D01*
X034870Y016625D01*
X034858Y016642D01*
X034843Y016657D01*
X034826Y016669D01*
X034807Y016678D01*
X034787Y016683D01*
X034766Y016685D01*
X034745Y016683D01*
X034725Y016678D01*
X034706Y016669D01*
X034689Y016657D01*
X034674Y016642D01*
X034662Y016625D01*
X034653Y016606D01*
X034648Y016586D01*
X034646Y016565D01*
D11*
X015081Y011643D02*
X015081Y005344D01*
X011931Y005344D01*
X011931Y003080D01*
X006026Y003080D01*
X005632Y003572D01*
X005632Y005836D01*
X004549Y006919D01*
X000317Y006919D01*
X000317Y025816D01*
X001301Y026997D01*
X004845Y026997D01*
X005632Y028179D01*
X005632Y033494D01*
X008782Y033494D01*
X008782Y029753D01*
X011538Y029753D01*
X011538Y015186D01*
X012719Y015186D01*
X012719Y011643D01*
X015081Y011643D01*
D12*
X004344Y015357D02*
X004289Y015357D01*
X004179Y015246D01*
X004179Y015136D02*
X004179Y015357D01*
X004031Y015302D02*
X004031Y015246D01*
X003811Y015246D01*
X003811Y015191D02*
X003811Y015302D01*
X003866Y015357D01*
X003976Y015357D01*
X004031Y015302D01*
X003976Y015136D02*
X003866Y015136D01*
X003811Y015191D01*
X003663Y015136D02*
X003663Y015302D01*
X003608Y015357D01*
X003553Y015302D01*
X003553Y015136D01*
X003442Y015136D02*
X003442Y015357D01*
X003498Y015357D01*
X003553Y015302D01*
X003301Y015357D02*
X003246Y015357D01*
X003136Y015246D01*
X003136Y015136D02*
X003136Y015357D01*
X002987Y015302D02*
X002932Y015357D01*
X002822Y015357D01*
X002767Y015302D01*
X002767Y015191D01*
X002822Y015136D01*
X002932Y015136D01*
X002987Y015191D01*
X002987Y015302D01*
X002632Y015302D02*
X002522Y015302D01*
X002577Y015412D02*
X002632Y015467D01*
X002577Y015412D02*
X002577Y015136D01*
X002374Y015191D02*
X002319Y015246D01*
X002208Y015246D01*
X002153Y015302D01*
X002208Y015357D01*
X002374Y015357D01*
X002374Y015191D02*
X002319Y015136D01*
X002153Y015136D01*
X002005Y015136D02*
X002005Y015302D01*
X001950Y015357D01*
X001785Y015357D01*
X001785Y015136D01*
X001637Y015136D02*
X001472Y015136D01*
X001417Y015191D01*
X001472Y015246D01*
X001637Y015246D01*
X001637Y015302D02*
X001637Y015136D01*
X001637Y015302D02*
X001582Y015357D01*
X001472Y015357D01*
X001275Y015357D02*
X001220Y015357D01*
X001110Y015246D01*
X001110Y015136D02*
X001110Y015357D01*
X000962Y015467D02*
X000741Y015467D01*
X000852Y015467D02*
X000852Y015136D01*
X000907Y014867D02*
X000741Y014867D01*
X000741Y014536D01*
X000741Y014646D02*
X000907Y014646D01*
X000962Y014702D01*
X000962Y014812D01*
X000907Y014867D01*
X001110Y014757D02*
X001110Y014536D01*
X001110Y014646D02*
X001220Y014757D01*
X001275Y014757D01*
X001417Y014757D02*
X001472Y014757D01*
X001472Y014536D01*
X001417Y014536D02*
X001527Y014536D01*
X001662Y014536D02*
X001662Y014757D01*
X001717Y014757D01*
X001772Y014702D01*
X001827Y014757D01*
X001882Y014702D01*
X001882Y014536D01*
X001772Y014536D02*
X001772Y014702D01*
X002031Y014591D02*
X002086Y014536D01*
X002251Y014536D01*
X002251Y014702D01*
X002196Y014757D01*
X002086Y014757D01*
X002086Y014646D02*
X002251Y014646D01*
X002399Y014646D02*
X002509Y014757D01*
X002564Y014757D01*
X002706Y014757D02*
X002706Y014591D01*
X002761Y014536D01*
X002926Y014536D01*
X002926Y014481D02*
X002871Y014426D01*
X002816Y014426D01*
X002926Y014481D02*
X002926Y014757D01*
X002399Y014757D02*
X002399Y014536D01*
X002086Y014646D02*
X002031Y014591D01*
X001472Y014867D02*
X001472Y014922D01*
X001590Y010876D02*
X001590Y010821D01*
X001590Y010711D02*
X001590Y010491D01*
X001535Y010491D02*
X001645Y010491D01*
X001781Y010491D02*
X001781Y010711D01*
X001946Y010711D01*
X002001Y010656D01*
X002001Y010491D01*
X002149Y010491D02*
X002314Y010491D01*
X002369Y010546D01*
X002314Y010601D01*
X002204Y010601D01*
X002149Y010656D01*
X002204Y010711D01*
X002369Y010711D01*
X001590Y010711D02*
X001535Y010711D01*
X001387Y010656D02*
X001387Y010491D01*
X001222Y010491D01*
X001167Y010546D01*
X001222Y010601D01*
X001387Y010601D01*
X001387Y010656D02*
X001332Y010711D01*
X001222Y010711D01*
X001019Y010821D02*
X001019Y010491D01*
X000799Y010491D02*
X000799Y010821D01*
X000909Y010711D01*
X001019Y010821D01*
X020566Y029388D02*
X020566Y029719D01*
X020456Y029719D02*
X020676Y029719D01*
X020824Y029609D02*
X020824Y029388D01*
X020824Y029498D02*
X020934Y029609D01*
X020989Y029609D01*
X021186Y029609D02*
X021296Y029609D01*
X021351Y029553D01*
X021351Y029388D01*
X021186Y029388D01*
X021131Y029443D01*
X021186Y029498D01*
X021351Y029498D01*
X021499Y029388D02*
X021499Y029609D01*
X021664Y029609D01*
X021719Y029553D01*
X021719Y029388D01*
X021867Y029388D02*
X022033Y029388D01*
X022088Y029443D01*
X022033Y029498D01*
X021922Y029498D01*
X021867Y029553D01*
X021922Y029609D01*
X022088Y029609D01*
X022236Y029553D02*
X022346Y029553D01*
X022291Y029664D02*
X022346Y029719D01*
X022291Y029664D02*
X022291Y029388D01*
X022481Y029388D02*
X022536Y029388D01*
X022536Y029443D01*
X022481Y029443D01*
X022481Y029388D01*
X023034Y029443D02*
X023089Y029388D01*
X023199Y029388D01*
X023254Y029443D01*
X023254Y029498D01*
X023199Y029553D01*
X023089Y029553D01*
X023034Y029609D01*
X023034Y029664D01*
X023089Y029719D01*
X023199Y029719D01*
X023254Y029664D01*
X023402Y029553D02*
X023457Y029609D01*
X023567Y029609D01*
X023622Y029553D01*
X023622Y029498D01*
X023402Y029498D01*
X023402Y029443D02*
X023402Y029553D01*
X023402Y029443D02*
X023457Y029388D01*
X023567Y029388D01*
X023770Y029443D02*
X023770Y029553D01*
X023825Y029609D01*
X023991Y029609D01*
X024139Y029553D02*
X024139Y029443D01*
X024194Y029388D01*
X024304Y029388D01*
X024359Y029443D01*
X024359Y029553D01*
X024304Y029609D01*
X024194Y029609D01*
X024139Y029553D01*
X023991Y029388D02*
X023825Y029388D01*
X023770Y029443D01*
X024507Y029388D02*
X024507Y029609D01*
X024672Y029609D01*
X024727Y029553D01*
X024727Y029388D01*
X024875Y029443D02*
X024875Y029553D01*
X024930Y029609D01*
X025096Y029609D01*
X025096Y029719D02*
X025096Y029388D01*
X024930Y029388D01*
X024875Y029443D01*
X025244Y029443D02*
X025299Y029498D01*
X025464Y029498D01*
X025464Y029553D02*
X025464Y029388D01*
X025299Y029388D01*
X025244Y029443D01*
X025299Y029609D02*
X025409Y029609D01*
X025464Y029553D01*
X025612Y029498D02*
X025722Y029609D01*
X025777Y029609D01*
X025919Y029609D02*
X025919Y029443D01*
X025974Y029388D01*
X026139Y029388D01*
X026139Y029333D02*
X026084Y029278D01*
X026029Y029278D01*
X026139Y029333D02*
X026139Y029609D01*
X025612Y029609D02*
X025612Y029388D01*
X036092Y027284D02*
X036092Y027229D01*
X036202Y027119D01*
X036312Y027119D02*
X036092Y027119D01*
X036147Y026971D02*
X036202Y026971D01*
X036202Y026751D01*
X036257Y026751D02*
X036147Y026751D01*
X036092Y026806D01*
X036092Y026916D01*
X036147Y026971D01*
X036312Y026916D02*
X036312Y026806D01*
X036257Y026751D01*
X036312Y026603D02*
X036312Y026383D01*
X036092Y026603D01*
X036092Y026383D01*
X036092Y026234D02*
X036312Y026014D01*
X036312Y026234D01*
X036092Y026234D02*
X036092Y026014D01*
X036092Y025866D02*
X036312Y025866D01*
X036312Y025701D01*
X036257Y025646D01*
X036092Y025646D01*
X036092Y025498D02*
X036147Y025443D01*
X036147Y025278D01*
X036147Y025443D02*
X036202Y025498D01*
X036257Y025498D01*
X036312Y025443D01*
X036312Y025278D01*
X035982Y025278D01*
X035982Y025443D01*
X036037Y025498D01*
X036092Y025498D01*
X036092Y023347D02*
X036092Y023292D01*
X036202Y023182D01*
X036312Y023182D02*
X036092Y023182D01*
X036147Y023034D02*
X036202Y023034D01*
X036202Y022814D01*
X036257Y022814D02*
X036147Y022814D01*
X036092Y022869D01*
X036092Y022979D01*
X036147Y023034D01*
X036312Y022979D02*
X036312Y022869D01*
X036257Y022814D01*
X036312Y022666D02*
X035982Y022666D01*
X036092Y022666D02*
X036092Y022501D01*
X036147Y022446D01*
X036257Y022446D01*
X036312Y022501D01*
X036312Y022666D01*
X036257Y022297D02*
X036147Y022297D01*
X036092Y022242D01*
X036092Y022132D01*
X036147Y022077D01*
X036257Y022077D01*
X036312Y022132D01*
X036312Y022242D01*
X036257Y022297D01*
X036312Y021929D02*
X036312Y021764D01*
X036257Y021709D01*
X036147Y021709D01*
X036092Y021764D01*
X036092Y021929D01*
X036147Y021561D02*
X036312Y021561D01*
X036147Y021561D02*
X036092Y021506D01*
X036092Y021341D01*
X036312Y021341D01*
X036312Y021193D02*
X036312Y020972D01*
X035982Y020972D01*
X035982Y021193D01*
X036147Y021082D02*
X036147Y020972D01*
X036147Y017829D02*
X036312Y017829D01*
X036147Y017829D02*
X036092Y017774D01*
X036092Y017609D01*
X036312Y017609D01*
X036257Y017461D02*
X036092Y017461D01*
X036257Y017461D02*
X036312Y017406D01*
X036257Y017351D01*
X036312Y017296D01*
X036257Y017241D01*
X036092Y017241D01*
X036147Y017093D02*
X036092Y017038D01*
X036092Y016927D01*
X036147Y016872D01*
X036257Y016872D01*
X036312Y016927D01*
X036312Y017038D01*
X036257Y017093D01*
X036147Y017093D01*
X036257Y016724D02*
X036037Y016724D01*
X035982Y016669D01*
X035982Y016504D01*
X036312Y016504D01*
X036312Y016669D01*
X036257Y016724D01*
X036257Y014286D02*
X036147Y014286D01*
X036092Y014231D01*
X036092Y014066D01*
X036422Y014066D01*
X036312Y014066D02*
X036312Y014231D01*
X036257Y014286D01*
X036257Y013918D02*
X035982Y013918D01*
X035982Y013697D02*
X036257Y013697D01*
X036312Y013752D01*
X036312Y013863D01*
X036257Y013918D01*
X013182Y030156D02*
X012852Y030156D01*
X012852Y030321D01*
X012907Y030377D01*
X013017Y030377D01*
X013072Y030321D01*
X013072Y030156D01*
X013017Y030525D02*
X012852Y030525D01*
X013017Y030525D02*
X013072Y030580D01*
X013072Y030745D01*
X012852Y030745D01*
X012852Y030893D02*
X013072Y030893D01*
X012852Y030893D02*
X012852Y031058D01*
X012907Y031113D01*
X013072Y031113D01*
X013017Y031261D02*
X012907Y031261D01*
X012852Y031316D01*
X012852Y031426D01*
X012907Y031481D01*
X013017Y031481D01*
X013072Y031426D01*
X013072Y031316D01*
X013017Y031261D01*
X013072Y031623D02*
X013072Y031678D01*
X012962Y031788D01*
X012852Y031788D02*
X013072Y031788D01*
X013017Y031937D02*
X012907Y031937D01*
X012852Y031992D01*
X012852Y032102D01*
X012907Y032157D01*
X013127Y032157D01*
X013182Y032102D01*
X013182Y031992D01*
X013127Y031937D01*
X013017Y031937D02*
X013017Y032047D01*
X013182Y032305D02*
X012852Y032525D01*
X012852Y032673D02*
X012852Y032893D01*
X013182Y032893D01*
X013182Y032673D01*
X013017Y032783D02*
X013017Y032893D01*
X013017Y033041D02*
X012962Y033097D01*
X012962Y033262D01*
X012852Y033262D02*
X013182Y033262D01*
X013182Y033097D01*
X013127Y033041D01*
X013017Y033041D01*
X005269Y033025D02*
X005049Y033025D01*
X005159Y033025D02*
X005049Y033135D01*
X005049Y033190D01*
X005104Y032877D02*
X005159Y032877D01*
X005159Y032656D01*
X005214Y032656D02*
X005104Y032656D01*
X005049Y032711D01*
X005049Y032822D01*
X005104Y032877D01*
X005269Y032822D02*
X005269Y032711D01*
X005214Y032656D01*
X005269Y032521D02*
X005214Y032466D01*
X004994Y032466D01*
X005049Y032411D02*
X005049Y032521D01*
X005104Y032263D02*
X005269Y032263D01*
X005269Y032098D01*
X005214Y032043D01*
X005159Y032098D01*
X005159Y032263D01*
X005104Y032263D02*
X005049Y032208D01*
X005049Y032098D01*
X005104Y031894D02*
X005159Y031894D01*
X005159Y031674D01*
X005214Y031674D02*
X005104Y031674D01*
X005049Y031729D01*
X005049Y031839D01*
X005104Y031894D01*
X005269Y031839D02*
X005269Y031729D01*
X005214Y031674D01*
X005269Y031526D02*
X004938Y031526D01*
X005104Y031526D02*
X005104Y031306D01*
X005269Y031306D02*
X004938Y031306D01*
D13*
X006944Y030626D02*
X007117Y030366D01*
X007238Y030409D02*
X007282Y030366D01*
X007368Y030366D01*
X007412Y030409D01*
X007412Y030453D01*
X007368Y030496D01*
X007325Y030496D01*
X007368Y030496D02*
X007412Y030540D01*
X007412Y030583D01*
X007368Y030626D01*
X007282Y030626D01*
X007238Y030583D01*
X007117Y030626D02*
X006944Y030366D01*
X007238Y029416D02*
X007388Y029416D01*
X007438Y029366D01*
X009338Y029366D01*
X009388Y029416D01*
X009538Y029416D01*
X009555Y029414D01*
X009572Y029410D01*
X009588Y029403D01*
X009602Y029393D01*
X009615Y029380D01*
X009625Y029366D01*
X009632Y029350D01*
X009636Y029333D01*
X009638Y029316D01*
X009638Y028616D01*
X009636Y028599D01*
X009632Y028582D01*
X009625Y028566D01*
X009615Y028552D01*
X009602Y028539D01*
X009588Y028529D01*
X009572Y028522D01*
X009555Y028518D01*
X009538Y028516D01*
X009388Y028516D01*
X009338Y028566D01*
X007438Y028566D01*
X007388Y028516D01*
X007238Y028516D01*
X007221Y028518D01*
X007204Y028522D01*
X007188Y028529D01*
X007174Y028539D01*
X007161Y028552D01*
X007151Y028566D01*
X007144Y028582D01*
X007140Y028599D01*
X007138Y028616D01*
X007138Y029316D01*
X007140Y029333D01*
X007144Y029350D01*
X007151Y029366D01*
X007161Y029380D01*
X007174Y029393D01*
X007188Y029403D01*
X007204Y029410D01*
X007221Y029414D01*
X007238Y029416D01*
X007922Y029018D02*
X008008Y029105D01*
X008008Y028844D01*
X007922Y028844D02*
X008095Y028844D01*
X008216Y028844D02*
X008390Y029018D01*
X008390Y029061D01*
X008346Y029105D01*
X008260Y029105D01*
X008216Y029061D01*
X008216Y028844D02*
X008390Y028844D01*
X008511Y028888D02*
X008685Y029061D01*
X008685Y028888D01*
X008641Y028844D01*
X008554Y028844D01*
X008511Y028888D01*
X008511Y029061D01*
X008554Y029105D01*
X008641Y029105D01*
X008685Y029061D01*
X008806Y029105D02*
X008806Y028844D01*
X008806Y028931D02*
X008936Y029018D01*
X008806Y028931D02*
X008936Y028844D01*
X008994Y028062D02*
X008994Y027889D01*
X009081Y027802D01*
X009168Y027889D01*
X009168Y028062D01*
X008873Y028019D02*
X008699Y027846D01*
X008743Y027802D01*
X008830Y027802D01*
X008873Y027846D01*
X008873Y028019D01*
X008830Y028062D01*
X008743Y028062D01*
X008699Y028019D01*
X008699Y027846D01*
X008578Y027802D02*
X008405Y027802D01*
X008492Y027802D02*
X008492Y028062D01*
X008405Y027976D01*
X008284Y027976D02*
X008240Y027932D01*
X008284Y027889D01*
X008284Y027846D01*
X008240Y027802D01*
X008154Y027802D01*
X008110Y027846D01*
X008197Y027932D02*
X008240Y027932D01*
X008284Y027976D02*
X008284Y028019D01*
X008240Y028062D01*
X008154Y028062D01*
X008110Y028019D01*
X007694Y027932D02*
X007694Y027802D01*
X007694Y027932D02*
X007651Y027976D01*
X007521Y027976D01*
X007521Y027802D01*
X007400Y027846D02*
X007356Y027802D01*
X007270Y027802D01*
X007226Y027846D01*
X007400Y028019D01*
X007400Y027846D01*
X007400Y028019D02*
X007356Y028062D01*
X007270Y028062D01*
X007226Y028019D01*
X007226Y027846D01*
X007105Y027846D02*
X007062Y027802D01*
X006975Y027802D01*
X006932Y027846D01*
X007105Y028019D01*
X007105Y027846D01*
X007105Y028019D02*
X007062Y028062D01*
X006975Y028062D01*
X006932Y028019D01*
X006932Y027846D01*
X006810Y027802D02*
X006637Y027802D01*
X006724Y027802D02*
X006724Y028062D01*
X006637Y027976D01*
X005988Y028197D02*
X005962Y028195D01*
X005936Y028190D01*
X005911Y028182D01*
X005888Y028170D01*
X005866Y028156D01*
X005847Y028138D01*
X005829Y028119D01*
X005815Y028097D01*
X005803Y028074D01*
X005795Y028049D01*
X005790Y028023D01*
X005788Y027997D01*
X005788Y025997D01*
X005790Y025971D01*
X005795Y025945D01*
X005803Y025920D01*
X005815Y025897D01*
X005829Y025875D01*
X005847Y025856D01*
X005866Y025838D01*
X005888Y025824D01*
X005911Y025812D01*
X005936Y025804D01*
X005962Y025799D01*
X005988Y025797D01*
X010788Y025797D01*
X010814Y025799D01*
X010840Y025804D01*
X010865Y025812D01*
X010888Y025824D01*
X010910Y025838D01*
X010929Y025856D01*
X010947Y025875D01*
X010961Y025897D01*
X010973Y025920D01*
X010981Y025945D01*
X010986Y025971D01*
X010988Y025997D01*
X010988Y027997D01*
X010986Y028023D01*
X010981Y028049D01*
X010973Y028074D01*
X010961Y028097D01*
X010947Y028119D01*
X010929Y028138D01*
X010910Y028156D01*
X010888Y028170D01*
X010865Y028182D01*
X010840Y028190D01*
X010814Y028195D01*
X010788Y028197D01*
X005988Y028197D01*
X006888Y026997D02*
X007138Y026997D01*
X007488Y026997D02*
X009888Y026997D01*
X009878Y027802D02*
X010052Y027976D01*
X010052Y028019D01*
X010008Y028062D01*
X009921Y028062D01*
X009878Y028019D01*
X009757Y028062D02*
X009583Y027802D01*
X009757Y027802D02*
X009583Y028062D01*
X009878Y027802D02*
X010052Y027802D01*
X010761Y028809D02*
X010761Y029069D01*
X010891Y029069D01*
X010935Y029025D01*
X010935Y028939D01*
X010891Y028895D01*
X010761Y028895D01*
X010848Y028895D02*
X010935Y028809D01*
X011056Y028939D02*
X011229Y028939D01*
X011186Y029069D02*
X011056Y028939D01*
X011186Y028809D02*
X011186Y029069D01*
X011305Y030366D02*
X011305Y030626D01*
X011175Y030496D01*
X011349Y030496D01*
X011054Y030366D02*
X010881Y030626D01*
X011054Y030626D02*
X010881Y030366D01*
X013027Y027226D02*
X012940Y027139D01*
X013027Y027226D02*
X013027Y026966D01*
X012940Y026966D02*
X013114Y026966D01*
X013235Y027009D02*
X013235Y027052D01*
X013278Y027096D01*
X013365Y027096D01*
X013408Y027052D01*
X013408Y027009D01*
X013365Y026966D01*
X013278Y026966D01*
X013235Y027009D01*
X013278Y027096D02*
X013235Y027139D01*
X013235Y027182D01*
X013278Y027226D01*
X013365Y027226D01*
X013408Y027182D01*
X013408Y027139D01*
X013365Y027096D01*
X013529Y027052D02*
X013659Y027052D01*
X013703Y027096D01*
X013703Y027182D01*
X013659Y027226D01*
X013529Y027226D01*
X013529Y026966D01*
X013616Y027052D02*
X013703Y026966D01*
X013676Y026744D02*
X013336Y026744D01*
X013336Y026464D02*
X013676Y026464D01*
X012782Y026512D02*
X012695Y026425D01*
X012695Y026469D02*
X012695Y026338D01*
X012782Y026338D02*
X012521Y026338D01*
X012521Y026469D01*
X012565Y026512D01*
X012652Y026512D01*
X012695Y026469D01*
X012738Y026633D02*
X012782Y026676D01*
X012782Y026763D01*
X012738Y026807D01*
X012565Y026807D01*
X012521Y026763D01*
X012521Y026676D01*
X012565Y026633D01*
X012608Y026633D01*
X012652Y026676D01*
X012652Y026807D01*
X013191Y025485D02*
X013322Y025355D01*
X013322Y025528D01*
X013452Y025485D02*
X013191Y025485D01*
X013235Y025234D02*
X013278Y025234D01*
X013322Y025190D01*
X013365Y025234D01*
X013408Y025234D01*
X013452Y025190D01*
X013452Y025104D01*
X013408Y025060D01*
X013322Y025147D02*
X013322Y025190D01*
X013235Y025234D02*
X013191Y025190D01*
X013191Y025104D01*
X013235Y025060D01*
X013278Y024945D02*
X013365Y024815D01*
X013452Y024945D01*
X013452Y024815D02*
X013191Y024815D01*
X013191Y024693D02*
X013235Y024607D01*
X013322Y024520D01*
X013322Y024650D01*
X013365Y024693D01*
X013408Y024693D01*
X013452Y024650D01*
X013452Y024563D01*
X013408Y024520D01*
X013322Y024520D01*
X013641Y024310D02*
X013771Y024310D01*
X013815Y024267D01*
X013815Y024180D01*
X013771Y024137D01*
X013641Y024137D01*
X013641Y024050D02*
X013641Y024310D01*
X013728Y024137D02*
X013815Y024050D01*
X013936Y024093D02*
X013979Y024050D01*
X014066Y024050D01*
X014109Y024093D01*
X014109Y024137D01*
X014066Y024180D01*
X013979Y024180D01*
X013936Y024223D01*
X013936Y024267D01*
X013979Y024310D01*
X014066Y024310D01*
X014109Y024267D01*
X014109Y024223D01*
X014066Y024180D01*
X013979Y024180D02*
X013936Y024137D01*
X013936Y024093D01*
X013991Y024859D02*
X013991Y025199D01*
X013710Y025199D02*
X013710Y024859D01*
X014607Y025791D02*
X014607Y026941D01*
X014607Y025791D02*
X014707Y025691D01*
X018507Y025691D01*
X018607Y025791D01*
X018607Y026941D01*
X018972Y026944D02*
X018972Y027118D01*
X019015Y027118D01*
X019189Y026944D01*
X019232Y026944D01*
X019232Y026823D02*
X019232Y026650D01*
X019232Y026736D02*
X018972Y026736D01*
X019059Y026650D01*
X019059Y026528D02*
X019102Y026485D01*
X019145Y026528D01*
X019189Y026528D01*
X019232Y026485D01*
X019232Y026398D01*
X019189Y026355D01*
X019102Y026442D02*
X019102Y026485D01*
X019059Y026528D02*
X019015Y026528D01*
X018972Y026485D01*
X018972Y026398D01*
X019015Y026355D01*
X018972Y026234D02*
X019232Y026234D01*
X019232Y026060D02*
X018972Y026060D01*
X019059Y026147D01*
X018972Y026234D01*
X019232Y025939D02*
X019232Y025766D01*
X018972Y025766D01*
X018220Y025367D02*
X018177Y025411D01*
X018090Y025411D01*
X018047Y025367D01*
X017925Y025411D02*
X017925Y025194D01*
X017882Y025150D01*
X017795Y025150D01*
X017752Y025194D01*
X017752Y025411D01*
X018047Y025150D02*
X018220Y025324D01*
X018220Y025367D01*
X018220Y025150D02*
X018047Y025150D01*
X017966Y023793D02*
X017966Y023620D01*
X018053Y023533D01*
X018139Y023620D01*
X018139Y023793D01*
X017845Y023750D02*
X017845Y023707D01*
X017801Y023663D01*
X017845Y023620D01*
X017845Y023576D01*
X017801Y023533D01*
X017715Y023533D01*
X017671Y023576D01*
X017550Y023576D02*
X017550Y023620D01*
X017507Y023663D01*
X017377Y023663D01*
X017377Y023576D01*
X017420Y023533D01*
X017507Y023533D01*
X017550Y023576D01*
X017377Y023663D02*
X017463Y023750D01*
X017550Y023793D01*
X017671Y023750D02*
X017715Y023793D01*
X017801Y023793D01*
X017845Y023750D01*
X017801Y023663D02*
X017758Y023663D01*
X016972Y023576D02*
X016929Y023576D01*
X016929Y023533D01*
X016972Y023533D01*
X016972Y023576D01*
X016972Y023533D02*
X016886Y023446D01*
X016678Y023663D02*
X016591Y023663D01*
X016470Y023707D02*
X016470Y023533D01*
X016340Y023533D01*
X016296Y023576D01*
X016296Y023707D01*
X016175Y023750D02*
X016175Y023576D01*
X016132Y023533D01*
X016045Y023533D01*
X016002Y023576D01*
X016175Y023750D01*
X016132Y023793D01*
X016045Y023793D01*
X016002Y023750D01*
X016002Y023576D01*
X015880Y023576D02*
X015837Y023533D01*
X015750Y023533D01*
X015707Y023576D01*
X015880Y023750D01*
X015880Y023576D01*
X015707Y023576D02*
X015707Y023750D01*
X015750Y023793D01*
X015837Y023793D01*
X015880Y023750D01*
X015586Y023750D02*
X015412Y023576D01*
X015456Y023533D01*
X015542Y023533D01*
X015586Y023576D01*
X015586Y023750D01*
X015542Y023793D01*
X015456Y023793D01*
X015412Y023750D01*
X015412Y023576D01*
X015291Y023533D02*
X015118Y023533D01*
X015204Y023533D02*
X015204Y023793D01*
X015118Y023707D01*
X016591Y023793D02*
X016591Y023533D01*
X016591Y023793D02*
X016764Y023793D01*
X016756Y022773D02*
X016756Y021773D01*
X017006Y021773D01*
X017006Y022273D01*
X017006Y022773D01*
X016756Y022773D01*
X013906Y022273D02*
X013909Y022408D01*
X013919Y022543D01*
X013936Y022677D01*
X013959Y022809D01*
X013988Y022941D01*
X014024Y023071D01*
X014067Y023199D01*
X014115Y023325D01*
X014170Y023449D01*
X014231Y023569D01*
X014297Y023687D01*
X014369Y023801D01*
X014447Y023911D01*
X014530Y024018D01*
X014618Y024120D01*
X014711Y024218D01*
X014809Y024311D01*
X014911Y024399D01*
X015018Y024482D01*
X015128Y024560D01*
X015242Y024632D01*
X015360Y024698D01*
X015480Y024759D01*
X015604Y024814D01*
X015730Y024862D01*
X015858Y024905D01*
X015988Y024941D01*
X016120Y024970D01*
X016252Y024993D01*
X016386Y025010D01*
X016521Y025020D01*
X016656Y025023D01*
X016791Y025020D01*
X016926Y025010D01*
X017060Y024993D01*
X017192Y024970D01*
X017324Y024941D01*
X017454Y024905D01*
X017582Y024862D01*
X017708Y024814D01*
X017832Y024759D01*
X017952Y024698D01*
X018070Y024632D01*
X018184Y024560D01*
X018294Y024482D01*
X018401Y024399D01*
X018503Y024311D01*
X018601Y024218D01*
X018694Y024120D01*
X018782Y024018D01*
X018865Y023911D01*
X018943Y023801D01*
X019015Y023687D01*
X019081Y023569D01*
X019142Y023449D01*
X019197Y023325D01*
X019245Y023199D01*
X019288Y023071D01*
X019324Y022941D01*
X019353Y022809D01*
X019376Y022677D01*
X019393Y022543D01*
X019403Y022408D01*
X019406Y022273D01*
X019403Y022138D01*
X019393Y022003D01*
X019376Y021869D01*
X019353Y021737D01*
X019324Y021605D01*
X019288Y021475D01*
X019245Y021347D01*
X019197Y021221D01*
X019142Y021097D01*
X019081Y020977D01*
X019015Y020859D01*
X018943Y020745D01*
X018865Y020635D01*
X018782Y020528D01*
X018694Y020426D01*
X018601Y020328D01*
X018503Y020235D01*
X018401Y020147D01*
X018294Y020064D01*
X018184Y019986D01*
X018070Y019914D01*
X017952Y019848D01*
X017832Y019787D01*
X017708Y019732D01*
X017582Y019684D01*
X017454Y019641D01*
X017324Y019605D01*
X017192Y019576D01*
X017060Y019553D01*
X016926Y019536D01*
X016791Y019526D01*
X016656Y019523D01*
X016521Y019526D01*
X016386Y019536D01*
X016252Y019553D01*
X016120Y019576D01*
X015988Y019605D01*
X015858Y019641D01*
X015730Y019684D01*
X015604Y019732D01*
X015480Y019787D01*
X015360Y019848D01*
X015242Y019914D01*
X015128Y019986D01*
X015018Y020064D01*
X014911Y020147D01*
X014809Y020235D01*
X014711Y020328D01*
X014618Y020426D01*
X014530Y020528D01*
X014447Y020635D01*
X014369Y020745D01*
X014297Y020859D01*
X014231Y020977D01*
X014170Y021097D01*
X014115Y021221D01*
X014067Y021347D01*
X014024Y021475D01*
X013988Y021605D01*
X013959Y021737D01*
X013936Y021869D01*
X013919Y022003D01*
X013909Y022138D01*
X013906Y022273D01*
X016206Y022273D02*
X016406Y022273D01*
X017006Y022273D02*
X017106Y022273D01*
X018406Y022273D02*
X018906Y022273D01*
X018656Y022523D02*
X018656Y022023D01*
X020143Y021775D02*
X021043Y021775D01*
X021231Y021879D02*
X021231Y022052D01*
X021274Y022096D01*
X021361Y022096D01*
X021404Y022052D01*
X021526Y022052D02*
X021569Y022096D01*
X021656Y022096D01*
X021699Y022052D01*
X021699Y022009D01*
X021526Y021835D01*
X021699Y021835D01*
X021820Y021879D02*
X021864Y021835D01*
X021950Y021835D01*
X021994Y021879D01*
X021994Y021966D01*
X021950Y022009D01*
X021907Y022009D01*
X021820Y021966D01*
X021820Y022096D01*
X021994Y022096D01*
X021972Y022672D02*
X021798Y022672D01*
X021972Y022845D01*
X021972Y022889D01*
X021928Y022932D01*
X021841Y022932D01*
X021798Y022889D01*
X021677Y022889D02*
X021677Y022845D01*
X021634Y022802D01*
X021503Y022802D01*
X021503Y022672D02*
X021503Y022932D01*
X021634Y022932D01*
X021677Y022889D01*
X021634Y022802D02*
X021677Y022759D01*
X021677Y022715D01*
X021634Y022672D01*
X021503Y022672D01*
X021404Y021879D02*
X021361Y021835D01*
X021274Y021835D01*
X021231Y021879D01*
X022346Y021396D02*
X022346Y021179D01*
X022390Y021135D01*
X022477Y021135D01*
X022520Y021179D01*
X022520Y021396D01*
X022641Y021352D02*
X022684Y021396D01*
X022771Y021396D01*
X022815Y021352D01*
X022815Y021309D01*
X022771Y021266D01*
X022815Y021222D01*
X022815Y021179D01*
X022771Y021135D01*
X022684Y021135D01*
X022641Y021179D01*
X022728Y021266D02*
X022771Y021266D01*
X023124Y022366D02*
X023124Y023816D01*
X022274Y023816D01*
X023124Y023816D02*
X023124Y029266D01*
X020424Y029266D01*
X020424Y023816D01*
X021274Y023816D01*
X020974Y023416D02*
X020574Y023416D01*
X020774Y023616D02*
X020774Y023216D01*
X020424Y023816D02*
X020424Y022366D01*
X023124Y022366D01*
X023573Y022366D02*
X023573Y023816D01*
X024423Y023816D01*
X024123Y023416D02*
X023723Y023416D01*
X023923Y023616D02*
X023923Y023216D01*
X023573Y023816D02*
X023573Y029266D01*
X026273Y029266D01*
X026273Y023816D01*
X025423Y023816D01*
X026273Y023816D02*
X026273Y022366D01*
X023573Y022366D01*
X023818Y022145D02*
X023774Y022101D01*
X023774Y021928D01*
X023818Y021885D01*
X023904Y021885D01*
X023948Y021928D01*
X024069Y021885D02*
X024242Y022058D01*
X024242Y022101D01*
X024199Y022145D01*
X024112Y022145D01*
X024069Y022101D01*
X023948Y022101D02*
X023904Y022145D01*
X023818Y022145D01*
X024069Y021885D02*
X024242Y021885D01*
X024364Y022015D02*
X024537Y022015D01*
X024494Y021885D02*
X024494Y022145D01*
X024364Y022015D01*
X024794Y021719D02*
X024967Y021719D01*
X024967Y021589D01*
X024924Y021546D01*
X024794Y021546D01*
X024967Y021425D02*
X024967Y021251D01*
X024967Y021338D02*
X024707Y021338D01*
X024794Y021251D01*
X024783Y022672D02*
X024653Y022672D01*
X024653Y022932D01*
X024783Y022932D01*
X024827Y022889D01*
X024827Y022845D01*
X024783Y022802D01*
X024653Y022802D01*
X024783Y022802D02*
X024827Y022759D01*
X024827Y022715D01*
X024783Y022672D01*
X024948Y022672D02*
X025121Y022672D01*
X025034Y022672D02*
X025034Y022932D01*
X024948Y022845D01*
X023923Y024796D02*
X023902Y024798D01*
X023881Y024803D01*
X023861Y024812D01*
X023843Y024823D01*
X023827Y024838D01*
X023814Y024855D01*
X023804Y024874D01*
X023797Y024894D01*
X023793Y024915D01*
X023793Y024937D01*
X023797Y024958D01*
X023804Y024978D01*
X023814Y024997D01*
X023827Y025014D01*
X023843Y025029D01*
X023861Y025040D01*
X023881Y025049D01*
X023902Y025054D01*
X023923Y025056D01*
X023944Y025058D01*
X023965Y025063D01*
X023985Y025072D01*
X024003Y025083D01*
X024019Y025098D01*
X024032Y025115D01*
X024042Y025134D01*
X024049Y025154D01*
X024053Y025175D01*
X024053Y025197D01*
X024049Y025218D01*
X024042Y025238D01*
X024032Y025257D01*
X024019Y025274D01*
X024003Y025289D01*
X023985Y025300D01*
X023965Y025309D01*
X023944Y025314D01*
X023923Y025316D01*
X023923Y026296D02*
X023902Y026298D01*
X023881Y026303D01*
X023861Y026312D01*
X023843Y026323D01*
X023827Y026338D01*
X023814Y026355D01*
X023804Y026374D01*
X023797Y026394D01*
X023793Y026415D01*
X023793Y026437D01*
X023797Y026458D01*
X023804Y026478D01*
X023814Y026497D01*
X023827Y026514D01*
X023843Y026529D01*
X023861Y026540D01*
X023881Y026549D01*
X023902Y026554D01*
X023923Y026556D01*
X023944Y026558D01*
X023965Y026563D01*
X023985Y026572D01*
X024003Y026583D01*
X024019Y026598D01*
X024032Y026615D01*
X024042Y026634D01*
X024049Y026654D01*
X024053Y026675D01*
X024053Y026697D01*
X024049Y026718D01*
X024042Y026738D01*
X024032Y026757D01*
X024019Y026774D01*
X024003Y026789D01*
X023985Y026800D01*
X023965Y026809D01*
X023944Y026814D01*
X023923Y026816D01*
X023923Y027866D02*
X023923Y028266D01*
X023547Y030471D02*
X023460Y030471D01*
X023417Y030515D01*
X023417Y030601D02*
X023503Y030645D01*
X023547Y030645D01*
X023590Y030601D01*
X023590Y030515D01*
X023547Y030471D01*
X023417Y030601D02*
X023417Y030731D01*
X023590Y030731D01*
X023296Y030731D02*
X023122Y030471D01*
X023296Y030471D02*
X023122Y030731D01*
X020774Y028266D02*
X020774Y027866D01*
X020774Y026816D02*
X020795Y026814D01*
X020816Y026809D01*
X020836Y026800D01*
X020854Y026789D01*
X020870Y026774D01*
X020883Y026757D01*
X020893Y026738D01*
X020900Y026718D01*
X020904Y026697D01*
X020904Y026675D01*
X020900Y026654D01*
X020893Y026634D01*
X020883Y026615D01*
X020870Y026598D01*
X020854Y026583D01*
X020836Y026572D01*
X020816Y026563D01*
X020795Y026558D01*
X020774Y026556D01*
X020753Y026554D01*
X020732Y026549D01*
X020712Y026540D01*
X020694Y026529D01*
X020678Y026514D01*
X020665Y026497D01*
X020655Y026478D01*
X020648Y026458D01*
X020644Y026437D01*
X020644Y026415D01*
X020648Y026394D01*
X020655Y026374D01*
X020665Y026355D01*
X020678Y026338D01*
X020694Y026323D01*
X020712Y026312D01*
X020732Y026303D01*
X020753Y026298D01*
X020774Y026296D01*
X020774Y025316D02*
X020795Y025314D01*
X020816Y025309D01*
X020836Y025300D01*
X020854Y025289D01*
X020870Y025274D01*
X020883Y025257D01*
X020893Y025238D01*
X020900Y025218D01*
X020904Y025197D01*
X020904Y025175D01*
X020900Y025154D01*
X020893Y025134D01*
X020883Y025115D01*
X020870Y025098D01*
X020854Y025083D01*
X020836Y025072D01*
X020816Y025063D01*
X020795Y025058D01*
X020774Y025056D01*
X020753Y025054D01*
X020732Y025049D01*
X020712Y025040D01*
X020694Y025029D01*
X020678Y025014D01*
X020665Y024997D01*
X020655Y024978D01*
X020648Y024958D01*
X020644Y024937D01*
X020644Y024915D01*
X020648Y024894D01*
X020655Y024874D01*
X020665Y024855D01*
X020678Y024838D01*
X020694Y024823D01*
X020712Y024812D01*
X020732Y024803D01*
X020753Y024798D01*
X020774Y024796D01*
X016810Y021017D02*
X016637Y021017D01*
X016637Y020887D01*
X016724Y020930D01*
X016767Y020930D01*
X016810Y020887D01*
X016810Y020800D01*
X016767Y020757D01*
X016680Y020757D01*
X016637Y020800D01*
X016516Y020800D02*
X016472Y020757D01*
X016386Y020757D01*
X016342Y020800D01*
X016342Y020974D01*
X016386Y021017D01*
X016472Y021017D01*
X016516Y020974D01*
X019430Y020032D02*
X019603Y020032D01*
X019603Y019902D01*
X019560Y019859D01*
X019430Y019859D01*
X019386Y019738D02*
X019560Y019564D01*
X019603Y019607D01*
X019603Y019694D01*
X019560Y019738D01*
X019386Y019738D01*
X019343Y019694D01*
X019343Y019607D01*
X019386Y019564D01*
X019560Y019564D01*
X019603Y019443D02*
X019603Y019269D01*
X019603Y019356D02*
X019343Y019356D01*
X019430Y019269D01*
X020143Y018834D02*
X021043Y018834D01*
X020179Y017396D02*
X020179Y017136D01*
X020179Y017222D02*
X020309Y017309D01*
X020179Y017222D02*
X020309Y017136D01*
X020057Y017179D02*
X020014Y017136D01*
X019927Y017136D01*
X019884Y017179D01*
X019763Y017179D02*
X019719Y017136D01*
X019633Y017136D01*
X019589Y017179D01*
X019676Y017266D02*
X019719Y017266D01*
X019763Y017222D01*
X019763Y017179D01*
X019719Y017266D02*
X019763Y017309D01*
X019763Y017353D01*
X019719Y017396D01*
X019633Y017396D01*
X019589Y017353D01*
X019884Y017353D02*
X019927Y017396D01*
X020014Y017396D01*
X020057Y017353D01*
X020057Y017309D01*
X020014Y017266D01*
X020057Y017222D01*
X020057Y017179D01*
X020014Y017266D02*
X019971Y017266D01*
X019844Y016710D02*
X019844Y016517D01*
X019668Y016517D02*
X019668Y016710D01*
X019426Y016718D02*
X019426Y016545D01*
X019253Y016718D01*
X019209Y016718D01*
X019166Y016675D01*
X019166Y016588D01*
X019209Y016545D01*
X019209Y016423D02*
X019296Y016423D01*
X019339Y016380D01*
X019339Y016250D01*
X019339Y016337D02*
X019426Y016423D01*
X019426Y016250D02*
X019166Y016250D01*
X019166Y016380D01*
X019209Y016423D01*
X019209Y016839D02*
X019166Y016883D01*
X019166Y016969D01*
X019209Y017013D01*
X019253Y017013D01*
X019426Y016839D01*
X019426Y017013D01*
X019431Y015740D02*
X019344Y015609D01*
X019257Y015740D01*
X019171Y015609D02*
X019431Y015609D01*
X019431Y015488D02*
X019431Y015315D01*
X019431Y015402D02*
X019171Y015402D01*
X019257Y015315D01*
X019668Y015385D02*
X019668Y015578D01*
X019844Y015578D02*
X019844Y015385D01*
X020052Y015456D02*
X020095Y015413D01*
X020052Y015456D02*
X020052Y015543D01*
X020095Y015586D01*
X020138Y015586D01*
X020312Y015413D01*
X020312Y015586D01*
X020182Y015707D02*
X020182Y015881D01*
X020312Y015837D02*
X020052Y015837D01*
X020182Y015707D01*
X020182Y015291D02*
X020225Y015248D01*
X020225Y015118D01*
X020225Y015205D02*
X020312Y015291D01*
X020182Y015291D02*
X020095Y015291D01*
X020052Y015248D01*
X020052Y015118D01*
X020312Y015118D01*
X022358Y014894D02*
X022358Y014677D01*
X022402Y014634D01*
X022488Y014634D01*
X022532Y014677D01*
X022532Y014894D01*
X022653Y014851D02*
X022653Y014807D01*
X022696Y014764D01*
X022826Y014764D01*
X022826Y014851D02*
X022783Y014894D01*
X022696Y014894D01*
X022653Y014851D01*
X022826Y014851D02*
X022826Y014677D01*
X022783Y014634D01*
X022696Y014634D01*
X022653Y014677D01*
X025150Y015357D02*
X025410Y015357D01*
X025410Y015271D02*
X025410Y015444D01*
X025410Y015565D02*
X025150Y015565D01*
X025237Y015695D02*
X025324Y015565D01*
X025410Y015695D01*
X025623Y015578D02*
X025623Y015385D01*
X025799Y015385D02*
X025799Y015578D01*
X026041Y015545D02*
X026041Y015458D01*
X026084Y015415D01*
X026084Y015293D02*
X026171Y015293D01*
X026214Y015250D01*
X026214Y015120D01*
X026214Y015207D02*
X026301Y015293D01*
X026301Y015415D02*
X026127Y015588D01*
X026084Y015588D01*
X026041Y015545D01*
X026084Y015709D02*
X026041Y015753D01*
X026041Y015839D01*
X026084Y015883D01*
X026127Y015883D01*
X026171Y015839D01*
X026214Y015883D01*
X026257Y015883D01*
X026301Y015839D01*
X026301Y015753D01*
X026257Y015709D01*
X026171Y015796D02*
X026171Y015839D01*
X026301Y015588D02*
X026301Y015415D01*
X026084Y015293D02*
X026041Y015250D01*
X026041Y015120D01*
X026301Y015120D01*
X026467Y014363D02*
X026554Y014233D01*
X026641Y014363D01*
X026641Y014233D02*
X026380Y014233D01*
X026424Y014112D02*
X026597Y013938D01*
X026641Y013981D01*
X026641Y014068D01*
X026597Y014112D01*
X026424Y014112D01*
X026380Y014068D01*
X026380Y013981D01*
X026424Y013938D01*
X026597Y013938D01*
X026641Y013817D02*
X026641Y013643D01*
X026641Y013730D02*
X026380Y013730D01*
X026467Y013643D01*
X026853Y013909D02*
X026853Y014102D01*
X027029Y014102D02*
X027029Y013909D01*
X027242Y014019D02*
X027502Y014019D01*
X027502Y013932D02*
X027502Y014106D01*
X027372Y014227D02*
X027372Y014400D01*
X027502Y014357D02*
X027242Y014357D01*
X027372Y014227D01*
X027242Y014019D02*
X027328Y013932D01*
X027285Y013811D02*
X027372Y013811D01*
X027415Y013768D01*
X027415Y013638D01*
X027415Y013724D02*
X027502Y013811D01*
X027502Y013638D02*
X027242Y013638D01*
X027242Y013768D01*
X027285Y013811D01*
X027414Y012585D02*
X027414Y012412D01*
X027544Y012412D01*
X027501Y012499D01*
X027501Y012542D01*
X027544Y012585D01*
X027631Y012585D01*
X027674Y012542D01*
X027674Y012455D01*
X027631Y012412D01*
X027674Y012291D02*
X027674Y012117D01*
X027674Y012204D02*
X027414Y012204D01*
X027501Y012117D01*
X027457Y011996D02*
X027414Y011953D01*
X027414Y011866D01*
X027457Y011823D01*
X027631Y011823D01*
X027674Y011866D01*
X027674Y011953D01*
X027631Y011996D01*
X026395Y011970D02*
X026351Y011970D01*
X026178Y012144D01*
X026134Y012144D01*
X026134Y011970D01*
X026134Y011806D02*
X026264Y011676D01*
X026264Y011849D01*
X026134Y011806D02*
X026395Y011806D01*
X026351Y012265D02*
X026178Y012438D01*
X026351Y012438D01*
X026395Y012395D01*
X026395Y012308D01*
X026351Y012265D01*
X026178Y012265D01*
X026134Y012308D01*
X026134Y012395D01*
X026178Y012438D01*
X026221Y012560D02*
X026221Y012690D01*
X026264Y012733D01*
X026395Y012733D01*
X026395Y012560D02*
X026221Y012560D01*
X024384Y012317D02*
X024341Y012317D01*
X024167Y012490D01*
X024124Y012490D01*
X024124Y012317D01*
X024124Y012109D02*
X024384Y012109D01*
X024384Y012195D02*
X024384Y012022D01*
X024384Y011901D02*
X024297Y011814D01*
X024297Y011857D02*
X024297Y011727D01*
X024384Y011727D02*
X024124Y011727D01*
X024124Y011857D01*
X024167Y011901D01*
X024254Y011901D01*
X024297Y011857D01*
X024210Y012022D02*
X024124Y012109D01*
X022368Y012037D02*
X022370Y012093D01*
X022376Y012150D01*
X022386Y012205D01*
X022400Y012260D01*
X022417Y012314D01*
X022439Y012366D01*
X022464Y012416D01*
X022492Y012465D01*
X022524Y012512D01*
X022559Y012556D01*
X022597Y012598D01*
X022638Y012637D01*
X022682Y012672D01*
X022728Y012705D01*
X022776Y012734D01*
X022826Y012760D01*
X022878Y012783D01*
X022932Y012801D01*
X022986Y012816D01*
X023041Y012827D01*
X023097Y012834D01*
X023154Y012837D01*
X023210Y012836D01*
X023267Y012831D01*
X023322Y012822D01*
X023377Y012809D01*
X023431Y012792D01*
X023484Y012772D01*
X023535Y012748D01*
X023584Y012720D01*
X023631Y012689D01*
X023676Y012655D01*
X023719Y012617D01*
X023758Y012577D01*
X023795Y012534D01*
X023828Y012489D01*
X023858Y012441D01*
X023885Y012391D01*
X023908Y012340D01*
X023928Y012287D01*
X023944Y012233D01*
X023956Y012177D01*
X023964Y012122D01*
X023968Y012065D01*
X023968Y012009D01*
X023964Y011952D01*
X023956Y011897D01*
X023944Y011841D01*
X023928Y011787D01*
X023908Y011734D01*
X023885Y011683D01*
X023858Y011633D01*
X023828Y011585D01*
X023795Y011540D01*
X023758Y011497D01*
X023719Y011457D01*
X023676Y011419D01*
X023631Y011385D01*
X023584Y011354D01*
X023535Y011326D01*
X023484Y011302D01*
X023431Y011282D01*
X023377Y011265D01*
X023322Y011252D01*
X023267Y011243D01*
X023210Y011238D01*
X023154Y011237D01*
X023097Y011240D01*
X023041Y011247D01*
X022986Y011258D01*
X022932Y011273D01*
X022878Y011291D01*
X022826Y011314D01*
X022776Y011340D01*
X022728Y011369D01*
X022682Y011402D01*
X022638Y011437D01*
X022597Y011476D01*
X022559Y011518D01*
X022524Y011562D01*
X022492Y011609D01*
X022464Y011658D01*
X022439Y011708D01*
X022417Y011760D01*
X022400Y011814D01*
X022386Y011869D01*
X022376Y011924D01*
X022370Y011981D01*
X022368Y012037D01*
X021132Y011944D02*
X021132Y012204D01*
X020958Y012204D02*
X020958Y011944D01*
X021045Y012030D01*
X021132Y011944D01*
X020837Y011944D02*
X020663Y011944D01*
X020750Y011944D02*
X020750Y012204D01*
X020663Y012117D01*
X020259Y011987D02*
X020216Y011987D01*
X020216Y011944D01*
X020259Y011944D01*
X020259Y011987D01*
X020259Y011944D02*
X020172Y011857D01*
X020051Y011944D02*
X019878Y011944D01*
X019964Y011944D02*
X019964Y012204D01*
X019878Y012117D01*
X019762Y012117D02*
X019632Y012030D01*
X019762Y011944D01*
X019632Y011944D02*
X019632Y012204D01*
X019511Y012204D02*
X019337Y012204D01*
X019337Y012074D01*
X019424Y012117D01*
X019468Y012117D01*
X019511Y012074D01*
X019511Y011987D01*
X019468Y011944D01*
X019381Y011944D01*
X019337Y011987D01*
X019120Y010629D02*
X019163Y010586D01*
X019163Y010542D01*
X019120Y010499D01*
X019163Y010456D01*
X019163Y010412D01*
X019120Y010369D01*
X019033Y010369D01*
X018990Y010412D01*
X019076Y010499D02*
X019120Y010499D01*
X019120Y010629D02*
X019033Y010629D01*
X018990Y010586D01*
X018782Y010629D02*
X018782Y010369D01*
X018868Y010369D02*
X018695Y010369D01*
X018574Y010369D02*
X018487Y010456D01*
X018530Y010456D02*
X018400Y010456D01*
X018400Y010369D02*
X018400Y010629D01*
X018530Y010629D01*
X018574Y010586D01*
X018574Y010499D01*
X018530Y010456D01*
X018695Y010542D02*
X018782Y010629D01*
X018299Y010228D02*
X018212Y010098D01*
X018125Y010228D01*
X018039Y010098D02*
X018299Y010098D01*
X018299Y009977D02*
X018299Y009803D01*
X018299Y009890D02*
X018039Y009890D01*
X018125Y009803D01*
X018725Y009980D02*
X018918Y009980D01*
X018918Y010156D02*
X018725Y010156D01*
X019382Y009300D02*
X019643Y009300D01*
X019643Y009213D02*
X019643Y009387D01*
X019469Y009213D02*
X019382Y009300D01*
X019469Y009098D02*
X019556Y008968D01*
X019643Y009098D01*
X019643Y008968D02*
X019382Y008968D01*
X019382Y008846D02*
X019382Y008673D01*
X019512Y008673D01*
X019469Y008760D01*
X019469Y008803D01*
X019512Y008846D01*
X019599Y008846D01*
X019643Y008803D01*
X019643Y008716D01*
X019599Y008673D01*
X019837Y008754D02*
X019967Y008754D01*
X020011Y008711D01*
X020011Y008624D01*
X019967Y008581D01*
X019837Y008581D01*
X019837Y008494D02*
X019837Y008754D01*
X019924Y008581D02*
X020011Y008494D01*
X020132Y008494D02*
X020305Y008494D01*
X020219Y008494D02*
X020219Y008754D01*
X020132Y008668D01*
X020427Y008711D02*
X020470Y008754D01*
X020557Y008754D01*
X020600Y008711D01*
X020427Y008537D01*
X020470Y008494D01*
X020557Y008494D01*
X020600Y008537D01*
X020600Y008711D01*
X020427Y008711D02*
X020427Y008537D01*
X020296Y008996D02*
X020103Y008996D01*
X020103Y009172D02*
X020296Y009172D01*
X020709Y009848D02*
X020839Y009848D01*
X020796Y009935D01*
X020796Y009978D01*
X020839Y010022D01*
X020926Y010022D01*
X020969Y009978D01*
X020969Y009892D01*
X020926Y009848D01*
X020709Y009848D02*
X020709Y010022D01*
X020709Y010143D02*
X020969Y010143D01*
X020882Y010143D02*
X020796Y010273D01*
X020882Y010143D02*
X020969Y010273D01*
X020600Y010369D02*
X020427Y010369D01*
X020600Y010542D01*
X020600Y010586D01*
X020557Y010629D01*
X020470Y010629D01*
X020427Y010586D01*
X020219Y010629D02*
X020219Y010369D01*
X020305Y010369D02*
X020132Y010369D01*
X020011Y010369D02*
X019924Y010456D01*
X019967Y010456D02*
X019837Y010456D01*
X019837Y010369D02*
X019837Y010629D01*
X019967Y010629D01*
X020011Y010586D01*
X020011Y010499D01*
X019967Y010456D01*
X020132Y010542D02*
X020219Y010629D01*
X020296Y010156D02*
X020103Y010156D01*
X020103Y009980D02*
X020296Y009980D01*
X022148Y009128D02*
X022148Y008998D01*
X022235Y009041D01*
X022278Y009041D01*
X022322Y008998D01*
X022322Y008911D01*
X022278Y008868D01*
X022192Y008868D01*
X022148Y008911D01*
X022148Y009128D02*
X022322Y009128D01*
X022443Y009128D02*
X022443Y008868D01*
X022443Y008955D02*
X022573Y009041D01*
X022689Y009041D02*
X022775Y009128D01*
X022775Y008868D01*
X022689Y008868D02*
X022862Y008868D01*
X022983Y008781D02*
X023070Y008868D01*
X023027Y008868D01*
X023027Y008911D01*
X023070Y008911D01*
X023070Y008868D01*
X023474Y008868D02*
X023648Y008868D01*
X023561Y008868D02*
X023561Y009128D01*
X023474Y009041D01*
X023769Y009128D02*
X023769Y008868D01*
X023856Y008955D01*
X023942Y008868D01*
X023942Y009128D01*
X024124Y009710D02*
X024124Y009840D01*
X024167Y009883D01*
X024254Y009883D01*
X024297Y009840D01*
X024297Y009710D01*
X024297Y009796D02*
X024384Y009883D01*
X024384Y010004D02*
X024384Y010178D01*
X024384Y010091D02*
X024124Y010091D01*
X024210Y010004D01*
X024254Y010299D02*
X024254Y010429D01*
X024297Y010472D01*
X024341Y010472D01*
X024384Y010429D01*
X024384Y010342D01*
X024341Y010299D01*
X024254Y010299D01*
X024167Y010386D01*
X024124Y010472D01*
X024124Y009710D02*
X024384Y009710D01*
X025012Y009958D02*
X025186Y009958D01*
X025307Y009958D02*
X025480Y009958D01*
X025394Y009958D02*
X025394Y010218D01*
X025307Y010131D01*
X025186Y010175D02*
X025012Y010001D01*
X025012Y009958D01*
X025012Y010218D02*
X025186Y010218D01*
X025186Y010175D01*
X026587Y010201D02*
X026760Y010201D01*
X026760Y010158D01*
X026587Y009984D01*
X026587Y009941D01*
X026882Y010028D02*
X026882Y010201D01*
X027055Y010201D02*
X027055Y010028D01*
X026968Y009941D01*
X026882Y010028D01*
X026917Y008365D02*
X026787Y008235D01*
X026960Y008235D01*
X026917Y008105D02*
X026917Y008365D01*
X026666Y008322D02*
X026492Y008148D01*
X026536Y008105D01*
X026622Y008105D01*
X026666Y008148D01*
X026666Y008322D01*
X026622Y008365D01*
X026536Y008365D01*
X026492Y008322D01*
X026492Y008148D01*
X026371Y008148D02*
X026371Y008322D01*
X026328Y008365D01*
X026241Y008365D01*
X026198Y008322D01*
X026198Y008279D01*
X026241Y008235D01*
X026371Y008235D01*
X026371Y008148D02*
X026328Y008105D01*
X026241Y008105D01*
X026198Y008148D01*
X026076Y008148D02*
X026033Y008105D01*
X025946Y008105D01*
X025903Y008148D01*
X025990Y008235D02*
X026033Y008235D01*
X026076Y008192D01*
X026076Y008148D01*
X026033Y008235D02*
X026076Y008279D01*
X026076Y008322D01*
X026033Y008365D01*
X025946Y008365D01*
X025903Y008322D01*
X025782Y008365D02*
X025608Y008365D01*
X025695Y008365D02*
X025695Y008105D01*
X025487Y008105D02*
X025314Y008365D01*
X025192Y008322D02*
X025149Y008365D01*
X025019Y008365D01*
X025019Y008105D01*
X025149Y008105D01*
X025192Y008148D01*
X025192Y008322D01*
X025314Y008105D02*
X025487Y008365D01*
X024182Y008205D02*
X024182Y008032D01*
X024008Y008205D01*
X023965Y008205D01*
X023922Y008162D01*
X023922Y008075D01*
X023965Y008032D01*
X023965Y007911D02*
X023922Y007867D01*
X023922Y007781D01*
X023965Y007737D01*
X023965Y007911D02*
X024008Y007911D01*
X024182Y007737D01*
X024182Y007911D01*
X024182Y007616D02*
X024182Y007443D01*
X024182Y007529D02*
X023922Y007529D01*
X024008Y007443D01*
X023965Y007322D02*
X024052Y007322D01*
X024095Y007278D01*
X024095Y007148D01*
X024182Y007148D02*
X023922Y007148D01*
X023922Y007278D01*
X023965Y007322D01*
X023922Y007038D02*
X023922Y006952D01*
X023922Y006995D02*
X024182Y006995D01*
X024182Y006952D02*
X024182Y007038D01*
X024182Y006744D02*
X023922Y006744D01*
X023922Y006830D02*
X023922Y006657D01*
X025298Y006621D02*
X025428Y006621D01*
X025384Y006707D01*
X025384Y006751D01*
X025428Y006794D01*
X025515Y006794D01*
X025558Y006751D01*
X025558Y006664D01*
X025515Y006621D01*
X025515Y006499D02*
X025558Y006456D01*
X025558Y006369D01*
X025515Y006326D01*
X025341Y006326D01*
X025298Y006369D01*
X025298Y006456D01*
X025341Y006499D01*
X025515Y006499D01*
X025558Y006499D02*
X025471Y006413D01*
X025298Y006621D02*
X025298Y006794D01*
X027381Y008105D02*
X027511Y008105D01*
X027555Y008148D01*
X027555Y008322D01*
X027511Y008365D01*
X027381Y008365D01*
X027381Y008105D01*
X027676Y008105D02*
X027849Y008365D01*
X027970Y008365D02*
X028144Y008365D01*
X028057Y008365D02*
X028057Y008105D01*
X027849Y008105D02*
X027676Y008365D01*
X028265Y008322D02*
X028308Y008365D01*
X028395Y008365D01*
X028439Y008322D01*
X028439Y008279D01*
X028395Y008235D01*
X028439Y008192D01*
X028439Y008148D01*
X028395Y008105D01*
X028308Y008105D01*
X028265Y008148D01*
X028352Y008235D02*
X028395Y008235D01*
X028560Y008279D02*
X028603Y008235D01*
X028733Y008235D01*
X028733Y008148D02*
X028733Y008322D01*
X028690Y008365D01*
X028603Y008365D01*
X028560Y008322D01*
X028560Y008279D01*
X028560Y008148D02*
X028603Y008105D01*
X028690Y008105D01*
X028733Y008148D01*
X028854Y008148D02*
X029028Y008322D01*
X029028Y008148D01*
X028984Y008105D01*
X028898Y008105D01*
X028854Y008148D01*
X028854Y008322D01*
X028898Y008365D01*
X028984Y008365D01*
X029028Y008322D01*
X029149Y008235D02*
X029322Y008235D01*
X029279Y008105D02*
X029279Y008365D01*
X029149Y008235D01*
X029678Y008622D02*
X029678Y008882D01*
X029808Y008882D01*
X029851Y008839D01*
X029851Y008752D01*
X029808Y008709D01*
X029678Y008709D01*
X029765Y008709D02*
X029851Y008622D01*
X029973Y008622D02*
X030146Y008622D01*
X030059Y008622D02*
X030059Y008882D01*
X029973Y008795D01*
X030267Y008752D02*
X030267Y008882D01*
X030441Y008882D01*
X030397Y008795D02*
X030441Y008752D01*
X030441Y008665D01*
X030397Y008622D01*
X030311Y008622D01*
X030267Y008665D01*
X030267Y008752D02*
X030354Y008795D01*
X030397Y008795D01*
X030130Y008196D02*
X030130Y008003D01*
X029953Y008003D02*
X029953Y008196D01*
X029968Y007578D02*
X030055Y007578D01*
X030099Y007535D01*
X029925Y007361D01*
X029968Y007318D01*
X030055Y007318D01*
X030099Y007361D01*
X030099Y007535D01*
X030220Y007578D02*
X030220Y007318D01*
X030220Y007404D02*
X030350Y007491D01*
X030220Y007404D02*
X030350Y007318D01*
X029925Y007361D02*
X029925Y007535D01*
X029968Y007578D01*
X029717Y007578D02*
X029717Y007318D01*
X029630Y007318D02*
X029804Y007318D01*
X029630Y007491D02*
X029717Y007578D01*
X029230Y006811D02*
X029187Y006811D01*
X029143Y006767D01*
X029143Y006637D01*
X029230Y006637D01*
X029273Y006680D01*
X029273Y006767D01*
X029230Y006811D01*
X029057Y006724D02*
X029143Y006637D01*
X029057Y006724D02*
X029013Y006811D01*
X029057Y006516D02*
X029230Y006516D01*
X029273Y006473D01*
X029273Y006386D01*
X029230Y006342D01*
X029057Y006342D01*
X029013Y006386D01*
X029013Y006473D01*
X029057Y006516D01*
X029187Y006429D02*
X029273Y006516D01*
X027981Y005689D02*
X027981Y005646D01*
X027937Y005602D01*
X027851Y005602D01*
X027807Y005646D01*
X027807Y005689D01*
X027851Y005733D01*
X027937Y005733D01*
X027981Y005689D01*
X027937Y005602D02*
X027981Y005559D01*
X027981Y005516D01*
X027937Y005472D01*
X027851Y005472D01*
X027807Y005516D01*
X027807Y005559D01*
X027851Y005602D01*
X027686Y005516D02*
X027643Y005472D01*
X027556Y005472D01*
X027513Y005516D01*
X027513Y005689D01*
X027556Y005733D01*
X027643Y005733D01*
X027686Y005689D01*
X027535Y004453D02*
X027448Y004453D01*
X027405Y004410D01*
X027405Y004236D01*
X027578Y004410D01*
X027578Y004236D01*
X027535Y004193D01*
X027448Y004193D01*
X027405Y004236D01*
X027284Y004236D02*
X027240Y004193D01*
X027154Y004193D01*
X027110Y004236D01*
X027284Y004410D01*
X027284Y004236D01*
X027284Y004410D02*
X027240Y004453D01*
X027154Y004453D01*
X027110Y004410D01*
X027110Y004236D01*
X026989Y004193D02*
X026816Y004193D01*
X026902Y004193D02*
X026902Y004453D01*
X026816Y004366D01*
X027535Y004453D02*
X027578Y004410D01*
X027700Y004366D02*
X027830Y004366D01*
X027873Y004323D01*
X027873Y004193D01*
X027700Y004193D02*
X027700Y004366D01*
X028811Y003338D02*
X029071Y003338D01*
X029071Y003424D02*
X029071Y003251D01*
X029071Y003130D02*
X029071Y002956D01*
X029071Y003043D02*
X028811Y003043D01*
X028898Y002956D01*
X028941Y002835D02*
X028984Y002792D01*
X028984Y002662D01*
X028984Y002748D02*
X029071Y002835D01*
X028941Y002835D02*
X028854Y002835D01*
X028811Y002792D01*
X028811Y002662D01*
X029071Y002662D01*
X029311Y002812D02*
X029311Y003152D01*
X029591Y003152D02*
X029591Y002812D01*
X028898Y003251D02*
X028811Y003338D01*
X029242Y003676D02*
X029242Y003719D01*
X029416Y003893D01*
X029416Y003936D01*
X029242Y003936D01*
X029537Y003936D02*
X029537Y003676D01*
X029537Y003763D02*
X029667Y003676D01*
X029782Y003719D02*
X029826Y003676D01*
X029913Y003676D01*
X029956Y003719D01*
X029956Y003806D01*
X029913Y003849D01*
X029869Y003849D01*
X029782Y003806D01*
X029782Y003936D01*
X029956Y003936D01*
X029667Y003849D02*
X029537Y003763D01*
X031006Y003234D02*
X031179Y002974D01*
X031300Y002974D02*
X031474Y002974D01*
X031387Y002974D02*
X031387Y003234D01*
X031300Y003148D01*
X031179Y003234D02*
X031006Y002974D01*
X031595Y002974D02*
X031768Y002974D01*
X031682Y002974D02*
X031682Y003234D01*
X031595Y003148D01*
X032827Y003223D02*
X032914Y003223D01*
X032871Y003223D02*
X032871Y002962D01*
X032914Y002962D02*
X032827Y002962D01*
X033024Y003006D02*
X033024Y003179D01*
X033067Y003223D01*
X033154Y003223D01*
X033197Y003179D01*
X033319Y003179D02*
X033319Y003136D01*
X033362Y003093D01*
X033449Y003093D01*
X033492Y003049D01*
X033492Y003006D01*
X033449Y002962D01*
X033362Y002962D01*
X033319Y003006D01*
X033197Y003006D02*
X033154Y002962D01*
X033067Y002962D01*
X033024Y003006D01*
X033319Y003179D02*
X033362Y003223D01*
X033449Y003223D01*
X033492Y003179D01*
X033613Y003223D02*
X033743Y003223D01*
X033787Y003179D01*
X033787Y003093D01*
X033743Y003049D01*
X033613Y003049D01*
X033613Y002962D02*
X033613Y003223D01*
X033352Y005457D02*
X033265Y005457D01*
X033222Y005501D01*
X033395Y005674D01*
X033395Y005501D01*
X033352Y005457D01*
X033222Y005501D02*
X033222Y005674D01*
X033265Y005718D01*
X033352Y005718D01*
X033395Y005674D01*
X033101Y005674D02*
X033057Y005718D01*
X032971Y005718D01*
X032927Y005674D01*
X032806Y005674D02*
X032763Y005718D01*
X032676Y005718D01*
X032633Y005674D01*
X032633Y005501D01*
X032676Y005457D01*
X032763Y005457D01*
X032806Y005501D01*
X032927Y005457D02*
X033101Y005631D01*
X033101Y005674D01*
X033101Y005457D02*
X032927Y005457D01*
X033633Y006457D02*
X033590Y006500D01*
X033590Y006587D01*
X033633Y006630D01*
X033677Y006630D01*
X033720Y006587D01*
X033763Y006630D01*
X033807Y006630D01*
X033850Y006587D01*
X033850Y006500D01*
X033807Y006457D01*
X033720Y006543D02*
X033720Y006587D01*
X033807Y006751D02*
X033807Y006795D01*
X033850Y006795D01*
X033850Y006751D01*
X033807Y006751D01*
X033807Y006899D02*
X033850Y006942D01*
X033850Y007029D01*
X033807Y007072D01*
X033763Y007072D01*
X033720Y007029D01*
X033720Y006985D01*
X033720Y007029D02*
X033677Y007072D01*
X033633Y007072D01*
X033590Y007029D01*
X033590Y006942D01*
X033633Y006899D01*
X033677Y007193D02*
X033807Y007193D01*
X033850Y007237D01*
X033850Y007367D01*
X033677Y007367D01*
X033662Y008288D02*
X033662Y008461D01*
X033662Y008375D02*
X033402Y008375D01*
X033489Y008288D01*
X033445Y008582D02*
X033402Y008626D01*
X033402Y008713D01*
X033445Y008756D01*
X033619Y008582D01*
X033662Y008626D01*
X033662Y008713D01*
X033619Y008756D01*
X033445Y008756D01*
X033445Y008877D02*
X033402Y008920D01*
X033402Y009007D01*
X033445Y009051D01*
X033619Y008877D01*
X033662Y008920D01*
X033662Y009007D01*
X033619Y009051D01*
X033445Y009051D01*
X033489Y009172D02*
X033489Y009302D01*
X033532Y009345D01*
X033662Y009345D01*
X033662Y009172D02*
X033489Y009172D01*
X033445Y008877D02*
X033619Y008877D01*
X033619Y008582D02*
X033445Y008582D01*
X033523Y009803D02*
X033523Y009933D01*
X033567Y009977D01*
X033610Y009977D01*
X033653Y009933D01*
X033653Y009846D01*
X033610Y009803D01*
X033523Y009803D01*
X033436Y009890D01*
X033393Y009977D01*
X033436Y010098D02*
X033393Y010141D01*
X033393Y010228D01*
X033436Y010271D01*
X033610Y010098D01*
X033653Y010141D01*
X033653Y010228D01*
X033610Y010271D01*
X033436Y010271D01*
X033393Y010392D02*
X033653Y010392D01*
X033567Y010392D02*
X033567Y010522D01*
X033523Y010566D01*
X033436Y010566D01*
X033393Y010522D01*
X033393Y010392D01*
X033244Y010328D02*
X033244Y010005D01*
X033436Y010098D02*
X033610Y010098D01*
X033567Y010479D02*
X033653Y010566D01*
X034402Y010625D02*
X034445Y010581D01*
X034402Y010625D02*
X034402Y010711D01*
X034445Y010755D01*
X034489Y010755D01*
X034662Y010581D01*
X034662Y010755D01*
X034783Y010595D02*
X035043Y010595D01*
X034957Y010595D02*
X035043Y010725D01*
X034957Y010595D02*
X034870Y010725D01*
X034827Y010474D02*
X035000Y010300D01*
X035043Y010344D01*
X035043Y010430D01*
X035000Y010474D01*
X034827Y010474D01*
X034783Y010430D01*
X034783Y010344D01*
X034827Y010300D01*
X035000Y010300D01*
X035043Y010179D02*
X035043Y010006D01*
X035043Y010092D02*
X034783Y010092D01*
X034870Y010006D01*
X034662Y009992D02*
X034402Y009992D01*
X034402Y010122D01*
X034445Y010165D01*
X034532Y010165D01*
X034576Y010122D01*
X034576Y009992D01*
X034576Y010079D02*
X034662Y010165D01*
X034619Y010287D02*
X034662Y010330D01*
X034662Y010417D01*
X034619Y010460D01*
X034576Y010460D01*
X034532Y010417D01*
X034532Y010373D01*
X034532Y010417D02*
X034489Y010460D01*
X034445Y010460D01*
X034402Y010417D01*
X034402Y010330D01*
X034445Y010287D01*
X034916Y009763D02*
X035109Y009763D01*
X035109Y009586D02*
X034916Y009586D01*
X034929Y009251D02*
X034843Y009251D01*
X034799Y009208D01*
X034799Y009164D01*
X034843Y009121D01*
X034929Y009121D01*
X034973Y009078D01*
X034973Y009034D01*
X034929Y008991D01*
X034843Y008991D01*
X034799Y009034D01*
X034973Y009208D02*
X034929Y009251D01*
X035094Y009164D02*
X035094Y009034D01*
X035137Y008991D01*
X035181Y009034D01*
X035224Y008991D01*
X035267Y009034D01*
X035267Y009164D01*
X035389Y009164D02*
X035432Y009164D01*
X035432Y008991D01*
X035389Y008991D02*
X035475Y008991D01*
X035628Y009034D02*
X035672Y008991D01*
X035628Y009034D02*
X035628Y009208D01*
X035585Y009164D02*
X035672Y009164D01*
X035781Y009121D02*
X035781Y009034D01*
X035825Y008991D01*
X035955Y008991D01*
X036076Y008991D02*
X036076Y009251D01*
X036120Y009164D02*
X036206Y009164D01*
X036250Y009121D01*
X036250Y008991D01*
X036120Y009164D02*
X036076Y009121D01*
X035955Y009164D02*
X035825Y009164D01*
X035781Y009121D01*
X035432Y009251D02*
X035432Y009294D01*
X035487Y010015D02*
X035660Y010015D01*
X035781Y010015D02*
X035781Y010275D01*
X035955Y010275D01*
X036076Y010275D02*
X036206Y010275D01*
X036250Y010231D01*
X036250Y010058D01*
X036206Y010015D01*
X036076Y010015D01*
X036076Y010275D01*
X035868Y010145D02*
X035781Y010145D01*
X035781Y010015D02*
X035955Y010015D01*
X035487Y010015D02*
X035487Y010275D01*
X035868Y011058D02*
X035868Y011318D01*
X035781Y011318D02*
X035955Y011318D01*
X036076Y011188D02*
X036250Y011188D01*
X036163Y011275D02*
X036163Y011101D01*
X035868Y012042D02*
X035868Y012302D01*
X035781Y012302D02*
X035955Y012302D01*
X036076Y012172D02*
X036250Y012172D01*
X035546Y013414D02*
X035546Y013457D01*
X035719Y013631D01*
X035719Y013674D01*
X035546Y013674D01*
X035338Y013674D02*
X035338Y013414D01*
X035251Y013414D02*
X035425Y013414D01*
X035251Y013587D02*
X035338Y013674D01*
X035130Y013631D02*
X035130Y013587D01*
X035087Y013544D01*
X035000Y013544D01*
X034957Y013587D01*
X034957Y013631D01*
X035000Y013674D01*
X035087Y013674D01*
X035130Y013631D01*
X035087Y013544D02*
X035130Y013501D01*
X035130Y013457D01*
X035087Y013414D01*
X035000Y013414D01*
X034957Y013457D01*
X034957Y013501D01*
X035000Y013544D01*
X034835Y013501D02*
X034792Y013544D01*
X034662Y013544D01*
X034662Y013457D01*
X034705Y013414D01*
X034792Y013414D01*
X034835Y013457D01*
X034835Y013501D01*
X034749Y013631D02*
X034662Y013544D01*
X034749Y013631D02*
X034835Y013674D01*
X034886Y013809D02*
X034936Y013809D01*
X034886Y013809D02*
X034646Y013809D01*
X034596Y013809D01*
X034541Y013674D02*
X034367Y013414D01*
X034246Y013414D02*
X034246Y013587D01*
X034159Y013674D01*
X034073Y013587D01*
X034073Y013414D01*
X033951Y013414D02*
X033951Y013674D01*
X033865Y013587D01*
X033778Y013674D01*
X033778Y013414D01*
X034073Y013544D02*
X034246Y013544D01*
X034367Y013674D02*
X034541Y013414D01*
X034646Y013809D02*
X034648Y013830D01*
X034653Y013850D01*
X034662Y013869D01*
X034674Y013886D01*
X034689Y013901D01*
X034706Y013913D01*
X034725Y013922D01*
X034745Y013927D01*
X034766Y013929D01*
X034787Y013927D01*
X034807Y013922D01*
X034826Y013913D01*
X034843Y013901D01*
X034858Y013886D01*
X034870Y013869D01*
X034879Y013850D01*
X034884Y013830D01*
X034886Y013809D01*
X033840Y014079D02*
X033840Y014165D01*
X033797Y014209D01*
X033580Y014209D01*
X033667Y014330D02*
X033580Y014417D01*
X033840Y014417D01*
X033840Y014503D02*
X033840Y014330D01*
X033840Y014079D02*
X033797Y014035D01*
X033580Y014035D01*
X033623Y014625D02*
X033580Y014668D01*
X033580Y014755D01*
X033623Y014798D01*
X033667Y014798D01*
X033710Y014755D01*
X033754Y014798D01*
X033797Y014798D01*
X033840Y014755D01*
X033840Y014668D01*
X033797Y014625D01*
X033710Y014711D02*
X033710Y014755D01*
X034596Y016565D02*
X034646Y016565D01*
X034886Y016565D01*
X034936Y016565D01*
X034886Y016565D02*
X034884Y016586D01*
X034879Y016606D01*
X034870Y016625D01*
X034858Y016642D01*
X034843Y016657D01*
X034826Y016669D01*
X034807Y016678D01*
X034787Y016683D01*
X034766Y016685D01*
X034745Y016683D01*
X034725Y016678D01*
X034706Y016669D01*
X034689Y016657D01*
X034674Y016642D01*
X034662Y016625D01*
X034653Y016606D01*
X034648Y016586D01*
X034646Y016565D01*
X033850Y016844D02*
X033850Y016931D01*
X033807Y016975D01*
X033590Y016975D01*
X033677Y017096D02*
X033590Y017182D01*
X033850Y017182D01*
X033850Y017096D02*
X033850Y017269D01*
X033720Y017390D02*
X033720Y017564D01*
X033590Y017520D02*
X033720Y017390D01*
X033850Y017520D02*
X033590Y017520D01*
X033876Y017843D02*
X033876Y018103D01*
X033963Y018017D01*
X034050Y018103D01*
X034050Y017843D01*
X034171Y017843D02*
X034171Y018017D01*
X034258Y018103D01*
X034344Y018017D01*
X034344Y017843D01*
X034466Y017843D02*
X034639Y018103D01*
X034466Y018103D02*
X034639Y017843D01*
X034760Y017886D02*
X034804Y017843D01*
X034890Y017843D01*
X034934Y017886D01*
X034934Y017930D01*
X034890Y017973D01*
X034760Y017973D01*
X034760Y017886D01*
X034760Y017973D02*
X034847Y018060D01*
X034934Y018103D01*
X035055Y018060D02*
X035055Y018017D01*
X035098Y017973D01*
X035185Y017973D01*
X035228Y017930D01*
X035228Y017886D01*
X035185Y017843D01*
X035098Y017843D01*
X035055Y017886D01*
X035055Y017930D01*
X035098Y017973D01*
X035185Y017973D02*
X035228Y018017D01*
X035228Y018060D01*
X035185Y018103D01*
X035098Y018103D01*
X035055Y018060D01*
X035350Y018017D02*
X035436Y018103D01*
X035436Y017843D01*
X035350Y017843D02*
X035523Y017843D01*
X035644Y017843D02*
X035644Y017886D01*
X035818Y018060D01*
X035818Y018103D01*
X035644Y018103D01*
X036568Y018878D02*
X036741Y018878D01*
X036654Y018878D02*
X036654Y019138D01*
X036568Y019051D01*
X036862Y019095D02*
X036906Y019138D01*
X036992Y019138D01*
X037036Y019095D01*
X036862Y018921D01*
X036906Y018878D01*
X036992Y018878D01*
X037036Y018921D01*
X037036Y019095D01*
X037157Y019138D02*
X037157Y018878D01*
X037157Y018965D02*
X037287Y019051D01*
X037157Y018965D02*
X037287Y018878D01*
X036862Y018921D02*
X036862Y019095D01*
X037032Y019331D02*
X037225Y019331D01*
X037225Y019507D02*
X037032Y019507D01*
X037036Y019705D02*
X036862Y019705D01*
X037036Y019878D01*
X037036Y019921D01*
X036992Y019965D01*
X036906Y019965D01*
X036862Y019921D01*
X036741Y019921D02*
X036741Y019835D01*
X036698Y019791D01*
X036568Y019791D01*
X036654Y019791D02*
X036741Y019705D01*
X036568Y019705D02*
X036568Y019965D01*
X036698Y019965D01*
X036741Y019921D01*
X037157Y019921D02*
X037157Y019878D01*
X037200Y019835D01*
X037330Y019835D01*
X037330Y019921D02*
X037287Y019965D01*
X037200Y019965D01*
X037157Y019921D01*
X037157Y019748D02*
X037200Y019705D01*
X037287Y019705D01*
X037330Y019748D01*
X037330Y019921D01*
X037650Y019965D02*
X037780Y019965D01*
X037824Y019921D01*
X037824Y019835D01*
X037780Y019791D01*
X037650Y019791D01*
X037650Y019705D02*
X037650Y019965D01*
X037737Y019791D02*
X037824Y019705D01*
X037945Y019705D02*
X038118Y019878D01*
X038118Y019921D01*
X038075Y019965D01*
X037988Y019965D01*
X037945Y019921D01*
X037945Y019705D02*
X038118Y019705D01*
X038240Y019748D02*
X038240Y019791D01*
X038283Y019835D01*
X038370Y019835D01*
X038413Y019791D01*
X038413Y019748D01*
X038370Y019705D01*
X038283Y019705D01*
X038240Y019748D01*
X038283Y019835D02*
X038240Y019878D01*
X038240Y019921D01*
X038283Y019965D01*
X038370Y019965D01*
X038413Y019921D01*
X038413Y019878D01*
X038370Y019835D01*
X038610Y019861D02*
X038870Y019861D01*
X038783Y019861D02*
X038696Y019991D01*
X038783Y019861D02*
X038870Y019991D01*
X038826Y019740D02*
X038870Y019696D01*
X038870Y019610D01*
X038826Y019566D01*
X038653Y019740D01*
X038826Y019740D01*
X038653Y019740D02*
X038610Y019696D01*
X038610Y019610D01*
X038653Y019566D01*
X038826Y019566D01*
X038870Y019445D02*
X038870Y019272D01*
X038870Y019358D02*
X038610Y019358D01*
X038696Y019272D01*
X038696Y018987D02*
X038783Y018857D01*
X038870Y018987D01*
X038870Y018857D02*
X038610Y018857D01*
X038653Y018736D02*
X038826Y018562D01*
X038870Y018606D01*
X038870Y018692D01*
X038826Y018736D01*
X038653Y018736D01*
X038610Y018692D01*
X038610Y018606D01*
X038653Y018562D01*
X038826Y018562D01*
X038870Y018441D02*
X038870Y018268D01*
X038870Y018354D02*
X038610Y018354D01*
X038696Y018268D01*
X038413Y018268D02*
X038240Y018268D01*
X038326Y018268D02*
X038326Y018528D01*
X038240Y018441D01*
X038118Y018441D02*
X038075Y018398D01*
X038118Y018354D01*
X038118Y018311D01*
X038075Y018268D01*
X037988Y018268D01*
X037945Y018311D01*
X038032Y018398D02*
X038075Y018398D01*
X038118Y018441D02*
X038118Y018484D01*
X038075Y018528D01*
X037988Y018528D01*
X037945Y018484D01*
X037824Y018484D02*
X037824Y018398D01*
X037780Y018354D01*
X037650Y018354D01*
X037650Y018268D02*
X037650Y018528D01*
X037780Y018528D01*
X037824Y018484D01*
X037737Y018354D02*
X037824Y018268D01*
X038016Y018740D02*
X038209Y018740D01*
X038209Y018916D02*
X038016Y018916D01*
X038016Y019331D02*
X038209Y019331D01*
X038209Y019507D02*
X038016Y019507D01*
X038544Y017394D02*
X038500Y017351D01*
X038500Y017264D01*
X038544Y017221D01*
X038587Y017221D01*
X038631Y017264D01*
X038631Y017351D01*
X038674Y017394D01*
X038717Y017394D01*
X038761Y017351D01*
X038761Y017264D01*
X038717Y017221D01*
X038674Y017221D01*
X038631Y017264D01*
X038631Y017351D02*
X038587Y017394D01*
X038544Y017394D01*
X038500Y017100D02*
X038761Y016926D01*
X038761Y017100D02*
X038500Y016926D01*
X037484Y015969D02*
X037527Y015925D01*
X037354Y015752D01*
X037397Y015709D01*
X037484Y015709D01*
X037527Y015752D01*
X037527Y015925D01*
X037484Y015969D02*
X037397Y015969D01*
X037354Y015925D01*
X037354Y015752D01*
X037233Y015752D02*
X037189Y015709D01*
X037103Y015709D01*
X037059Y015752D01*
X037146Y015839D02*
X037189Y015839D01*
X037233Y015795D01*
X037233Y015752D01*
X037189Y015839D02*
X037233Y015882D01*
X037233Y015925D01*
X037189Y015969D01*
X037103Y015969D01*
X037059Y015925D01*
X036938Y015925D02*
X036895Y015969D01*
X036764Y015969D01*
X036764Y015709D01*
X036764Y015795D02*
X036895Y015795D01*
X036938Y015839D01*
X036938Y015925D01*
X036851Y015795D02*
X036938Y015709D01*
X036851Y015464D02*
X036851Y015204D01*
X036764Y015204D02*
X036938Y015204D01*
X037059Y015247D02*
X037233Y015421D01*
X037233Y015247D01*
X037189Y015204D01*
X037103Y015204D01*
X037059Y015247D01*
X037059Y015421D01*
X037103Y015464D01*
X037189Y015464D01*
X037233Y015421D01*
X037354Y015464D02*
X037354Y015204D01*
X037354Y015291D02*
X037484Y015204D01*
X037354Y015291D02*
X037484Y015377D01*
X038016Y015492D02*
X038209Y015492D01*
X038209Y015668D02*
X038016Y015668D01*
X036851Y015464D02*
X036764Y015377D01*
X038500Y014201D02*
X038500Y014115D01*
X038544Y014071D01*
X038587Y014071D01*
X038631Y014115D01*
X038631Y014245D01*
X038717Y014245D02*
X038544Y014245D01*
X038500Y014201D01*
X038717Y014245D02*
X038761Y014201D01*
X038761Y014115D01*
X038717Y014071D01*
X038761Y013950D02*
X038500Y013777D01*
X038500Y013950D02*
X038761Y013777D01*
X038753Y010064D02*
X038796Y010020D01*
X038796Y009934D01*
X038753Y009890D01*
X038579Y010064D01*
X038753Y010064D01*
X038579Y010064D02*
X038536Y010020D01*
X038536Y009934D01*
X038579Y009890D01*
X038753Y009890D01*
X038796Y009769D02*
X038796Y009596D01*
X038796Y009682D02*
X038536Y009682D01*
X038623Y009596D01*
X038536Y009474D02*
X038796Y009301D01*
X038796Y009474D02*
X038536Y009301D01*
X036250Y008137D02*
X036250Y008007D01*
X036250Y008137D02*
X036206Y008180D01*
X036120Y008180D01*
X036076Y008137D01*
X035955Y008180D02*
X035825Y008180D01*
X035781Y008137D01*
X035781Y008050D01*
X035825Y008007D01*
X035955Y008007D01*
X036076Y008007D02*
X036076Y008267D01*
X035660Y008137D02*
X035660Y008007D01*
X035530Y008007D01*
X035487Y008050D01*
X035530Y008093D01*
X035660Y008093D01*
X035660Y008137D02*
X035617Y008180D01*
X035530Y008180D01*
X035366Y008267D02*
X035192Y008267D01*
X035279Y008267D02*
X035279Y008007D01*
X035487Y007283D02*
X035660Y007283D01*
X035574Y007153D02*
X035487Y007153D01*
X035487Y007283D02*
X035487Y007022D01*
X035781Y007066D02*
X035825Y007109D01*
X035955Y007109D01*
X035955Y007153D02*
X035955Y007022D01*
X035825Y007022D01*
X035781Y007066D01*
X035825Y007196D02*
X035912Y007196D01*
X035955Y007153D01*
X036076Y007196D02*
X036206Y007196D01*
X036250Y007153D01*
X036250Y007022D01*
X036076Y007022D02*
X036076Y007196D01*
X032744Y010005D02*
X032744Y010328D01*
X032564Y010271D02*
X032564Y010098D01*
X032564Y010184D02*
X032304Y010184D01*
X032391Y010098D01*
X032434Y009977D02*
X032478Y009933D01*
X032478Y009803D01*
X032564Y009803D02*
X032304Y009803D01*
X032304Y009933D01*
X032347Y009977D01*
X032434Y009977D01*
X032478Y009890D02*
X032564Y009977D01*
X032521Y010392D02*
X032478Y010392D01*
X032434Y010436D01*
X032434Y010522D01*
X032478Y010566D01*
X032521Y010566D01*
X032564Y010522D01*
X032564Y010436D01*
X032521Y010392D01*
X032434Y010436D02*
X032391Y010392D01*
X032347Y010392D01*
X032304Y010436D01*
X032304Y010522D01*
X032347Y010566D01*
X032391Y010566D01*
X032434Y010522D01*
X032175Y010529D02*
X032045Y010616D01*
X032175Y010703D01*
X032045Y010789D02*
X032045Y010529D01*
X031923Y010572D02*
X031880Y010529D01*
X031793Y010529D01*
X031750Y010572D01*
X031750Y010659D02*
X031837Y010703D01*
X031880Y010703D01*
X031923Y010659D01*
X031923Y010572D01*
X031750Y010659D02*
X031750Y010789D01*
X031923Y010789D01*
X031542Y010789D02*
X031542Y010529D01*
X031455Y010529D02*
X031629Y010529D01*
X031455Y010703D02*
X031542Y010789D01*
X031341Y010418D02*
X031385Y010375D01*
X031385Y010288D01*
X031341Y010245D01*
X031168Y010418D01*
X031341Y010418D01*
X031168Y010418D02*
X031125Y010375D01*
X031125Y010288D01*
X031168Y010245D01*
X031341Y010245D01*
X031255Y010124D02*
X031255Y009950D01*
X031125Y010080D01*
X031385Y010080D01*
X031627Y010116D02*
X031627Y009923D01*
X031803Y009923D02*
X031803Y010116D01*
X031385Y009829D02*
X031298Y009742D01*
X031298Y009786D02*
X031298Y009655D01*
X031385Y009655D02*
X031125Y009655D01*
X031125Y009786D01*
X031168Y009829D01*
X031255Y009829D01*
X031298Y009786D01*
X031414Y009296D02*
X031414Y009123D01*
X031414Y009209D02*
X031154Y009209D01*
X031241Y009123D01*
X031241Y009001D02*
X031197Y009001D01*
X031154Y008958D01*
X031154Y008871D01*
X031197Y008828D01*
X031197Y008707D02*
X031154Y008663D01*
X031154Y008577D01*
X031197Y008533D01*
X031371Y008533D01*
X031414Y008577D01*
X031414Y008663D01*
X031371Y008707D01*
X031414Y008828D02*
X031241Y009001D01*
X031414Y009001D02*
X031414Y008828D01*
X031243Y007708D02*
X031070Y007708D01*
X031026Y007664D01*
X031026Y007577D01*
X031070Y007534D01*
X031113Y007534D01*
X031156Y007577D01*
X031156Y007708D01*
X031243Y007708D02*
X031286Y007664D01*
X031286Y007577D01*
X031243Y007534D01*
X031243Y007413D02*
X031286Y007370D01*
X031286Y007283D01*
X031243Y007239D01*
X031156Y007326D02*
X031156Y007370D01*
X031200Y007413D01*
X031243Y007413D01*
X031156Y007370D02*
X031113Y007413D01*
X031070Y007413D01*
X031026Y007370D01*
X031026Y007283D01*
X031070Y007239D01*
X031070Y007118D02*
X031026Y007075D01*
X031026Y006945D01*
X031286Y006945D01*
X031200Y006945D02*
X031200Y007075D01*
X031156Y007118D01*
X031070Y007118D01*
X031200Y007032D02*
X031286Y007118D01*
X031528Y007216D02*
X031528Y007409D01*
X031705Y007409D02*
X031705Y007216D01*
X031727Y006790D02*
X031553Y006790D01*
X031553Y006660D01*
X031640Y006704D01*
X031683Y006704D01*
X031727Y006660D01*
X031727Y006574D01*
X031683Y006530D01*
X031596Y006530D01*
X031553Y006574D01*
X031432Y006530D02*
X031258Y006530D01*
X031345Y006530D02*
X031345Y006790D01*
X031258Y006704D01*
X031848Y006790D02*
X031848Y006530D01*
X031848Y006617D02*
X031978Y006704D01*
X031848Y006617D02*
X031978Y006530D01*
X027106Y002288D02*
X027106Y002027D01*
X027019Y002027D02*
X027193Y002027D01*
X027019Y002201D02*
X027106Y002288D01*
X026811Y002288D02*
X026811Y002027D01*
X026724Y002027D02*
X026898Y002027D01*
X026724Y002201D02*
X026811Y002288D01*
X026603Y002288D02*
X026603Y002071D01*
X026560Y002027D01*
X026473Y002027D01*
X026430Y002071D01*
X026430Y002288D01*
X026079Y002342D02*
X026079Y002472D01*
X026035Y002515D01*
X025862Y002515D01*
X025819Y002472D01*
X025819Y002342D01*
X026079Y002342D01*
X026079Y002220D02*
X025905Y002220D01*
X025819Y002134D01*
X025905Y002047D01*
X026079Y002047D01*
X025949Y002047D02*
X025949Y002220D01*
X025949Y002636D02*
X025819Y002636D01*
X025819Y002810D01*
X025905Y002766D02*
X025949Y002810D01*
X026035Y002810D01*
X026079Y002766D01*
X026079Y002680D01*
X026035Y002636D01*
X025949Y002636D02*
X025905Y002723D01*
X025905Y002766D01*
X025862Y002931D02*
X025819Y002974D01*
X025819Y003061D01*
X025862Y003104D01*
X025905Y003104D01*
X026079Y002931D01*
X026079Y003104D01*
X026035Y003226D02*
X026079Y003269D01*
X026079Y003356D01*
X026035Y003399D01*
X025862Y003399D01*
X025819Y003356D01*
X025819Y003269D01*
X025862Y003226D01*
X025905Y003226D01*
X025949Y003269D01*
X025949Y003399D01*
X026035Y003520D02*
X025862Y003694D01*
X026035Y003694D01*
X026079Y003650D01*
X026079Y003564D01*
X026035Y003520D01*
X025862Y003520D01*
X025819Y003564D01*
X025819Y003650D01*
X025862Y003694D01*
X022854Y000995D02*
X022680Y000995D01*
X022680Y000735D01*
X022854Y000735D01*
X022767Y000865D02*
X022680Y000865D01*
X022559Y000865D02*
X022516Y000822D01*
X022386Y000822D01*
X022386Y000735D02*
X022386Y000995D01*
X022516Y000995D01*
X022559Y000952D01*
X022559Y000865D01*
X022265Y000822D02*
X022265Y000778D01*
X022221Y000735D01*
X022091Y000735D01*
X022091Y000995D01*
X022221Y000995D01*
X022265Y000952D01*
X022265Y000908D01*
X022221Y000865D01*
X022091Y000865D01*
X021970Y000865D02*
X021797Y000865D01*
X021797Y000908D02*
X021883Y000995D01*
X021970Y000908D01*
X021970Y000735D01*
X021797Y000735D02*
X021797Y000908D01*
X021675Y000865D02*
X021675Y000778D01*
X021632Y000735D01*
X021545Y000735D01*
X021502Y000778D01*
X021502Y000865D02*
X021589Y000908D01*
X021632Y000908D01*
X021675Y000865D01*
X021675Y000995D02*
X021502Y000995D01*
X021502Y000865D01*
X021381Y000735D02*
X021207Y000735D01*
X021294Y000735D02*
X021294Y000995D01*
X021207Y000908D01*
X021086Y000865D02*
X020913Y000865D01*
X020791Y000865D02*
X020618Y000865D01*
X020748Y000995D01*
X020748Y000735D01*
X020497Y000778D02*
X020453Y000735D01*
X020367Y000735D01*
X020323Y000778D01*
X020202Y000778D02*
X020202Y000822D01*
X020159Y000865D01*
X020029Y000865D01*
X020029Y000778D01*
X020072Y000735D01*
X020159Y000735D01*
X020202Y000778D01*
X020029Y000865D02*
X020115Y000952D01*
X020202Y000995D01*
X020323Y000952D02*
X020367Y000995D01*
X020453Y000995D01*
X020497Y000952D01*
X020497Y000908D01*
X020453Y000865D01*
X020497Y000822D01*
X020497Y000778D01*
X020453Y000865D02*
X020410Y000865D01*
X022221Y000865D02*
X022265Y000822D01*
X017561Y000542D02*
X017561Y005462D01*
X006041Y005462D01*
X006041Y000542D01*
X017561Y000542D01*
X016581Y002172D02*
X016581Y002512D01*
X015991Y002512D02*
X017171Y003502D01*
X016581Y003502D02*
X016581Y003792D01*
X015592Y003264D02*
X015592Y003090D01*
X015592Y003177D02*
X015332Y003177D01*
X015419Y003090D01*
X015332Y002969D02*
X015505Y002795D01*
X015462Y002839D02*
X015592Y002969D01*
X015592Y002795D02*
X015332Y002795D01*
X017521Y005950D02*
X012601Y005950D01*
X012601Y017470D01*
X017521Y017470D01*
X017521Y005950D01*
X018545Y006690D02*
X018545Y006863D01*
X018589Y006907D01*
X018675Y006907D01*
X018719Y006863D01*
X018719Y006690D01*
X018675Y006646D01*
X018589Y006646D01*
X018545Y006690D01*
X018632Y006733D02*
X018719Y006646D01*
X018840Y006777D02*
X019013Y006777D01*
X018970Y006907D02*
X018970Y006646D01*
X018840Y006777D02*
X018970Y006907D01*
X015861Y006490D02*
X015461Y006490D01*
X015461Y008110D01*
X015831Y008490D02*
X015931Y008490D01*
X015461Y008860D02*
X015461Y010490D01*
X015861Y010490D01*
X014711Y010490D02*
X014281Y010490D01*
X014711Y010490D02*
X014711Y008860D01*
X014331Y008490D01*
X014231Y008490D01*
X014711Y008110D02*
X014711Y006490D01*
X014281Y006490D01*
X012344Y006094D02*
X012344Y010894D01*
X012342Y010920D01*
X012337Y010946D01*
X012329Y010971D01*
X012317Y010994D01*
X012303Y011016D01*
X012285Y011035D01*
X012266Y011053D01*
X012244Y011067D01*
X012221Y011079D01*
X012196Y011087D01*
X012170Y011092D01*
X012144Y011094D01*
X010144Y011094D01*
X010118Y011092D01*
X010092Y011087D01*
X010067Y011079D01*
X010044Y011067D01*
X010022Y011053D01*
X010003Y011035D01*
X009985Y011016D01*
X009971Y010994D01*
X009959Y010971D01*
X009951Y010946D01*
X009946Y010920D01*
X009944Y010894D01*
X009944Y006094D01*
X009946Y006068D01*
X009951Y006042D01*
X009959Y006017D01*
X009971Y005994D01*
X009985Y005972D01*
X010003Y005953D01*
X010022Y005935D01*
X010044Y005921D01*
X010067Y005909D01*
X010092Y005901D01*
X010118Y005896D01*
X010144Y005894D01*
X012144Y005894D01*
X012170Y005896D01*
X012196Y005901D01*
X012221Y005909D01*
X012244Y005921D01*
X012266Y005935D01*
X012285Y005953D01*
X012303Y005972D01*
X012317Y005994D01*
X012329Y006017D01*
X012337Y006042D01*
X012342Y006068D01*
X012344Y006094D01*
X012160Y006670D02*
X012160Y006844D01*
X012160Y006757D02*
X011899Y006757D01*
X011986Y006670D01*
X011943Y006965D02*
X011899Y007008D01*
X011899Y007095D01*
X011943Y007138D01*
X012116Y006965D01*
X012160Y007008D01*
X012160Y007095D01*
X012116Y007138D01*
X011943Y007138D01*
X011943Y007260D02*
X011899Y007303D01*
X011899Y007390D01*
X011943Y007433D01*
X012116Y007260D01*
X012160Y007303D01*
X012160Y007390D01*
X012116Y007433D01*
X011943Y007433D01*
X011986Y007554D02*
X011986Y007684D01*
X012029Y007728D01*
X012160Y007728D01*
X012160Y007554D02*
X011986Y007554D01*
X011943Y007260D02*
X012116Y007260D01*
X012116Y006965D02*
X011943Y006965D01*
X011144Y006994D02*
X011144Y009394D01*
X011144Y009744D02*
X011144Y009994D01*
X011899Y009955D02*
X011943Y009912D01*
X011899Y009955D02*
X011899Y010042D01*
X011943Y010085D01*
X011986Y010085D01*
X012160Y009912D01*
X012160Y010085D01*
X012160Y009790D02*
X011899Y009617D01*
X011899Y009790D02*
X012160Y009617D01*
X012073Y009201D02*
X011899Y009201D01*
X011899Y009028D02*
X012073Y009028D01*
X012160Y009114D01*
X012073Y009201D01*
X012116Y008906D02*
X012160Y008863D01*
X012160Y008776D01*
X012116Y008733D01*
X011943Y008906D01*
X012116Y008906D01*
X012116Y008733D02*
X011943Y008733D01*
X011899Y008776D01*
X011899Y008863D01*
X011943Y008906D01*
X012160Y008612D02*
X012160Y008438D01*
X012160Y008525D02*
X011899Y008525D01*
X011986Y008438D01*
X011986Y008317D02*
X012029Y008274D01*
X012073Y008317D01*
X012116Y008317D01*
X012160Y008274D01*
X012160Y008187D01*
X012116Y008144D01*
X012029Y008230D02*
X012029Y008274D01*
X011986Y008317D02*
X011943Y008317D01*
X011899Y008274D01*
X011899Y008187D01*
X011943Y008144D01*
X010765Y008304D02*
X010765Y008391D01*
X010722Y008434D01*
X010765Y008556D02*
X010592Y008729D01*
X010549Y008729D01*
X010505Y008686D01*
X010505Y008599D01*
X010549Y008556D01*
X010549Y008434D02*
X010505Y008391D01*
X010505Y008304D01*
X010549Y008261D01*
X010722Y008261D01*
X010765Y008304D01*
X010765Y008556D02*
X010765Y008729D01*
X009404Y008727D02*
X009360Y008684D01*
X009187Y008857D01*
X009360Y008857D01*
X009404Y008814D01*
X009404Y008727D01*
X009360Y008684D02*
X009187Y008684D01*
X009143Y008727D01*
X009143Y008814D01*
X009187Y008857D01*
X009143Y008978D02*
X009317Y008978D01*
X009404Y009065D01*
X009317Y009152D01*
X009143Y009152D01*
X009404Y008563D02*
X009404Y008389D01*
X009404Y008476D02*
X009143Y008476D01*
X009230Y008389D01*
X009230Y008268D02*
X009274Y008225D01*
X009317Y008268D01*
X009360Y008268D01*
X009404Y008225D01*
X009404Y008138D01*
X009360Y008094D01*
X009274Y008181D02*
X009274Y008225D01*
X009230Y008268D02*
X009187Y008268D01*
X009143Y008225D01*
X009143Y008138D01*
X009187Y008094D01*
X009274Y007679D02*
X009404Y007679D01*
X009274Y007679D02*
X009230Y007635D01*
X009230Y007505D01*
X009404Y007505D01*
X009360Y007384D02*
X009404Y007341D01*
X009404Y007254D01*
X009360Y007210D01*
X009187Y007384D01*
X009360Y007384D01*
X009187Y007384D02*
X009143Y007341D01*
X009143Y007254D01*
X009187Y007210D01*
X009360Y007210D01*
X009360Y007089D02*
X009404Y007046D01*
X009404Y006959D01*
X009360Y006916D01*
X009187Y007089D01*
X009360Y007089D01*
X009360Y006916D02*
X009187Y006916D01*
X009143Y006959D01*
X009143Y007046D01*
X009187Y007089D01*
X009404Y006795D02*
X009404Y006621D01*
X009404Y006708D02*
X009143Y006708D01*
X009230Y006621D01*
X009588Y006094D02*
X009586Y006068D01*
X009581Y006042D01*
X009573Y006017D01*
X009561Y005994D01*
X009547Y005972D01*
X009529Y005953D01*
X009510Y005935D01*
X009488Y005921D01*
X009465Y005909D01*
X009440Y005901D01*
X009414Y005896D01*
X009388Y005894D01*
X007388Y005894D01*
X007362Y005896D01*
X007336Y005901D01*
X007311Y005909D01*
X007288Y005921D01*
X007266Y005935D01*
X007247Y005953D01*
X007229Y005972D01*
X007215Y005994D01*
X007203Y006017D01*
X007195Y006042D01*
X007190Y006068D01*
X007188Y006094D01*
X007188Y010894D01*
X007190Y010920D01*
X007195Y010946D01*
X007203Y010971D01*
X007215Y010994D01*
X007229Y011016D01*
X007247Y011035D01*
X007266Y011053D01*
X007288Y011067D01*
X007311Y011079D01*
X007336Y011087D01*
X007362Y011092D01*
X007388Y011094D01*
X009388Y011094D01*
X009414Y011092D01*
X009440Y011087D01*
X009465Y011079D01*
X009488Y011067D01*
X009510Y011053D01*
X009529Y011035D01*
X009547Y011016D01*
X009561Y010994D01*
X009573Y010971D01*
X009581Y010946D01*
X009586Y010920D01*
X009588Y010894D01*
X009588Y006094D01*
X008388Y006994D02*
X008388Y009394D01*
X008388Y009744D02*
X008388Y009994D01*
X009143Y009992D02*
X009143Y009906D01*
X009187Y009862D01*
X009143Y009741D02*
X009404Y009568D01*
X009404Y009741D02*
X009143Y009568D01*
X009404Y009862D02*
X009230Y010036D01*
X009187Y010036D01*
X009143Y009992D01*
X009404Y010036D02*
X009404Y009862D01*
X008010Y008729D02*
X008010Y008556D01*
X008010Y008642D02*
X007749Y008642D01*
X007836Y008556D01*
X007793Y008434D02*
X007749Y008391D01*
X007749Y008304D01*
X007793Y008261D01*
X007966Y008261D01*
X008010Y008304D01*
X008010Y008391D01*
X007966Y008434D01*
X006481Y008974D02*
X006481Y011174D01*
X006231Y010774D02*
X006231Y006724D01*
X006229Y006694D01*
X006224Y006664D01*
X006215Y006635D01*
X006202Y006608D01*
X006187Y006582D01*
X006168Y006558D01*
X006147Y006537D01*
X006123Y006518D01*
X006097Y006503D01*
X006070Y006490D01*
X006041Y006481D01*
X006011Y006476D01*
X005981Y006474D01*
X005381Y006474D01*
X005351Y006476D01*
X005321Y006481D01*
X005292Y006490D01*
X005265Y006503D01*
X005239Y006518D01*
X005215Y006537D01*
X005194Y006558D01*
X005175Y006582D01*
X005160Y006608D01*
X005147Y006635D01*
X005138Y006664D01*
X005133Y006694D01*
X005131Y006724D01*
X005131Y007774D01*
X004881Y008274D02*
X004881Y010474D01*
X004883Y010504D01*
X004888Y010534D01*
X004897Y010563D01*
X004910Y010590D01*
X004925Y010616D01*
X004944Y010640D01*
X004965Y010661D01*
X004989Y010680D01*
X005015Y010695D01*
X005042Y010708D01*
X005071Y010717D01*
X005101Y010722D01*
X005131Y010724D01*
X004997Y011042D02*
X004736Y011042D01*
X004736Y011173D01*
X004780Y011216D01*
X004867Y011216D01*
X004910Y011173D01*
X004910Y011042D01*
X004910Y011129D02*
X004997Y011216D01*
X004997Y011337D02*
X004997Y011511D01*
X004997Y011424D02*
X004736Y011424D01*
X004823Y011337D01*
X004397Y011969D02*
X004136Y011969D01*
X004397Y012142D01*
X004136Y012142D01*
X003445Y012600D02*
X003184Y012774D01*
X003228Y012895D02*
X003184Y012938D01*
X003184Y013025D01*
X003228Y013068D01*
X003271Y013068D01*
X003445Y012895D01*
X003445Y013068D01*
X003445Y012774D02*
X003184Y012600D01*
X004136Y013544D02*
X004397Y013544D01*
X004397Y013717D01*
X005079Y013706D02*
X005829Y012956D01*
X006329Y012956D01*
X006829Y013456D01*
X006429Y013856D02*
X005329Y014956D01*
X005829Y014956D01*
X006579Y014206D01*
X007538Y014906D02*
X007581Y014862D01*
X007668Y014862D01*
X007711Y014906D01*
X007711Y014992D01*
X007668Y015036D01*
X007624Y015036D01*
X007538Y014992D01*
X007538Y015122D01*
X007711Y015122D01*
X007832Y015079D02*
X007876Y015122D01*
X007962Y015122D01*
X008006Y015079D01*
X007832Y014906D01*
X007876Y014862D01*
X007962Y014862D01*
X008006Y014906D01*
X008006Y015079D01*
X008127Y015122D02*
X008257Y015122D01*
X008300Y015079D01*
X008300Y014992D01*
X008257Y014949D01*
X008127Y014949D01*
X008214Y014949D02*
X008300Y014862D01*
X008127Y014862D02*
X008127Y015122D01*
X007832Y015079D02*
X007832Y014906D01*
X008716Y014862D02*
X008890Y015036D01*
X008890Y015079D01*
X008846Y015122D01*
X008759Y015122D01*
X008716Y015079D01*
X008716Y014862D02*
X008890Y014862D01*
X009011Y014862D02*
X009098Y014949D01*
X009184Y014862D01*
X009184Y015122D01*
X009011Y015122D02*
X009011Y014862D01*
X009830Y014802D02*
X010090Y014802D01*
X010003Y014715D01*
X010090Y014628D01*
X009830Y014628D01*
X009873Y014507D02*
X009830Y014464D01*
X009830Y014377D01*
X009873Y014333D01*
X009873Y014507D02*
X009917Y014507D01*
X010090Y014333D01*
X010090Y014507D01*
X010090Y013918D02*
X010003Y013831D01*
X010003Y013874D02*
X010003Y013744D01*
X010090Y013744D02*
X009830Y013744D01*
X009830Y013874D01*
X009873Y013918D01*
X009960Y013918D01*
X010003Y013874D01*
X010047Y013623D02*
X010090Y013580D01*
X010090Y013493D01*
X010047Y013449D01*
X009873Y013623D01*
X010047Y013623D01*
X010047Y013449D02*
X009873Y013449D01*
X009830Y013493D01*
X009830Y013580D01*
X009873Y013623D01*
X009830Y013328D02*
X009830Y013155D01*
X009960Y013155D01*
X009917Y013242D01*
X009917Y013285D01*
X009960Y013328D01*
X010047Y013328D01*
X010090Y013285D01*
X010090Y013198D01*
X010047Y013155D01*
X009128Y012439D02*
X009128Y012266D01*
X008955Y012439D01*
X008911Y012439D01*
X008868Y012396D01*
X008868Y012309D01*
X008911Y012266D01*
X008911Y012145D02*
X008998Y012145D01*
X009041Y012101D01*
X009041Y011971D01*
X009041Y012058D02*
X009128Y012145D01*
X009128Y011971D02*
X008868Y011971D01*
X008868Y012101D01*
X008911Y012145D01*
X007488Y013824D02*
X007490Y013883D01*
X007496Y013943D01*
X007506Y014001D01*
X007519Y014059D01*
X007537Y014116D01*
X007558Y014172D01*
X007583Y014226D01*
X007611Y014278D01*
X007643Y014329D01*
X007678Y014377D01*
X007716Y014423D01*
X007757Y014466D01*
X007801Y014506D01*
X007847Y014543D01*
X007896Y014577D01*
X007947Y014608D01*
X007999Y014636D01*
X008054Y014660D01*
X008110Y014680D01*
X008167Y014696D01*
X008225Y014709D01*
X008284Y014718D01*
X008343Y014723D01*
X008403Y014724D01*
X008462Y014721D01*
X008521Y014714D01*
X008580Y014703D01*
X008638Y014689D01*
X008694Y014670D01*
X008750Y014648D01*
X008803Y014623D01*
X008855Y014593D01*
X008905Y014561D01*
X008952Y014525D01*
X008998Y014486D01*
X009040Y014444D01*
X009080Y014400D01*
X009116Y014353D01*
X009149Y014304D01*
X009180Y014252D01*
X009206Y014199D01*
X009229Y014144D01*
X009248Y014088D01*
X009264Y014030D01*
X009276Y013972D01*
X009284Y013913D01*
X009288Y013854D01*
X009288Y013794D01*
X009284Y013735D01*
X009276Y013676D01*
X009264Y013618D01*
X009248Y013560D01*
X009229Y013504D01*
X009206Y013449D01*
X009180Y013396D01*
X009149Y013344D01*
X009116Y013295D01*
X009080Y013248D01*
X009040Y013204D01*
X008998Y013162D01*
X008952Y013123D01*
X008905Y013087D01*
X008855Y013055D01*
X008803Y013025D01*
X008750Y013000D01*
X008694Y012978D01*
X008638Y012959D01*
X008580Y012945D01*
X008521Y012934D01*
X008462Y012927D01*
X008403Y012924D01*
X008343Y012925D01*
X008284Y012930D01*
X008225Y012939D01*
X008167Y012952D01*
X008110Y012968D01*
X008054Y012988D01*
X007999Y013012D01*
X007947Y013040D01*
X007896Y013071D01*
X007847Y013105D01*
X007801Y013142D01*
X007757Y013182D01*
X007716Y013225D01*
X007678Y013271D01*
X007643Y013319D01*
X007611Y013370D01*
X007583Y013422D01*
X007558Y013476D01*
X007537Y013532D01*
X007519Y013589D01*
X007506Y013647D01*
X007496Y013705D01*
X007490Y013765D01*
X007488Y013824D01*
X006329Y012956D02*
X005229Y014056D01*
X004829Y014456D02*
X005329Y014956D01*
X005381Y012974D02*
X005981Y012974D01*
X006011Y012972D01*
X006041Y012967D01*
X006070Y012958D01*
X006097Y012945D01*
X006123Y012930D01*
X006147Y012911D01*
X006168Y012890D01*
X006187Y012866D01*
X006202Y012840D01*
X006215Y012813D01*
X006224Y012784D01*
X006229Y012754D01*
X006231Y012724D01*
X006231Y011674D01*
X005131Y012724D02*
X005133Y012754D01*
X005138Y012784D01*
X005147Y012813D01*
X005160Y012840D01*
X005175Y012866D01*
X005194Y012890D01*
X005215Y012911D01*
X005239Y012930D01*
X005265Y012945D01*
X005292Y012958D01*
X005321Y012967D01*
X005351Y012972D01*
X005381Y012974D01*
X005131Y012724D02*
X005131Y008674D01*
X004397Y008205D02*
X004136Y008205D01*
X004136Y008032D02*
X004397Y008205D01*
X004397Y008032D02*
X004136Y008032D01*
X003445Y008663D02*
X003184Y008837D01*
X003271Y008958D02*
X003184Y009045D01*
X003445Y009045D01*
X003445Y009131D02*
X003445Y008958D01*
X003445Y008837D02*
X003184Y008663D01*
X004136Y009607D02*
X004397Y009607D01*
X004397Y009780D01*
X006231Y008724D02*
X006261Y008726D01*
X006291Y008731D01*
X006320Y008740D01*
X006347Y008753D01*
X006373Y008768D01*
X006397Y008787D01*
X006418Y008808D01*
X006437Y008832D01*
X006452Y008858D01*
X006465Y008885D01*
X006474Y008914D01*
X006479Y008944D01*
X006481Y008974D01*
X011624Y011971D02*
X011624Y012101D01*
X011667Y012145D01*
X011754Y012145D01*
X011797Y012101D01*
X011797Y011971D01*
X011884Y011971D02*
X011624Y011971D01*
X011797Y012058D02*
X011884Y012145D01*
X011841Y012266D02*
X011884Y012309D01*
X011884Y012396D01*
X011841Y012439D01*
X011797Y012439D01*
X011754Y012396D01*
X011754Y012353D01*
X011754Y012396D02*
X011710Y012439D01*
X011667Y012439D01*
X011624Y012396D01*
X011624Y012309D01*
X011667Y012266D01*
X010244Y013824D02*
X010246Y013883D01*
X010252Y013943D01*
X010262Y014001D01*
X010275Y014059D01*
X010293Y014116D01*
X010314Y014172D01*
X010339Y014226D01*
X010367Y014278D01*
X010399Y014329D01*
X010434Y014377D01*
X010472Y014423D01*
X010513Y014466D01*
X010557Y014506D01*
X010603Y014543D01*
X010652Y014577D01*
X010703Y014608D01*
X010755Y014636D01*
X010810Y014660D01*
X010866Y014680D01*
X010923Y014696D01*
X010981Y014709D01*
X011040Y014718D01*
X011099Y014723D01*
X011159Y014724D01*
X011218Y014721D01*
X011277Y014714D01*
X011336Y014703D01*
X011394Y014689D01*
X011450Y014670D01*
X011506Y014648D01*
X011559Y014623D01*
X011611Y014593D01*
X011661Y014561D01*
X011708Y014525D01*
X011754Y014486D01*
X011796Y014444D01*
X011836Y014400D01*
X011872Y014353D01*
X011905Y014304D01*
X011936Y014252D01*
X011962Y014199D01*
X011985Y014144D01*
X012004Y014088D01*
X012020Y014030D01*
X012032Y013972D01*
X012040Y013913D01*
X012044Y013854D01*
X012044Y013794D01*
X012040Y013735D01*
X012032Y013676D01*
X012020Y013618D01*
X012004Y013560D01*
X011985Y013504D01*
X011962Y013449D01*
X011936Y013396D01*
X011905Y013344D01*
X011872Y013295D01*
X011836Y013248D01*
X011796Y013204D01*
X011754Y013162D01*
X011708Y013123D01*
X011661Y013087D01*
X011611Y013055D01*
X011559Y013025D01*
X011506Y013000D01*
X011450Y012978D01*
X011394Y012959D01*
X011336Y012945D01*
X011277Y012934D01*
X011218Y012927D01*
X011159Y012924D01*
X011099Y012925D01*
X011040Y012930D01*
X010981Y012939D01*
X010923Y012952D01*
X010866Y012968D01*
X010810Y012988D01*
X010755Y013012D01*
X010703Y013040D01*
X010652Y013071D01*
X010603Y013105D01*
X010557Y013142D01*
X010513Y013182D01*
X010472Y013225D01*
X010434Y013271D01*
X010399Y013319D01*
X010367Y013370D01*
X010339Y013422D01*
X010314Y013476D01*
X010293Y013532D01*
X010275Y013589D01*
X010262Y013647D01*
X010252Y013705D01*
X010246Y013765D01*
X010244Y013824D01*
X014271Y016490D02*
X014561Y016490D01*
X014561Y017080D02*
X015551Y015900D01*
X015261Y015501D02*
X015174Y015501D01*
X015131Y015458D01*
X015010Y015501D02*
X014836Y015327D01*
X014880Y015371D02*
X015010Y015241D01*
X015131Y015241D02*
X015304Y015414D01*
X015304Y015458D01*
X015261Y015501D01*
X015304Y015241D02*
X015131Y015241D01*
X014836Y015241D02*
X014836Y015501D01*
X015551Y016490D02*
X015891Y016490D01*
X021868Y017062D02*
X022041Y017062D01*
X022163Y017062D02*
X022163Y017322D01*
X022249Y017235D01*
X022336Y017322D01*
X022336Y017062D01*
X022457Y017062D02*
X022631Y017235D01*
X022631Y017279D01*
X022587Y017322D01*
X022501Y017322D01*
X022457Y017279D01*
X022457Y017062D02*
X022631Y017062D01*
X022752Y017062D02*
X022925Y017062D01*
X022839Y017062D02*
X022839Y017322D01*
X022752Y017235D01*
X023047Y017235D02*
X023133Y017322D01*
X023133Y017062D01*
X023047Y017062D02*
X023220Y017062D01*
X021868Y017062D02*
X021868Y017322D01*
X025150Y015357D02*
X025237Y015271D01*
X027164Y015746D02*
X027381Y015746D01*
X027424Y015789D01*
X027424Y015876D01*
X027381Y015919D01*
X027164Y015919D01*
X027207Y016041D02*
X027251Y016041D01*
X027294Y016084D01*
X027294Y016171D01*
X027337Y016214D01*
X027381Y016214D01*
X027424Y016171D01*
X027424Y016084D01*
X027381Y016041D01*
X027337Y016041D01*
X027294Y016084D01*
X027294Y016171D02*
X027251Y016214D01*
X027207Y016214D01*
X027164Y016171D01*
X027164Y016084D01*
X027207Y016041D01*
X028288Y016122D02*
X028288Y015949D01*
X028331Y015905D01*
X028418Y015905D01*
X028462Y015949D01*
X028462Y016122D01*
X028418Y016166D01*
X028331Y016166D01*
X028288Y016122D01*
X028583Y016166D02*
X028583Y015905D01*
X028583Y015992D02*
X028713Y015992D01*
X028756Y016036D01*
X028756Y016122D01*
X028713Y016166D01*
X028583Y016166D01*
X028877Y016079D02*
X028877Y015905D01*
X028877Y016036D02*
X029051Y016036D01*
X029051Y016079D02*
X029051Y015905D01*
X029051Y016079D02*
X028964Y016166D01*
X028877Y016079D01*
X029172Y016036D02*
X029346Y016036D01*
X029467Y016079D02*
X029553Y016166D01*
X029553Y015905D01*
X029467Y015905D02*
X029640Y015905D01*
X029761Y015949D02*
X029805Y015905D01*
X029891Y015905D01*
X029935Y015949D01*
X029935Y016122D01*
X029891Y016166D01*
X029805Y016166D01*
X029761Y016122D01*
X029761Y016079D01*
X029805Y016036D01*
X029935Y016036D01*
X030056Y016122D02*
X030099Y016166D01*
X030186Y016166D01*
X030230Y016122D01*
X030230Y016079D01*
X030056Y015905D01*
X030230Y015905D01*
X029302Y015905D02*
X029302Y016166D01*
X029172Y016036D01*
X030209Y013779D02*
X030209Y013518D01*
X030123Y013518D02*
X030296Y013518D01*
X030417Y013562D02*
X030461Y013518D01*
X030547Y013518D01*
X030591Y013562D01*
X030591Y013649D01*
X030547Y013692D01*
X030504Y013692D01*
X030417Y013649D01*
X030417Y013779D01*
X030591Y013779D01*
X030712Y013779D02*
X030712Y013518D01*
X030712Y013605D02*
X030842Y013518D01*
X030712Y013605D02*
X030842Y013692D01*
X031056Y013566D02*
X031099Y013609D01*
X031272Y013436D01*
X031316Y013479D01*
X031316Y013566D01*
X031272Y013609D01*
X031099Y013609D01*
X031056Y013566D02*
X031056Y013479D01*
X031099Y013436D01*
X031272Y013436D01*
X031316Y013314D02*
X031316Y013141D01*
X031142Y013314D01*
X031099Y013314D01*
X031056Y013271D01*
X031056Y013184D01*
X031099Y013141D01*
X031099Y013020D02*
X031186Y013020D01*
X031229Y012976D01*
X031229Y012846D01*
X031316Y012846D02*
X031056Y012846D01*
X031056Y012976D01*
X031099Y013020D01*
X031229Y012933D02*
X031316Y013020D01*
X030610Y013130D02*
X030418Y013130D01*
X030418Y013306D02*
X030610Y013306D01*
X030209Y013779D02*
X030123Y013692D01*
X029938Y012536D02*
X029851Y012449D01*
X029851Y012493D02*
X029851Y012363D01*
X029938Y012363D02*
X029678Y012363D01*
X029678Y012493D01*
X029721Y012536D01*
X029808Y012536D01*
X029851Y012493D01*
X029895Y012242D02*
X029721Y012242D01*
X029895Y012068D01*
X029938Y012111D01*
X029938Y012198D01*
X029895Y012242D01*
X029895Y012068D02*
X029721Y012068D01*
X029678Y012111D01*
X029678Y012198D01*
X029721Y012242D01*
X029721Y011947D02*
X029895Y011773D01*
X029938Y011817D01*
X029938Y011904D01*
X029895Y011947D01*
X029721Y011947D01*
X029678Y011904D01*
X029678Y011817D01*
X029721Y011773D01*
X029895Y011773D01*
X029938Y011652D02*
X029938Y011479D01*
X029938Y011565D02*
X029678Y011565D01*
X029764Y011479D01*
X030150Y011940D02*
X030150Y012133D01*
X030327Y012133D02*
X030327Y011940D01*
X030568Y012013D02*
X030612Y011970D01*
X030568Y012013D02*
X030568Y012100D01*
X030612Y012143D01*
X030655Y012143D01*
X030828Y011970D01*
X030828Y012143D01*
X030828Y012264D02*
X030828Y012438D01*
X030828Y012351D02*
X030568Y012351D01*
X030655Y012264D01*
X030612Y011848D02*
X030698Y011848D01*
X030742Y011805D01*
X030742Y011675D01*
X030828Y011675D02*
X030568Y011675D01*
X030568Y011805D01*
X030612Y011848D01*
X030742Y011762D02*
X030828Y011848D01*
X033590Y016801D02*
X033807Y016801D01*
X033850Y016844D01*
X034171Y017973D02*
X034344Y017973D01*
X034339Y020211D02*
X034252Y020211D01*
X034209Y020255D01*
X034252Y020341D02*
X034339Y020341D01*
X034382Y020298D01*
X034382Y020255D01*
X034339Y020211D01*
X034252Y020341D02*
X034209Y020385D01*
X034209Y020428D01*
X034252Y020472D01*
X034339Y020472D01*
X034382Y020428D01*
X034503Y020472D02*
X034677Y020472D01*
X034677Y020428D01*
X034503Y020255D01*
X034503Y020211D01*
X034798Y020211D02*
X034971Y020211D01*
X034885Y020211D02*
X034885Y020472D01*
X034798Y020385D01*
X035093Y020385D02*
X035136Y020341D01*
X035223Y020341D01*
X035266Y020298D01*
X035266Y020255D01*
X035223Y020211D01*
X035136Y020211D01*
X035093Y020255D01*
X035093Y020298D01*
X035136Y020341D01*
X035093Y020385D02*
X035093Y020428D01*
X035136Y020472D01*
X035223Y020472D01*
X035266Y020428D01*
X035266Y020385D01*
X035223Y020341D01*
X035387Y020255D02*
X035431Y020211D01*
X035517Y020211D01*
X035561Y020255D01*
X035561Y020298D01*
X035517Y020341D01*
X035474Y020341D01*
X035517Y020341D02*
X035561Y020385D01*
X035561Y020428D01*
X035517Y020472D01*
X035431Y020472D01*
X035387Y020428D01*
X035316Y021473D02*
X035666Y021473D01*
X035683Y021475D01*
X035700Y021479D01*
X035716Y021486D01*
X035730Y021496D01*
X035743Y021509D01*
X035753Y021523D01*
X035760Y021539D01*
X035764Y021556D01*
X035766Y021573D01*
X035216Y021473D02*
X034816Y021473D01*
X034716Y021473D02*
X034316Y021473D01*
X034216Y021473D02*
X033866Y021473D01*
X033849Y021475D01*
X033832Y021479D01*
X033816Y021486D01*
X033802Y021496D01*
X033789Y021509D01*
X033779Y021523D01*
X033772Y021539D01*
X033768Y021556D01*
X033766Y021573D01*
X033378Y021488D02*
X033378Y021681D01*
X033201Y021681D02*
X033201Y021488D01*
X032960Y021758D02*
X032699Y021758D01*
X032699Y021888D01*
X032743Y021931D01*
X032829Y021931D01*
X032873Y021888D01*
X032873Y021758D01*
X032873Y021844D02*
X032960Y021931D01*
X032916Y022052D02*
X032960Y022096D01*
X032960Y022183D01*
X032916Y022226D01*
X032873Y022226D01*
X032829Y022183D01*
X032829Y022139D01*
X032829Y022183D02*
X032786Y022226D01*
X032743Y022226D01*
X032699Y022183D01*
X032699Y022096D01*
X032743Y022052D01*
X032743Y022347D02*
X032786Y022347D01*
X032829Y022390D01*
X032829Y022477D01*
X032873Y022521D01*
X032916Y022521D01*
X032960Y022477D01*
X032960Y022390D01*
X032916Y022347D01*
X032873Y022347D01*
X032829Y022390D01*
X032829Y022477D02*
X032786Y022521D01*
X032743Y022521D01*
X032699Y022477D01*
X032699Y022390D01*
X032743Y022347D01*
X033766Y022973D02*
X033768Y022990D01*
X033772Y023007D01*
X033779Y023023D01*
X033789Y023037D01*
X033802Y023050D01*
X033816Y023060D01*
X033832Y023067D01*
X033849Y023071D01*
X033866Y023073D01*
X034216Y023073D01*
X034316Y023073D02*
X034716Y023073D01*
X034816Y023073D02*
X035216Y023073D01*
X035316Y023073D02*
X035666Y023073D01*
X035683Y023071D01*
X035700Y023067D01*
X035716Y023060D01*
X035730Y023050D01*
X035743Y023037D01*
X035753Y023023D01*
X035760Y023007D01*
X035764Y022990D01*
X035766Y022973D01*
X035032Y023981D02*
X034859Y023981D01*
X035032Y024154D01*
X035032Y024198D01*
X034989Y024241D01*
X034902Y024241D01*
X034859Y024198D01*
X034651Y024241D02*
X034651Y023981D01*
X034564Y023981D02*
X034738Y023981D01*
X034564Y024154D02*
X034651Y024241D01*
X034443Y024241D02*
X034443Y024024D01*
X034400Y023981D01*
X034313Y023981D01*
X034269Y024024D01*
X034269Y024241D01*
X034606Y025170D02*
X034563Y025213D01*
X034563Y025387D01*
X034606Y025430D01*
X034693Y025430D01*
X034736Y025387D01*
X034736Y025213D01*
X034693Y025170D01*
X034606Y025170D01*
X034650Y025257D02*
X034736Y025170D01*
X034858Y025170D02*
X034858Y025213D01*
X035031Y025387D01*
X035031Y025430D01*
X034858Y025430D01*
X034693Y025650D02*
X035026Y025650D01*
X035026Y025961D01*
X035026Y025650D02*
X035026Y026770D01*
X035026Y026469D01*
X035026Y026770D02*
X034693Y026770D01*
X034506Y026770D02*
X035026Y026770D01*
X034506Y026770D02*
X034506Y025650D01*
X035026Y025650D01*
X033806Y025728D02*
X033546Y025728D01*
X033633Y025642D01*
X033546Y025555D01*
X033806Y025555D01*
X033806Y025434D02*
X033546Y025434D01*
X033633Y025347D01*
X033546Y025260D01*
X033806Y025260D01*
X033806Y025849D02*
X033546Y025849D01*
X033546Y025980D01*
X033589Y026023D01*
X033633Y026023D01*
X033676Y025980D01*
X033676Y025849D01*
X033806Y025849D02*
X033806Y025980D01*
X033763Y026023D01*
X033719Y026023D01*
X033676Y025980D01*
X033676Y026144D02*
X033676Y026231D01*
X033806Y026144D02*
X033546Y026144D01*
X033546Y026318D01*
X033633Y026439D02*
X033546Y026526D01*
X033806Y026526D01*
X033806Y026612D02*
X033806Y026439D01*
X033806Y026733D02*
X033763Y026733D01*
X033589Y026907D01*
X033546Y026907D01*
X033546Y026733D01*
X033589Y027028D02*
X033546Y027071D01*
X033546Y027158D01*
X033589Y027202D01*
X033763Y027028D01*
X033806Y027071D01*
X033806Y027158D01*
X033763Y027202D01*
X033589Y027202D01*
X033589Y027028D02*
X033763Y027028D01*
X031508Y025425D02*
X031334Y025252D01*
X031378Y025209D01*
X031464Y025209D01*
X031508Y025252D01*
X031508Y025425D01*
X031464Y025469D01*
X031378Y025469D01*
X031334Y025425D01*
X031334Y025252D01*
X031213Y025252D02*
X031170Y025209D01*
X031083Y025209D01*
X031040Y025252D01*
X031040Y025339D02*
X031126Y025382D01*
X031170Y025382D01*
X031213Y025339D01*
X031213Y025252D01*
X031040Y025339D02*
X031040Y025469D01*
X031213Y025469D01*
X030918Y025469D02*
X030918Y025295D01*
X030832Y025209D01*
X030745Y025295D01*
X030745Y025469D01*
X030624Y025469D02*
X030450Y025469D01*
X030450Y025339D01*
X030537Y025382D01*
X030580Y025382D01*
X030624Y025339D01*
X030624Y025252D01*
X030580Y025209D01*
X030494Y025209D01*
X030450Y025252D01*
X030329Y025252D02*
X030286Y025209D01*
X030199Y025209D01*
X030156Y025252D01*
X030156Y025295D01*
X030199Y025339D01*
X030286Y025339D01*
X030329Y025295D01*
X030329Y025252D01*
X030286Y025339D02*
X030329Y025382D01*
X030329Y025425D01*
X030286Y025469D01*
X030199Y025469D01*
X030156Y025425D01*
X030156Y025382D01*
X030199Y025339D01*
X030035Y025425D02*
X029861Y025252D01*
X029904Y025209D01*
X029991Y025209D01*
X030035Y025252D01*
X030035Y025425D01*
X029991Y025469D01*
X029904Y025469D01*
X029861Y025425D01*
X029861Y025252D01*
X029740Y025209D02*
X029566Y025209D01*
X029653Y025209D02*
X029653Y025469D01*
X029566Y025382D01*
X029445Y025425D02*
X029402Y025469D01*
X029272Y025469D01*
X029272Y025209D01*
X029402Y025209D01*
X029445Y025252D01*
X029445Y025425D01*
X029151Y025209D02*
X028977Y025209D01*
X028977Y025469D01*
X027870Y027010D02*
X027697Y027010D01*
X027784Y027010D02*
X027784Y027270D01*
X027697Y027183D01*
X027576Y027270D02*
X027576Y027053D01*
X027532Y027010D01*
X027446Y027010D01*
X027402Y027053D01*
X027402Y027270D01*
X028584Y023769D02*
X028584Y023509D01*
X028670Y023509D02*
X028497Y023509D01*
X028497Y023682D02*
X028584Y023769D01*
X028791Y023726D02*
X028835Y023769D01*
X028922Y023769D01*
X028965Y023726D01*
X028791Y023552D01*
X028835Y023509D01*
X028922Y023509D01*
X028965Y023552D01*
X028965Y023726D01*
X029086Y023726D02*
X029129Y023769D01*
X029216Y023769D01*
X029260Y023726D01*
X029086Y023552D01*
X029129Y023509D01*
X029216Y023509D01*
X029260Y023552D01*
X029260Y023726D01*
X029381Y023726D02*
X029424Y023769D01*
X029511Y023769D01*
X029554Y023726D01*
X029381Y023552D01*
X029424Y023509D01*
X029511Y023509D01*
X029554Y023552D01*
X029554Y023726D01*
X029675Y023682D02*
X029675Y023552D01*
X029719Y023509D01*
X029849Y023509D01*
X029849Y023682D01*
X029970Y023639D02*
X030057Y023639D01*
X029970Y023769D02*
X030144Y023769D01*
X029970Y023769D02*
X029970Y023509D01*
X030265Y023422D02*
X030351Y023509D01*
X030308Y023509D01*
X030308Y023552D01*
X030351Y023552D01*
X030351Y023509D01*
X030756Y023552D02*
X030799Y023509D01*
X030886Y023509D01*
X030929Y023552D01*
X030929Y023596D01*
X030886Y023639D01*
X030756Y023639D01*
X030756Y023552D01*
X030756Y023639D02*
X030843Y023726D01*
X030929Y023769D01*
X031050Y023726D02*
X031094Y023769D01*
X031181Y023769D01*
X031224Y023726D01*
X031224Y023682D01*
X031181Y023639D01*
X031224Y023596D01*
X031224Y023552D01*
X031181Y023509D01*
X031094Y023509D01*
X031050Y023552D01*
X031137Y023639D02*
X031181Y023639D01*
X031345Y023596D02*
X031432Y023509D01*
X031519Y023596D01*
X031519Y023769D01*
X031345Y023769D02*
X031345Y023596D01*
X029942Y022773D02*
X029692Y022773D01*
X029692Y022273D01*
X029692Y021773D01*
X029942Y021773D01*
X029942Y022773D01*
X027292Y022273D02*
X027295Y022408D01*
X027305Y022543D01*
X027322Y022677D01*
X027345Y022809D01*
X027374Y022941D01*
X027410Y023071D01*
X027453Y023199D01*
X027501Y023325D01*
X027556Y023449D01*
X027617Y023569D01*
X027683Y023687D01*
X027755Y023801D01*
X027833Y023911D01*
X027916Y024018D01*
X028004Y024120D01*
X028097Y024218D01*
X028195Y024311D01*
X028297Y024399D01*
X028404Y024482D01*
X028514Y024560D01*
X028628Y024632D01*
X028746Y024698D01*
X028866Y024759D01*
X028990Y024814D01*
X029116Y024862D01*
X029244Y024905D01*
X029374Y024941D01*
X029506Y024970D01*
X029638Y024993D01*
X029772Y025010D01*
X029907Y025020D01*
X030042Y025023D01*
X030177Y025020D01*
X030312Y025010D01*
X030446Y024993D01*
X030578Y024970D01*
X030710Y024941D01*
X030840Y024905D01*
X030968Y024862D01*
X031094Y024814D01*
X031218Y024759D01*
X031338Y024698D01*
X031456Y024632D01*
X031570Y024560D01*
X031680Y024482D01*
X031787Y024399D01*
X031889Y024311D01*
X031987Y024218D01*
X032080Y024120D01*
X032168Y024018D01*
X032251Y023911D01*
X032329Y023801D01*
X032401Y023687D01*
X032467Y023569D01*
X032528Y023449D01*
X032583Y023325D01*
X032631Y023199D01*
X032674Y023071D01*
X032710Y022941D01*
X032739Y022809D01*
X032762Y022677D01*
X032779Y022543D01*
X032789Y022408D01*
X032792Y022273D01*
X032789Y022138D01*
X032779Y022003D01*
X032762Y021869D01*
X032739Y021737D01*
X032710Y021605D01*
X032674Y021475D01*
X032631Y021347D01*
X032583Y021221D01*
X032528Y021097D01*
X032467Y020977D01*
X032401Y020859D01*
X032329Y020745D01*
X032251Y020635D01*
X032168Y020528D01*
X032080Y020426D01*
X031987Y020328D01*
X031889Y020235D01*
X031787Y020147D01*
X031680Y020064D01*
X031570Y019986D01*
X031456Y019914D01*
X031338Y019848D01*
X031218Y019787D01*
X031094Y019732D01*
X030968Y019684D01*
X030840Y019641D01*
X030710Y019605D01*
X030578Y019576D01*
X030446Y019553D01*
X030312Y019536D01*
X030177Y019526D01*
X030042Y019523D01*
X029907Y019526D01*
X029772Y019536D01*
X029638Y019553D01*
X029506Y019576D01*
X029374Y019605D01*
X029244Y019641D01*
X029116Y019684D01*
X028990Y019732D01*
X028866Y019787D01*
X028746Y019848D01*
X028628Y019914D01*
X028514Y019986D01*
X028404Y020064D01*
X028297Y020147D01*
X028195Y020235D01*
X028097Y020328D01*
X028004Y020426D01*
X027916Y020528D01*
X027833Y020635D01*
X027755Y020745D01*
X027683Y020859D01*
X027617Y020977D01*
X027556Y021097D01*
X027501Y021221D01*
X027453Y021347D01*
X027410Y021475D01*
X027374Y021605D01*
X027345Y021737D01*
X027322Y021869D01*
X027305Y022003D01*
X027295Y022138D01*
X027292Y022273D01*
X027792Y022273D02*
X028292Y022273D01*
X028042Y022023D02*
X028042Y022523D01*
X028791Y023552D02*
X028791Y023726D01*
X029086Y023726D02*
X029086Y023552D01*
X029381Y023552D02*
X029381Y023726D01*
X029592Y022273D02*
X029692Y022273D01*
X030292Y022273D02*
X030492Y022273D01*
X030250Y021034D02*
X030120Y020904D01*
X030294Y020904D01*
X030250Y021034D02*
X030250Y020773D01*
X029999Y020817D02*
X029956Y020773D01*
X029869Y020773D01*
X029826Y020817D01*
X029826Y020990D01*
X029869Y021034D01*
X029956Y021034D01*
X029999Y020990D01*
X033098Y020924D02*
X033358Y020924D01*
X033271Y020924D02*
X033185Y021054D01*
X033271Y020924D02*
X033358Y021054D01*
X033315Y020803D02*
X033358Y020759D01*
X033358Y020673D01*
X033315Y020629D01*
X033141Y020803D01*
X033315Y020803D01*
X033141Y020803D02*
X033098Y020759D01*
X033098Y020673D01*
X033141Y020629D01*
X033315Y020629D01*
X033358Y020508D02*
X033358Y020335D01*
X033358Y020421D02*
X033098Y020421D01*
X033185Y020335D01*
X033914Y020211D02*
X034087Y020211D01*
X033914Y020211D02*
X033914Y020472D01*
X033916Y021873D02*
X033918Y021897D01*
X033924Y021921D01*
X033933Y021943D01*
X033946Y021963D01*
X033962Y021981D01*
X033981Y021996D01*
X034002Y022009D01*
X034024Y022017D01*
X034048Y022022D01*
X034072Y022023D01*
X034096Y022020D01*
X034119Y022013D01*
X034141Y022003D01*
X034161Y021989D01*
X034178Y021972D01*
X034193Y021953D01*
X034204Y021932D01*
X034212Y021909D01*
X034216Y021885D01*
X034216Y021861D01*
X034212Y021837D01*
X034204Y021814D01*
X034193Y021793D01*
X034178Y021774D01*
X034161Y021757D01*
X034141Y021743D01*
X034119Y021733D01*
X034096Y021726D01*
X034072Y021723D01*
X034048Y021724D01*
X034024Y021729D01*
X034002Y021737D01*
X033981Y021750D01*
X033962Y021765D01*
X033946Y021783D01*
X033933Y021803D01*
X033924Y021825D01*
X033918Y021849D01*
X033916Y021873D01*
X036764Y024272D02*
X036938Y024272D01*
X036851Y024272D02*
X036851Y024532D01*
X036764Y024445D01*
X037059Y024488D02*
X037059Y024315D01*
X037233Y024488D01*
X037233Y024315D01*
X037189Y024272D01*
X037103Y024272D01*
X037059Y024315D01*
X037059Y024488D02*
X037103Y024532D01*
X037189Y024532D01*
X037233Y024488D01*
X037354Y024532D02*
X037354Y024272D01*
X037354Y024358D02*
X037484Y024445D01*
X037354Y024358D02*
X037484Y024272D01*
X038016Y024547D02*
X038209Y024547D01*
X038209Y024723D02*
X038016Y024723D01*
X037527Y024981D02*
X037354Y024807D01*
X037354Y024764D01*
X037233Y024764D02*
X037059Y024764D01*
X037233Y024937D01*
X037233Y024981D01*
X037189Y025024D01*
X037103Y025024D01*
X037059Y024981D01*
X036938Y024981D02*
X036938Y024894D01*
X036895Y024850D01*
X036764Y024850D01*
X036764Y024764D02*
X036764Y025024D01*
X036895Y025024D01*
X036938Y024981D01*
X036851Y024850D02*
X036938Y024764D01*
X037354Y025024D02*
X037527Y025024D01*
X037527Y024981D01*
X038500Y025981D02*
X038761Y026155D01*
X038717Y026276D02*
X038761Y026319D01*
X038761Y026406D01*
X038717Y026450D01*
X038674Y026450D01*
X038631Y026406D01*
X038631Y026276D01*
X038717Y026276D01*
X038631Y026276D02*
X038544Y026363D01*
X038500Y026450D01*
X038500Y026155D02*
X038761Y025981D01*
X038544Y022292D02*
X038500Y022292D01*
X038500Y022119D01*
X038500Y021997D02*
X038761Y021824D01*
X038761Y021997D02*
X038500Y021824D01*
X038717Y022119D02*
X038761Y022119D01*
X038717Y022119D02*
X038544Y022292D01*
X031539Y032970D02*
X031365Y032970D01*
X031365Y033231D01*
X031539Y033231D01*
X031452Y033100D02*
X031365Y033100D01*
X031244Y033100D02*
X031201Y033057D01*
X031071Y033057D01*
X031071Y032970D02*
X031071Y033231D01*
X031201Y033231D01*
X031244Y033187D01*
X031244Y033100D01*
X030949Y033057D02*
X030949Y033014D01*
X030906Y032970D01*
X030776Y032970D01*
X030776Y033231D01*
X030906Y033231D01*
X030949Y033187D01*
X030949Y033144D01*
X030906Y033100D01*
X030776Y033100D01*
X030655Y033100D02*
X030481Y033100D01*
X030481Y033144D02*
X030568Y033231D01*
X030655Y033144D01*
X030655Y032970D01*
X030481Y032970D02*
X030481Y033144D01*
X030360Y033100D02*
X030360Y033014D01*
X030317Y032970D01*
X030230Y032970D01*
X030187Y033014D01*
X030187Y033100D02*
X030273Y033144D01*
X030317Y033144D01*
X030360Y033100D01*
X030360Y033231D02*
X030187Y033231D01*
X030187Y033100D01*
X030065Y032970D02*
X029892Y032970D01*
X029979Y032970D02*
X029979Y033231D01*
X029892Y033144D01*
X029771Y033100D02*
X029597Y033100D01*
X029476Y033100D02*
X029303Y033100D01*
X029433Y033231D01*
X029433Y032970D01*
X029181Y033014D02*
X029138Y032970D01*
X029051Y032970D01*
X029008Y033014D01*
X028887Y033014D02*
X028887Y033057D01*
X028843Y033100D01*
X028713Y033100D01*
X028713Y033014D01*
X028757Y032970D01*
X028843Y032970D01*
X028887Y033014D01*
X028800Y033187D02*
X028713Y033100D01*
X028800Y033187D02*
X028887Y033231D01*
X029008Y033187D02*
X029051Y033231D01*
X029138Y033231D01*
X029181Y033187D01*
X029181Y033144D01*
X029138Y033100D01*
X029181Y033057D01*
X029181Y033014D01*
X029138Y033100D02*
X029095Y033100D01*
X030906Y033100D02*
X030949Y033057D01*
X017995Y033020D02*
X017822Y033020D01*
X017822Y033280D01*
X017995Y033280D01*
X017909Y033150D02*
X017822Y033150D01*
X017701Y033150D02*
X017657Y033106D01*
X017527Y033106D01*
X017527Y033020D02*
X017527Y033280D01*
X017657Y033280D01*
X017701Y033236D01*
X017701Y033150D01*
X017406Y033193D02*
X017363Y033150D01*
X017233Y033150D01*
X017111Y033150D02*
X016938Y033150D01*
X016938Y033193D02*
X017025Y033280D01*
X017111Y033193D01*
X017111Y033020D01*
X017233Y033020D02*
X017363Y033020D01*
X017406Y033063D01*
X017406Y033106D01*
X017363Y033150D01*
X017406Y033193D02*
X017406Y033236D01*
X017363Y033280D01*
X017233Y033280D01*
X017233Y033020D01*
X016938Y033020D02*
X016938Y033193D01*
X016817Y033150D02*
X016817Y033063D01*
X016773Y033020D01*
X016687Y033020D01*
X016643Y033063D01*
X016643Y033150D02*
X016730Y033193D01*
X016773Y033193D01*
X016817Y033150D01*
X016817Y033280D02*
X016643Y033280D01*
X016643Y033150D01*
X016522Y033020D02*
X016349Y033020D01*
X016435Y033020D02*
X016435Y033280D01*
X016349Y033193D01*
X016227Y033150D02*
X016054Y033150D01*
X015933Y033150D02*
X015759Y033150D01*
X015889Y033280D01*
X015889Y033020D01*
X015638Y033063D02*
X015595Y033020D01*
X015508Y033020D01*
X015465Y033063D01*
X015343Y033063D02*
X015343Y033106D01*
X015300Y033150D01*
X015170Y033150D01*
X015170Y033063D01*
X015213Y033020D01*
X015300Y033020D01*
X015343Y033063D01*
X015257Y033236D02*
X015170Y033150D01*
X015257Y033236D02*
X015343Y033280D01*
X015465Y033236D02*
X015508Y033280D01*
X015595Y033280D01*
X015638Y033236D01*
X015638Y033193D01*
X015595Y033150D01*
X015638Y033106D01*
X015638Y033063D01*
X015595Y033150D02*
X015551Y033150D01*
X008609Y026576D02*
X008609Y026532D01*
X008565Y026489D01*
X008609Y026446D01*
X008609Y026402D01*
X008565Y026359D01*
X008478Y026359D01*
X008435Y026402D01*
X008314Y026402D02*
X008271Y026359D01*
X008184Y026359D01*
X008140Y026402D01*
X008140Y026576D01*
X008184Y026619D01*
X008271Y026619D01*
X008314Y026576D01*
X008435Y026576D02*
X008478Y026619D01*
X008565Y026619D01*
X008609Y026576D01*
X008565Y026489D02*
X008522Y026489D01*
X008221Y022939D02*
X008264Y022896D01*
X008264Y022852D01*
X008221Y022809D01*
X008264Y022766D01*
X008264Y022722D01*
X008221Y022679D01*
X008134Y022679D01*
X008091Y022722D01*
X007969Y022722D02*
X007926Y022679D01*
X007839Y022679D01*
X007796Y022722D01*
X007796Y022896D01*
X007839Y022939D01*
X007926Y022939D01*
X007969Y022896D01*
X007969Y022722D01*
X007969Y022679D02*
X007883Y022766D01*
X008091Y022896D02*
X008134Y022939D01*
X008221Y022939D01*
X008221Y022809D02*
X008177Y022809D01*
X007657Y022501D02*
X008807Y022451D01*
X008907Y022351D01*
X008907Y018651D01*
X008807Y018551D01*
X007657Y018501D01*
X009129Y018531D02*
X009129Y018661D01*
X009173Y018705D01*
X009216Y018705D01*
X009259Y018661D01*
X009259Y018531D01*
X009129Y018531D02*
X009390Y018531D01*
X009390Y018661D01*
X009346Y018705D01*
X009303Y018705D01*
X009259Y018661D01*
X009129Y018826D02*
X009129Y019000D01*
X009129Y018913D02*
X009390Y018913D01*
X009390Y019121D02*
X009216Y019121D01*
X009129Y019207D01*
X009216Y019294D01*
X009390Y019294D01*
X009390Y019415D02*
X009390Y019589D01*
X009390Y019502D02*
X009129Y019502D01*
X009216Y019415D01*
X009259Y019294D02*
X009259Y019121D01*
X009259Y019710D02*
X009259Y019840D01*
X009303Y019883D01*
X009346Y019883D01*
X009390Y019840D01*
X009390Y019753D01*
X009346Y019710D01*
X009259Y019710D01*
X009173Y019797D01*
X009129Y019883D01*
X009259Y020005D02*
X009259Y020178D01*
X009216Y020299D02*
X009173Y020299D01*
X009129Y020343D01*
X009129Y020429D01*
X009173Y020473D01*
X009216Y020473D01*
X009259Y020429D01*
X009259Y020343D01*
X009216Y020299D01*
X009259Y020343D02*
X009303Y020299D01*
X009346Y020299D01*
X009390Y020343D01*
X009390Y020429D01*
X009346Y020473D01*
X009303Y020473D01*
X009259Y020429D01*
X009173Y020594D02*
X009129Y020637D01*
X009129Y020724D01*
X009173Y020767D01*
X009346Y020594D01*
X009390Y020637D01*
X009390Y020724D01*
X009346Y020767D01*
X009173Y020767D01*
X009173Y020889D02*
X009129Y020932D01*
X009129Y021019D01*
X009173Y021062D01*
X009346Y020889D01*
X009390Y020932D01*
X009390Y021019D01*
X009346Y021062D01*
X009173Y021062D01*
X009173Y021183D02*
X009346Y021183D01*
X009390Y021227D01*
X009390Y021313D01*
X009346Y021357D01*
X009390Y021478D02*
X009303Y021565D01*
X009390Y021651D01*
X009129Y021651D01*
X009129Y021773D02*
X009129Y021903D01*
X009173Y021946D01*
X009259Y021946D01*
X009303Y021903D01*
X009303Y021773D01*
X009303Y021859D02*
X009390Y021946D01*
X009346Y022067D02*
X009390Y022111D01*
X009390Y022197D01*
X009346Y022241D01*
X009259Y022241D01*
X009259Y022154D01*
X009173Y022241D02*
X009129Y022197D01*
X009129Y022111D01*
X009173Y022067D01*
X009346Y022067D01*
X009390Y021773D02*
X009129Y021773D01*
X009129Y021478D02*
X009390Y021478D01*
X009173Y021357D02*
X009129Y021313D01*
X009129Y021227D01*
X009173Y021183D01*
X009173Y020889D02*
X009346Y020889D01*
X009346Y020594D02*
X009173Y020594D01*
X001132Y020565D02*
X000872Y020565D01*
X001132Y020738D01*
X000872Y020738D01*
X000872Y020859D02*
X000872Y020946D01*
X000872Y020903D02*
X001132Y020903D01*
X001132Y020946D02*
X001132Y020859D01*
X001002Y021056D02*
X001002Y021229D01*
X000915Y021350D02*
X000872Y021394D01*
X000872Y021480D01*
X000915Y021524D01*
X000958Y021524D01*
X001132Y021350D01*
X001132Y021524D01*
X001132Y021645D02*
X001089Y021645D01*
X000915Y021818D01*
X000872Y021818D01*
X000872Y021645D01*
X001002Y021940D02*
X001002Y022113D01*
X000915Y022234D02*
X000872Y022278D01*
X000872Y022364D01*
X000915Y022408D01*
X000958Y022408D01*
X001132Y022234D01*
X001132Y022408D01*
X001089Y022529D02*
X001132Y022572D01*
X001132Y022659D01*
X001089Y022702D01*
X001002Y022702D01*
X000958Y022659D01*
X000958Y022616D01*
X001002Y022529D01*
X000872Y022529D01*
X000872Y022702D01*
X000872Y020443D02*
X001089Y020443D01*
X001132Y020400D01*
X001132Y020313D01*
X001089Y020270D01*
X000872Y020270D01*
X001002Y020149D02*
X001002Y019975D01*
X001132Y019866D02*
X001132Y019779D01*
X001132Y019822D02*
X000872Y019822D01*
X000872Y019779D02*
X000872Y019866D01*
X000872Y019658D02*
X001132Y019658D01*
X000872Y019484D01*
X001132Y019484D01*
X001132Y019363D02*
X000872Y019363D01*
X000958Y019276D01*
X000872Y019190D01*
X001132Y019190D01*
X001089Y019068D02*
X000915Y019068D01*
X000872Y019025D01*
X000872Y018938D01*
X000915Y018895D01*
X001089Y018895D01*
X001132Y018938D01*
X001132Y019025D01*
X001089Y019068D01*
X006581Y003782D02*
X006581Y003352D01*
X008201Y003352D01*
X008581Y003732D02*
X008951Y003352D01*
X010581Y003352D01*
X010581Y003782D01*
X010581Y002602D02*
X008951Y002602D01*
X008581Y002232D02*
X008581Y002132D01*
X008201Y002602D02*
X006581Y002602D01*
X006581Y002202D01*
X008581Y003732D02*
X008581Y003832D01*
X010581Y002602D02*
X010581Y002202D01*
X022443Y008955D02*
X022573Y008868D01*
X022368Y010068D02*
X022370Y010124D01*
X022376Y010181D01*
X022386Y010236D01*
X022400Y010291D01*
X022417Y010345D01*
X022439Y010397D01*
X022464Y010447D01*
X022492Y010496D01*
X022524Y010543D01*
X022559Y010587D01*
X022597Y010629D01*
X022638Y010668D01*
X022682Y010703D01*
X022728Y010736D01*
X022776Y010765D01*
X022826Y010791D01*
X022878Y010814D01*
X022932Y010832D01*
X022986Y010847D01*
X023041Y010858D01*
X023097Y010865D01*
X023154Y010868D01*
X023210Y010867D01*
X023267Y010862D01*
X023322Y010853D01*
X023377Y010840D01*
X023431Y010823D01*
X023484Y010803D01*
X023535Y010779D01*
X023584Y010751D01*
X023631Y010720D01*
X023676Y010686D01*
X023719Y010648D01*
X023758Y010608D01*
X023795Y010565D01*
X023828Y010520D01*
X023858Y010472D01*
X023885Y010422D01*
X023908Y010371D01*
X023928Y010318D01*
X023944Y010264D01*
X023956Y010208D01*
X023964Y010153D01*
X023968Y010096D01*
X023968Y010040D01*
X023964Y009983D01*
X023956Y009928D01*
X023944Y009872D01*
X023928Y009818D01*
X023908Y009765D01*
X023885Y009714D01*
X023858Y009664D01*
X023828Y009616D01*
X023795Y009571D01*
X023758Y009528D01*
X023719Y009488D01*
X023676Y009450D01*
X023631Y009416D01*
X023584Y009385D01*
X023535Y009357D01*
X023484Y009333D01*
X023431Y009313D01*
X023377Y009296D01*
X023322Y009283D01*
X023267Y009274D01*
X023210Y009269D01*
X023154Y009268D01*
X023097Y009271D01*
X023041Y009278D01*
X022986Y009289D01*
X022932Y009304D01*
X022878Y009322D01*
X022826Y009345D01*
X022776Y009371D01*
X022728Y009400D01*
X022682Y009433D01*
X022638Y009468D01*
X022597Y009507D01*
X022559Y009549D01*
X022524Y009593D01*
X022492Y009640D01*
X022464Y009689D01*
X022439Y009739D01*
X022417Y009791D01*
X022400Y009845D01*
X022386Y009900D01*
X022376Y009955D01*
X022370Y010012D01*
X022368Y010068D01*
D14*
X011644Y009744D02*
X011144Y009744D01*
X010644Y009744D01*
X010644Y009394D02*
X011144Y009394D01*
X011644Y009394D01*
X008888Y009394D02*
X008388Y009394D01*
X007888Y009394D01*
X007888Y009744D02*
X008388Y009744D01*
X008888Y009744D01*
X011144Y022273D02*
X011144Y025423D01*
X007994Y023848D01*
X011144Y022273D01*
X007488Y026497D02*
X007488Y026997D01*
X007488Y027497D01*
X007138Y027497D02*
X007138Y026997D01*
X007138Y026497D01*
D15*
X009175Y024242D02*
X010750Y023454D01*
X010357Y023454D01*
X010750Y023454D02*
X010357Y023848D01*
X009569Y023454D02*
X009175Y024242D01*
X008782Y023848D02*
X009569Y023454D01*
D16*
X010500Y022201D02*
X010568Y022201D01*
X010568Y021927D01*
X010500Y021927D02*
X010432Y021996D01*
X010432Y022132D01*
X010500Y022201D01*
X010705Y022132D02*
X010705Y021996D01*
X010637Y021927D01*
X010500Y021927D01*
X010432Y021740D02*
X010705Y021604D01*
X010432Y021467D01*
X010432Y021228D02*
X010705Y021228D01*
X010705Y021160D02*
X010705Y021297D01*
X010432Y021228D02*
X010432Y021160D01*
X010295Y021228D02*
X010226Y021228D01*
X010295Y020699D02*
X010705Y020699D01*
X010705Y020973D01*
X010705Y020086D02*
X010637Y020086D01*
X010500Y020086D02*
X010226Y020086D01*
X010432Y019899D02*
X010432Y019694D01*
X010500Y019625D01*
X010568Y019694D01*
X010568Y019830D01*
X010637Y019899D01*
X010705Y019830D01*
X010705Y019625D01*
X010705Y019438D02*
X010432Y019438D01*
X010432Y019165D02*
X010637Y019165D01*
X010705Y019233D01*
X010705Y019438D01*
X010637Y018978D02*
X010500Y018978D01*
X010432Y018910D01*
X010432Y018773D01*
X010500Y018704D01*
X010637Y018704D01*
X010705Y018773D01*
X010705Y018910D01*
X010637Y018978D01*
X010705Y018518D02*
X010295Y018518D01*
X010432Y018518D02*
X010432Y018312D01*
X010500Y018244D01*
X010637Y018244D01*
X010705Y018312D01*
X010705Y018518D01*
X010432Y018066D02*
X010432Y017997D01*
X010568Y017860D01*
X010432Y017860D02*
X010705Y017860D01*
X010705Y017674D02*
X010705Y017468D01*
X010637Y017400D01*
X010568Y017468D01*
X010568Y017674D01*
X010500Y017674D02*
X010705Y017674D01*
X010500Y017674D02*
X010432Y017605D01*
X010432Y017468D01*
X010432Y017213D02*
X010705Y016940D01*
X010705Y017213D01*
X010432Y017213D02*
X010432Y016940D01*
X010500Y016753D02*
X010705Y016753D01*
X010705Y016548D01*
X010637Y016479D01*
X010568Y016548D01*
X010568Y016753D01*
X010500Y016753D02*
X010432Y016684D01*
X010432Y016548D01*
X010500Y016292D02*
X010500Y016019D01*
X010705Y016019D02*
X010295Y016019D01*
X010295Y016292D02*
X010705Y016292D01*
D17*
X034574Y001403D02*
X034574Y001300D01*
X034678Y001197D01*
X034884Y001197D01*
X034988Y001093D01*
X034988Y000990D01*
X034884Y000886D01*
X034678Y000886D01*
X034574Y000990D01*
X034574Y001093D01*
X034678Y001197D01*
X034884Y001197D02*
X034988Y001300D01*
X034988Y001403D01*
X034884Y001507D01*
X034678Y001507D01*
X034574Y001403D01*
X035274Y001507D02*
X035274Y001197D01*
X035481Y001300D01*
X035584Y001300D01*
X035688Y001197D01*
X035688Y000990D01*
X035584Y000886D01*
X035377Y000886D01*
X035274Y000990D01*
X035274Y001507D02*
X035688Y001507D01*
X035974Y001403D02*
X035974Y001300D01*
X036077Y001197D01*
X036284Y001197D01*
X036387Y001093D01*
X036387Y000990D01*
X036284Y000886D01*
X036077Y000886D01*
X035974Y000990D01*
X035974Y001093D01*
X036077Y001197D01*
X036284Y001197D02*
X036387Y001300D01*
X036387Y001403D01*
X036284Y001507D01*
X036077Y001507D01*
X035974Y001403D01*
X036674Y001507D02*
X036674Y000886D01*
X036984Y000886D01*
X037087Y000990D01*
X037087Y001403D01*
X036984Y001507D01*
X036674Y001507D01*
X037373Y001197D02*
X037787Y001197D01*
X038073Y001197D02*
X038487Y001197D01*
X038280Y001403D02*
X038280Y000990D01*
X037580Y000990D02*
X037580Y001403D01*
D18*
X038258Y006675D02*
X036508Y006675D01*
X036508Y012675D01*
X038258Y012675D01*
X038258Y006675D01*
X039008Y006675D01*
X039008Y012675D01*
X038258Y012675D01*
X038258Y013005D02*
X038258Y015005D01*
X039008Y015005D01*
X039008Y013005D01*
X038258Y013005D01*
X036508Y013005D01*
X036508Y015005D01*
X038258Y015005D01*
X038258Y016155D02*
X038258Y018155D01*
X039008Y018155D01*
X039008Y016155D01*
X038258Y016155D01*
X036508Y016155D01*
X036508Y018155D01*
X038258Y018155D01*
X038258Y020076D02*
X036508Y020076D01*
X036508Y024076D01*
X038258Y024076D01*
X038258Y020076D01*
X039008Y020076D01*
X039008Y024076D01*
X038258Y024076D01*
X038258Y025210D02*
X038258Y027210D01*
X039008Y027210D01*
X039008Y025210D01*
X038258Y025210D01*
X036508Y025210D01*
X036508Y027210D01*
X038258Y027210D01*
X015831Y008490D02*
X015461Y008860D01*
X015331Y008990D01*
X014831Y008990D02*
X014711Y008860D01*
X015791Y003502D02*
X016581Y003502D01*
X017171Y003502D01*
X017371Y003502D01*
X017371Y002512D01*
X016581Y002512D01*
X015991Y002512D01*
X015791Y002512D01*
X015791Y003502D01*
X009081Y003232D02*
X008951Y003352D01*
X009081Y002732D02*
X008951Y002602D01*
X008581Y002232D01*
X004342Y001348D02*
X004035Y001041D01*
X004111Y000965D01*
X004265Y000965D01*
X004342Y001041D01*
X004342Y001348D01*
X004265Y001425D01*
X004111Y001425D01*
X004035Y001348D01*
X004035Y001041D01*
X003854Y001041D02*
X003854Y000965D01*
X003777Y000965D01*
X003777Y001041D01*
X003854Y001041D01*
X003568Y000965D02*
X003261Y000965D01*
X003415Y000965D02*
X003415Y001425D01*
X003261Y001272D01*
X002546Y001272D02*
X002469Y001272D01*
X002316Y001118D01*
X002316Y000965D02*
X002316Y001272D01*
X002107Y001195D02*
X002107Y001118D01*
X001800Y001118D01*
X001800Y001041D02*
X001800Y001195D01*
X001877Y001272D01*
X002030Y001272D01*
X002107Y001195D01*
X002030Y000965D02*
X001877Y000965D01*
X001800Y001041D01*
X001591Y001272D02*
X001438Y000965D01*
X001285Y001272D01*
X014561Y015700D02*
X014561Y016490D01*
X014561Y017080D01*
X014561Y017280D01*
X015551Y017280D01*
X015551Y016490D01*
X015551Y015900D01*
X015551Y015700D01*
X014561Y015700D01*
X030429Y001480D02*
X030406Y001443D01*
X030391Y001401D01*
X030386Y001358D01*
X030391Y001314D01*
X030406Y001272D01*
X030429Y001235D01*
X030460Y001204D01*
X030498Y001180D01*
X030539Y001166D01*
X030583Y001161D01*
X030627Y001166D01*
X030668Y001180D01*
X030706Y001204D01*
X030737Y001235D01*
X030760Y001272D01*
X030775Y001314D01*
X030780Y001358D01*
X030775Y001401D01*
X030760Y001443D01*
X030737Y001480D01*
X030706Y001512D01*
X030668Y001535D01*
X030627Y001550D01*
X030583Y001555D01*
X030539Y001550D01*
X030498Y001535D01*
X030460Y001512D01*
X030429Y001480D01*
X030455Y001506D02*
X030711Y001506D01*
X030773Y001408D02*
X030393Y001408D01*
X030393Y001309D02*
X030773Y001309D01*
X030713Y001211D02*
X030453Y001211D01*
D19*
X031026Y000767D02*
X031026Y002736D01*
X033782Y002736D01*
X033782Y000767D01*
X031026Y000767D01*
X027837Y002431D02*
X027837Y003533D01*
X026734Y003533D01*
X026734Y002431D01*
X027837Y002431D01*
X027719Y002667D02*
X027483Y002667D01*
X027485Y002647D01*
X027490Y002627D01*
X027499Y002608D01*
X027511Y002591D01*
X027525Y002577D01*
X027542Y002565D01*
X027561Y002556D01*
X027581Y002551D01*
X027601Y002549D01*
X027621Y002551D01*
X027641Y002556D01*
X027660Y002565D01*
X027677Y002577D01*
X027691Y002591D01*
X027703Y002608D01*
X027712Y002627D01*
X027717Y002647D01*
X027719Y002667D01*
X026301Y009281D02*
X025908Y009478D01*
X026301Y009675D01*
X026301Y009281D01*
X027559Y015226D02*
X027559Y015423D01*
X030949Y015423D01*
X030949Y015226D01*
X027559Y015226D01*
X027559Y015423D02*
X027559Y016722D01*
X030949Y016722D01*
X030949Y015423D01*
X023309Y015029D02*
X023112Y015029D01*
X023112Y016919D01*
X023309Y016919D01*
X023309Y015029D01*
X023112Y015029D02*
X021813Y015029D01*
X021813Y016919D01*
X023112Y016919D01*
X021457Y018890D02*
X021457Y021715D01*
X019729Y021715D01*
X019729Y018890D01*
X021457Y018890D01*
X020593Y019635D02*
X020593Y019970D01*
X020750Y019801D02*
X020435Y019801D01*
X020299Y029822D02*
X026408Y029822D01*
X026408Y033671D01*
X025699Y033671D01*
X025699Y032716D01*
X021008Y032716D01*
X021008Y033671D01*
X020299Y033671D01*
X020299Y029822D01*
X021008Y033671D02*
X025699Y033671D01*
X033657Y033198D02*
X033775Y033316D01*
X033893Y033198D01*
X033893Y032963D01*
X034056Y032963D02*
X034056Y033316D01*
X034233Y033198D02*
X034056Y033080D01*
X034233Y032963D01*
X034389Y032963D02*
X034389Y033198D01*
X034506Y033198D02*
X034565Y033198D01*
X034506Y033198D02*
X034389Y033080D01*
X034721Y033022D02*
X034780Y033080D01*
X034956Y033080D01*
X034956Y033139D02*
X034956Y032963D01*
X034780Y032963D01*
X034721Y033022D01*
X034780Y033198D02*
X034898Y033198D01*
X034956Y033139D01*
X035120Y033198D02*
X035178Y033198D01*
X035237Y033139D01*
X035296Y033198D01*
X035355Y033139D01*
X035355Y032963D01*
X035237Y032963D02*
X035237Y033139D01*
X035120Y033198D02*
X035120Y032963D01*
X035518Y032666D02*
X035577Y032666D01*
X035577Y032313D01*
X035518Y032313D02*
X035636Y032313D01*
X035784Y032372D02*
X035843Y032431D01*
X036020Y032431D01*
X036020Y032490D02*
X036020Y032313D01*
X035843Y032313D01*
X035784Y032372D01*
X035843Y032549D02*
X035961Y032549D01*
X036020Y032490D01*
X036183Y032549D02*
X036360Y032549D01*
X036419Y032490D01*
X036419Y032313D01*
X036582Y032372D02*
X036582Y032490D01*
X036641Y032549D01*
X036817Y032549D01*
X036817Y032666D02*
X036817Y032313D01*
X036641Y032313D01*
X036582Y032372D01*
X036183Y032313D02*
X036183Y032549D01*
X036094Y032963D02*
X035976Y032963D01*
X035917Y033022D01*
X035976Y033139D02*
X036094Y033139D01*
X036153Y033080D01*
X036153Y033022D01*
X036094Y032963D01*
X035976Y033139D02*
X035917Y033198D01*
X035917Y033257D01*
X035976Y033316D01*
X036094Y033316D01*
X036153Y033257D01*
X036316Y033022D02*
X036375Y033022D01*
X036375Y032963D01*
X036316Y032963D01*
X036316Y033022D01*
X036914Y033022D02*
X036973Y032963D01*
X037091Y032963D01*
X037150Y033022D01*
X037150Y033080D01*
X037091Y033139D01*
X036973Y033139D01*
X036914Y033198D01*
X036914Y033257D01*
X036973Y033316D01*
X037091Y033316D01*
X037150Y033257D01*
X037372Y033198D02*
X037489Y033198D01*
X037548Y033139D01*
X037548Y032963D01*
X037372Y032963D01*
X037313Y033022D01*
X037372Y033080D01*
X037548Y033080D01*
X037712Y033022D02*
X037712Y033139D01*
X037770Y033198D01*
X037947Y033198D01*
X037947Y033316D02*
X037947Y032963D01*
X037770Y032963D01*
X037712Y033022D01*
X037645Y032666D02*
X037645Y032372D01*
X037704Y032313D01*
X037822Y032313D01*
X037881Y032372D01*
X037881Y032666D01*
X038044Y032372D02*
X038103Y032372D01*
X038103Y032313D01*
X038044Y032313D01*
X038044Y032372D01*
X038243Y032431D02*
X038479Y032666D01*
X038243Y032666D02*
X038243Y032313D01*
X038302Y032490D02*
X038479Y032313D01*
X038642Y032313D02*
X038701Y032313D01*
X038701Y032372D01*
X038642Y032372D01*
X038642Y032313D01*
X038619Y032017D02*
X038502Y032017D01*
X038443Y031958D01*
X038443Y031899D01*
X038502Y031840D01*
X038619Y031840D01*
X038678Y031781D01*
X038678Y031722D01*
X038619Y031663D01*
X038502Y031663D01*
X038443Y031722D01*
X038443Y031781D01*
X038502Y031840D01*
X038619Y031840D02*
X038678Y031899D01*
X038678Y031958D01*
X038619Y032017D01*
X038162Y032017D02*
X038162Y031663D01*
X038279Y031663D02*
X038044Y031663D01*
X037881Y031722D02*
X037822Y031663D01*
X037704Y031663D01*
X037645Y031722D01*
X037881Y031958D01*
X037881Y031722D01*
X037645Y031722D02*
X037645Y031958D01*
X037704Y032017D01*
X037822Y032017D01*
X037881Y031958D01*
X038044Y031899D02*
X038162Y032017D01*
X037482Y031958D02*
X037423Y032017D01*
X037305Y032017D01*
X037246Y031958D01*
X037482Y031958D02*
X037482Y031899D01*
X037246Y031663D01*
X037482Y031663D01*
X036981Y032195D02*
X037098Y032313D01*
X037039Y032313D01*
X037039Y032372D01*
X037098Y032372D01*
X037098Y032313D01*
X038110Y033022D02*
X038110Y033139D01*
X038169Y033198D01*
X038287Y033198D01*
X038346Y033139D01*
X038346Y033080D01*
X038110Y033080D01*
X038110Y033022D02*
X038169Y032963D01*
X038287Y032963D01*
X038509Y032963D02*
X038509Y033316D01*
X038686Y033198D02*
X038509Y033080D01*
X038686Y032963D01*
X035355Y032549D02*
X035178Y032549D01*
X035120Y032490D01*
X035120Y032372D01*
X035178Y032313D01*
X035355Y032313D01*
X035355Y032254D02*
X035355Y032549D01*
X035355Y032254D02*
X035296Y032195D01*
X035237Y032195D01*
X034956Y032313D02*
X034956Y032490D01*
X034898Y032549D01*
X034721Y032549D01*
X034721Y032313D01*
X034558Y032313D02*
X034322Y032313D01*
X034322Y032666D01*
X034558Y032666D01*
X034440Y032490D02*
X034322Y032490D01*
X033893Y033139D02*
X033657Y033139D01*
X033657Y033198D02*
X033657Y032963D01*
X012644Y033671D02*
X012644Y029822D01*
X009654Y029822D01*
X009654Y033671D01*
X010362Y033671D01*
X010362Y032716D01*
X011935Y032716D01*
X011935Y033671D01*
X010362Y033671D01*
X011935Y033671D02*
X012644Y033671D01*
X008707Y033671D02*
X008707Y029822D01*
X005717Y029822D01*
X005717Y033671D01*
X006425Y033671D01*
X006425Y032716D01*
X007998Y032716D01*
X007998Y033671D01*
X006425Y033671D01*
X007998Y033671D02*
X008707Y033671D01*
X003988Y014324D02*
X000140Y014324D01*
X000140Y013616D01*
X001095Y013616D01*
X001095Y012043D01*
X000140Y012043D01*
X000140Y011334D01*
X003988Y011334D01*
X003988Y014324D01*
X000140Y013616D02*
X000140Y012043D01*
X000140Y010387D02*
X003988Y010387D01*
X003988Y007397D01*
X000140Y007397D01*
X000140Y008106D01*
X001095Y008106D01*
X001095Y009679D01*
X000140Y009679D01*
X000140Y008106D01*
X000140Y009679D02*
X000140Y010387D01*
D20*
X005331Y009724D02*
X005331Y012474D01*
X005481Y010724D02*
X005481Y009724D01*
X005881Y009724D02*
X005881Y008724D01*
X006031Y009724D02*
X006031Y006974D01*
X033766Y021643D02*
X035766Y021643D01*
D21*
X027202Y012614D02*
X027202Y011854D01*
X026582Y011854D02*
X026582Y012614D01*
X032024Y009197D02*
X032784Y009197D01*
X032784Y008577D02*
X032024Y008577D01*
X032522Y007549D02*
X033467Y007549D01*
X033467Y006289D01*
X032522Y006289D01*
X032522Y007549D01*
X027666Y005260D02*
X026906Y005260D01*
X026906Y004640D02*
X027666Y004640D01*
X024872Y019199D02*
X024805Y019199D01*
X024772Y019232D01*
X024772Y019299D02*
X024838Y019332D01*
X024872Y019332D01*
X024905Y019299D01*
X024905Y019232D01*
X024872Y019199D01*
X024772Y019299D02*
X024772Y019399D01*
X024905Y019399D01*
X024684Y019299D02*
X024551Y019299D01*
X024463Y019265D02*
X024430Y019299D01*
X024330Y019299D01*
X024330Y019232D01*
X024363Y019199D01*
X024430Y019199D01*
X024463Y019232D01*
X024463Y019265D01*
X024396Y019366D02*
X024330Y019299D01*
X024396Y019366D02*
X024463Y019399D01*
X024242Y019366D02*
X024209Y019399D01*
X024142Y019399D01*
X024109Y019366D01*
X024109Y019332D01*
X024142Y019299D01*
X024209Y019299D01*
X024242Y019265D01*
X024242Y019232D01*
X024209Y019199D01*
X024142Y019199D01*
X024109Y019232D01*
X024021Y019199D02*
X023888Y019199D01*
X023888Y019399D01*
X024021Y019399D01*
X023954Y019299D02*
X023888Y019299D01*
X023800Y019332D02*
X023767Y019299D01*
X023800Y019265D01*
X023800Y019232D01*
X023767Y019199D01*
X023700Y019199D01*
X023667Y019232D01*
X023579Y019232D02*
X023546Y019199D01*
X023479Y019199D01*
X023446Y019232D01*
X023446Y019265D01*
X023479Y019299D01*
X023546Y019299D01*
X023579Y019265D01*
X023579Y019232D01*
X023546Y019299D02*
X023579Y019332D01*
X023579Y019366D01*
X023546Y019399D01*
X023479Y019399D01*
X023446Y019366D01*
X023446Y019332D01*
X023479Y019299D01*
X023358Y019299D02*
X023258Y019299D01*
X023225Y019332D01*
X023225Y019366D01*
X023258Y019399D01*
X023325Y019399D01*
X023358Y019366D01*
X023358Y019232D01*
X023325Y019199D01*
X023258Y019199D01*
X023225Y019232D01*
X023137Y019199D02*
X023004Y019199D01*
X023070Y019199D02*
X023070Y019399D01*
X023004Y019332D01*
X022916Y019366D02*
X022883Y019399D01*
X022816Y019399D01*
X022783Y019366D01*
X022783Y019232D01*
X022816Y019199D01*
X022883Y019199D01*
X022916Y019232D01*
X022695Y019399D02*
X022562Y019399D01*
X022629Y019399D02*
X022629Y019199D01*
X022474Y019199D02*
X022341Y019199D01*
X022341Y019399D01*
X023667Y019366D02*
X023700Y019399D01*
X023767Y019399D01*
X023800Y019366D01*
X023800Y019332D01*
X023767Y019299D02*
X023733Y019299D01*
X023664Y020068D02*
X023664Y021328D01*
X024609Y021328D01*
X024609Y020068D01*
X023664Y020068D01*
X006993Y015224D02*
X006888Y015224D01*
X006888Y015067D01*
X006993Y015067D01*
X006941Y015145D02*
X006888Y015145D01*
X006812Y015119D02*
X006812Y015093D01*
X006786Y015067D01*
X006707Y015067D01*
X006707Y015224D01*
X006786Y015224D01*
X006812Y015197D01*
X006812Y015171D01*
X006786Y015145D01*
X006707Y015145D01*
X006631Y015145D02*
X006526Y015145D01*
X006526Y015067D02*
X006526Y015224D01*
X006631Y015224D02*
X006631Y015067D01*
X006786Y015145D02*
X006812Y015119D01*
X006449Y015067D02*
X006345Y015067D01*
X006397Y015067D02*
X006397Y015224D01*
X006345Y015171D01*
X006268Y015145D02*
X006163Y015145D01*
X006242Y015224D01*
X006242Y015067D01*
X006087Y015067D02*
X005982Y015067D01*
X006034Y015067D02*
X006034Y015224D01*
X005982Y015171D01*
X005905Y015145D02*
X005801Y015145D01*
X005801Y015067D02*
X005801Y015224D01*
X005724Y015224D02*
X005724Y015197D01*
X005620Y015093D01*
X005620Y015067D01*
X005543Y015093D02*
X005517Y015067D01*
X005464Y015067D01*
X005438Y015093D01*
X005543Y015197D01*
X005543Y015093D01*
X005543Y015197D02*
X005517Y015224D01*
X005464Y015224D01*
X005438Y015197D01*
X005438Y015093D01*
X005362Y015067D02*
X005257Y015067D01*
X005257Y015224D01*
X005180Y015197D02*
X005154Y015224D01*
X005102Y015224D01*
X005076Y015197D01*
X005076Y015093D01*
X005102Y015067D01*
X005154Y015067D01*
X005180Y015093D01*
X004999Y015093D02*
X004973Y015067D01*
X004921Y015067D01*
X004895Y015093D01*
X004895Y015197D01*
X004921Y015224D01*
X004973Y015224D01*
X004999Y015197D01*
X004818Y015224D02*
X004713Y015224D01*
X004766Y015224D02*
X004766Y015067D01*
X004637Y015145D02*
X004611Y015119D01*
X004532Y015119D01*
X004532Y015067D02*
X004532Y015224D01*
X004611Y015224D01*
X004637Y015197D01*
X004637Y015145D01*
X005620Y015224D02*
X005724Y015224D01*
X005905Y015224D02*
X005905Y015067D01*
X006751Y010397D02*
X006751Y010263D01*
X006651Y010363D01*
X006851Y010363D01*
X006818Y010176D02*
X006651Y010176D01*
X006651Y010042D02*
X006818Y010042D01*
X006851Y010076D01*
X006851Y010142D01*
X006818Y010176D01*
X006685Y009955D02*
X006651Y009955D01*
X006685Y009955D02*
X006751Y009888D01*
X006851Y009888D01*
X006751Y009888D02*
X006685Y009821D01*
X006651Y009821D01*
X006651Y009734D02*
X006685Y009734D01*
X006818Y009600D01*
X006851Y009600D01*
X006818Y009513D02*
X006851Y009480D01*
X006851Y009413D01*
X006818Y009379D01*
X006785Y009379D01*
X006751Y009413D01*
X006751Y009480D01*
X006785Y009513D01*
X006818Y009513D01*
X006751Y009480D02*
X006718Y009513D01*
X006685Y009513D01*
X006651Y009480D01*
X006651Y009413D01*
X006685Y009379D01*
X006718Y009379D01*
X006751Y009413D01*
X006651Y009292D02*
X006785Y009158D01*
X006751Y009192D02*
X006851Y009292D01*
X006851Y009158D02*
X006651Y009158D01*
X006651Y009004D02*
X006851Y009004D01*
X006851Y008937D02*
X006851Y009071D01*
X006718Y008937D02*
X006651Y009004D01*
X006685Y008850D02*
X006651Y008817D01*
X006651Y008750D01*
X006685Y008716D01*
X006751Y008783D02*
X006751Y008817D01*
X006785Y008850D01*
X006818Y008850D01*
X006851Y008817D01*
X006851Y008750D01*
X006818Y008716D01*
X006751Y008629D02*
X006751Y008495D01*
X006651Y008596D01*
X006851Y008596D01*
X006851Y008408D02*
X006651Y008408D01*
X006651Y008274D02*
X006851Y008408D01*
X006851Y008274D02*
X006651Y008274D01*
X006651Y008154D02*
X006751Y008053D01*
X006751Y008187D01*
X006851Y008154D02*
X006651Y008154D01*
X006651Y007899D02*
X006851Y007899D01*
X006851Y007833D02*
X006851Y007966D01*
X006718Y007833D02*
X006651Y007899D01*
X006685Y007745D02*
X006651Y007712D01*
X006651Y007612D01*
X006851Y007612D01*
X006785Y007612D02*
X006785Y007712D01*
X006751Y007745D01*
X006685Y007745D01*
X006785Y007678D02*
X006851Y007745D01*
X006785Y007524D02*
X006651Y007524D01*
X006651Y007391D02*
X006785Y007391D01*
X006851Y007457D01*
X006785Y007524D01*
X006818Y007270D02*
X006651Y007270D01*
X006651Y007303D02*
X006651Y007236D01*
X006818Y007270D02*
X006851Y007236D01*
X006851Y007203D01*
X006818Y007170D01*
X006751Y008817D02*
X006718Y008850D01*
X006685Y008850D01*
X006651Y009600D02*
X006651Y009734D01*
D22*
X008388Y012819D03*
X011144Y012819D03*
D23*
X009808Y028966D03*
X006968Y028966D03*
D24*
X014787Y025931D03*
X008667Y018731D03*
D25*
X007357Y020501D03*
D26*
X007607Y018776D03*
X007607Y022226D03*
D27*
X007607Y021001D03*
X007607Y020001D03*
D28*
X011144Y015580D02*
X011144Y025423D01*
X000514Y025423D01*
X000514Y015580D01*
X011144Y015580D01*
X006128Y014059D02*
X005991Y014059D01*
X005991Y013956D01*
X006059Y013991D01*
X006094Y013991D01*
X006128Y013956D01*
X006128Y013887D01*
X006094Y013853D01*
X006025Y013853D01*
X005991Y013887D01*
X005892Y013956D02*
X005755Y013956D01*
X005858Y014059D01*
X005858Y013853D01*
X005657Y013853D02*
X005588Y013922D01*
X005622Y013922D02*
X005519Y013922D01*
X005519Y013853D02*
X005519Y014059D01*
X005622Y014059D01*
X005657Y014025D01*
X005657Y013956D01*
X005622Y013922D01*
X018230Y006525D02*
X018230Y000125D01*
X024630Y000125D01*
X024630Y006525D01*
X018230Y006525D01*
X019435Y006975D02*
X019485Y008125D01*
X019585Y008225D01*
X023285Y008225D01*
X023385Y008125D01*
X023435Y006975D01*
X023105Y007985D02*
X023107Y008005D01*
X023113Y008023D01*
X023122Y008041D01*
X023134Y008056D01*
X023149Y008068D01*
X023167Y008077D01*
X023185Y008083D01*
X023205Y008085D01*
X023225Y008083D01*
X023243Y008077D01*
X023261Y008068D01*
X023276Y008056D01*
X023288Y008041D01*
X023297Y008023D01*
X023303Y008005D01*
X023305Y007985D01*
X023303Y007965D01*
X023297Y007947D01*
X023288Y007929D01*
X023276Y007914D01*
X023261Y007902D01*
X023243Y007893D01*
X023225Y007887D01*
X023205Y007885D01*
X023185Y007887D01*
X023167Y007893D01*
X023149Y007902D01*
X023134Y007914D01*
X023122Y007929D01*
X023113Y007947D01*
X023107Y007965D01*
X023105Y007985D01*
X022749Y015226D02*
X022751Y015244D01*
X022757Y015262D01*
X022766Y015278D01*
X022778Y015291D01*
X022793Y015302D01*
X022810Y015310D01*
X022828Y015314D01*
X022846Y015314D01*
X022864Y015310D01*
X022881Y015302D01*
X022896Y015291D01*
X022908Y015278D01*
X022917Y015262D01*
X022923Y015244D01*
X022925Y015226D01*
X022923Y015208D01*
X022917Y015190D01*
X022908Y015174D01*
X022896Y015161D01*
X022881Y015150D01*
X022864Y015142D01*
X022846Y015138D01*
X022828Y015138D01*
X022810Y015142D01*
X022793Y015150D01*
X022778Y015161D01*
X022766Y015174D01*
X022757Y015190D01*
X022751Y015208D01*
X022749Y015226D01*
X027679Y015619D02*
X027681Y015637D01*
X027687Y015653D01*
X027696Y015668D01*
X027709Y015681D01*
X027724Y015690D01*
X027740Y015696D01*
X027758Y015698D01*
X027776Y015696D01*
X027792Y015690D01*
X027807Y015681D01*
X027820Y015668D01*
X027829Y015653D01*
X027835Y015637D01*
X027837Y015619D01*
X027835Y015601D01*
X027829Y015585D01*
X027820Y015570D01*
X027807Y015557D01*
X027792Y015548D01*
X027776Y015542D01*
X027758Y015540D01*
X027740Y015542D01*
X027724Y015548D01*
X027709Y015557D01*
X027696Y015570D01*
X027687Y015585D01*
X027681Y015601D01*
X027679Y015619D01*
X023586Y019698D02*
X023586Y019823D01*
X023586Y019948D01*
X023586Y019823D02*
X023461Y019823D01*
X023586Y019823D02*
X023711Y019823D01*
X023132Y019958D02*
X023132Y020651D01*
X021990Y020651D02*
X021990Y019958D01*
X028210Y025791D02*
X028310Y025691D01*
X032010Y025691D01*
X032110Y025791D01*
X032160Y026941D01*
X033349Y027391D02*
X033349Y033791D01*
X026949Y033791D01*
X026949Y027391D01*
X033349Y027391D01*
X028290Y025931D02*
X028292Y025951D01*
X028298Y025969D01*
X028307Y025987D01*
X028319Y026002D01*
X028334Y026014D01*
X028352Y026023D01*
X028370Y026029D01*
X028390Y026031D01*
X028410Y026029D01*
X028428Y026023D01*
X028446Y026014D01*
X028461Y026002D01*
X028473Y025987D01*
X028482Y025969D01*
X028488Y025951D01*
X028490Y025931D01*
X028488Y025911D01*
X028482Y025893D01*
X028473Y025875D01*
X028461Y025860D01*
X028446Y025848D01*
X028428Y025839D01*
X028410Y025833D01*
X028390Y025831D01*
X028370Y025833D01*
X028352Y025839D01*
X028334Y025848D01*
X028319Y025860D01*
X028307Y025875D01*
X028298Y025893D01*
X028292Y025911D01*
X028290Y025931D01*
X028210Y025791D02*
X028160Y026941D01*
X019806Y027391D02*
X019806Y033791D01*
X013406Y033791D01*
X013406Y027391D01*
X019806Y027391D01*
X033544Y007919D02*
X033544Y007794D01*
X033544Y007669D01*
X033544Y007794D02*
X033669Y007794D01*
X033544Y007794D02*
X033419Y007794D01*
D29*
X021435Y006675D03*
X030160Y027241D03*
D30*
X028435Y026991D03*
X031885Y026991D03*
X023160Y006925D03*
X019710Y006925D03*
D31*
X020935Y006925D03*
X021935Y006925D03*
X029660Y026991D03*
X030660Y026991D03*
D32*
X018332Y027141D03*
X014882Y027141D03*
D33*
X015607Y027241D03*
X016607Y027241D03*
X017607Y027241D03*
D34*
X017107Y027141D03*
X016107Y027141D03*
D35*
X022129Y019320D02*
X022131Y019332D01*
X022136Y019343D01*
X022145Y019352D01*
X022156Y019357D01*
X022168Y019359D01*
X022180Y019357D01*
X022191Y019352D01*
X022200Y019343D01*
X022205Y019332D01*
X022207Y019320D01*
X022205Y019308D01*
X022200Y019297D01*
X022191Y019288D01*
X022180Y019283D01*
X022168Y019281D01*
X022156Y019283D01*
X022145Y019288D01*
X022136Y019297D01*
X022131Y019308D01*
X022129Y019320D01*
D36*
X016431Y022273D03*
X030267Y022273D03*
D37*
X034371Y025840D03*
X034371Y026580D03*
X035161Y026210D03*
D38*
X013851Y025279D03*
X013851Y024779D03*
X029451Y003232D03*
X029451Y002732D03*
D39*
X013756Y026604D03*
X013256Y026604D03*
D40*
X030353Y013220D03*
X030673Y013220D03*
X034851Y009677D03*
X035171Y009677D03*
X037953Y015578D03*
X038273Y015578D03*
X038273Y018826D03*
X037953Y018826D03*
X037953Y019417D03*
X038273Y019417D03*
X037287Y019421D03*
X036967Y019421D03*
X037953Y024633D03*
X038273Y024633D03*
X020358Y010070D03*
X020038Y010070D03*
X018980Y010070D03*
X018660Y010070D03*
X020038Y009086D03*
X020358Y009086D03*
D41*
X026763Y004950D03*
X027808Y004951D03*
X031881Y008887D03*
X032926Y008888D03*
D42*
X026892Y011711D03*
X026892Y012756D03*
D43*
X026939Y013844D03*
X026939Y014164D03*
X025709Y015321D03*
X025709Y015641D03*
X030237Y012196D03*
X030237Y011876D03*
X031717Y010180D03*
X031717Y009860D03*
X030043Y008261D03*
X030043Y007941D03*
X031618Y007473D03*
X031618Y007153D03*
X019758Y015323D03*
X019758Y015643D03*
X019758Y016455D03*
X019758Y016775D03*
X033292Y021425D03*
X033292Y021745D03*
D44*
X025806Y009478D03*
D45*
X022418Y010068D03*
X022418Y012037D03*
D46*
X021557Y015224D03*
X021557Y015724D03*
X021557Y016224D03*
X021557Y016724D03*
X023565Y016724D03*
X023565Y016224D03*
X023565Y015724D03*
X023565Y015224D03*
D47*
X024136Y020034D03*
X024136Y021363D03*
X032994Y007583D03*
X032994Y006254D03*
D48*
X032994Y007352D03*
X024136Y020265D03*
D49*
X032994Y010455D03*
X032994Y009875D03*
D50*
X034426Y013809D02*
X034426Y013929D01*
X034176Y013929D01*
X034176Y014119D01*
X034426Y014119D01*
X034426Y013929D01*
X034426Y013809D02*
X034646Y013809D01*
X034886Y013809D02*
X035106Y013809D01*
X035106Y013929D01*
X035356Y013929D01*
X035356Y014119D01*
X035106Y014119D01*
X035106Y014299D01*
X035356Y014299D01*
X035356Y014499D01*
X035106Y014499D01*
X035106Y014679D01*
X035356Y014679D01*
X035356Y014869D01*
X035106Y014869D01*
X035106Y014679D01*
X035106Y014499D02*
X035106Y014299D01*
X035106Y014119D02*
X035106Y013929D01*
X034426Y014119D02*
X034426Y014299D01*
X034176Y014299D01*
X034176Y014499D01*
X034426Y014499D01*
X034426Y014299D01*
X034426Y014499D02*
X034426Y014679D01*
X034176Y014679D01*
X034176Y014869D01*
X034426Y014869D01*
X034426Y014679D01*
X034426Y014869D02*
X034426Y014989D01*
X035106Y014989D01*
X035106Y014869D01*
X035106Y016565D02*
X034886Y016565D01*
X035106Y016565D02*
X035106Y016685D01*
X035356Y016685D01*
X035356Y016875D01*
X035106Y016875D01*
X035106Y017055D01*
X035356Y017055D01*
X035356Y017255D01*
X035106Y017255D01*
X035106Y017435D01*
X035356Y017435D01*
X035356Y017625D01*
X035106Y017625D01*
X035106Y017435D01*
X035106Y017255D02*
X035106Y017055D01*
X035106Y016875D02*
X035106Y016685D01*
X034646Y016565D02*
X034426Y016565D01*
X034426Y016685D01*
X034176Y016685D01*
X034176Y016875D01*
X034426Y016875D01*
X034426Y016685D01*
X034426Y016875D02*
X034426Y017055D01*
X034176Y017055D01*
X034176Y017255D01*
X034426Y017255D01*
X034426Y017055D01*
X034426Y017255D02*
X034426Y017435D01*
X034176Y017435D01*
X034176Y017625D01*
X034426Y017625D01*
X034426Y017435D01*
X034426Y017625D02*
X034426Y017745D01*
X035106Y017745D01*
X035106Y017625D01*
D51*
X030754Y016978D03*
X030254Y016978D03*
X029754Y016978D03*
X029254Y016978D03*
X028754Y016978D03*
X028254Y016978D03*
X027754Y016978D03*
X027754Y014970D03*
X028254Y014970D03*
X028754Y014970D03*
X029254Y014970D03*
X029754Y014970D03*
X030254Y014970D03*
X030754Y014970D03*
D52*
X035516Y023269D03*
D53*
X034016Y021277D03*
D54*
X034516Y021278D03*
D55*
X035016Y021278D03*
D56*
X035516Y021278D03*
D57*
X035016Y023268D03*
D58*
X034516Y023268D03*
D59*
X034015Y023269D03*
M02*
